<?xml version="1.0" encoding="UTF-8" standalone="no"?>
<!-- Created with Inkscape (http://www.inkscape.org/) -->

<svg
   id="svg1"
   width="67.707mm"
   height="85.083mm"
   version="1.1"
   viewBox="0 0 67.707 85.083"
   xml:space="preserve"
   sodipodi:docname="earthcal-logo-full.svg"
   inkscape:version="1.4.3 (fcd0343856, 2026-01-01)"
   xmlns:inkscape="http://www.inkscape.org/namespaces/inkscape"
   xmlns:sodipodi="http://sodipodi.sourceforge.net/DTD/sodipodi-0.dtd"
   xmlns="http://www.w3.org/2000/svg"
   xmlns:svg="http://www.w3.org/2000/svg"><sodipodi:namedview
     id="namedview1"
     pagecolor="#ffffff"
     bordercolor="#000000"
     borderopacity="0.25"
     inkscape:showpageshadow="2"
     inkscape:pageopacity="0.0"
     inkscape:pagecheckerboard="0"
     inkscape:deskcolor="#d1d1d1"
     inkscape:document-units="mm"
     inkscape:zoom="1.5268669"
     inkscape:cx="127.71251"
     inkscape:cy="160.78677"
     inkscape:window-width="1366"
     inkscape:window-height="699"
     inkscape:window-x="0"
     inkscape:window-y="0"
     inkscape:window-maximized="1"
     inkscape:current-layer="svg1" /><defs
     id="defs1"><clipPath
       id="clipPath1"><path
         id="path1"
         d="m0.26065-89.508a90.493 90.493 0 0 0-90.493 90.491 90.493 90.493 0 0 0 90.493 90.493 90.493 90.493 0 0 0 90.493-90.493 90.493 90.493 0 0 0-90.493-90.491zm-1.839 38.279a52.214 52.214 0 0 1 52.214 52.212 52.214 52.214 0 0 1-52.214 52.214 52.214 52.214 0 0 1-52.214-52.214 52.214 52.214 0 0 1 52.214-52.212z"
         fill="#00ffff"
         stroke-width="0" /></clipPath><filter
       id="filter112"
       x="-0.055471082"
       y="-0.055471082"
       width="1.1109422"
       height="1.1109422"
       style="color-interpolation-filters:sRGB"><feGaussianBlur
         id="feGaussianBlur112"
         result="blur"
         stdDeviation="1.92064 1.92064" /></filter></defs><g
     id="g27"
     transform="matrix(0.32892,0,0,0.3278,34.082,33.079715)"
     clip-path="url(#clipPath1)"
     stroke-width="0.92194"><path
       id="path16"
       d="m 43.78,-77.057 a 91.197,91.197 0 0 1 33.353,33.408 L -1.884,1.882 Z"
       fill="#4343ff"
       stroke-width="0.9342" /><path
       id="path17"
       d="m -0.77143,-89.153 a 90,90 0 0 1 44.989,12.095 l -45.065,77.904 z"
       fill="#0cacf5" /><path
       id="path18"
       transform="translate(1.1223e-6)"
       d="m -45.782,-77.133 a 90,90 0 0 1 45.225,-12.02 l -0.29047,90 z"
       fill="#00e6a7" /><path
       id="path19"
       transform="translate(1.1223e-6)"
       d="m -78.752,-44.219 a 90,90 0 0 1 32.97,-32.915 l 44.934,77.98 z"
       fill="#00e513" /><path
       id="path20"
       transform="translate(1.1223e-6)"
       d="m -90.848,0.77143 a 90,90 0 0 1 12.095,-44.989 l 77.904,45.065 z"
       fill="#beee00" /><path
       id="path21"
       transform="translate(1.1223e-6)"
       d="m -78.827,45.782 a 90,90 0 0 1 -12.02,-45.01 l 90,0.075889 z"
       fill="#fbfb00" /><path
       id="path22"
       transform="translate(1.1223e-6)"
       d="M -45.914,78.752 A 90,90 0 0 1 -78.829,45.782 L -0.849,0.848 Z"
       fill="#ffd119" /><path
       id="path23"
       transform="translate(1.1223e-6)"
       d="m -0.92271,90.847 a 90,90 0 0 1 -44.989,-12.095 l 45.065,-77.904 z"
       fill="#ff8201" /><path
       id="path24"
       transform="translate(1.1223e-6)"
       d="m 44.087,78.827 a 90,90 0 0 1 -45.01,12.02 l 0.075889,-90 z"
       fill="#ff6303" /><path
       id="path25"
       transform="translate(1.1223e-6)"
       d="M 77.057,45.913 A 90,90 0 0 1 44.087,78.828 L -0.847,0.848 Z"
       fill="#fb0000" /><path
       id="path26"
       transform="translate(1.1223e-6)"
       d="m 89.152,0.92271 a 90,90 0 0 1 -12.095,44.989 L -0.847,0.84671 Z"
       fill="#ff11ce" /><path
       id="path27"
       transform="translate(1.1223e-6)"
       d="m 77.309,-43.817 c 7.8877,13.688 11.857,28.941 11.844,44.74 l -90,-0.075889 z"
       fill="#7f2aff" /><path
       id="path40"
       d="m 234.12,-82.566 a 91.197,91.197 0 0 1 33.353,33.408 l -79.017,45.531 z"
       fill="#4343ff"
       stroke-width="0.9342" /><path
       id="path41"
       d="m 189.57,-94.662 a 90,90 0 0 1 44.989,12.095 l -45.065,77.904 z"
       fill="#0cacf5" /><path
       id="path42"
       d="m 144.56,-82.642 a 90,90 0 0 1 45.225,-12.02 l -0.29047,90 z"
       fill="#00e6a7" /><path
       id="path43"
       d="m 111.59,-49.728 a 90,90 0 0 1 32.97,-32.915 l 44.934,77.98 z"
       fill="#00e513" /><path
       id="path44"
       d="m 99.494,-4.738 a 90,90 0 0 1 12.095,-44.989 l 77.904,45.065 z"
       fill="#beee00" /><path
       id="path45"
       d="M 111.52,40.273 A 90,90 0 0 1 99.5,-4.737 l 90,0.075889 z"
       fill="#fbfb00" /><path
       id="path46"
       d="m 144.43,73.243 a 90,90 0 0 1 -32.915,-32.97 l 77.98,-44.934 z"
       fill="#ffd119" /><path
       id="path47"
       d="M 189.42,85.338 A 90,90 0 0 1 144.431,73.243 l 45.065,-77.904 z"
       fill="#ff8201" /><path
       id="path48"
       d="m 234.43,73.318 a 90,90 0 0 1 -45.01,12.02 l 0.0759,-90 z"
       fill="#ff6303" /><path
       id="path49"
       d="M 267.4,40.404 A 90,90 0 0 1 234.43,73.319 L 189.496,-4.661 Z"
       fill="#fb0000" /><path
       id="path50"
       d="m 279.49,-4.5868 a 90,90 0 0 1 -12.095,44.989 l -77.904,-45.065 z"
       fill="#ff11ce" /><path
       id="path51"
       d="m 267.65,-49.326 c 7.8877,13.688 11.857,28.941 11.844,44.74 l -90,-0.075889 z"
       fill="#7f2aff" /></g><g
     id="text1"
     transform="matrix(0,-1.4905698,1.4905698,0,-17.298998,-36.9993)"
     style="fill:#808080;stroke-width:0.375;stroke-linecap:square"
     aria-label="EarthCal"><path
       id="path3"
       d="m -79.787,12.284 h 8.54 v 5.3975 h -0.81562 v -4.4259 h -2.9746 v 4.186 h -0.82761 v -4.186 h -3.1066 v 4.4259 h -0.81562 z m -0.08396,8.7847 q 0,-0.80362 0.37183,-1.4153 0.38382,-0.59972 1.0795,-0.93556 0.70767,-0.32385 1.6552,-0.32385 0.94756,0 1.6552,0.33584 0.70764,0.33584 1.1035,0.93556 0.39582,0.61172 0.39582,1.4033 0,0.82761 -0.40781,1.4033 -0.40781,0.57573 -1.1635,0.77964 l -0.09596,-0.14393 h 1.5233 v 0.95955 h -6.0332 V 23.1077 h 1.5593 l -0.07197,0.14393 q -0.75565,-0.2039 -1.1635,-0.77964 -0.40781,-0.57573 -0.40781,-1.4033 z m 0.80362,0.19191 q 0,0.88759 0.59972,1.3674 0.61171,0.47978 1.7272,0.47978 1.1155,0 1.7152,-0.49177 0.59972,-0.47978 0.59972,-1.3554 0,-0.88758 -0.62371,-1.3914 -0.61171,-0.49177 -1.7152,-0.49177 -1.10349,0 -1.7032,0.49177 -0.59972,0.50376 -0.59972,1.3914 z m -0.71966,4.2268 h 4.342 q 0.4198,0 0.83961,-0.02399 0.4318,-0.01199 0.8516,-0.07197 v 0.92357 l -1.4873,0.13194 0.03598,-0.13194 q 0.79163,0.16792 1.1874,0.71966 0.40781,0.56374 0.40781,1.2594 0,0.15593 -0.02399,0.28787 -0.01199,0.14393 -0.04798,0.26388 l -0.88759,-0.02399 q 0.09596,-0.27587 0.09596,-0.6357 0,-0.62371 -0.27587,-1.0075 -0.27587,-0.37183 -0.70767,-0.55174 -0.4198,-0.16792 -0.88758,-0.16792 h -3.4424 z m 5.2655,3.5071 h 0.76764 v 3.8742 h -0.76764 z m -4.4019,3.8502 h -0.82761 q -0.05997,-0.2039 -0.08396,-0.40781 -0.03598,-0.19191 -0.03598,-0.4318 0,-0.83961 0.47978,-1.3434 0.47978,-0.49177 1.4393,-0.49177 h 5.7453 l 0.34784,0.97155 h -5.9612 q -0.47978,0 -0.74365,0.13194 -0.26388,0.14393 -0.37183,0.38382 -0.09596,0.23989 -0.09596,0.53975 0,0.17992 0.02399,0.32385 0.02399,0.14393 0.08396,0.32385 z m -0.8636,0.7364 h 8.8279 v 0.97155 h -4.0181 l -0.11994,-0.15593 q 0.73166,0.25188 1.1035,0.83961 0.38382,0.58773 0.38382,1.3554 0,2.171 -2.3869,2.171 h -3.7902 v -0.97155 h 3.7423 q 0.83961,0 1.2234,-0.33584 0.39582,-0.33584 0.39582,-1.0555 0,-0.83961 -0.51576,-1.3434 -0.51576,-0.50376 -1.3914,-0.50376 h -3.4544 z"
       style="stroke-width:0.375" /><path
       id="path4"
       d="m -79.883,43.997 q 0,-1.2714 0.52775,-2.207 0.53975,-0.93556 1.5233,-1.4393 0.98354,-0.49177 2.3269,-0.49177 1.3314,0 2.3029,0.49177 0.98354,0.50376 1.5113,1.4393 0.53975,0.93556 0.53975,2.207 0,0.8636 -0.26388,1.6192 -0.25188,0.76764 -0.74365,1.2714 l -1.1275,-0.50376 q 0.46778,-0.58773 0.67169,-1.1515 0.2159,-0.56374 0.2159,-1.2114 0,-1.2354 -0.80362,-1.9191 -0.79163,-0.67169 -2.3029,-0.67169 -1.5113,0 -2.3269,0.67169 -0.80362,0.68368 -0.80362,1.9191 0,0.6477 0.2039,1.2114 0.2159,0.56374 0.68368,1.1515 l -1.1275,0.50376 q -0.49177,-0.50376 -0.75565,-1.2714 -0.25188,-0.75565 -0.25188,-1.6192 z m 0.01199,5.9899 q 0,-0.79163 0.37183,-1.4033 0.38382,-0.61171 1.0795,-0.94756 0.70767,-0.32385 1.6552,-0.32385 0.95955,0 1.6672,0.33584 0.71966,0.33584 1.1155,0.93556 0.40781,0.61172 0.40781,1.4033 0,0.76764 -0.38382,1.3314 -0.37183,0.57573 -1.0435,0.77964 L -75.08525,51.954 h 1.3554 v 1.4753 h -6.0572 V 51.954 h 1.3674 l -0.04798,0.14393 q -0.67169,-0.2039 -1.0435,-0.77964 -0.35983,-0.56374 -0.35983,-1.3314 z m 1.1515,0.40781 q 0,0.74365 0.51576,1.1515 0.51576,0.40781 1.4633,0.40781 0.97155,0 1.4753,-0.40781 0.51576,-0.40781 0.51576,-1.1515 0,-0.75565 -0.52775,-1.1755 -0.52775,-0.4198 -1.4873,-0.4198 -0.93556,0 -1.4513,0.4198 -0.50376,0.4198 -0.50376,1.1755 z m -1.0675,4.1908 h 8.8279 v 1.4993 h -8.8279 z"
       style="stroke-width:0.375" /></g></svg>
