<?xml version="1.0" encoding="UTF-8" standalone="no"?>
<!-- Created with Inkscape (http://www.inkscape.org/) -->

<svg
   width="13.135633mm"
   height="2.4510131mm"
   viewBox="0 0 13.135632 2.4510131"
   version="1.1"
   id="svg1"
   inkscape:version="1.4.2 (2aeb623e1d, 2025-05-12)"
   sodipodi:docname="b-logo.svg"
   xmlns:inkscape="http://www.inkscape.org/namespaces/inkscape"
   xmlns:sodipodi="http://sodipodi.sourceforge.net/DTD/sodipodi-0.dtd"
   xmlns:xlink="http://www.w3.org/1999/xlink"
   xmlns="http://www.w3.org/2000/svg"
   xmlns:svg="http://www.w3.org/2000/svg">
  <sodipodi:namedview
     id="namedview1"
     pagecolor="#ffffff"
     bordercolor="#000000"
     borderopacity="0.25"
     inkscape:showpageshadow="2"
     inkscape:pageopacity="0.0"
     inkscape:pagecheckerboard="0"
     inkscape:deskcolor="#d1d1d1"
     inkscape:document-units="mm"
     inkscape:zoom="8"
     inkscape:cx="10.875"
     inkscape:cy="23.3125"
     inkscape:window-width="2256"
     inkscape:window-height="1427"
     inkscape:window-x="0"
     inkscape:window-y="40"
     inkscape:window-maximized="1"
     inkscape:current-layer="layer1" />
  <defs
     id="defs1">
    <linearGradient
       id="linearGradient2"
       inkscape:collect="always">
      <stop
         style="stop-color:#5c5c5c;stop-opacity:1;"
         offset="0"
         id="stop2" />
      <stop
         style="stop-color:#8e8e8e;stop-opacity:1;"
         offset="0.49671486"
         id="stop4" />
      <stop
         style="stop-color:#5c5c5c;stop-opacity:1;"
         offset="1"
         id="stop3" />
    </linearGradient>
    <linearGradient
       inkscape:collect="always"
       xlink:href="#linearGradient2"
       id="linearGradient3"
       x1="66.173889"
       y1="85.431679"
       x2="76.144875"
       y2="86.70018"
       gradientUnits="userSpaceOnUse"
       gradientTransform="matrix(0.75711603,0,0,0.75711603,17.399083,21.119598)" />
  </defs>
  <g
     inkscape:label="Layer 1"
     inkscape:groupmode="layer"
     id="layer1"
     transform="translate(-65.21514,-84.502432)">
    <path
       id="text2"
       style="font-weight:bold;font-size:3.175px;font-family:Arvo;-inkscape-font-specification:'Arvo Bold';fill:url(#linearGradient3);fill-opacity:1;stroke-width:0.20032"
       d="m 67.305046,85.097744 -0.44759,0.0039 c -0.07438,0.09032 -0.103325,0.195787 -0.08294,0.317695 0.04788,0.0065 0.100182,0.0022 0.170193,0 v 1.50475 c 0.120115,0.03727 0.240228,0.02541 0.360342,0 v -0.03287 c 0.03991,0.01722 0.08216,0.03052 0.126766,0.03991 0.0446,0.0094 0.09155,0.01408 0.14085,0.01408 0.09155,0 0.175671,-0.01643 0.252356,-0.0493 0.07669,-0.03365 0.142808,-0.07903 0.198365,-0.136155 0.05556,-0.0579 0.09859,-0.125592 0.129112,-0.20306 0.0313,-0.07747 0.04695,-0.160021 0.04695,-0.247661 0,-0.08686 -0.01604,-0.16902 -0.04812,-0.246488 -0.0313,-0.07747 -0.07473,-0.145155 -0.130287,-0.203059 -0.05556,-0.0579 -0.121678,-0.103683 -0.198364,-0.137329 -0.07668,-0.03365 -0.160021,-0.05047 -0.250009,-0.05047 -0.04695,0 -0.09273,0.0055 -0.137329,0.01643 -0.0446,0.01096 -0.08803,0.02661 -0.130287,0.04695 z m 8.726844,0.583355 c -0.09781,0 -0.190539,0.01448 -0.278179,0.04343 -0.08686,0.02895 -0.170194,0.07081 -0.250009,0.125592 l 0.11268,0.227708 c 0.05164,-0.02738 0.105247,-0.04812 0.160804,-0.06221 0.05634,-0.01488 0.121289,-0.0223 0.194843,-0.0223 0.03521,0 0.06769,0.0036 0.09742,0.01056 0.02973,0.0063 0.05516,0.01683 0.07629,0.03169 0.02113,0.01408 0.03756,0.03247 0.0493,0.05516 0.0117,0.02191 0.0176,0.04812 0.0176,0.07864 v 0.03756 c -0.03912,-0.0086 -0.08177,-0.01568 -0.127939,-0.02113 -0.04538,-0.0063 -0.09586,-0.0094 -0.151414,-0.0094 -0.0759,0 -0.143588,0.0098 -0.20306,0.02935 -0.05868,0.01878 -0.108371,0.04539 -0.149066,0.07981 -0.04069,0.03365 -0.07199,0.07433 -0.0939,0.122071 -0.02113,0.04774 -0.03169,0.09977 -0.03169,0.156109 0,0.05556 0.01056,0.107199 0.03169,0.154935 0.02113,0.04695 0.05126,0.08803 0.09038,0.123244 0.03991,0.03443 0.08842,0.06182 0.145545,0.08216 0.05791,0.01956 0.123243,0.02934 0.196017,0.02934 0.02895,0 0.05556,-0.002 0.07981,-0.0059 0.02426,-0.0031 0.04774,-0.0086 0.07043,-0.01643 0.02269,-0.007 0.04539,-0.01644 0.06808,-0.02817 0.02269,-0.01252 0.04774,-0.02739 0.07512,-0.0446 v 0.06573 h 0.336868 c 0.100732,0.0048 0.09636,-0.04833 0.110697,-0.0795 l 0.04348,-0.176929 c 0.02005,-0.066 -0.02464,-0.06419 -0.0415,-0.06518 h -0.10563 v -0.442504 c 0,-0.08764 -0.0133,-0.161975 -0.03991,-0.223014 -0.02582,-0.06104 -0.06182,-0.110331 -0.107985,-0.147892 -0.04617,-0.03834 -0.101728,-0.06573 -0.166673,-0.08216 -0.06417,-0.01722 -0.134199,-0.02582 -0.210102,-0.02582 z m -1.354509,0.0047 c -0.06964,0 -0.13616,0.01174 -0.199538,0.03521 -0.0626,0.02269 -0.119331,0.05399 -0.170194,0.0939 -9.09e-4,-0.105494 -0.05526,-0.09465 -0.08529,-0.106812 h -0.593136 c 0.08043,0.09746 0.106307,0.208569 0.124417,0.321608 h 0.176063 v 0.572791 h -0.10955 c -0.07055,3.33e-4 -0.06117,0.04597 -0.06886,0.07903 v 0.242575 h 0.755896 V 86.71439 c 0.0043,-0.121156 -0.029,-0.09765 -0.07512,-0.111897 h -0.122072 v -0.468327 c 0.03912,-0.0493 0.07942,-0.08295 0.120896,-0.100943 0.04148,-0.018 0.08256,-0.027 0.123244,-0.027 0.05947,0 0.107205,0.01956 0.143198,0.05868 0.03599,0.03834 0.05399,0.09155 0.05399,0.159631 v 0.699556 h 0.693295 c -0.06916,-0.08689 -0.100058,-0.148485 -0.11276,-0.203863 -0.01515,-0.06604 -0.03411,-0.11582 -0.07504,-0.117739 h -0.122852 v -0.435462 c 0,-0.157282 -0.03951,-0.276614 -0.11855,-0.357994 -0.07903,-0.08216 -0.191712,-0.123244 -0.33804,-0.123244 z m -2.363545,0.01135 0.07713,0.263993 c 0.01682,0.07498 0.06024,0.05216 0.101915,0.04989 0.07867,-0.0043 0.192151,-0.0177 0.26307,-0.0177 0.03521,0 0.06769,0.0036 0.09742,0.01056 0.02973,0.0063 0.05516,0.01683 0.07629,0.03169 0.02113,0.01408 0.03756,0.03247 0.0493,0.05516 0.01177,0.02191 0.0176,0.04812 0.0176,0.07864 v 0.03756 c -0.03913,-0.0086 -0.08177,-0.01568 -0.127939,-0.02113 -0.04538,-0.0063 -0.09586,-0.0094 -0.151414,-0.0094 -0.0759,0 -0.143587,0.0098 -0.203059,0.02935 -0.05868,0.01878 -0.108372,0.04539 -0.149067,0.07982 -0.04069,0.03365 -0.07199,0.07433 -0.0939,0.12207 -0.02113,0.04774 -0.03169,0.09977 -0.03169,0.156109 0,0.05556 0.01056,0.107199 0.03169,0.154936 0.02113,0.04695 0.05126,0.08803 0.09038,0.123243 0.03991,0.03443 0.08842,0.06182 0.145545,0.08216 0.0579,0.01956 0.123242,0.02935 0.196016,0.02935 0.02895,0 0.05556,-0.002 0.07981,-0.0059 0.02426,-0.0031 0.04774,-0.0086 0.07043,-0.01643 0.02269,-0.007 0.04539,-0.01644 0.06808,-0.02817 0.02269,-0.01252 0.04774,-0.02738 0.07512,-0.0446 v 0.06573 h 0.507061 v -0.321608 h -0.163151 v -0.442505 c 0,-0.08764 -0.0133,-0.161974 -0.03991,-0.223013 -0.02582,-0.06104 -0.06182,-0.110331 -0.107985,-0.147892 -0.04617,-0.03834 -0.101728,-0.06573 -0.166673,-0.08216 -0.218812,-0.01826 -0.573977,-0.02174 -0.712076,-0.0098 z m -3.971193,0.332586 H 68.5011 v 0.394381 c 0,0.08686 0.01252,0.162368 0.03756,0.226534 0.02582,0.06417 0.06065,0.117762 0.104464,0.160804 0.0446,0.04225 0.09664,0.07394 0.156109,0.09507 0.05947,0.02113 0.122856,0.03169 0.190148,0.03169 0.07277,0 0.136938,-0.01018 0.192495,-0.03052 0.05556,-0.02034 0.10407,-0.0493 0.145545,-0.08686 0.0035,0.09716 0.0455,0.09323 0.05089,0.104262 l 0.768394,0.01468 -0.105128,-0.274047 c -0.0128,-0.05716 -0.05004,-0.03883 -0.07297,-0.05663 l -0.27262,-0.0066 -0.0016,-0.816427 c 0.0074,-0.05614 -0.03376,-0.07074 -0.06362,-0.07875 l -0.463621,7.58e-4 c -0.03687,0.0072 -0.04558,0.02881 -0.04633,0.05096 v 0.270651 h 0.194842 v 0.476543 c -0.01722,0.0493 -0.045,0.08842 -0.08334,0.117375 -0.03834,0.02895 -0.08099,0.04343 -0.127938,0.04343 -0.06651,0 -0.120503,-0.01996 -0.161978,-0.05986 -0.04147,-0.04069 -0.06221,-0.101726 -0.06221,-0.183106 V 85.70811 l -0.698107,-0.0064 c -0.02826,0.0038 -0.02589,0.04772 -0.0108,0.0662 0.05987,0.07333 0.136068,0.18024 0.171327,0.261841 z m 1.593172,-0.321607 0.03518,0.286373 c 0.0091,0.03116 0.02762,0.03318 0.04229,0.03524 h 0.0982 l 0.301654,0.899093 h 0.341562 l 0.259399,-0.77585 0.254705,0.77585 h 0.350951 l 0.323564,-0.881096 0.159621,-0.0027 c 0.05941,9.84e-4 0.07145,-0.08101 0.06346,-0.124253 l -0.05837,-0.212669 h -0.635 l -0.0012,0.261655 c -7.16e-4,0.07549 0.0305,0.0744 0.04679,0.07795 h 0.08313 l -0.15337,0.453851 -0.252357,-0.793457 h -0.343909 l -0.25001,0.754723 -0.129112,-0.433114 h 0.09197 c 0.044,-0.01083 0.04097,-0.03074 0.04536,-0.054 V 85.70811 Z m -2.364327,0.265268 c 0.18494,6.2e-5 0.334848,0.14997 0.33491,0.33491 1.54e-4,0.185093 -0.149817,0.33524 -0.33491,0.335302 -0.185246,1.54e-4 -0.335455,-0.150056 -0.335301,-0.335302 6.2e-5,-0.185093 0.150208,-0.335064 0.335301,-0.33491 z m 5.14338,0.455415 h 0.2817 v 0.154936 c -0.03208,0.02582 -0.07081,0.04774 -0.116201,0.06573 -0.04538,0.018 -0.09586,0.027 -0.151414,0.027 -0.05321,0 -0.09312,-0.01213 -0.119723,-0.03639 -0.02582,-0.02426 -0.03873,-0.05438 -0.03873,-0.09038 0,-0.01956 0.0039,-0.03678 0.01174,-0.05164 0.0086,-0.01487 0.01956,-0.02739 0.03287,-0.03756 0.01408,-0.01018 0.02973,-0.01803 0.04695,-0.02348 0.01721,-0.0055 0.03482,-0.0082 0.05282,-0.0082 z m 3.216079,0 h 0.281701 v 0.154936 c -0.03208,0.02582 -0.07081,0.04774 -0.116201,0.06573 -0.04538,0.018 -0.09586,0.027 -0.151414,0.027 -0.05321,0 -0.09312,-0.01213 -0.119723,-0.03639 -0.02582,-0.02426 -0.03873,-0.05438 -0.03873,-0.09038 0,-0.01956 0.0039,-0.03678 0.01174,-0.05164 0.0086,-0.01487 0.01956,-0.02739 0.03287,-0.03756 0.01408,-0.01018 0.02973,-0.01803 0.04695,-0.02348 0.01721,-0.0055 0.03482,-0.0082 0.05282,-0.0082 z"
       sodipodi:nodetypes="cccccccsscccscccscccsccccscccsccscccscccsccccccccccscccsscccccccccccccccsscscccscscsccccsccsccscccscccsccccccccscccccccccssccccccccccccccsscscccccsccsccccccccccccccccccccccccssccsscscccssccsscscccsccccscs" />
  </g>
</svg>
