<?xml version="1.0" encoding="UTF-8" standalone="no"?>
<!-- Created with Inkscape (http://www.inkscape.org/) -->

<svg
   width="86.723mm"
   height="86.866mm"
   version="1.1"
   viewBox="0 0 86.723 86.866"
   id="svg1"
   sodipodi:docname="cycles-night-over.svg"
   xml:space="preserve"
   inkscape:version="1.4.2 (2aeb623e1d, 2025-05-12)"
   xmlns:inkscape="http://www.inkscape.org/namespaces/inkscape"
   xmlns:sodipodi="http://sodipodi.sourceforge.net/DTD/sodipodi-0.dtd"
   xmlns="http://www.w3.org/2000/svg"
   xmlns:svg="http://www.w3.org/2000/svg"><defs
     id="defs1" /><sodipodi:namedview
     id="namedview1"
     pagecolor="#ffffff"
     bordercolor="#000000"
     borderopacity="0.25"
     inkscape:showpageshadow="2"
     inkscape:pageopacity="0.0"
     inkscape:pagecheckerboard="0"
     inkscape:deskcolor="#d1d1d1"
     inkscape:document-units="mm"
     inkscape:zoom="0.58841355"
     inkscape:cx="430.81944"
     inkscape:cy="373.03696"
     inkscape:window-width="1920"
     inkscape:window-height="1129"
     inkscape:window-x="0"
     inkscape:window-y="32"
     inkscape:window-maximized="1"
     inkscape:current-layer="svg1" /><path
     style="fill:#a0c0d2;fill-opacity:1;stroke-width:0.675665"
     d="M 25.367967,80.910853 C 22.974948,80.612221 19.840556,79.602296 17.591479,78.405206 11.563539,75.196782 7.1619971,69.247538 5.8873703,62.585645 4.7605383,56.696196 6.0743603,50.54038 9.5372421,45.48442 13.163099,40.19054 22.095195,33.605752 39.795929,23.177573 46.098191,19.464669 60.850507,11.277066 61.00211,11.408043 c 0.0324,0.02803 -1.020969,2.048989 -2.340942,4.491007 -1.319973,2.442017 -2.38249,4.463274 -2.361147,4.491681 0.02135,0.0284 3.287034,-2.096457 7.2571,-4.721919 C 75.933064,7.4844303 83.238028,2.7088027 83.294637,2.7654032 c 0.02988,0.029935 -1.274583,2.1459938 -2.898923,4.7023529 -1.624352,2.5563589 -5.652483,8.9115789 -8.951426,14.1227119 -3.298942,5.211133 -6.713499,10.590428 -7.587911,11.953986 -0.874421,1.363559 -1.558417,2.51064 -1.519977,2.549072 0.03842,0.03843 2.067363,-0.654403 4.508729,-1.539634 2.441377,-0.885231 4.45548,-1.589859 4.475784,-1.565841 0.06852,0.08104 -6.721535,12.171125 -8.809596,15.686009 -8.295176,13.963477 -15.896616,24.194334 -20.655018,27.799767 -3.973919,3.011037 -8.785944,4.592559 -13.785515,4.530741 -1.191585,-0.01478 -2.407851,-0.05691 -2.702817,-0.0937 z m 7.114416,-6.748557 c 2.542117,-0.749679 4.784475,-2.005447 6.699042,-3.751609 3.556946,-3.244074 10.026628,-12.220246 16.244361,-22.537739 1.006192,-1.669655 1.807575,-3.057611 1.780836,-3.084348 -0.0267,-0.02674 -2.294151,0.756045 -5.03869,1.739516 -2.744541,0.983471 -5.035506,1.76808 -5.09101,1.743575 -0.05549,-0.02451 1.151185,-1.9936 2.68155,-4.375765 4.625669,-7.20035 12.170313,-19.234139 12.10185,-19.302599 -0.03535,-0.03532 -5.243806,3.38132 -11.574428,7.592533 -6.330622,4.211213 -11.617421,7.721969 -11.748448,7.801682 -0.165329,0.100591 -0.143537,-0.03884 0.07126,-0.455746 0.331162,-0.642769 4.464609,-8.305635 5.666876,-10.50565 l 0.723563,-1.32403 -1.413425,0.771984 c -5.306994,2.898601 -13.318576,7.969675 -18.932837,11.983873 -8.10996,5.798638 -10.687135,8.592918 -12.121619,13.142776 -1.488104,4.719941 -0.626466,10.064762 2.270543,14.084301 1.02076,1.416281 3.110858,3.447864 4.524413,4.397754 1.502212,1.009465 3.731852,1.950205 5.582466,2.355379 2.191976,0.479908 5.408084,0.36275 7.573702,-0.275887 z m -6.917576,-6.454042 c -6.085457,-1.541846 -9.043289,-8.188886 -6.173588,-13.873723 2.840355,-5.626715 10.818718,-6.814984 15.347839,-2.285855 1.840455,1.840456 2.695854,4.021388 2.695854,6.873434 0,4.184845 -2.323921,7.550554 -6.189142,8.963662 -1.56575,0.572429 -4.121758,0.71752 -5.680963,0.322482 z"
     id="path2" /><g
     transform="translate(88.146901,-98.490213)"
     id="g59289"><path
       d="m 99.632,146.57 c -2.3623,-0.27384 -4.2525,-0.62389 -6.3776,-1.1811 -14.343,-3.7605 -25.495,-15.891 -28.185,-30.658 -0.66278,-3.6377 -0.66434,-10.036 -0.0034,-13.63 0.80039,-4.352 2.3761,-8.7094 4.4471,-12.298 l 1.1149,-1.9318 -0.44765,-0.92748 c -1.4976,-3.1029 -0.85378,-7.1245 1.5347,-9.5857 1.7548,-1.8082 5.0123,-2.8439 7.521,-2.3912 2.5761,0.46486 4.4395,1.7854 5.8142,4.1204 1.4898,2.5305 1.5814,5.2131 0.27242,7.9824 -0.82467,1.7447 -1.974,2.901 -3.6741,3.6967 -2.3098,1.0809 -5.2865,1.2594 -6.8699,0.41202 -0.49386,-0.26431 -0.64032,-0.07418 -1.9512,2.5329 -1.2098,2.4063 -2.2923,5.6121 -2.9148,8.633 -0.72839,3.5344 -0.74102,9.2814 -0.02821,12.834 1.6231,8.0891 6.0621,15.546 11.993,20.146 6.3116,4.8955 12.536,7.2038 20.213,7.4956 4.9958,0.18989 9.102,-0.43085 13.298,-2.0104 0.82725,-0.31137 1.5283,-0.5376 1.5579,-0.50272 0.0296,0.0349 0.2158,0.38195 0.41377,0.77127 0.19798,0.38933 0.80034,1.2485 1.3386,1.9094 l 0.97863,1.2015 -1.0368,0.46509 c -2.9281,1.3136 -6.8695,2.3684 -10.565,2.8276 -1.7123,0.21275 -6.9036,0.26738 -8.4437,0.0888 z M 78.99,85.685 c 1.5744,-0.56152 2.3921,-1.7266 2.3921,-3.4083 0,-3.2551 -3.8006,-4.8413 -6.0973,-2.5446 -1.9422,1.9422 -1.2357,5.0224 1.3647,5.9494 1.0526,0.37526 1.2971,0.37562 2.3405,0.0035 z m 47.051,55.706 c -1.4722,-0.50355 -2.8858,-1.4812 -3.6644,-2.5342 -0.60062,-0.8124 -1.4962,-2.6258 -1.6868,-3.4156 -0.40055,-1.6594 -0.0366,-4.5554 0.76421,-6.0815 1.7551,-3.3445 6.2281,-5.1503 9.969,-4.0245 1.2517,0.37671 1.04,0.57951 2.5084,-2.4034 1.2895,-2.6194 2.2089,-5.3152 2.8779,-8.4379 0.71525,-3.3387 0.72863,-9.8243 0.0272,-13.15 -0.67985,-3.2231 -1.4269,-5.424 -2.7896,-8.2188 -2.8728,-5.8916 -6.4546,-10.038 -11.731,-13.581 -8.7063,-5.8454 -19.749,-7.3512 -29.646,-4.0427 -2.2732,0.75989 -2.6964,0.84342 -2.8913,0.57059 -0.76667,-1.0733 -1.71,-2.3257 -2.1954,-2.9148 l -0.56118,-0.68098 2.2504,-0.87712 c 10.098,-3.9359 21.146,-3.493 30.961,1.2413 14.841,7.1583 23.585,22.885 21.792,39.196 -0.54675,4.9766 -1.7081,8.8574 -4.0651,13.584 l -1.6688,3.3467 0.45851,1.0658 c 0.91791,2.1337 0.81771,4.7672 -0.27194,7.1473 -0.71168,1.5545 -1.8508,2.7585 -3.365,3.5566 -2.3395,1.2331 -4.732,1.4542 -7.0728,0.65356 z m 4.6115,-4.816 c 1.0914,-0.55038 1.9642,-1.9381 1.9642,-3.1231 0,-0.89154 -0.8362,-2.495 -1.586,-3.0413 -0.93342,-0.68005 -2.901,-0.72493 -3.9834,-0.0908 -2.0222,1.1846 -2.2954,4.1585 -0.53321,5.8038 1.1188,1.0446 2.6344,1.21 4.1384,0.45149 z m -29.377,-4.5718 c -8.4944,-0.8168 -15.822,-5.7759 -19.557,-13.235 -4.2572,-8.5028 -3.1841,-18.692 2.746,-26.074 3.4823,-4.3345 8.3385,-7.3543 13.748,-8.5493 2.2678,-0.50095 6.5451,-0.67023 8.7921,-0.34796 2.0204,0.28976 5.9366,1.5132 7.3231,2.2878 0.79216,0.44256 0.97081,0.46689 1.6438,0.22376 0.94103,-0.33998 2.6874,-0.3757 3.763,-0.07697 2.7688,0.76895 4.761,4.0923 4.1337,6.8955 -0.2489,1.1122 -0.24483,1.1275 0.85408,3.2149 1.3322,2.5305 1.8506,3.9874 2.4293,6.8273 1.2625,6.1951 -0.2957,13.657 -3.8898,18.628 -1.2768,1.766 -3.7418,4.2531 -5.5685,5.6185 -4.4851,3.3524 -10.828,5.1246 -16.418,4.5871 z m 7.1382,-5.3519 c 7.1875,-1.7941 12.409,-7.3361 14.034,-14.897 0.39525,-1.8382 0.44299,-5.7109 0.0923,-7.4865 -0.34995,-1.7717 -1.2301,-4.3953 -1.8264,-5.4443 l -0.49838,-0.87667 -1.6533,0.0765 c -2.192,0.10141 -3.5128,-0.4488 -5.01,-2.087 -1.2135,-1.3278 -1.5345,-2.1951 -1.5363,-4.151 l -8.2e-4,-1.3399 -1.2645,-0.56749 c -2.0754,-0.93138 -3.7392,-1.29 -6.5159,-1.4046 -9.3519,-0.38577 -17.096,5.1603 -19.655,14.076 -0.43609,1.5196 -0.50193,2.2354 -0.49388,5.3696 0.0084,3.2946 0.06206,3.7879 0.60262,5.5466 2.3925,7.7837 8.5841,12.874 16.697,13.727 2.1815,0.2294 4.7258,0.0334 7.0287,-0.54141 z m -7.8327,-7.016 c -6.8549,-1.6628 -10.988,-9.0923 -8.6472,-15.542 0.75738,-2.0866 1.8191,-3.7198 3.3553,-5.1614 1.7471,-1.6395 3.6313,-2.5626 6.1008,-2.9888 1.7308,-0.29869 2.1465,-0.29911 3.8973,-0.0039 2.7689,0.46687 4.4688,1.3556 6.5293,3.4136 2.3944,2.3914 3.6932,5.3987 3.7017,8.5708 0.004,1.5422 -0.70654,4.1137 -1.6012,5.7939 -0.84898,1.5943 -3.1675,3.9574 -4.6911,4.7813 -2.4414,1.3202 -5.9735,1.7846 -8.6447,1.1367 z m 6.02,-5.2198 c 1.4582,-0.71344 2.6326,-1.96 3.4115,-3.6211 0.47788,-1.0192 0.57569,-1.5342 0.56679,-2.985 -0.0183,-2.9902 -1.3913,-5.2299 -3.9902,-6.5093 -1.2976,-0.63879 -1.6742,-0.72249 -3.227,-0.71702 -1.4194,0.005 -1.9901,0.11448 -2.9634,0.56858 -1.5232,0.71067 -2.8817,2.0692 -3.6632,3.6631 -0.51467,1.0498 -0.60729,1.5118 -0.60032,2.9946 0.01547,3.2931 1.7969,5.8859 4.7747,6.9496 1.6505,0.58949 4.0845,0.44263 5.6911,-0.3434 z"
       fill="#a0c0d2"
       stroke-width="0.21917"
       id="path59287" /></g></svg>
