<?xml version="1.0" encoding="UTF-8" standalone="no"?>
<!-- Created with Inkscape (http://www.inkscape.org/) -->

<svg
   width="86.723mm"
   height="86.866mm"
   version="1.1"
   viewBox="0 0 86.723 86.866"
   id="svg1"
   sodipodi:docname="cycles-night-over.svg"
   xml:space="preserve"
   inkscape:version="1.4.2 (2aeb623e1d, 2025-05-12)"
   xmlns:inkscape="http://www.inkscape.org/namespaces/inkscape"
   xmlns:sodipodi="http://sodipodi.sourceforge.net/DTD/sodipodi-0.dtd"
   xmlns="http://www.w3.org/2000/svg"
   xmlns:svg="http://www.w3.org/2000/svg"><defs
     id="defs1" /><sodipodi:namedview
     id="namedview1"
     pagecolor="#ffffff"
     bordercolor="#000000"
     borderopacity="0.25"
     inkscape:showpageshadow="2"
     inkscape:pageopacity="0.0"
     inkscape:pagecheckerboard="0"
     inkscape:deskcolor="#d1d1d1"
     inkscape:document-units="mm"
     inkscape:zoom="0.58841355"
     inkscape:cx="430.81944"
     inkscape:cy="373.03696"
     inkscape:window-width="1920"
     inkscape:window-height="1129"
     inkscape:window-x="0"
     inkscape:window-y="32"
     inkscape:window-maximized="1"
     inkscape:current-layer="svg1" /><path
     style="fill:#00ffff;fill-opacity:1;stroke-width:0.675665"
     d="M 25.367967,80.910853 C 22.974948,80.612221 19.840556,79.602296 17.591479,78.405206 11.563539,75.196782 7.1619971,69.247538 5.8873703,62.585645 4.7605383,56.696196 6.0743603,50.54038 9.5372421,45.48442 13.163099,40.19054 22.095195,33.605752 39.795929,23.177573 46.098191,19.464669 60.850507,11.277066 61.00211,11.408043 c 0.0324,0.02803 -1.020969,2.048989 -2.340942,4.491007 -1.319973,2.442017 -2.38249,4.463274 -2.361147,4.491681 0.02135,0.0284 3.287034,-2.096457 7.2571,-4.721919 C 75.933064,7.4844303 83.238028,2.7088027 83.294637,2.7654032 c 0.02988,0.029935 -1.274583,2.1459938 -2.898923,4.7023529 -1.624352,2.5563589 -5.652483,8.9115789 -8.951426,14.1227119 -3.298942,5.211133 -6.713499,10.590428 -7.587911,11.953986 -0.874421,1.363559 -1.558417,2.51064 -1.519977,2.549072 0.03842,0.03843 2.067363,-0.654403 4.508729,-1.539634 2.441377,-0.885231 4.45548,-1.589859 4.475784,-1.565841 0.06852,0.08104 -6.721535,12.171125 -8.809596,15.686009 -8.295176,13.963477 -15.896616,24.194334 -20.655018,27.799767 -3.973919,3.011037 -8.785944,4.592559 -13.785515,4.530741 -1.191585,-0.01478 -2.407851,-0.05691 -2.702817,-0.0937 z m 7.114416,-6.748557 c 2.542117,-0.749679 4.784475,-2.005447 6.699042,-3.751609 3.556946,-3.244074 10.026628,-12.220246 16.244361,-22.537739 1.006192,-1.669655 1.807575,-3.057611 1.780836,-3.084348 -0.0267,-0.02674 -2.294151,0.756045 -5.03869,1.739516 -2.744541,0.983471 -5.035506,1.76808 -5.09101,1.743575 -0.05549,-0.02451 1.151185,-1.9936 2.68155,-4.375765 4.625669,-7.20035 12.170313,-19.234139 12.10185,-19.302599 -0.03535,-0.03532 -5.243806,3.38132 -11.574428,7.592533 -6.330622,4.211213 -11.617421,7.721969 -11.748448,7.801682 -0.165329,0.100591 -0.143537,-0.03884 0.07126,-0.455746 0.331162,-0.642769 4.464609,-8.305635 5.666876,-10.50565 l 0.723563,-1.32403 -1.413425,0.771984 c -5.306994,2.898601 -13.318576,7.969675 -18.932837,11.983873 -8.10996,5.798638 -10.687135,8.592918 -12.121619,13.142776 -1.488104,4.719941 -0.626466,10.064762 2.270543,14.084301 1.02076,1.416281 3.110858,3.447864 4.524413,4.397754 1.502212,1.009465 3.731852,1.950205 5.582466,2.355379 2.191976,0.479908 5.408084,0.36275 7.573702,-0.275887 z m -6.917576,-6.454042 c -6.085457,-1.541846 -9.043289,-8.188886 -6.173588,-13.873723 2.840355,-5.626715 10.818718,-6.814984 15.347839,-2.285855 1.840455,1.840456 2.695854,4.021388 2.695854,6.873434 0,4.184845 -2.323921,7.550554 -6.189142,8.963662 -1.56575,0.572429 -4.121758,0.71752 -5.680963,0.322482 z"
     id="path2" /></svg>
