<?xml version="1.0" encoding="UTF-8" standalone="no"?>
<!-- Created with Inkscape (http://www.inkscape.org/) -->

<svg
   width="70.039mm"
   height="57.05mm"
   version="1.1"
   viewBox="0 0 70.039 57.05"
   id="svg3314"
   sodipodi:docname="earthcycles-logo-motto-o.svg"
   inkscape:version="1.2.2 (b0a8486541, 2022-12-01)"
   xmlns:inkscape="http://www.inkscape.org/namespaces/inkscape"
   xmlns:sodipodi="http://sodipodi.sourceforge.net/DTD/sodipodi-0.dtd"
   xmlns="http://www.w3.org/2000/svg"
   xmlns:svg="http://www.w3.org/2000/svg">
  <defs
     id="defs3318" />
  <sodipodi:namedview
     id="namedview3316"
     pagecolor="#ffffff"
     bordercolor="#000000"
     borderopacity="0.25"
     inkscape:showpageshadow="2"
     inkscape:pageopacity="0.0"
     inkscape:pagecheckerboard="0"
     inkscape:deskcolor="#d1d1d1"
     inkscape:document-units="mm"
     showgrid="false"
     inkscape:zoom="2.2627727"
     inkscape:cx="175.66943"
     inkscape:cy="92.364557"
     inkscape:window-width="1503"
     inkscape:window-height="934"
     inkscape:window-x="0"
     inkscape:window-y="0"
     inkscape:window-maximized="1"
     inkscape:current-layer="g3312" />
  <g
     transform="translate(-66.387 -37.952)"
     fill="#a0c0d2"
     id="g3312">
    <g
       transform="rotate(.040269 -1505.6 753.44)"
       stroke-width=".30247"
       aria-label="earthcycles"
       id="g3258"
       style="fill:#c0c5e1;fill-opacity:1">
      <path
         d="m67.003 82.069q0 0.25993 0.03545 0.47851 0.04135 0.21267 0.11224 0.40762 0.21858 0.59076 0.69709 0.89204 0.48442 0.29538 1.0929 0.29538 0.47851 0 0.92749-0.12997 0.45488-0.13587 0.95112-0.41944l0.44307 0.75026q-0.60257 0.41353-1.2111 0.61439-0.60848 0.20086-1.2642 0.20086-0.62029 0-1.152-0.20676-0.52577-0.20676-0.90977-0.61439-0.37808-0.40762-0.59666-1.0161-0.21267-0.60848-0.21267-1.4178 0-0.65574 0.18314-1.2347 0.18314-0.58485 0.5435-1.0161 0.36627-0.43716 0.90386-0.69119 0.53759-0.25402 1.2524-0.25402 0.69118 0 1.152 0.21267 0.4667 0.20676 0.75617 0.55531 0.29538 0.34264 0.44307 0.78571 0.1536 0.44307 0.21267 0.90386 0.02954 0.22449 0.03545 0.45488 0.01181 0.2304 0.01181 0.44898zm1.7191-2.4398q-0.38399 0-0.67346 0.11224-0.28356 0.10634-0.48442 0.3131-0.20086 0.20086-0.32492 0.49624-0.11815 0.29538-0.17723 0.66165h3.1724q-0.02363-0.34264-0.11224-0.63211-0.08271-0.28947-0.25993-0.50214-0.17723-0.21267-0.45488-0.33082t-0.68528-0.11815z"
         id="path3236"
         style="fill:#c0c5e1;fill-opacity:1" />
      <path
         d="m76.502 84.42q-0.34855 0.32492-0.77389 0.53168-0.41944 0.20676-0.95703 0.20676-0.44898 0-0.82706-0.14178-0.37218-0.14178-0.64392-0.38399-0.27175-0.24812-0.42534-0.57303-0.14769-0.32492-0.14769-0.69119 0-0.3899 0.11224-0.69118 0.11815-0.30129 0.30719-0.51987 0.19495-0.22449 0.44898-0.37218 0.25993-0.1536 0.53759-0.24221 0.28356-0.09452 0.57304-0.12997 0.29538-0.04135 0.56122-0.04135 0.42534 0 0.71482 0.02954 0.28947 0.02363 0.52577 0.07089l0.0059-0.50214q0-0.32492-0.09452-0.56122-0.09452-0.24221-0.26584-0.39581-0.17132-0.1595-0.41353-0.2363-0.2363-0.0768-0.53168-0.0768-0.27766 0-0.53168 0.04135-0.25403 0.03545-0.47851 0.10043-0.21858 0.05908-0.40762 0.14178-0.18314 0.0768-0.3131 0.16541l-0.36036-0.76208q0.21858-0.14178 0.47851-0.25993 0.25993-0.12406 0.5435-0.20676 0.28947-0.08861 0.58485-0.13587 0.30129-0.05317 0.59076-0.05317 0.53168 0 0.95703 0.12997 0.42534 0.12406 0.72072 0.3899 0.29538 0.26584 0.45488 0.67937 0.1595 0.40762 0.1595 0.98066l-0.0059 3.0601h0.67937v1.0161h-1.7782zm-1.4887-0.18313q0.21858 0 0.43716-0.05317t0.41353-0.14178q0.19495-0.09452 0.36036-0.21267 0.16541-0.12406 0.27766-0.25403l0.0059-1.3824h-1.276q-0.31901 0-0.58485 0.07089-0.25993 0.07089-0.45488 0.20676-0.18904 0.13587-0.29538 0.33673-0.10634 0.20086-0.10634 0.46079 0 0.24221 0.08861 0.42534 0.08861 0.17723 0.24812 0.30129 0.16541 0.11815 0.3899 0.18314 0.22449 0.05908 0.49624 0.05908z"
         id="path3238"
         style="fill:#c0c5e1;fill-opacity:1" />
      <path
         d="m83.922 80.161h-1.1224v-0.37808q-0.19495 0-0.40171 0.0768-0.20086 0.07089-0.37808 0.22449-0.17723 0.14769-0.3131 0.38399-0.12997 0.2304-0.18904 0.5494v2.9538h1.0397v1.0161h-3.0365v-1.0161h0.84478l0.0059-4.088h-0.85069v-1.0161h1.9554v0.84478q0.10634-0.18904 0.2363-0.34855 0.13587-0.16541 0.29538-0.28356 0.16541-0.12406 0.36036-0.18904 0.20086-0.07089 0.43125-0.07089 0.30719 0 0.57894 0t0.5435 0.01181z"
         id="path3240"
         style="fill:#c0c5e1;fill-opacity:1" />
      <path
         d="m86.964 78.867h1.4355v0.89204h-1.4474l-0.01772 3.5327q0 0.36036 0.08271 0.58485 0.08271 0.22449 0.26584 0.3131 0.18313 0.08271 0.41353 0.08271 0.24812 0 0.43716-0.04135 0.18904-0.04726 0.41353-0.1536l0.25403 0.73845q-0.28356 0.14769-0.59666 0.2304-0.3131 0.08861-0.73845 0.08861-0.40171 0-0.703-0.10043-0.29538-0.09452-0.50214-0.32492-0.20086-0.2304-0.30129-0.61439-0.10043-0.3899-0.10043-0.96884l0.01772-3.3673h-0.97475v-0.89204h0.98656v-1.4651l1.0752-0.50805z"
         id="path3242"
         style="fill:#c0c5e1;fill-opacity:1" />
      <path
         d="m89.776 75.795h1.9377v3.7454h0.03544q0.16541-0.16541 0.37808-0.30719 0.21858-0.14769 0.45488-0.25403t0.49033-0.16541q0.25403-0.05907 0.53168-0.05907 0.49033 0 0.88614 0.13587t0.67346 0.41353q0.27766 0.27766 0.42534 0.71482 0.1536 0.43125 0.1536 1.022v2.9302h0.92158v1.0161h-2.9065v-1.0161h0.83888v-2.7943q0-0.703-0.36036-1.0634-0.35445-0.36627-1.022-0.36627-0.37808 0-0.76798 0.18314-0.3899 0.17723-0.73254 0.44898v3.5918h0.88614v1.0161h-2.9065v-1.0161h0.92158v-7.16h-0.83888z"
         id="path3244"
         style="fill:#c0c5e1;fill-opacity:1" />
      <path
         d="m102.16 80.982q-0.25403-0.31901-0.56713-0.47851-0.3131-0.16541-0.73844-0.14178-0.34264-0.02363-0.6262 0.09452-0.27766 0.11815-0.48443 0.33082-0.20086 0.21267-0.3131 0.50805-0.11224 0.28947-0.11224 0.65574 0 0.32492 0.11815 0.61439t0.31901 0.50214q0.20676 0.20676 0.48442 0.32492 0.28356 0.11815 0.61439 0.14178 0.27765-0.02363 0.50214-0.11224 0.2304-0.09452 0.40762-0.2363 0.17723-0.14769 0.30129-0.32492 0.12997-0.18313 0.20086-0.34264l1.6246 0.44898q-0.10043 0.35445-0.34855 0.73845-0.24221 0.38399-0.63802 0.703-0.3899 0.3131-0.93339 0.51987-0.53759 0.20676-1.2288 0.20676-0.703 0-1.2938-0.25402-0.59076-0.25993-1.0161-0.703t-0.66756-1.0397q-0.2363-0.59666-0.2363-1.2819 0-0.67937 0.24221-1.2583 0.24812-0.58485 0.67937-1.0161 0.43125-0.43716 1.022-0.67937 0.59666-0.24221 1.2938-0.21858 0.49624-0.02363 0.96294 0.11224 0.4667 0.13588 0.88613 0.40762h1.1756v1.7782z"
         id="path3246"
         style="fill:#c0c5e1;fill-opacity:1" />
      <path
         d="m104.37 78.867h3.001v1.6187h-0.47261l0.88023 2.2921 0.90386-2.2921h-0.52577v-1.6187h3.001v1.6187h-0.66755l-2.3689 5.6654h1.0516v1.6187h-3.7986v-1.6187h1.0693l0.46079-1.1638-1.914-4.5016h-0.62029z"
         id="path3248"
         style="fill:#c0c5e1;fill-opacity:1" />
      <path
         d="m116.46 80.982q-0.25402-0.31901-0.56712-0.47851-0.3131-0.16541-0.73845-0.14178-0.34264-0.02363-0.6262 0.09452-0.27766 0.11815-0.48442 0.33082-0.20086 0.21267-0.3131 0.50805-0.11225 0.28947-0.11225 0.65574 0 0.32492 0.11815 0.61439 0.11816 0.28947 0.31901 0.50214 0.20677 0.20676 0.48442 0.32492 0.28357 0.11815 0.61439 0.14178 0.27766-0.02363 0.50214-0.11224 0.2304-0.09452 0.40763-0.2363 0.17722-0.14769 0.30128-0.32492 0.12997-0.18313 0.20086-0.34264l1.6246 0.44898q-0.10043 0.35445-0.34855 0.73845-0.24221 0.38399-0.63801 0.703-0.3899 0.3131-0.9334 0.51987-0.53759 0.20676-1.2288 0.20676-0.703 0-1.2938-0.25402-0.59076-0.25993-1.0161-0.703-0.42535-0.44307-0.66756-1.0397-0.2363-0.59666-0.2363-1.2819 0-0.67937 0.24221-1.2583 0.24812-0.58485 0.67937-1.0161 0.43125-0.43716 1.022-0.67937 0.59666-0.24221 1.2938-0.21858 0.49623-0.02363 0.96293 0.11224 0.4667 0.13588 0.88614 0.40762h1.1756v1.7782z"
         id="path3250"
         style="fill:#c0c5e1;fill-opacity:1" />
      <path
         d="m118.72 75.795h2.7588v7.5735h0.94521v1.6187h-3.704v-1.6187h0.94521v-5.9548h-0.94521z"
         id="path3252"
         style="fill:#c0c5e1;fill-opacity:1" />
      <path
         d="m125.04 82.311 0.0177 0.18313q0.065 0.26584 0.21858 0.4667 0.1595 0.20086 0.37218 0.33673 0.21267 0.13587 0.4726 0.20676 0.25993 0.06498 0.52578 0.06498 0.26584 0 0.50214-0.02954 0.24221-0.03545 0.4667-0.08861 0.22448-0.05908 0.43716-0.12997 0.21267-0.0768 0.43125-0.1595l0.64983 1.2111q-0.33673 0.20676-0.62029 0.35445-0.27766 0.14178-0.56122 0.2363-0.28357 0.09452-0.60257 0.13587-0.31901 0.04726-0.74436 0.04726-0.79752 0-1.4178-0.25993-0.6203-0.26584-1.0456-0.71482-0.41944-0.44898-0.64393-1.0515-0.21858-0.60257-0.21858-1.276 0-0.67346 0.2304-1.2642 0.2363-0.59076 0.66164-1.0279 0.42535-0.44307 1.0161-0.69709 0.59075-0.25402 1.3115-0.25402 0.72072 0 1.276 0.24221 0.56122 0.2363 0.94521 0.66165 0.38399 0.41944 0.59076 0.99247 0.20676 0.56713 0.22449 1.2229 0.0177 0.14769 0.0177 0.29538 6e-3 0.14178-6e-3 0.29538zm1.4119-2.2331q-0.33083 0-0.56713 0.08271-0.2304 0.0768-0.3899 0.21858-0.1595 0.13587-0.25403 0.3131-0.0945 0.17723-0.14769 0.37218h2.558q-0.0414-0.20086-0.11815-0.37808-0.0768-0.17723-0.21267-0.3131-0.13588-0.13587-0.34855-0.21267-0.20676-0.08271-0.51986-0.08271z"
         id="path3254"
         style="fill:#c0c5e1;fill-opacity:1" />
      <path
         d="m134.37 80.74q0-0.14178-0.0945-0.27175-0.0886-0.12997-0.26584-0.22449-0.17723-0.10043-0.43716-0.1595-0.25403-0.05907-0.57894-0.05907-0.12406 0-0.26584 0.02363-0.14178 0.01772-0.26584 0.07089-0.11815 0.05317-0.20086 0.14769-0.0768 0.08861-0.0768 0.2304 0 0.07089 0.0177 0.13587 0.0236 0.06498 0.0827 0.12406 0.0591 0.05908 0.1595 0.11224 0.10634 0.04726 0.27175 0.0768l1.1106 0.21858q0.60257 0.11815 1.0102 0.29538t0.65574 0.41353q0.24812 0.2363 0.35445 0.52577 0.11225 0.28947 0.11225 0.6262 0 0.52577-0.24812 0.92158-0.24221 0.39581-0.64393 0.66165-0.3958 0.25993-0.89795 0.3899-0.49623 0.13587-1.0043 0.13587-0.33083 0-0.60257-0.04135-0.26584-0.04135-0.48442-0.11224-0.21268-0.07089-0.384-0.16541-0.16541-0.10043-0.30719-0.21858h-1.0693v-1.6423h1.6718v0.03545q6e-3 0.17132 0.10634 0.30129 0.10043 0.12406 0.25993 0.21267 0.16541 0.08861 0.37218 0.13587 0.20676 0.04135 0.43716 0.04135 0.53168 0 0.77389-0.13587 0.24221-0.14178 0.24221-0.36036 0-0.17132-0.11815-0.28947-0.11815-0.12406-0.41944-0.19495l-1.1342-0.24221q-1.0693-0.20676-1.6128-0.68528-0.54349-0.48442-0.54349-1.2406 0-0.44307 0.20676-0.80343 0.20677-0.36627 0.56122-0.62029 0.35445-0.25993 0.82706-0.40172 0.47851-0.14178 1.022-0.14178 0.37217 0 0.66165 0.04726 0.28947 0.04135 0.51986 0.11224 0.2304 0.07089 0.40172 0.17132 0.17722 0.09452 0.3131 0.20086h1.0279v1.6423z"
         id="path3256"
         style="fill:#c0c5e1;fill-opacity:1" />
    </g>
    <g
       transform="rotate(.040269 1.2477e-5 .0024858)"
       stroke-width=".46011"
       aria-label="calendar.earthen.io  |  by Russell Maier  "
       id="g3306"
       style="fill:#c0c5e1;fill-opacity:1">
      <g
         transform="matrix(.68739 -.00048311 .00048311 .68739 .29478 29.78)"
         fill="#a0c0d2"
         stroke-linecap="round"
         stroke-width=".84587"
         style="inline-size:86.3622;white-space:pre;fill:#c0c5e1;fill-opacity:1"
         aria-label="Sync with Earth's Cycles."
         id="g3304">
        <path
           d="m 114.60982,93.493 q -0.34925,0 -0.65405,-0.05715 -0.3048,-0.0635 -0.56515,-0.1905 -0.26035,-0.13335 -0.4699,-0.32385 l 0.19685,-0.40005 q 0.3429,0.28575 0.6858,0.4064 0.34925,0.12065 0.8128,0.12065 0.53975,0 0.8382,-0.20955 0.29845,-0.2159 0.29845,-0.60325 0,-0.23495 -0.1524,-0.37465 -0.14605,-0.14605 -0.4064,-0.2286 -0.254,-0.0889 -0.57785,-0.1651 -0.32385,-0.06985 -0.61595,-0.15875 -0.2921,-0.09525 -0.5207,-0.23495 -0.22225,-0.1397 -0.34925,-0.3556 -0.127,-0.2159 -0.127,-0.53975 0,-0.38735 0.2032,-0.67945 0.2032,-0.29845 0.5715,-0.46355 0.3683,-0.1651 0.86995,-0.1651 0.31115,0 0.5969,0.06985 0.28575,0.0635 0.52705,0.1905 0.24765,0.127 0.43815,0.31115 l -0.2032,0.40005 q -0.31115,-0.27305 -0.64135,-0.40005 -0.3302,-0.127 -0.71755,-0.127 -0.52705,0 -0.8255,0.22225 -0.29845,0.22225 -0.29845,0.6223 0,0.24765 0.13335,0.40005 0.13335,0.1524 0.37465,0.24765 0.2413,0.0889 0.55245,0.1651 0.3302,0.0762 0.635,0.1651 0.3048,0.0889 0.53975,0.22225 0.2413,0.127 0.381,0.33655 0.1397,0.2032 0.1397,0.5207 0,0.38735 -0.2032,0.6731 -0.2032,0.28575 -0.57785,0.4445 -0.37465,0.15875 -0.889,0.15875 z"
           id="path3260"
           style="fill:#c0c5e1;fill-opacity:1" />
        <path
           d="m 116.77982,94.883 -0.10795,-0.40005 q 0.2921,-0.06985 0.48895,-0.1651 0.2032,-0.0889 0.33655,-0.23495 0.1397,-0.14605 0.2413,-0.38735 l 0.2032,-0.4699 0.1143,-0.15875 1.1684,-2.8194 h 0.51435 l -1.4922,3.4862 q -0.17145,0.38735 -0.38735,0.61595 -0.2159,0.23495 -0.48895,0.3556 -0.2667,0.12065 -0.59055,0.1778 z m 1.1684,-1.2764 -1.4351,-3.3592 h 0.53975 l 1.1557,2.8194 z"
           id="path3262"
           style="fill:#c0c5e1;fill-opacity:1" />
        <path
           d="m 120.19982,93.442 v -2.2987 q 0,-0.22225 -0.0127,-0.4445 -0.006,-0.2286 -0.0381,-0.45085 h 0.48895 l 0.0572,0.6604 -0.0635,0.0508 q 0.13335,-0.38735 0.4445,-0.5842 0.31115,-0.2032 0.71755,-0.2032 1.1494,0 1.1494,1.2636 v 2.0066 h -0.51435 v -1.9812 q 0,-0.4445 -0.1778,-0.6477 -0.1778,-0.20955 -0.5588,-0.20955 -0.4445,0 -0.7112,0.27305 -0.2667,0.27305 -0.2667,0.7366 v 1.8288 z"
           id="path3264"
           style="fill:#c0c5e1;fill-opacity:1" />
        <path
           d="m 125.15982,93.486 q -0.4699,0 -0.8128,-0.2032 -0.3429,-0.2032 -0.5334,-0.5715 -0.18415,-0.3683 -0.18415,-0.86995 0,-0.4953 0.1905,-0.86995 0.1905,-0.381 0.53975,-0.59055 0.34925,-0.20955 0.8255,-0.20955 0.32385,0 0.6223,0.1143 0.3048,0.10795 0.50165,0.3048 l -0.17145,0.381 q -0.23495,-0.18415 -0.46355,-0.27305 -0.22225,-0.09525 -0.46355,-0.09525 -0.4826,0 -0.76835,0.32385 -0.2794,0.32385 -0.2794,0.9144 0,0.5842 0.2794,0.9017 0.2794,0.3175 0.76835,0.3175 0.23495,0 0.46355,-0.0889 0.2286,-0.09525 0.46355,-0.2794 l 0.17145,0.381 q -0.2032,0.1905 -0.51435,0.3048 -0.3048,0.10795 -0.635,0.10795 z"
           id="path3266"
           style="fill:#c0c5e1;fill-opacity:1" />
        <path
           d="m 129.27982,93.442 -1.1811,-3.194 h 0.53975 l 0.98425,2.813 h -0.1651 l 1.016,-2.813 h 0.45085 l 1.0033,2.813 h -0.1651 l 1.0033,-2.813 h 0.508 l -1.1811,3.194 h -0.4953 l -1.0541,-2.8766 h 0.2794 l -1.0478,2.8766 z"
           id="path3268"
           style="fill:#c0c5e1;fill-opacity:1" />
        <path
           d="m 133.83982,93.442 v -3.194 h 0.51435 v 3.194 z m -0.0508,-4.5466 h 0.62865 v 0.5842 h -0.62865 z"
           id="path3270"
           style="fill:#c0c5e1;fill-opacity:1" />
        <path
           d="m 134.79982,90.654 v -0.4064 h 2.051 v 0.4064 z m 2.0384,2.3304 v 0.43815 q -0.10795,0.03175 -0.2159,0.04445 -0.1016,0.01905 -0.2286,0.01905 -0.4445,0 -0.7112,-0.254 -0.26035,-0.254 -0.26035,-0.762 v -3.0416 l 0.51435,-0.18415 v 3.156 q 0,0.254 0.0699,0.3937 0.0762,0.1397 0.2032,0.19685 0.127,0.0508 0.28575,0.0508 0.0952,0 0.17145,-0.0127 0.0762,-0.0127 0.17145,-0.04445 z"
           id="path3272"
           style="fill:#c0c5e1;fill-opacity:1" />
        <path
           d="m 137.36982,93.442 v -4.6736 h 0.51435 v 2.1272 l -0.0825,0.0635 q 0.13335,-0.38735 0.4445,-0.5842 0.31115,-0.2032 0.71755,-0.2032 1.1494,0 1.1494,1.2636 v 2.0066 h -0.51435 v -1.9812 q 0,-0.4445 -0.1778,-0.6477 -0.1778,-0.20955 -0.5588,-0.20955 -0.4445,0 -0.7112,0.27305 -0.2667,0.27305 -0.2667,0.7366 v 1.8288 z"
           id="path3274"
           style="fill:#c0c5e1;fill-opacity:1" />
        <path
           d="m 142.60982,93.442 v -4.5212 h 2.8575 v 0.4318 h -2.3432 v 1.5748 h 2.2162 v 0.43815 h -2.2162 v 1.6446 h 2.3432 v 0.4318 z"
           id="path3276"
           style="fill:#c0c5e1;fill-opacity:1" />
        <path
           d="m 147.39982,93.486 q -0.42545,0 -0.7493,-0.19685 -0.3175,-0.2032 -0.4953,-0.5715 -0.17145,-0.37465 -0.17145,-0.8763 0,-0.50165 0.1778,-0.8763 0.1778,-0.37465 0.4953,-0.5842 0.32385,-0.20955 0.74295,-0.20955 0.43815,0 0.74295,0.2159 0.3048,0.2159 0.41275,0.61595 l -0.0762,0.0508 V 90.2475 h 0.508 v 3.194 h -0.508 V 92.616 l 0.0762,0.0381 q -0.10795,0.40005 -0.41275,0.61595 -0.3048,0.2159 -0.74295,0.2159 z m 0.1016,-0.42545 q 0.4699,0 0.7239,-0.3175 0.254,-0.32385 0.254,-0.9144 0,-0.59055 -0.26035,-0.90805 -0.254,-0.3175 -0.71755,-0.3175 -0.4699,0 -0.7366,0.3302 -0.26035,0.32385 -0.26035,0.90805 0,0.5842 0.26035,0.9017 0.2667,0.3175 0.7366,0.3175 z"
           id="path3278"
           style="fill:#c0c5e1;fill-opacity:1" />
        <path
           d="m 149.88982,93.442 v -2.2987 q 0,-0.22225 -0.0127,-0.4445 -0.006,-0.2286 -0.0381,-0.45085 h 0.48895 l 0.0698,0.7874 -0.0698,-0.01905 q 0.0889,-0.4191 0.381,-0.62865 0.29845,-0.2159 0.66675,-0.2159 0.0825,0 0.1524,0.0127 0.0762,0.0063 0.1397,0.0254 l -0.0127,0.4699 q -0.14605,-0.0508 -0.33655,-0.0508 -0.3302,0 -0.5334,0.14605 -0.19685,0.14605 -0.2921,0.37465 -0.0889,0.22225 -0.0889,0.4699 v 1.8224 z"
           id="path3280"
           style="fill:#c0c5e1;fill-opacity:1" />
        <path
           d="m 151.88982,90.654 v -0.4064 h 2.051 v 0.4064 z m 2.0384,2.3304 v 0.43815 q -0.10795,0.03175 -0.2159,0.04445 -0.1016,0.01905 -0.2286,0.01905 -0.4445,0 -0.7112,-0.254 -0.26035,-0.254 -0.26035,-0.762 v -3.0416 l 0.51435,-0.18415 v 3.156 q 0,0.254 0.0699,0.3937 0.0762,0.1397 0.2032,0.19685 0.127,0.0508 0.28575,0.0508 0.0952,0 0.17145,-0.0127 0.0762,-0.0127 0.17145,-0.04445 z"
           id="path3282"
           style="fill:#c0c5e1;fill-opacity:1" />
        <path
           d="m 154.45982,93.442 v -4.6736 h 0.51435 v 2.1272 l -0.0826,0.0635 q 0.13335,-0.38735 0.4445,-0.5842 0.31115,-0.2032 0.71755,-0.2032 1.1494,0 1.1494,1.2636 v 2.0066 h -0.51435 v -1.9812 q 0,-0.4445 -0.1778,-0.6477 -0.1778,-0.20955 -0.5588,-0.20955 -0.4445,0 -0.7112,0.27305 -0.2667,0.27305 -0.2667,0.7366 v 1.8288 z"
           id="path3284"
           style="fill:#c0c5e1;fill-opacity:1" />
        <path
           d="m 158.11982,90.699 -0.1397,-1.778 h 0.6096 l -0.127,1.778 z"
           id="path3286"
           style="fill:#c0c5e1;fill-opacity:1" />
        <path
           d="m 160.45982,93.486 q -0.80645,0 -1.2764,-0.41275 l 0.17145,-0.381 q 0.254,0.19685 0.5207,0.2921 0.27305,0.0889 0.60325,0.0889 0.36195,0 0.5461,-0.12065 0.1905,-0.127 0.1905,-0.36195 0,-0.1905 -0.127,-0.29845 -0.127,-0.1143 -0.4191,-0.18415 l -0.53975,-0.127 q -0.40005,-0.0889 -0.6223,-0.3175 -0.2159,-0.2286 -0.2159,-0.5461 0,-0.2794 0.1524,-0.48895 0.1524,-0.2159 0.42545,-0.33655 0.27305,-0.12065 0.6477,-0.12065 0.33655,0 0.635,0.10795 0.29845,0.10795 0.50165,0.31115 l -0.17145,0.37465 q -0.2286,-0.1905 -0.4699,-0.2794 -0.23495,-0.09525 -0.4953,-0.09525 -0.3429,0 -0.5334,0.13335 -0.18415,0.13335 -0.18415,0.36195 0,0.19685 0.1143,0.31115 0.12065,0.1143 0.381,0.1778 l 0.53975,0.13335 q 0.45085,0.09525 0.6604,0.3175 0.2159,0.2159 0.2159,0.55245 0,0.41275 -0.33655,0.6604 -0.33655,0.24765 -0.9144,0.24765 z"
           id="path3288"
           style="fill:#c0c5e1;fill-opacity:1" />
        <path
           d="m 165.98982,93.493 q -0.6477,0 -1.1176,-0.2794 -0.4699,-0.2794 -0.7239,-0.8001 -0.254,-0.5207 -0.254,-1.2382 0,-0.7175 0.254,-1.2319 0.254,-0.5144 0.7239,-0.79375 0.4699,-0.27935 1.1176,-0.2794 0.46355,0 0.85725,0.14605 0.3937,0.1397 0.67945,0.42545 l -0.19685,0.40005 q -0.32385,-0.2794 -0.64135,-0.40005 -0.3175,-0.12065 -0.69215,-0.12065 -0.74295,0 -1.1557,0.4826 -0.4064,0.4826 -0.4064,1.3716 0,0.89535 0.4064,1.3843 0.4064,0.4826 1.1557,0.4826 0.37465,0 0.69215,-0.12065 0.3175,-0.12065 0.64135,-0.40005 l 0.19685,0.40005 q -0.28575,0.28575 -0.67945,0.4318 -0.3937,0.1397 -0.85725,0.1397 z"
           id="path3290"
           style="fill:#c0c5e1;fill-opacity:1" />
        <path
           d="m 167.96982,94.883 -0.10795,-0.40005 q 0.2921,-0.06985 0.48895,-0.1651 0.2032,-0.0889 0.33655,-0.23495 0.1397,-0.14605 0.2413,-0.38735 l 0.2032,-0.4699 0.1143,-0.15875 1.1684,-2.8194 h 0.51435 l -1.4922,3.4862 q -0.17145,0.38735 -0.38735,0.61595 -0.2159,0.23495 -0.48895,0.3556 -0.2667,0.12065 -0.59055,0.1778 z m 1.1684,-1.2764 -1.4351,-3.3592 h 0.53975 l 1.1557,2.8194 z"
           id="path3292"
           style="fill:#c0c5e1;fill-opacity:1" />
        <path
           d="m 172.69982,93.486 q -0.4699,0 -0.8128,-0.2032 -0.3429,-0.2032 -0.5334,-0.5715 -0.18415,-0.3683 -0.18415,-0.86995 0,-0.4953 0.1905,-0.86995 0.1905,-0.381 0.53975,-0.59055 0.34925,-0.20955 0.8255,-0.20955 0.32385,0 0.6223,0.1143 0.3048,0.10795 0.50165,0.3048 l -0.17145,0.381 q -0.23495,-0.18415 -0.46355,-0.27305 -0.22225,-0.09525 -0.46355,-0.09525 -0.4826,0 -0.76835,0.32385 -0.2794,0.32385 -0.2794,0.9144 0,0.5842 0.2794,0.9017 0.2794,0.3175 0.76835,0.3175 0.23495,0 0.46355,-0.0889 0.2286,-0.09525 0.46355,-0.2794 l 0.17145,0.381 q -0.2032,0.1905 -0.51435,0.3048 -0.3048,0.10795 -0.635,0.10795 z"
           id="path3294"
           style="fill:#c0c5e1;fill-opacity:1" />
        <path
           d="m 174.39982,93.442 v -4.6736 h 0.51435 v 4.6736 z"
           id="path3296"
           style="fill:#c0c5e1;fill-opacity:1" />
        <path
           d="m 178.42982,93.061 q -0.20955,0.19685 -0.53975,0.31115 -0.32385,0.1143 -0.66675,0.1143 -0.4953,0 -0.85725,-0.19685 -0.3556,-0.19685 -0.55245,-0.56515 -0.1905,-0.37465 -0.1905,-0.889 0,-0.4953 0.1905,-0.86995 0.1905,-0.37465 0.52705,-0.5842 0.3429,-0.20955 0.7874,-0.20955 0.42545,0 0.73025,0.1905 0.3048,0.18415 0.46355,0.5334 0.1651,0.34925 0.1651,0.8382 v 0.09525 h -2.413 v -0.33655 h 2.1209 l -0.1651,0.23495 q 0.0127,-0.5588 -0.22225,-0.85725 -0.2286,-0.29845 -0.6731,-0.29845 -0.46355,0 -0.73025,0.3302 -0.26035,0.32385 -0.26035,0.9017 0,0.6223 0.27305,0.9398 0.2794,0.3175 0.8128,0.3175 0.2794,0 0.5334,-0.0889 0.26035,-0.09525 0.4953,-0.28575 z"
           id="path3298"
           style="fill:#c0c5e1;fill-opacity:1" />
        <path
           d="m 180.24982,93.486 q -0.80645,0 -1.2764,-0.41275 l 0.17145,-0.381 q 0.254,0.19685 0.5207,0.2921 0.27305,0.0889 0.60325,0.0889 0.36195,0 0.5461,-0.12065 0.1905,-0.127 0.1905,-0.36195 0,-0.1905 -0.127,-0.29845 -0.127,-0.1143 -0.4191,-0.18415 l -0.53975,-0.127 q -0.40005,-0.0889 -0.6223,-0.3175 -0.2159,-0.2286 -0.2159,-0.5461 0,-0.2794 0.1524,-0.48895 0.1524,-0.2159 0.42545,-0.33655 0.27305,-0.12065 0.6477,-0.12065 0.33655,0 0.635,0.10795 0.29845,0.10795 0.50165,0.31115 l -0.17145,0.37465 q -0.2286,-0.1905 -0.4699,-0.2794 -0.23495,-0.09525 -0.4953,-0.09525 -0.3429,0 -0.5334,0.13335 -0.18415,0.13335 -0.18415,0.36195 0,0.19685 0.1143,0.31115 0.12065,0.1143 0.381,0.1778 l 0.53975,0.13335 q 0.45085,0.09525 0.6604,0.3175 0.2159,0.2159 0.2159,0.55245 0,0.41275 -0.33655,0.6604 -0.33655,0.24765 -0.9144,0.24765 z"
           id="path3300"
           style="fill:#c0c5e1;fill-opacity:1" />
      </g>
    </g>
    <g
       id="g3580"
       transform="translate(-0.09458281,1.4599544)"
       style="stroke:#a0c0d2;stroke-opacity:1;fill:#c0c5e1;fill-opacity:1">
      <g
         id="g3547"
         style="stroke:#a0c0d2;stroke-opacity:1;stroke-width:1.1;stroke-dasharray:none;fill:#c0c5e1;fill-opacity:1">
        <path
           id="circle3532"
           style="color:#000000;fill:#c0c5e1;stroke:none;stroke-linecap:round;-inkscape-stroke:none;opacity:1;fill-opacity:1"
           d="M 101.37299 45.456873 C 95.734294 45.456875 91.154495 50.035124 91.154495 55.673821 C 91.154495 61.312517 95.734294 65.892833 101.37299 65.892835 C 107.01169 65.892839 111.58994 61.312521 111.58994 55.673821 C 111.58994 53.514049 110.9176 51.510097 109.77196 49.859188 A 2.0058827 2.0058827 0 0 0 110.41223 48.390027 A 2.0058827 2.0058827 0 0 0 108.40616 46.383948 A 2.0058827 2.0058827 0 0 0 106.89152 47.076412 C 105.29953 46.051826 103.40514 45.456872 101.37299 45.456873 z M 101.37299 46.201014 C 103.27073 46.201013 105.03686 46.758288 106.5179 47.7172 A 2.0058827 2.0058827 0 0 0 106.40008 48.390027 A 2.0058827 2.0058827 0 0 0 108.40616 50.39559 A 2.0058827 2.0058827 0 0 0 109.14513 50.254513 C 110.21682 51.789586 110.8458 53.657434 110.8458 55.673821 C 110.8458 60.909893 106.60906 65.146631 101.37299 65.146627 C 96.136921 65.146626 91.900186 60.909889 91.900186 55.673821 C 91.900186 50.437752 96.136921 46.201015 101.37299 46.201014 z " />
        <path
           style="color:#000000;fill:#c0c5e1;stroke:none;stroke-linecap:round;-inkscape-stroke:none;opacity:0.92;fill-opacity:1"
           d="m 101.37305,51.175781 c -2.481178,10e-7 -4.49805,2.016872 -4.49805,4.498047 0,2.481175 2.016872,4.498046 4.49805,4.498047 2.48117,-10e-7 4.49804,-2.016872 4.49804,-4.498047 0,-2.481175 -2.01687,-4.498046 -4.49804,-4.498047 z m 0,0.5 c 2.21095,10e-7 3.99804,1.787092 3.99804,3.998047 0,2.210955 -1.78709,3.998046 -3.99804,3.998047 -2.210958,-10e-7 -3.99805,-1.787092 -3.99805,-3.998047 0,-2.210955 1.787092,-3.998046 3.99805,-3.998047 z"
           id="path3530" />
        <path
           id="circle3534"
           style="color:#000000;opacity:1;fill:#c0c5e1;stroke:none;stroke-linecap:round;-inkscape-stroke:none;fill-opacity:1"
           d="M 101.37299 39.041244 C 98.965107 39.041244 96.67304 39.554835 94.605448 40.476815 C 94.465774 40.539098 94.327046 40.603044 94.189452 40.669052 C 94.406738 40.93594 94.573524 41.25627 94.681412 41.652971 C 94.804863 41.593923 94.929277 41.536218 95.054516 41.480372 C 96.984635 40.619691 99.12105 40.142469 101.37299 40.142469 C 109.95757 40.142468 116.90434 47.089235 116.90434 55.673821 C 116.90434 58.897328 115.92248 61.888504 114.24456 64.369414 C 113.8211 64.109526 113.32399 63.95962 112.79297 63.95962 C 111.25943 63.95962 110.00761 65.210931 110.00761 66.744463 C 110.00761 67.305969 110.17539 67.830271 110.46339 68.268917 C 107.90829 70.116111 104.77015 71.207239 101.37299 71.207239 C 92.78842 71.207238 85.841641 64.258403 85.841641 55.673821 C 85.841641 52.587111 86.743878 49.714673 88.294722 47.298621 C 88.800817 47.579809 89.382437 47.740455 90.000044 47.740455 C 91.942697 47.740456 93.529544 46.153608 93.529544 44.210954 C 93.529544 42.268301 91.942697 40.681453 90.000044 40.681454 C 88.057391 40.681454 86.470544 42.268302 86.470544 44.210954 C 86.470544 45.139499 86.833383 45.986554 87.423974 46.618043 C 85.727616 49.22472 84.740417 52.334537 84.740417 55.673821 C 84.740417 64.852881 92.193937 72.306396 101.37299 72.306397 C 105.06691 72.306397 108.48089 71.098395 111.24267 69.0575 C 111.68634 69.35667 112.22004 69.53189 112.79297 69.531889 C 114.3265 69.53189 115.57988 68.277994 115.57988 66.744463 C 115.57988 66.140131 115.38513 65.579765 115.05536 65.122339 C 116.91411 62.43769 118.00609 59.182925 118.00609 55.673821 C 118.00609 46.494756 110.55205 39.041243 101.37299 39.041244 z M 90.000044 41.781128 C 91.348216 41.781128 92.42987 42.862785 92.42987 44.210954 C 92.429871 45.559127 91.348217 46.638713 90.000044 46.638713 C 89.612411 46.638713 89.246765 46.549369 88.92259 46.390149 C 88.923704 46.388658 88.924577 46.386989 88.925691 46.385499 A 2.4268377 2.4268377 0 0 1 88.075614 45.686316 C 88.074062 45.688379 88.072514 45.690454 88.070963 45.692518 C 87.756661 45.283506 87.570218 44.770462 87.570218 44.210954 C 87.570219 42.862785 88.651872 41.781128 90.000044 41.781128 z M 112.79297 64.830884 C 113.85578 64.830884 114.70861 65.681654 114.70861 66.744463 C 114.70861 67.807272 113.85578 68.660625 112.79297 68.660625 C 111.73016 68.660625 110.87887 67.807272 110.87887 66.744463 C 110.87887 65.681654 111.73016 64.830884 112.79297 64.830884 z " />
        <g
           id="circle3538"
           style="stroke:none;fill:#c0c5e1;fill-opacity:1"
           transform="translate(-0.21109079,-0.28848831)" />
      </g>
    </g>
  </g>
</svg>
