<?xml version="1.0" encoding="UTF-8"?>
<!-- Created with Inkscape (http://www.inkscape.org/) -->
<svg width="70.039mm" height="57.05mm" version="1.1" viewBox="0 0 70.039 57.05" xmlns="http://www.w3.org/2000/svg">
 <g transform="translate(-66.387 -37.952)" fill="#666">
  <g transform="rotate(.040269 -1505.6 753.44)" stroke-width=".30247" aria-label="earthcycles">
   <path d="m67.003 82.069q0 0.25993 0.03545 0.47851 0.04135 0.21267 0.11224 0.40762 0.21858 0.59076 0.69709 0.89204 0.48442 0.29538 1.0929 0.29538 0.47851 0 0.92749-0.12997 0.45488-0.13587 0.95112-0.41944l0.44307 0.75026q-0.60257 0.41353-1.2111 0.61439-0.60848 0.20086-1.2642 0.20086-0.62029 0-1.152-0.20676-0.52577-0.20676-0.90977-0.61439-0.37808-0.40762-0.59666-1.0161-0.21267-0.60848-0.21267-1.4178 0-0.65574 0.18314-1.2347 0.18314-0.58485 0.5435-1.0161 0.36627-0.43716 0.90386-0.69119 0.53759-0.25402 1.2524-0.25402 0.69118 0 1.152 0.21267 0.4667 0.20676 0.75617 0.55531 0.29538 0.34264 0.44307 0.78571 0.1536 0.44307 0.21267 0.90386 0.02954 0.22449 0.03545 0.45488 0.01181 0.2304 0.01181 0.44898zm1.7191-2.4398q-0.38399 0-0.67346 0.11224-0.28356 0.10634-0.48442 0.3131-0.20086 0.20086-0.32492 0.49624-0.11815 0.29538-0.17723 0.66165h3.1724q-0.02363-0.34264-0.11224-0.63211-0.08271-0.28947-0.25993-0.50214-0.17723-0.21267-0.45488-0.33082t-0.68528-0.11815z"/>
   <path d="m76.502 84.42q-0.34855 0.32492-0.77389 0.53168-0.41944 0.20676-0.95703 0.20676-0.44898 0-0.82706-0.14178-0.37218-0.14178-0.64392-0.38399-0.27175-0.24812-0.42534-0.57303-0.14769-0.32492-0.14769-0.69119 0-0.3899 0.11224-0.69118 0.11815-0.30129 0.30719-0.51987 0.19495-0.22449 0.44898-0.37218 0.25993-0.1536 0.53759-0.24221 0.28356-0.09452 0.57304-0.12997 0.29538-0.04135 0.56122-0.04135 0.42534 0 0.71482 0.02954 0.28947 0.02363 0.52577 0.07089l0.0059-0.50214q0-0.32492-0.09452-0.56122-0.09452-0.24221-0.26584-0.39581-0.17132-0.1595-0.41353-0.2363-0.2363-0.0768-0.53168-0.0768-0.27766 0-0.53168 0.04135-0.25403 0.03545-0.47851 0.10043-0.21858 0.05908-0.40762 0.14178-0.18314 0.0768-0.3131 0.16541l-0.36036-0.76208q0.21858-0.14178 0.47851-0.25993 0.25993-0.12406 0.5435-0.20676 0.28947-0.08861 0.58485-0.13587 0.30129-0.05317 0.59076-0.05317 0.53168 0 0.95703 0.12997 0.42534 0.12406 0.72072 0.3899t0.45488 0.67937q0.1595 0.40762 0.1595 0.98066l-0.0059 3.0601h0.67937v1.0161h-1.7782zm-1.4887-0.18313q0.21858 0 0.43716-0.05317t0.41353-0.14178q0.19495-0.09452 0.36036-0.21267 0.16541-0.12406 0.27766-0.25403l0.0059-1.3824h-1.276q-0.31901 0-0.58485 0.07089-0.25993 0.07089-0.45488 0.20676-0.18904 0.13587-0.29538 0.33673t-0.10634 0.46079q0 0.24221 0.08861 0.42534 0.08861 0.17723 0.24812 0.30129 0.16541 0.11815 0.3899 0.18314 0.22449 0.05908 0.49624 0.05908z"/>
   <path d="m83.922 80.161h-1.1224v-0.37808q-0.19495 0-0.40171 0.0768-0.20086 0.07089-0.37808 0.22449-0.17723 0.14769-0.3131 0.38399-0.12997 0.2304-0.18904 0.5494v2.9538h1.0397v1.0161h-3.0365v-1.0161h0.84478l0.0059-4.088h-0.85069v-1.0161h1.9554v0.84478q0.10634-0.18904 0.2363-0.34855 0.13587-0.16541 0.29538-0.28356 0.16541-0.12406 0.36036-0.18904 0.20086-0.07089 0.43125-0.07089 0.30719 0 0.57894 0t0.5435 0.01181z"/>
   <path d="m86.964 78.867h1.4355v0.89204h-1.4474l-0.01772 3.5327q0 0.36036 0.08271 0.58485t0.26584 0.3131q0.18313 0.08271 0.41353 0.08271 0.24812 0 0.43716-0.04135 0.18904-0.04726 0.41353-0.1536l0.25403 0.73845q-0.28356 0.14769-0.59666 0.2304-0.3131 0.08861-0.73845 0.08861-0.40171 0-0.703-0.10043-0.29538-0.09452-0.50214-0.32492-0.20086-0.2304-0.30129-0.61439-0.10043-0.3899-0.10043-0.96884l0.01772-3.3673h-0.97475v-0.89204h0.98656v-1.4651l1.0752-0.50805z"/>
   <path d="m89.776 75.795h1.9377v3.7454h0.03544q0.16541-0.16541 0.37808-0.30719 0.21858-0.14769 0.45488-0.25403t0.49033-0.16541q0.25403-0.05907 0.53168-0.05907 0.49033 0 0.88614 0.13587t0.67346 0.41353q0.27766 0.27766 0.42534 0.71482 0.1536 0.43125 0.1536 1.022v2.9302h0.92158v1.0161h-2.9065v-1.0161h0.83888v-2.7943q0-0.703-0.36036-1.0634-0.35445-0.36627-1.022-0.36627-0.37808 0-0.76798 0.18314-0.3899 0.17723-0.73254 0.44898v3.5918h0.88614v1.0161h-2.9065v-1.0161h0.92158v-7.16h-0.83888z"/>
   <path d="m102.16 80.982q-0.25403-0.31901-0.56713-0.47851-0.3131-0.16541-0.73844-0.14178-0.34264-0.02363-0.6262 0.09452-0.27766 0.11815-0.48443 0.33082-0.20086 0.21267-0.3131 0.50805-0.11224 0.28947-0.11224 0.65574 0 0.32492 0.11815 0.61439t0.31901 0.50214q0.20676 0.20676 0.48442 0.32492 0.28356 0.11815 0.61439 0.14178 0.27765-0.02363 0.50214-0.11224 0.2304-0.09452 0.40762-0.2363 0.17723-0.14769 0.30129-0.32492 0.12997-0.18313 0.20086-0.34264l1.6246 0.44898q-0.10043 0.35445-0.34855 0.73845-0.24221 0.38399-0.63802 0.703-0.3899 0.3131-0.93339 0.51987-0.53759 0.20676-1.2288 0.20676-0.703 0-1.2938-0.25402-0.59076-0.25993-1.0161-0.703t-0.66756-1.0397q-0.2363-0.59666-0.2363-1.2819 0-0.67937 0.24221-1.2583 0.24812-0.58485 0.67937-1.0161 0.43125-0.43716 1.022-0.67937 0.59666-0.24221 1.2938-0.21858 0.49624-0.02363 0.96294 0.11224 0.4667 0.13588 0.88613 0.40762h1.1756v1.7782z"/>
   <path d="m104.37 78.867h3.001v1.6187h-0.47261l0.88023 2.2921 0.90386-2.2921h-0.52577v-1.6187h3.001v1.6187h-0.66755l-2.3689 5.6654h1.0516v1.6187h-3.7986v-1.6187h1.0693l0.46079-1.1638-1.914-4.5016h-0.62029z"/>
   <path d="m116.46 80.982q-0.25402-0.31901-0.56712-0.47851-0.3131-0.16541-0.73845-0.14178-0.34264-0.02363-0.6262 0.09452-0.27766 0.11815-0.48442 0.33082-0.20086 0.21267-0.3131 0.50805-0.11225 0.28947-0.11225 0.65574 0 0.32492 0.11815 0.61439 0.11816 0.28947 0.31901 0.50214 0.20677 0.20676 0.48442 0.32492 0.28357 0.11815 0.61439 0.14178 0.27766-0.02363 0.50214-0.11224 0.2304-0.09452 0.40763-0.2363 0.17722-0.14769 0.30128-0.32492 0.12997-0.18313 0.20086-0.34264l1.6246 0.44898q-0.10043 0.35445-0.34855 0.73845-0.24221 0.38399-0.63801 0.703-0.3899 0.3131-0.9334 0.51987-0.53759 0.20676-1.2288 0.20676-0.703 0-1.2938-0.25402-0.59076-0.25993-1.0161-0.703-0.42535-0.44307-0.66756-1.0397-0.2363-0.59666-0.2363-1.2819 0-0.67937 0.24221-1.2583 0.24812-0.58485 0.67937-1.0161 0.43125-0.43716 1.022-0.67937 0.59666-0.24221 1.2938-0.21858 0.49623-0.02363 0.96293 0.11224 0.4667 0.13588 0.88614 0.40762h1.1756v1.7782z"/>
   <path d="m118.72 75.795h2.7588v7.5735h0.94521v1.6187h-3.704v-1.6187h0.94521v-5.9548h-0.94521z"/>
   <path d="m125.04 82.311 0.0177 0.18313q0.065 0.26584 0.21858 0.4667 0.1595 0.20086 0.37218 0.33673 0.21267 0.13587 0.4726 0.20676 0.25993 0.06498 0.52578 0.06498 0.26584 0 0.50214-0.02954 0.24221-0.03545 0.4667-0.08861 0.22448-0.05908 0.43716-0.12997 0.21267-0.0768 0.43125-0.1595l0.64983 1.2111q-0.33673 0.20676-0.62029 0.35445-0.27766 0.14178-0.56122 0.2363-0.28357 0.09452-0.60257 0.13587-0.31901 0.04726-0.74436 0.04726-0.79752 0-1.4178-0.25993-0.6203-0.26584-1.0456-0.71482-0.41944-0.44898-0.64393-1.0515-0.21858-0.60257-0.21858-1.276 0-0.67346 0.2304-1.2642 0.2363-0.59076 0.66164-1.0279 0.42535-0.44307 1.0161-0.69709t1.3115-0.25402q0.72072 0 1.276 0.24221 0.56122 0.2363 0.94521 0.66165 0.38399 0.41944 0.59076 0.99247 0.20676 0.56713 0.22449 1.2229 0.0177 0.14769 0.0177 0.29538 6e-3 0.14178-6e-3 0.29538zm1.4119-2.2331q-0.33083 0-0.56713 0.08271-0.2304 0.0768-0.3899 0.21858-0.1595 0.13587-0.25403 0.3131-0.0945 0.17723-0.14769 0.37218h2.558q-0.0414-0.20086-0.11815-0.37808-0.0768-0.17723-0.21267-0.3131-0.13588-0.13587-0.34855-0.21267-0.20676-0.08271-0.51986-0.08271z"/>
   <path d="m134.37 80.74q0-0.14178-0.0945-0.27175-0.0886-0.12997-0.26584-0.22449-0.17723-0.10043-0.43716-0.1595-0.25403-0.05907-0.57894-0.05907-0.12406 0-0.26584 0.02363-0.14178 0.01772-0.26584 0.07089-0.11815 0.05317-0.20086 0.14769-0.0768 0.08861-0.0768 0.2304 0 0.07089 0.0177 0.13587 0.0236 0.06498 0.0827 0.12406t0.1595 0.11224q0.10634 0.04726 0.27175 0.0768l1.1106 0.21858q0.60257 0.11815 1.0102 0.29538t0.65574 0.41353q0.24812 0.2363 0.35445 0.52577 0.11225 0.28947 0.11225 0.6262 0 0.52577-0.24812 0.92158-0.24221 0.39581-0.64393 0.66165-0.3958 0.25993-0.89795 0.3899-0.49623 0.13587-1.0043 0.13587-0.33083 0-0.60257-0.04135-0.26584-0.04135-0.48442-0.11224-0.21268-0.07089-0.384-0.16541-0.16541-0.10043-0.30719-0.21858h-1.0693v-1.6423h1.6718v0.03545q6e-3 0.17132 0.10634 0.30129 0.10043 0.12406 0.25993 0.21267 0.16541 0.08861 0.37218 0.13587 0.20676 0.04135 0.43716 0.04135 0.53168 0 0.77389-0.13587 0.24221-0.14178 0.24221-0.36036 0-0.17132-0.11815-0.28947-0.11815-0.12406-0.41944-0.19495l-1.1342-0.24221q-1.0693-0.20676-1.6128-0.68528-0.54349-0.48442-0.54349-1.2406 0-0.44307 0.20676-0.80343 0.20677-0.36627 0.56122-0.62029 0.35445-0.25993 0.82706-0.40172 0.47851-0.14178 1.022-0.14178 0.37217 0 0.66165 0.04726 0.28947 0.04135 0.51986 0.11224 0.2304 0.07089 0.40172 0.17132 0.17722 0.09452 0.3131 0.20086h1.0279v1.6423z"/>
  </g>
  <g transform="rotate(.040269 1.2477e-5 .0024858)" stroke-width=".46011" aria-label="calendar.earthen.io  |  by Russell Maier  ">
   <g transform="matrix(.68739 -.00048311 .00048311 .68739 .29478 29.78)" fill="#666" stroke-linecap="round" stroke-width=".84587" style="inline-size:86.3622;white-space:pre" aria-label="Sync with Earth's Cycles.">
    <path d="m114.61 93.493q-0.34925 0-0.65405-0.05715-0.3048-0.0635-0.56515-0.1905-0.26035-0.13335-0.4699-0.32385l0.19685-0.40005q0.3429 0.28575 0.6858 0.4064 0.34925 0.12065 0.8128 0.12065 0.53975 0 0.8382-0.20955 0.29845-0.2159 0.29845-0.60325 0-0.23495-0.1524-0.37465-0.14605-0.14605-0.4064-0.2286-0.254-0.0889-0.57785-0.1651-0.32385-0.06985-0.61595-0.15875-0.2921-0.09525-0.5207-0.23495-0.22225-0.1397-0.34925-0.3556t-0.127-0.53975q0-0.38735 0.2032-0.67945 0.2032-0.29845 0.5715-0.46355t0.86995-0.1651q0.31115 0 0.5969 0.06985 0.28575 0.0635 0.52705 0.1905 0.24765 0.127 0.43815 0.31115l-0.2032 0.40005q-0.31115-0.27305-0.64135-0.40005t-0.71755-0.127q-0.52705 0-0.8255 0.22225t-0.29845 0.6223q0 0.24765 0.13335 0.40005t0.37465 0.24765q0.2413 0.0889 0.55245 0.1651 0.3302 0.0762 0.635 0.1651t0.53975 0.22225q0.2413 0.127 0.381 0.33655 0.1397 0.2032 0.1397 0.5207 0 0.38735-0.2032 0.6731t-0.57785 0.4445-0.889 0.15875z"/>
    <path d="m116.78 94.883-0.10795-0.40005q0.2921-0.06985 0.48895-0.1651 0.2032-0.0889 0.33655-0.23495 0.1397-0.14605 0.2413-0.38735l0.2032-0.4699 0.1143-0.15875 1.1684-2.8194h0.51435l-1.4922 3.4862q-0.17145 0.38735-0.38735 0.61595-0.2159 0.23495-0.48895 0.3556-0.2667 0.12065-0.59055 0.1778zm1.1684-1.2764-1.4351-3.3592h0.53975l1.1557 2.8194z"/>
    <path d="m120.2 93.442v-2.2987q0-0.22225-0.0127-0.4445-6e-3 -0.2286-0.0381-0.45085h0.48895l0.0572 0.6604-0.0635 0.0508q0.13335-0.38735 0.4445-0.5842 0.31115-0.2032 0.71755-0.2032 1.1494 0 1.1494 1.2636v2.0066h-0.51435v-1.9812q0-0.4445-0.1778-0.6477-0.1778-0.20955-0.5588-0.20955-0.4445 0-0.7112 0.27305t-0.2667 0.7366v1.8288z"/>
    <path d="m125.16 93.486q-0.4699 0-0.8128-0.2032t-0.5334-0.5715q-0.18415-0.3683-0.18415-0.86995 0-0.4953 0.1905-0.86995 0.1905-0.381 0.53975-0.59055t0.8255-0.20955q0.32385 0 0.6223 0.1143 0.3048 0.10795 0.50165 0.3048l-0.17145 0.381q-0.23495-0.18415-0.46355-0.27305-0.22225-0.09525-0.46355-0.09525-0.4826 0-0.76835 0.32385-0.2794 0.32385-0.2794 0.9144 0 0.5842 0.2794 0.9017t0.76835 0.3175q0.23495 0 0.46355-0.0889 0.2286-0.09525 0.46355-0.2794l0.17145 0.381q-0.2032 0.1905-0.51435 0.3048-0.3048 0.10795-0.635 0.10795z"/>
    <path d="m129.28 93.442-1.1811-3.194h0.53975l0.98425 2.813h-0.1651l1.016-2.813h0.45085l1.0033 2.813h-0.1651l1.0033-2.813h0.508l-1.1811 3.194h-0.4953l-1.0541-2.8766h0.2794l-1.0478 2.8766z"/>
    <path d="m133.84 93.442v-3.194h0.51435v3.194zm-0.0508-4.5466h0.62865v0.5842h-0.62865z"/>
    <path d="m134.8 90.654v-0.4064h2.051v0.4064zm2.0384 2.3304v0.43815q-0.10795 0.03175-0.2159 0.04445-0.1016 0.01905-0.2286 0.01905-0.4445 0-0.7112-0.254-0.26035-0.254-0.26035-0.762v-3.0416l0.51435-0.18415v3.156q0 0.254 0.0699 0.3937 0.0762 0.1397 0.2032 0.19685 0.127 0.0508 0.28575 0.0508 0.0952 0 0.17145-0.0127 0.0762-0.0127 0.17145-0.04445z"/>
    <path d="m137.37 93.442v-4.6736h0.51435v2.1272l-0.0825 0.0635q0.13335-0.38735 0.4445-0.5842 0.31115-0.2032 0.71755-0.2032 1.1494 0 1.1494 1.2636v2.0066h-0.51435v-1.9812q0-0.4445-0.1778-0.6477-0.1778-0.20955-0.5588-0.20955-0.4445 0-0.7112 0.27305t-0.2667 0.7366v1.8288z"/>
    <path d="m142.61 93.442v-4.5212h2.8575v0.4318h-2.3432v1.5748h2.2162v0.43815h-2.2162v1.6446h2.3432v0.4318z"/>
    <path d="m147.4 93.486q-0.42545 0-0.7493-0.19685-0.3175-0.2032-0.4953-0.5715-0.17145-0.37465-0.17145-0.8763t0.1778-0.8763 0.4953-0.5842q0.32385-0.20955 0.74295-0.20955 0.43815 0 0.74295 0.2159t0.41275 0.61595l-0.0762 0.0508v-0.80645h0.508v3.194h-0.508v-0.8255l0.0762 0.0381q-0.10795 0.40005-0.41275 0.61595t-0.74295 0.2159zm0.1016-0.42545q0.4699 0 0.7239-0.3175 0.254-0.32385 0.254-0.9144t-0.26035-0.90805q-0.254-0.3175-0.71755-0.3175-0.4699 0-0.7366 0.3302-0.26035 0.32385-0.26035 0.90805t0.26035 0.9017q0.2667 0.3175 0.7366 0.3175z"/>
    <path d="m149.89 93.442v-2.2987q0-0.22225-0.0127-0.4445-6e-3 -0.2286-0.0381-0.45085h0.48895l0.0698 0.7874-0.0698-0.01905q0.0889-0.4191 0.381-0.62865 0.29845-0.2159 0.66675-0.2159 0.0825 0 0.1524 0.0127 0.0762 0.0063 0.1397 0.0254l-0.0127 0.4699q-0.14605-0.0508-0.33655-0.0508-0.3302 0-0.5334 0.14605-0.19685 0.14605-0.2921 0.37465-0.0889 0.22225-0.0889 0.4699v1.8224z"/>
    <path d="m151.89 90.654v-0.4064h2.051v0.4064zm2.0384 2.3304v0.43815q-0.10795 0.03175-0.2159 0.04445-0.1016 0.01905-0.2286 0.01905-0.4445 0-0.7112-0.254-0.26035-0.254-0.26035-0.762v-3.0416l0.51435-0.18415v3.156q0 0.254 0.0699 0.3937 0.0762 0.1397 0.2032 0.19685 0.127 0.0508 0.28575 0.0508 0.0952 0 0.17145-0.0127 0.0762-0.0127 0.17145-0.04445z"/>
    <path d="m154.46 93.442v-4.6736h0.51435v2.1272l-0.0826 0.0635q0.13335-0.38735 0.4445-0.5842 0.31115-0.2032 0.71755-0.2032 1.1494 0 1.1494 1.2636v2.0066h-0.51435v-1.9812q0-0.4445-0.1778-0.6477-0.1778-0.20955-0.5588-0.20955-0.4445 0-0.7112 0.27305t-0.2667 0.7366v1.8288z"/>
    <path d="m158.12 90.699-0.1397-1.778h0.6096l-0.127 1.778z"/>
    <path d="m160.46 93.486q-0.80645 0-1.2764-0.41275l0.17145-0.381q0.254 0.19685 0.5207 0.2921 0.27305 0.0889 0.60325 0.0889 0.36195 0 0.5461-0.12065 0.1905-0.127 0.1905-0.36195 0-0.1905-0.127-0.29845-0.127-0.1143-0.4191-0.18415l-0.53975-0.127q-0.40005-0.0889-0.6223-0.3175-0.2159-0.2286-0.2159-0.5461 0-0.2794 0.1524-0.48895 0.1524-0.2159 0.42545-0.33655t0.6477-0.12065q0.33655 0 0.635 0.10795t0.50165 0.31115l-0.17145 0.37465q-0.2286-0.1905-0.4699-0.2794-0.23495-0.09525-0.4953-0.09525-0.3429 0-0.5334 0.13335-0.18415 0.13335-0.18415 0.36195 0 0.19685 0.1143 0.31115 0.12065 0.1143 0.381 0.1778l0.53975 0.13335q0.45085 0.09525 0.6604 0.3175 0.2159 0.2159 0.2159 0.55245 0 0.41275-0.33655 0.6604t-0.9144 0.24765z"/>
    <path d="m165.99 93.493q-0.6477 0-1.1176-0.2794t-0.7239-0.8001-0.254-1.2382 0.254-1.2319 0.7239-0.79375 1.1176-0.2794q0.46355 0 0.85725 0.14605 0.3937 0.1397 0.67945 0.42545l-0.19685 0.40005q-0.32385-0.2794-0.64135-0.40005t-0.69215-0.12065q-0.74295 0-1.1557 0.4826-0.4064 0.4826-0.4064 1.3716 0 0.89535 0.4064 1.3843 0.4064 0.4826 1.1557 0.4826 0.37465 0 0.69215-0.12065t0.64135-0.40005l0.19685 0.40005q-0.28575 0.28575-0.67945 0.4318-0.3937 0.1397-0.85725 0.1397z"/>
    <path d="m167.97 94.883-0.10795-0.40005q0.2921-0.06985 0.48895-0.1651 0.2032-0.0889 0.33655-0.23495 0.1397-0.14605 0.2413-0.38735l0.2032-0.4699 0.1143-0.15875 1.1684-2.8194h0.51435l-1.4922 3.4862q-0.17145 0.38735-0.38735 0.61595-0.2159 0.23495-0.48895 0.3556-0.2667 0.12065-0.59055 0.1778zm1.1684-1.2764-1.4351-3.3592h0.53975l1.1557 2.8194z"/>
    <path d="m172.7 93.486q-0.4699 0-0.8128-0.2032t-0.5334-0.5715q-0.18415-0.3683-0.18415-0.86995 0-0.4953 0.1905-0.86995 0.1905-0.381 0.53975-0.59055t0.8255-0.20955q0.32385 0 0.6223 0.1143 0.3048 0.10795 0.50165 0.3048l-0.17145 0.381q-0.23495-0.18415-0.46355-0.27305-0.22225-0.09525-0.46355-0.09525-0.4826 0-0.76835 0.32385-0.2794 0.32385-0.2794 0.9144 0 0.5842 0.2794 0.9017t0.76835 0.3175q0.23495 0 0.46355-0.0889 0.2286-0.09525 0.46355-0.2794l0.17145 0.381q-0.2032 0.1905-0.51435 0.3048-0.3048 0.10795-0.635 0.10795z"/>
    <path d="m174.4 93.442v-4.6736h0.51435v4.6736z"/>
    <path d="m178.43 93.061q-0.20955 0.19685-0.53975 0.31115-0.32385 0.1143-0.66675 0.1143-0.4953 0-0.85725-0.19685-0.3556-0.19685-0.55245-0.56515-0.1905-0.37465-0.1905-0.889 0-0.4953 0.1905-0.86995t0.52705-0.5842q0.3429-0.20955 0.7874-0.20955 0.42545 0 0.73025 0.1905 0.3048 0.18415 0.46355 0.5334 0.1651 0.34925 0.1651 0.8382v0.09525h-2.413v-0.33655h2.1209l-0.1651 0.23495q0.0127-0.5588-0.22225-0.85725-0.2286-0.29845-0.6731-0.29845-0.46355 0-0.73025 0.3302-0.26035 0.32385-0.26035 0.9017 0 0.6223 0.27305 0.9398 0.2794 0.3175 0.8128 0.3175 0.2794 0 0.5334-0.0889 0.26035-0.09525 0.4953-0.28575z"/>
    <path d="m180.25 93.486q-0.80645 0-1.2764-0.41275l0.17145-0.381q0.254 0.19685 0.5207 0.2921 0.27305 0.0889 0.60325 0.0889 0.36195 0 0.5461-0.12065 0.1905-0.127 0.1905-0.36195 0-0.1905-0.127-0.29845-0.127-0.1143-0.4191-0.18415l-0.53975-0.127q-0.40005-0.0889-0.6223-0.3175-0.2159-0.2286-0.2159-0.5461 0-0.2794 0.1524-0.48895 0.1524-0.2159 0.42545-0.33655t0.6477-0.12065q0.33655 0 0.635 0.10795t0.50165 0.31115l-0.17145 0.37465q-0.2286-0.1905-0.4699-0.2794-0.23495-0.09525-0.4953-0.09525-0.3429 0-0.5334 0.13335-0.18415 0.13335-0.18415 0.36195 0 0.19685 0.1143 0.31115 0.12065 0.1143 0.381 0.1778l0.53975 0.13335q0.45085 0.09525 0.6604 0.3175 0.2159 0.2159 0.2159 0.55245 0 0.41275-0.33655 0.6604t-0.9144 0.24765z"/>
   </g>
  </g>
  <g transform="translate(-.094583 1.46)" stroke="#a0c0d2">
   <g fill="#666" stroke="none" stroke-width="1.1">
    <path d="m101.37 45.457c-5.6387 2e-6 -10.218 4.5783-10.218 10.217 0 5.6387 4.5798 10.219 10.218 10.219 5.6387 4e-6 10.217-4.5803 10.217-10.219 0-2.1598-0.67234-4.1637-1.818-5.8146a2.0059 2.0059 0 0 0 0.64027-1.4692 2.0059 2.0059 0 0 0-2.0061-2.0061 2.0059 2.0059 0 0 0-1.5146 0.69246c-1.592-1.0246-3.4864-1.6195-5.5185-1.6195zm0 0.74414c1.8977-1e-6 3.6639 0.55727 5.1449 1.5162a2.0059 2.0059 0 0 0-0.11782 0.67283 2.0059 2.0059 0 0 0 2.0061 2.0056 2.0059 2.0059 0 0 0 0.73897-0.14108c1.0717 1.5351 1.7007 3.4029 1.7007 5.4193 0 5.2361-4.2367 9.4728-9.4728 9.4728-5.2361-1e-6 -9.4728-4.2367-9.4728-9.4728 0-5.2361 4.2367-9.4728 9.4728-9.4728z" color="#000000" style="-inkscape-stroke:none"/>
    <path d="m101.37 51.176c-2.4812 1e-6 -4.498 2.0169-4.498 4.498s2.0169 4.498 4.498 4.498c2.4812-1e-6 4.498-2.0169 4.498-4.498s-2.0169-4.498-4.498-4.498zm0 0.5c2.211 1e-6 3.998 1.7871 3.998 3.998s-1.7871 3.998-3.998 3.998c-2.211-1e-6 -3.998-1.7871-3.998-3.998s1.7871-3.998 3.998-3.998z" color="#000000" opacity=".92" style="-inkscape-stroke:none"/>
    <path d="m101.37 39.041c-2.4079 0-4.7 0.51359-6.7675 1.4356-0.13967 0.062283-0.2784 0.12623-0.416 0.19224 0.21729 0.26689 0.38407 0.58722 0.49196 0.98392 0.12345-0.059048 0.24786-0.11675 0.3731-0.1726 1.9301-0.86068 4.0665-1.3379 6.3185-1.3379 8.5846-1e-6 15.531 6.9468 15.531 15.531 0 3.2235-0.98186 6.2147-2.6598 8.6956-0.42346-0.25989-0.92057-0.40979-1.4516-0.40979-1.5335 0-2.7854 1.2513-2.7854 2.7848 0 0.56151 0.16778 1.0858 0.45578 1.5245-2.5551 1.8472-5.6932 2.9383-9.0904 2.9383-8.5846-1e-6 -15.531-6.9488-15.531-15.533 0-3.0867 0.90224-5.9591 2.4531-8.3752 0.5061 0.28119 1.0877 0.44183 1.7053 0.44183 1.9427 1e-6 3.5295-1.5868 3.5295-3.5295 0-1.9427-1.5868-3.5295-3.5295-3.5295-1.9427 0-3.5295 1.5868-3.5295 3.5295 0 0.92854 0.36284 1.7756 0.95343 2.4071-1.6964 2.6067-2.6836 5.7165-2.6836 9.0558 0 9.1791 7.4535 16.633 16.633 16.633 3.6939 0 7.1079-1.208 9.8697-3.2489 0.44367 0.29917 0.97737 0.47439 1.5503 0.47439 1.5335 1e-6 2.7869-1.2539 2.7869-2.7874 0-0.60433-0.19475-1.1647-0.52452-1.6221 1.8588-2.6846 2.9507-5.9394 2.9507-9.4485 0-9.1791-7.454-16.633-16.633-16.633zm-11.373 2.7399c1.3482 0 2.4298 1.0817 2.4298 2.4298 1e-6 1.3482-1.0817 2.4278-2.4298 2.4278-0.38763 0-0.75328-0.089344-1.0775-0.24856 0.001114-0.001491 0.001987-0.00316 0.003101-0.00465a2.4268 2.4268 0 0 1-0.85008-0.69918c-0.001552 0.002063-0.0031 0.004138-0.004651 0.006202-0.3143-0.40901-0.50074-0.92206-0.50074-1.4816 1e-6 -1.3482 1.0817-2.4298 2.4298-2.4298zm22.793 23.05c1.0628 0 1.9156 0.85077 1.9156 1.9136s-0.85283 1.9162-1.9156 1.9162-1.9141-0.85335-1.9141-1.9162 0.85129-1.9136 1.9141-1.9136z" color="#000000" style="-inkscape-stroke:none"/>
   </g>
  </g>
 </g>
</svg>
