<?xml version="1.0" encoding="UTF-8" standalone="no"?>
<!-- Created with Inkscape (http://www.inkscape.org/) -->

<svg
   id="svg1"
   width="28.383064mm"
   height="28.383064mm"
   version="1.1"
   viewBox="0 0 28.383063 28.383063"
   xml:space="preserve"
   sodipodi:docname="earthen-newsletter-logo.svg"
   inkscape:version="1.4.2 (2aeb623e1d, 2025-05-12)"
   xmlns:inkscape="http://www.inkscape.org/namespaces/inkscape"
   xmlns:sodipodi="http://sodipodi.sourceforge.net/DTD/sodipodi-0.dtd"
   xmlns="http://www.w3.org/2000/svg"
   xmlns:svg="http://www.w3.org/2000/svg"><defs
     id="defs1" /><sodipodi:namedview
     id="namedview1"
     pagecolor="#ffffff"
     bordercolor="#000000"
     borderopacity="0.25"
     inkscape:showpageshadow="2"
     inkscape:pageopacity="0.0"
     inkscape:pagecheckerboard="0"
     inkscape:deskcolor="#d1d1d1"
     inkscape:document-units="mm"
     inkscape:zoom="3.6277828"
     inkscape:cx="53.47619"
     inkscape:cy="53.614015"
     inkscape:window-width="1366"
     inkscape:window-height="697"
     inkscape:window-x="0"
     inkscape:window-y="32"
     inkscape:window-maximized="1"
     inkscape:current-layer="svg1" /><g
     id="layer1"
     transform="translate(-90.244356,-134.42189)"
     style="stroke:#717171;stroke-opacity:1;opacity:0.5"><g
       id="g59134"
       transform="matrix(-0.56663,0,0,0.56663,185.09,109.24)"
       fill="none"
       stroke="#528106"
       stroke-opacity="0.99608"
       stroke-width="1.899"
       style="stroke:#717171;stroke-opacity:1"><g
         id="g2255"
         transform="matrix(0.98139,0,0,0.98139,2.7412,1.281)"
         style="stroke:#717171;stroke-opacity:1"><circle
           id="circle2249"
           cx="145.53"
           cy="73.794998"
           r="19.228001"
           stroke-width="1.935"
           style="stroke:#717171;stroke-opacity:1" /><path
           id="path2251"
           transform="matrix(-0.24909,0.089222,-0.089222,-0.24909,227.11,125.94)"
           d="m 220.76,282.64 c -0.44771,-0.78222 0.43524,-1.5896 1.1237,-1.7698 1.8828,-0.49294 3.3919,1.3796 3.5908,3.0671 0.40702,3.4544 -2.9403,5.9612 -6.1052,6.0711 -5.5208,0.19172 -9.3319,-5.1505 -9.2324,-10.291 0.15683,-8.1001 8.0351,-13.531 15.667,-13.093 11.207,0.643 18.579,11.615 17.668,22.265 -1.2707,14.853 -15.906,24.496 -30.115,22.972 -19.05,-2.0435 -31.297,-20.925 -29.016,-39.242 2.9645,-23.806 26.684,-38.998 49.669,-35.813 29.129,4.0364 47.612,33.196 43.373,61.415 -5.2618,35.028 -40.472,57.151 -74.499,51.705 -15.924,-2.5483 -30.663,-10.677 -41.58,-22.508"
           stroke-width="7.3133"
           style="stroke:#717171;stroke-opacity:1" /></g><circle
         id="circle4495"
         cx="142.34"
         cy="69.487"
         r="24.096001"
         stroke-width="1.899"
         style="stroke:#717171;stroke-opacity:1" /></g></g></svg>
