<?xml version="1.0" encoding="UTF-8"?>
<!-- Created with Inkscape (http://www.inkscape.org/) -->
<svg width="70.039mm" height="57.05mm" version="1.1" viewBox="0 0 70.039 57.05" xmlns="http://www.w3.org/2000/svg">
 <g transform="translate(-66.387 -37.952)" fill="#808080">
  <g transform="rotate(.040269 -1505.6 753.44)" stroke-width=".30247" aria-label="earthcycles">
   <path d="m67.003 82.069q0 0.25993 0.03545 0.47851 0.04135 0.21267 0.11224 0.40762 0.21858 0.59076 0.69709 0.89204 0.48442 0.29538 1.0929 0.29538 0.47851 0 0.92749-0.12997 0.45488-0.13587 0.95112-0.41944l0.44307 0.75026q-0.60257 0.41353-1.2111 0.61439-0.60848 0.20086-1.2642 0.20086-0.62029 0-1.152-0.20676-0.52577-0.20676-0.90977-0.61439-0.37808-0.40762-0.59666-1.0161-0.21267-0.60848-0.21267-1.4178 0-0.65574 0.18314-1.2347 0.18314-0.58485 0.5435-1.0161 0.36627-0.43716 0.90386-0.69119 0.53759-0.25402 1.2524-0.25402 0.69118 0 1.152 0.21267 0.4667 0.20676 0.75617 0.55531 0.29538 0.34264 0.44307 0.78571 0.1536 0.44307 0.21267 0.90386 0.02954 0.22449 0.03545 0.45488 0.01181 0.2304 0.01181 0.44898zm1.7191-2.4398q-0.38399 0-0.67346 0.11224-0.28356 0.10634-0.48442 0.3131-0.20086 0.20086-0.32492 0.49624-0.11815 0.29538-0.17723 0.66165h3.1724q-0.02363-0.34264-0.11224-0.63211-0.08271-0.28947-0.25993-0.50214-0.17723-0.21267-0.45488-0.33082t-0.68528-0.11815z"/>
   <path d="m76.502 84.42q-0.34855 0.32492-0.77389 0.53168-0.41944 0.20676-0.95703 0.20676-0.44898 0-0.82706-0.14178-0.37218-0.14178-0.64392-0.38399-0.27175-0.24812-0.42534-0.57303-0.14769-0.32492-0.14769-0.69119 0-0.3899 0.11224-0.69118 0.11815-0.30129 0.30719-0.51987 0.19495-0.22449 0.44898-0.37218 0.25993-0.1536 0.53759-0.24221 0.28356-0.09452 0.57304-0.12997 0.29538-0.04135 0.56122-0.04135 0.42534 0 0.71482 0.02954 0.28947 0.02363 0.52577 0.07089l0.0059-0.50214q0-0.32492-0.09452-0.56122-0.09452-0.24221-0.26584-0.39581-0.17132-0.1595-0.41353-0.2363-0.2363-0.0768-0.53168-0.0768-0.27766 0-0.53168 0.04135-0.25403 0.03545-0.47851 0.10043-0.21858 0.05908-0.40762 0.14178-0.18314 0.0768-0.3131 0.16541l-0.36036-0.76208q0.21858-0.14178 0.47851-0.25993 0.25993-0.12406 0.5435-0.20676 0.28947-0.08861 0.58485-0.13587 0.30129-0.05317 0.59076-0.05317 0.53168 0 0.95703 0.12997 0.42534 0.12406 0.72072 0.3899 0.29538 0.26584 0.45488 0.67937 0.1595 0.40762 0.1595 0.98066l-0.0059 3.0601h0.67937v1.0161h-1.7782zm-1.4887-0.18313q0.21858 0 0.43716-0.05317t0.41353-0.14178q0.19495-0.09452 0.36036-0.21267 0.16541-0.12406 0.27766-0.25403l0.0059-1.3824h-1.276q-0.31901 0-0.58485 0.07089-0.25993 0.07089-0.45488 0.20676-0.18904 0.13587-0.29538 0.33673-0.10634 0.20086-0.10634 0.46079 0 0.24221 0.08861 0.42534 0.08861 0.17723 0.24812 0.30129 0.16541 0.11815 0.3899 0.18314 0.22449 0.05908 0.49624 0.05908z"/>
   <path d="m83.922 80.161h-1.1224v-0.37808q-0.19495 0-0.40171 0.0768-0.20086 0.07089-0.37808 0.22449-0.17723 0.14769-0.3131 0.38399-0.12997 0.2304-0.18904 0.5494v2.9538h1.0397v1.0161h-3.0365v-1.0161h0.84478l0.0059-4.088h-0.85069v-1.0161h1.9554v0.84478q0.10634-0.18904 0.2363-0.34855 0.13587-0.16541 0.29538-0.28356 0.16541-0.12406 0.36036-0.18904 0.20086-0.07089 0.43125-0.07089 0.30719 0 0.57894 0t0.5435 0.01181z"/>
   <path d="m86.964 78.867h1.4355v0.89204h-1.4474l-0.01772 3.5327q0 0.36036 0.08271 0.58485 0.08271 0.22449 0.26584 0.3131 0.18313 0.08271 0.41353 0.08271 0.24812 0 0.43716-0.04135 0.18904-0.04726 0.41353-0.1536l0.25403 0.73845q-0.28356 0.14769-0.59666 0.2304-0.3131 0.08861-0.73845 0.08861-0.40171 0-0.703-0.10043-0.29538-0.09452-0.50214-0.32492-0.20086-0.2304-0.30129-0.61439-0.10043-0.3899-0.10043-0.96884l0.01772-3.3673h-0.97475v-0.89204h0.98656v-1.4651l1.0752-0.50805z"/>
   <path d="m89.776 75.795h1.9377v3.7454h0.03544q0.16541-0.16541 0.37808-0.30719 0.21858-0.14769 0.45488-0.25403t0.49033-0.16541q0.25403-0.05907 0.53168-0.05907 0.49033 0 0.88614 0.13587t0.67346 0.41353q0.27766 0.27766 0.42534 0.71482 0.1536 0.43125 0.1536 1.022v2.9302h0.92158v1.0161h-2.9065v-1.0161h0.83888v-2.7943q0-0.703-0.36036-1.0634-0.35445-0.36627-1.022-0.36627-0.37808 0-0.76798 0.18314-0.3899 0.17723-0.73254 0.44898v3.5918h0.88614v1.0161h-2.9065v-1.0161h0.92158v-7.16h-0.83888z"/>
   <path d="m102.16 80.982q-0.25403-0.31901-0.56713-0.47851-0.3131-0.16541-0.73844-0.14178-0.34264-0.02363-0.6262 0.09452-0.27766 0.11815-0.48443 0.33082-0.20086 0.21267-0.3131 0.50805-0.11224 0.28947-0.11224 0.65574 0 0.32492 0.11815 0.61439t0.31901 0.50214q0.20676 0.20676 0.48442 0.32492 0.28356 0.11815 0.61439 0.14178 0.27765-0.02363 0.50214-0.11224 0.2304-0.09452 0.40762-0.2363 0.17723-0.14769 0.30129-0.32492 0.12997-0.18313 0.20086-0.34264l1.6246 0.44898q-0.10043 0.35445-0.34855 0.73845-0.24221 0.38399-0.63802 0.703-0.3899 0.3131-0.93339 0.51987-0.53759 0.20676-1.2288 0.20676-0.703 0-1.2938-0.25402-0.59076-0.25993-1.0161-0.703t-0.66756-1.0397q-0.2363-0.59666-0.2363-1.2819 0-0.67937 0.24221-1.2583 0.24812-0.58485 0.67937-1.0161 0.43125-0.43716 1.022-0.67937 0.59666-0.24221 1.2938-0.21858 0.49624-0.02363 0.96294 0.11224 0.4667 0.13588 0.88613 0.40762h1.1756v1.7782z"/>
   <path d="m104.37 78.867h3.001v1.6187h-0.47261l0.88023 2.2921 0.90386-2.2921h-0.52577v-1.6187h3.001v1.6187h-0.66755l-2.3689 5.6654h1.0516v1.6187h-3.7986v-1.6187h1.0693l0.46079-1.1638-1.914-4.5016h-0.62029z"/>
   <path d="m116.46 80.982q-0.25402-0.31901-0.56712-0.47851-0.3131-0.16541-0.73845-0.14178-0.34264-0.02363-0.6262 0.09452-0.27766 0.11815-0.48442 0.33082-0.20086 0.21267-0.3131 0.50805-0.11225 0.28947-0.11225 0.65574 0 0.32492 0.11815 0.61439 0.11816 0.28947 0.31901 0.50214 0.20677 0.20676 0.48442 0.32492 0.28357 0.11815 0.61439 0.14178 0.27766-0.02363 0.50214-0.11224 0.2304-0.09452 0.40763-0.2363 0.17722-0.14769 0.30128-0.32492 0.12997-0.18313 0.20086-0.34264l1.6246 0.44898q-0.10043 0.35445-0.34855 0.73845-0.24221 0.38399-0.63801 0.703-0.3899 0.3131-0.9334 0.51987-0.53759 0.20676-1.2288 0.20676-0.703 0-1.2938-0.25402-0.59076-0.25993-1.0161-0.703-0.42535-0.44307-0.66756-1.0397-0.2363-0.59666-0.2363-1.2819 0-0.67937 0.24221-1.2583 0.24812-0.58485 0.67937-1.0161 0.43125-0.43716 1.022-0.67937 0.59666-0.24221 1.2938-0.21858 0.49623-0.02363 0.96293 0.11224 0.4667 0.13588 0.88614 0.40762h1.1756v1.7782z"/>
   <path d="m118.72 75.795h2.7588v7.5735h0.94521v1.6187h-3.704v-1.6187h0.94521v-5.9548h-0.94521z"/>
   <path d="m125.04 82.311 0.0177 0.18313q0.065 0.26584 0.21858 0.4667 0.1595 0.20086 0.37218 0.33673 0.21267 0.13587 0.4726 0.20676 0.25993 0.06498 0.52578 0.06498 0.26584 0 0.50214-0.02954 0.24221-0.03545 0.4667-0.08861 0.22448-0.05908 0.43716-0.12997 0.21267-0.0768 0.43125-0.1595l0.64983 1.2111q-0.33673 0.20676-0.62029 0.35445-0.27766 0.14178-0.56122 0.2363-0.28357 0.09452-0.60257 0.13587-0.31901 0.04726-0.74436 0.04726-0.79752 0-1.4178-0.25993-0.6203-0.26584-1.0456-0.71482-0.41944-0.44898-0.64393-1.0515-0.21858-0.60257-0.21858-1.276 0-0.67346 0.2304-1.2642 0.2363-0.59076 0.66164-1.0279 0.42535-0.44307 1.0161-0.69709 0.59075-0.25402 1.3115-0.25402 0.72072 0 1.276 0.24221 0.56122 0.2363 0.94521 0.66165 0.38399 0.41944 0.59076 0.99247 0.20676 0.56713 0.22449 1.2229 0.0177 0.14769 0.0177 0.29538 6e-3 0.14178-6e-3 0.29538zm1.4119-2.2331q-0.33083 0-0.56713 0.08271-0.2304 0.0768-0.3899 0.21858-0.1595 0.13587-0.25403 0.3131-0.0945 0.17723-0.14769 0.37218h2.558q-0.0414-0.20086-0.11815-0.37808-0.0768-0.17723-0.21267-0.3131-0.13588-0.13587-0.34855-0.21267-0.20676-0.08271-0.51986-0.08271z"/>
   <path d="m134.37 80.74q0-0.14178-0.0945-0.27175-0.0886-0.12997-0.26584-0.22449-0.17723-0.10043-0.43716-0.1595-0.25403-0.05907-0.57894-0.05907-0.12406 0-0.26584 0.02363-0.14178 0.01772-0.26584 0.07089-0.11815 0.05317-0.20086 0.14769-0.0768 0.08861-0.0768 0.2304 0 0.07089 0.0177 0.13587 0.0236 0.06498 0.0827 0.12406 0.0591 0.05908 0.1595 0.11224 0.10634 0.04726 0.27175 0.0768l1.1106 0.21858q0.60257 0.11815 1.0102 0.29538t0.65574 0.41353q0.24812 0.2363 0.35445 0.52577 0.11225 0.28947 0.11225 0.6262 0 0.52577-0.24812 0.92158-0.24221 0.39581-0.64393 0.66165-0.3958 0.25993-0.89795 0.3899-0.49623 0.13587-1.0043 0.13587-0.33083 0-0.60257-0.04135-0.26584-0.04135-0.48442-0.11224-0.21268-0.07089-0.384-0.16541-0.16541-0.10043-0.30719-0.21858h-1.0693v-1.6423h1.6718v0.03545q6e-3 0.17132 0.10634 0.30129 0.10043 0.12406 0.25993 0.21267 0.16541 0.08861 0.37218 0.13587 0.20676 0.04135 0.43716 0.04135 0.53168 0 0.77389-0.13587 0.24221-0.14178 0.24221-0.36036 0-0.17132-0.11815-0.28947-0.11815-0.12406-0.41944-0.19495l-1.1342-0.24221q-1.0693-0.20676-1.6128-0.68528-0.54349-0.48442-0.54349-1.2406 0-0.44307 0.20676-0.80343 0.20677-0.36627 0.56122-0.62029 0.35445-0.25993 0.82706-0.40172 0.47851-0.14178 1.022-0.14178 0.37217 0 0.66165 0.04726 0.28947 0.04135 0.51986 0.11224 0.2304 0.07089 0.40172 0.17132 0.17722 0.09452 0.3131 0.20086h1.0279v1.6423z"/>
  </g>
  <g transform="rotate(.040269 1.2477e-5 .0024858)" stroke-width=".46011" aria-label="calendar.earthen.io  |  by Russell Maier  ">
   <g transform="matrix(.68739 -.00048311 .00048311 .68739 .29478 29.78)" stroke-linecap="round" stroke-width=".84587" style="inline-size:86.3622;white-space:pre" aria-label="Sync with Earth's Cycles.">
    <path d="m113.84 93.493q-0.34925 0-0.65405-0.05715-0.3048-0.0635-0.56515-0.1905-0.26035-0.13335-0.4699-0.32385l0.19685-0.40005q0.3429 0.28575 0.6858 0.4064 0.34925 0.12065 0.8128 0.12065 0.53975 0 0.8382-0.20955 0.29845-0.2159 0.29845-0.60325 0-0.23495-0.1524-0.37465-0.14605-0.14605-0.4064-0.2286-0.254-0.0889-0.57785-0.1651-0.32385-0.06985-0.61595-0.15875-0.2921-0.09525-0.5207-0.23495-0.22225-0.1397-0.34925-0.3556t-0.127-0.53975q0-0.38735 0.2032-0.67945 0.2032-0.29845 0.5715-0.46355t0.86995-0.1651q0.31115 0 0.5969 0.06985 0.28575 0.0635 0.52705 0.1905 0.24765 0.127 0.43815 0.31115l-0.2032 0.40005q-0.31115-0.27305-0.64135-0.40005t-0.71755-0.127q-0.52705 0-0.8255 0.22225t-0.29845 0.6223q0 0.24765 0.13335 0.40005t0.37465 0.24765q0.2413 0.0889 0.55245 0.1651 0.3302 0.0762 0.635 0.1651t0.53975 0.22225q0.2413 0.127 0.381 0.33655 0.1397 0.2032 0.1397 0.5207 0 0.38735-0.2032 0.6731t-0.57785 0.4445-0.889 0.15875z"/>
    <path d="m116.01 94.883-0.10795-0.40005q0.2921-0.06985 0.48895-0.1651 0.2032-0.0889 0.33655-0.23495 0.1397-0.14605 0.2413-0.38735l0.2032-0.4699 0.1143-0.15875 1.1684-2.8194h0.51435l-1.4922 3.4862q-0.17145 0.38735-0.38735 0.61595-0.2159 0.23495-0.48895 0.3556-0.2667 0.12065-0.59055 0.1778zm1.1684-1.2764-1.4351-3.3592h0.53975l1.1557 2.8194z"/>
    <path d="m119.43 93.442v-2.2987q0-0.22225-0.0127-0.4445-6e-3 -0.2286-0.0381-0.45085h0.48895l0.0572 0.6604-0.0635 0.0508q0.13335-0.38735 0.4445-0.5842 0.31115-0.2032 0.71755-0.2032 1.1494 0 1.1494 1.2636v2.0066h-0.51435v-1.9812q0-0.4445-0.1778-0.6477-0.1778-0.20955-0.5588-0.20955-0.4445 0-0.7112 0.27305t-0.2667 0.7366v1.8288z"/>
    <path d="m124.39 93.486q-0.4699 0-0.8128-0.2032t-0.5334-0.5715q-0.18415-0.3683-0.18415-0.86995 0-0.4953 0.1905-0.86995 0.1905-0.381 0.53975-0.59055t0.8255-0.20955q0.32385 0 0.6223 0.1143 0.3048 0.10795 0.50165 0.3048l-0.17145 0.381q-0.23495-0.18415-0.46355-0.27305-0.22225-0.09525-0.46355-0.09525-0.4826 0-0.76835 0.32385-0.2794 0.32385-0.2794 0.9144 0 0.5842 0.2794 0.9017t0.76835 0.3175q0.23495 0 0.46355-0.0889 0.2286-0.09525 0.46355-0.2794l0.17145 0.381q-0.2032 0.1905-0.51435 0.3048-0.3048 0.10795-0.635 0.10795z"/>
    <path d="m128.51 93.442-1.1811-3.194h0.53975l0.98425 2.813h-0.1651l1.016-2.813h0.45085l1.0033 2.813h-0.1651l1.0033-2.813h0.508l-1.1811 3.194h-0.4953l-1.0541-2.8766h0.2794l-1.0478 2.8766z"/>
    <path d="m133.07 93.442v-3.194h0.51435v3.194zm-0.0508-4.5466h0.62865v0.5842h-0.62865z"/>
    <path d="m134.03 90.654v-0.4064h2.051v0.4064zm2.0384 2.3304v0.43815q-0.10795 0.03175-0.2159 0.04445-0.1016 0.01905-0.2286 0.01905-0.4445 0-0.7112-0.254-0.26035-0.254-0.26035-0.762v-3.0416l0.51435-0.18415v3.156q0 0.254 0.0699 0.3937 0.0762 0.1397 0.2032 0.19685 0.127 0.0508 0.28575 0.0508 0.0952 0 0.17145-0.0127 0.0762-0.0127 0.17145-0.04445z"/>
    <path d="m136.6 93.442v-4.6736h0.51435v2.1272l-0.0825 0.0635q0.13335-0.38735 0.4445-0.5842 0.31115-0.2032 0.71755-0.2032 1.1494 0 1.1494 1.2636v2.0066h-0.51435v-1.9812q0-0.4445-0.1778-0.6477-0.1778-0.20955-0.5588-0.20955-0.4445 0-0.7112 0.27305t-0.2667 0.7366v1.8288z"/>
    <path d="m141.84 93.442v-4.5212h2.8575v0.4318h-2.3432v1.5748h2.2162v0.43815h-2.2162v1.6446h2.3432v0.4318z"/>
    <path d="m146.63 93.486q-0.42545 0-0.7493-0.19685-0.3175-0.2032-0.4953-0.5715-0.17145-0.37465-0.17145-0.8763t0.1778-0.8763 0.4953-0.5842q0.32385-0.20955 0.74295-0.20955 0.43815 0 0.74295 0.2159t0.41275 0.61595l-0.0762 0.0508v-0.80645h0.508v3.194h-0.508v-0.8255l0.0762 0.0381q-0.10795 0.40005-0.41275 0.61595t-0.74295 0.2159zm0.1016-0.42545q0.4699 0 0.7239-0.3175 0.254-0.32385 0.254-0.9144t-0.26035-0.90805q-0.254-0.3175-0.71755-0.3175-0.4699 0-0.7366 0.3302-0.26035 0.32385-0.26035 0.90805t0.26035 0.9017q0.2667 0.3175 0.7366 0.3175z"/>
    <path d="m149.12 93.442v-2.2987q0-0.22225-0.0127-0.4445-6e-3 -0.2286-0.0381-0.45085h0.48895l0.0698 0.7874-0.0698-0.01905q0.0889-0.4191 0.381-0.62865 0.29845-0.2159 0.66675-0.2159 0.0825 0 0.1524 0.0127 0.0762 0.0063 0.1397 0.0254l-0.0127 0.4699q-0.14605-0.0508-0.33655-0.0508-0.3302 0-0.5334 0.14605-0.19685 0.14605-0.2921 0.37465-0.0889 0.22225-0.0889 0.4699v1.8224z"/>
    <path d="m151.12 90.654v-0.4064h2.051v0.4064zm2.0384 2.3304v0.43815q-0.10795 0.03175-0.2159 0.04445-0.1016 0.01905-0.2286 0.01905-0.4445 0-0.7112-0.254-0.26035-0.254-0.26035-0.762v-3.0416l0.51435-0.18415v3.156q0 0.254 0.0699 0.3937 0.0762 0.1397 0.2032 0.19685 0.127 0.0508 0.28575 0.0508 0.0952 0 0.17145-0.0127 0.0762-0.0127 0.17145-0.04445z"/>
    <path d="m153.69 93.442v-4.6736h0.51435v2.1272l-0.0826 0.0635q0.13335-0.38735 0.4445-0.5842 0.31115-0.2032 0.71755-0.2032 1.1494 0 1.1494 1.2636v2.0066h-0.51435v-1.9812q0-0.4445-0.1778-0.6477-0.1778-0.20955-0.5588-0.20955-0.4445 0-0.7112 0.27305t-0.2667 0.7366v1.8288z"/>
    <path d="m157.35 90.699-0.1397-1.778h0.6096l-0.127 1.778z"/>
    <path d="m159.69 93.486q-0.80645 0-1.2764-0.41275l0.17145-0.381q0.254 0.19685 0.5207 0.2921 0.27305 0.0889 0.60325 0.0889 0.36195 0 0.5461-0.12065 0.1905-0.127 0.1905-0.36195 0-0.1905-0.127-0.29845-0.127-0.1143-0.4191-0.18415l-0.53975-0.127q-0.40005-0.0889-0.6223-0.3175-0.2159-0.2286-0.2159-0.5461 0-0.2794 0.1524-0.48895 0.1524-0.2159 0.42545-0.33655t0.6477-0.12065q0.33655 0 0.635 0.10795t0.50165 0.31115l-0.17145 0.37465q-0.2286-0.1905-0.4699-0.2794-0.23495-0.09525-0.4953-0.09525-0.3429 0-0.5334 0.13335-0.18415 0.13335-0.18415 0.36195 0 0.19685 0.1143 0.31115 0.12065 0.1143 0.381 0.1778l0.53975 0.13335q0.45085 0.09525 0.6604 0.3175 0.2159 0.2159 0.2159 0.55245 0 0.41275-0.33655 0.6604t-0.9144 0.24765z"/>
    <path d="m165.22 93.493q-0.6477 0-1.1176-0.2794t-0.7239-0.8001-0.254-1.2382 0.254-1.2319 0.7239-0.79375 1.1176-0.2794q0.46355 0 0.85725 0.14605 0.3937 0.1397 0.67945 0.42545l-0.19685 0.40005q-0.32385-0.2794-0.64135-0.40005t-0.69215-0.12065q-0.74295 0-1.1557 0.4826-0.4064 0.4826-0.4064 1.3716 0 0.89535 0.4064 1.3843 0.4064 0.4826 1.1557 0.4826 0.37465 0 0.69215-0.12065t0.64135-0.40005l0.19685 0.40005q-0.28575 0.28575-0.67945 0.4318-0.3937 0.1397-0.85725 0.1397z"/>
    <path d="m167.2 94.883-0.10795-0.40005q0.2921-0.06985 0.48895-0.1651 0.2032-0.0889 0.33655-0.23495 0.1397-0.14605 0.2413-0.38735l0.2032-0.4699 0.1143-0.15875 1.1684-2.8194h0.51435l-1.4922 3.4862q-0.17145 0.38735-0.38735 0.61595-0.2159 0.23495-0.48895 0.3556-0.2667 0.12065-0.59055 0.1778zm1.1684-1.2764-1.4351-3.3592h0.53975l1.1557 2.8194z"/>
    <path d="m171.93 93.486q-0.4699 0-0.8128-0.2032t-0.5334-0.5715q-0.18415-0.3683-0.18415-0.86995 0-0.4953 0.1905-0.86995 0.1905-0.381 0.53975-0.59055t0.8255-0.20955q0.32385 0 0.6223 0.1143 0.3048 0.10795 0.50165 0.3048l-0.17145 0.381q-0.23495-0.18415-0.46355-0.27305-0.22225-0.09525-0.46355-0.09525-0.4826 0-0.76835 0.32385-0.2794 0.32385-0.2794 0.9144 0 0.5842 0.2794 0.9017t0.76835 0.3175q0.23495 0 0.46355-0.0889 0.2286-0.09525 0.46355-0.2794l0.17145 0.381q-0.2032 0.1905-0.51435 0.3048-0.3048 0.10795-0.635 0.10795z"/>
    <path d="m173.63 93.442v-4.6736h0.51435v4.6736z"/>
    <path d="m177.66 93.061q-0.20955 0.19685-0.53975 0.31115-0.32385 0.1143-0.66675 0.1143-0.4953 0-0.85725-0.19685-0.3556-0.19685-0.55245-0.56515-0.1905-0.37465-0.1905-0.889 0-0.4953 0.1905-0.86995t0.52705-0.5842q0.3429-0.20955 0.7874-0.20955 0.42545 0 0.73025 0.1905 0.3048 0.18415 0.46355 0.5334 0.1651 0.34925 0.1651 0.8382v0.09525h-2.413v-0.33655h2.1209l-0.1651 0.23495q0.0127-0.5588-0.22225-0.85725-0.2286-0.29845-0.6731-0.29845-0.46355 0-0.73025 0.3302-0.26035 0.32385-0.26035 0.9017 0 0.6223 0.27305 0.9398 0.2794 0.3175 0.8128 0.3175 0.2794 0 0.5334-0.0889 0.26035-0.09525 0.4953-0.28575z"/>
    <path d="m179.48 93.486q-0.80645 0-1.2764-0.41275l0.17145-0.381q0.254 0.19685 0.5207 0.2921 0.27305 0.0889 0.60325 0.0889 0.36195 0 0.5461-0.12065 0.1905-0.127 0.1905-0.36195 0-0.1905-0.127-0.29845-0.127-0.1143-0.4191-0.18415l-0.53975-0.127q-0.40005-0.0889-0.6223-0.3175-0.2159-0.2286-0.2159-0.5461 0-0.2794 0.1524-0.48895 0.1524-0.2159 0.42545-0.33655t0.6477-0.12065q0.33655 0 0.635 0.10795t0.50165 0.31115l-0.17145 0.37465q-0.2286-0.1905-0.4699-0.2794-0.23495-0.09525-0.4953-0.09525-0.3429 0-0.5334 0.13335-0.18415 0.13335-0.18415 0.36195 0 0.19685 0.1143 0.31115 0.12065 0.1143 0.381 0.1778l0.53975 0.13335q0.45085 0.09525 0.6604 0.3175 0.2159 0.2159 0.2159 0.55245 0 0.41275-0.33655 0.6604t-0.9144 0.24765z"/>
    <path d="m181.33 92.788h0.65405v0.65405h-0.65405z"/>
   </g>
  </g>
  <g transform="matrix(.45119 0 0 .45119 54.717 6.8477)">
   <path d="m99.632 146.57c-2.3623-0.27384-4.2525-0.62389-6.3776-1.1811-14.343-3.7605-25.495-15.891-28.185-30.658-0.66278-3.6377-0.66434-10.036-0.0034-13.63 0.80039-4.352 2.3761-8.7094 4.4471-12.298l1.1149-1.9318-0.44765-0.92748c-1.4976-3.1029-0.85378-7.1245 1.5347-9.5857 1.7548-1.8082 5.0123-2.8439 7.521-2.3912 2.5761 0.46486 4.4395 1.7854 5.8142 4.1204 1.4898 2.5305 1.5814 5.2131 0.27242 7.9824-0.82467 1.7447-1.974 2.901-3.6741 3.6967-2.3098 1.0809-5.2865 1.2594-6.8699 0.41202-0.49386-0.26431-0.64032-0.07418-1.9512 2.5329-1.2098 2.4063-2.2923 5.6121-2.9148 8.633-0.72839 3.5344-0.74102 9.2814-0.02821 12.834 1.6231 8.0891 6.0621 15.546 11.993 20.146 6.3116 4.8955 12.536 7.2038 20.213 7.4956 4.9958 0.18989 9.102-0.43085 13.298-2.0104 0.82725-0.31137 1.5283-0.5376 1.5579-0.50272 0.0296 0.0349 0.2158 0.38195 0.41377 0.77127 0.19798 0.38933 0.80034 1.2485 1.3386 1.9094l0.97863 1.2015-1.0368 0.46509c-2.9281 1.3136-6.8695 2.3684-10.565 2.8276-1.7123 0.21275-6.9036 0.26738-8.4437 0.0888zm-20.642-60.885c1.5744-0.56152 2.3921-1.7266 2.3921-3.4083 0-3.2551-3.8006-4.8413-6.0973-2.5446-1.9422 1.9422-1.2357 5.0224 1.3647 5.9494 1.0526 0.37526 1.2971 0.37562 2.3405 0.0035zm47.051 55.706c-1.4722-0.50355-2.8858-1.4812-3.6644-2.5342-0.60062-0.8124-1.4962-2.6258-1.6868-3.4156-0.40055-1.6594-0.0366-4.5554 0.76421-6.0815 1.7551-3.3445 6.2281-5.1503 9.969-4.0245 1.2517 0.37671 1.04 0.57951 2.5084-2.4034 1.2895-2.6194 2.2089-5.3152 2.8779-8.4379 0.71525-3.3387 0.72863-9.8243 0.0272-13.15-0.67985-3.2231-1.4269-5.424-2.7896-8.2188-2.8728-5.8916-6.4546-10.038-11.731-13.581-8.7063-5.8454-19.749-7.3512-29.646-4.0427-2.2732 0.75989-2.6964 0.84342-2.8913 0.57059-0.76667-1.0733-1.71-2.3257-2.1954-2.9148l-0.56118-0.68098 2.2504-0.87712c10.098-3.9359 21.146-3.493 30.961 1.2413 14.841 7.1583 23.585 22.885 21.792 39.196-0.54675 4.9766-1.7081 8.8574-4.0651 13.584l-1.6688 3.3467 0.45851 1.0658c0.91791 2.1337 0.81771 4.7672-0.27194 7.1473-0.71168 1.5545-1.8508 2.7585-3.365 3.5566-2.3395 1.2331-4.732 1.4542-7.0728 0.65356zm4.6115-4.816c1.0914-0.55038 1.9642-1.9381 1.9642-3.1231 0-0.89154-0.8362-2.495-1.586-3.0413-0.93342-0.68005-2.901-0.72493-3.9834-0.0908-2.0222 1.1846-2.2954 4.1585-0.53321 5.8038 1.1188 1.0446 2.6344 1.21 4.1384 0.45149zm-29.377-4.5718c-8.4944-0.8168-15.822-5.7759-19.557-13.235-4.2572-8.5028-3.1841-18.692 2.746-26.074 3.4823-4.3345 8.3385-7.3543 13.748-8.5493 2.2678-0.50095 6.5451-0.67023 8.7921-0.34796 2.0204 0.28976 5.9366 1.5132 7.3231 2.2878 0.79216 0.44256 0.97081 0.46689 1.6438 0.22376 0.94103-0.33998 2.6874-0.3757 3.763-0.07697 2.7688 0.76895 4.761 4.0923 4.1337 6.8955-0.2489 1.1122-0.24483 1.1275 0.85408 3.2149 1.3322 2.5305 1.8506 3.9874 2.4293 6.8273 1.2625 6.1951-0.2957 13.657-3.8898 18.628-1.2768 1.766-3.7418 4.2531-5.5685 5.6185-4.4851 3.3524-10.828 5.1246-16.418 4.5871zm7.1382-5.3519c7.1875-1.7941 12.409-7.3361 14.034-14.897 0.39525-1.8382 0.44299-5.7109 0.0923-7.4865-0.34995-1.7717-1.2301-4.3953-1.8264-5.4443l-0.49838-0.87667-1.6533 0.0765c-2.192 0.10141-3.5128-0.4488-5.01-2.087-1.2135-1.3278-1.5345-2.1951-1.5363-4.151l-8.2e-4 -1.3399-1.2645-0.56749c-2.0754-0.93138-3.7392-1.29-6.5159-1.4046-9.3519-0.38577-17.096 5.1603-19.655 14.076-0.43609 1.5196-0.50193 2.2354-0.49388 5.3696 0.0084 3.2946 0.06206 3.7879 0.60262 5.5466 2.3925 7.7837 8.5841 12.874 16.697 13.727 2.1815 0.2294 4.7258 0.0334 7.0287-0.54141zm-7.8327-7.016c-6.8549-1.6628-10.988-9.0923-8.6472-15.542 0.75738-2.0866 1.8191-3.7198 3.3553-5.1614 1.7471-1.6395 3.6313-2.5626 6.1008-2.9888 1.7308-0.29869 2.1465-0.29911 3.8973-0.0039 2.7689 0.46687 4.4688 1.3556 6.5293 3.4136 2.3944 2.3914 3.6932 5.3987 3.7017 8.5708 4e-3 1.5422-0.70654 4.1137-1.6012 5.7939-0.84898 1.5943-3.1675 3.9574-4.6911 4.7813-2.4414 1.3202-5.9735 1.7846-8.6447 1.1367zm6.02-5.2198c1.4582-0.71344 2.6326-1.96 3.4115-3.6211 0.47788-1.0192 0.57569-1.5342 0.56679-2.985-0.0183-2.9902-1.3913-5.2299-3.9902-6.5093-1.2976-0.63879-1.6742-0.72249-3.227-0.71702-1.4194 5e-3 -1.9901 0.11448-2.9634 0.56858-1.5232 0.71067-2.8817 2.0692-3.6632 3.6631-0.51467 1.0498-0.60729 1.5118-0.60032 2.9946 0.01547 3.2931 1.7969 5.8859 4.7747 6.9496 1.6505 0.58949 4.0845 0.44263 5.6911-0.3434z" fill="#808080" stroke-width=".21917"/>
  </g>
 </g>
</svg>
