<?xml version="1.0" encoding="UTF-8" standalone="no"?>
<!-- Created with Inkscape (http://www.inkscape.org/) -->

<svg
   width="70.039mm"
   height="57.05mm"
   version="1.1"
   viewBox="0 0 70.039 57.05"
   id="svg3314"
   sodipodi:docname="earthcycles-logo-motto-o.svg"
   inkscape:version="1.3.2 (1:1.3.2+202311252150+091e20ef0f)"
   xmlns:inkscape="http://www.inkscape.org/namespaces/inkscape"
   xmlns:sodipodi="http://sodipodi.sourceforge.net/DTD/sodipodi-0.dtd"
   xmlns="http://www.w3.org/2000/svg"
   xmlns:svg="http://www.w3.org/2000/svg">
  <defs
     id="defs3318" />
  <sodipodi:namedview
     id="namedview3316"
     pagecolor="#ffffff"
     bordercolor="#000000"
     borderopacity="0.25"
     inkscape:showpageshadow="2"
     inkscape:pageopacity="0.0"
     inkscape:pagecheckerboard="0"
     inkscape:deskcolor="#d1d1d1"
     inkscape:document-units="mm"
     showgrid="false"
     inkscape:zoom="1.6000219"
     inkscape:cx="173.12263"
     inkscape:cy="150.93543"
     inkscape:window-width="1503"
     inkscape:window-height="869"
     inkscape:window-x="0"
     inkscape:window-y="0"
     inkscape:window-maximized="1"
     inkscape:current-layer="g3312" />
  <g
     transform="translate(-66.387 -37.952)"
     fill="#a0c0d2"
     id="g3312">
    <g
       transform="rotate(0.040269,-6620.9417,111166.74)"
       stroke-width="0.30247"
       aria-label="earthcycles"
       id="g3258"
       style="fill:#c0c5e1;fill-opacity:1">
      <path
         d="m 67.003,82.069 q 0,0.25993 0.03545,0.47851 0.04135,0.21267 0.11224,0.40762 0.21858,0.59076 0.69709,0.89204 0.48442,0.29538 1.0929,0.29538 0.47851,0 0.92749,-0.12997 0.45488,-0.13587 0.95112,-0.41944 l 0.44307,0.75026 q -0.60257,0.41353 -1.2111,0.61439 -0.60848,0.20086 -1.2642,0.20086 -0.62029,0 -1.152,-0.20676 -0.52577,-0.20676 -0.90977,-0.61439 -0.37808,-0.40762 -0.59666,-1.0161 -0.21267,-0.60848 -0.21267,-1.4178 0,-0.65574 0.18314,-1.2347 0.18314,-0.58485 0.5435,-1.0161 0.36627,-0.43716 0.90386,-0.69119 0.53759,-0.25402 1.2524,-0.25402 0.69118,0 1.152,0.21267 0.4667,0.20676 0.75617,0.55531 0.29538,0.34264 0.44307,0.78571 0.1536,0.44307 0.21267,0.90386 0.02954,0.22449 0.03545,0.45488 0.01181,0.2304 0.01181,0.44898 z m 1.7191,-2.4398 q -0.38399,0 -0.67346,0.11224 -0.28356,0.10634 -0.48442,0.3131 -0.20086,0.20086 -0.32492,0.49624 -0.11815,0.29538 -0.17723,0.66165 h 3.1724 Q 70.21084,80.86979 70.12223,80.58032 70.03952,80.29085 69.8623,80.07818 69.68507,79.86551 69.40742,79.74736 69.12977,79.62921 68.72214,79.62921 Z"
         id="path3236"
         style="fill:#c0c5e1;fill-opacity:1" />
      <path
         d="m 76.502,84.42 q -0.34855,0.32492 -0.77389,0.53168 -0.41944,0.20676 -0.95703,0.20676 -0.44898,0 -0.82706,-0.14178 -0.37218,-0.14178 -0.64392,-0.38399 -0.27175,-0.24812 -0.42534,-0.57303 -0.14769,-0.32492 -0.14769,-0.69119 0,-0.3899 0.11224,-0.69118 0.11815,-0.30129 0.30719,-0.51987 0.19495,-0.22449 0.44898,-0.37218 0.25993,-0.1536 0.53759,-0.24221 0.28356,-0.09452 0.57304,-0.12997 0.29538,-0.04135 0.56122,-0.04135 0.42534,0 0.71482,0.02954 0.28947,0.02363 0.52577,0.07089 l 0.0059,-0.50214 q 0,-0.32492 -0.09452,-0.56122 -0.09452,-0.24221 -0.26584,-0.39581 -0.17132,-0.1595 -0.41353,-0.2363 -0.2363,-0.0768 -0.53168,-0.0768 -0.27766,0 -0.53168,0.04135 -0.25403,0.03545 -0.47851,0.10043 -0.21858,0.05908 -0.40762,0.14178 -0.18314,0.0768 -0.3131,0.16541 l -0.36036,-0.76208 q 0.21858,-0.14178 0.47851,-0.25993 0.25993,-0.12406 0.5435,-0.20676 0.28947,-0.08861 0.58485,-0.13587 0.30129,-0.05317 0.59076,-0.05317 0.53168,0 0.95703,0.12997 0.42534,0.12406 0.72072,0.3899 0.29538,0.26584 0.45488,0.67937 0.1595,0.40762 0.1595,0.98066 l -0.0059,3.0601 h 0.67937 v 1.0161 H 76.502 Z m -1.4887,-0.18313 q 0.21858,0 0.43716,-0.05317 0.21858,-0.05317 0.41353,-0.14178 0.19495,-0.09452 0.36036,-0.21267 0.16541,-0.12406 0.27766,-0.25403 l 0.0059,-1.3824 h -1.276 q -0.31901,0 -0.58485,0.07089 -0.25993,0.07089 -0.45488,0.20676 -0.18904,0.13587 -0.29538,0.33673 -0.10634,0.20086 -0.10634,0.46079 0,0.24221 0.08861,0.42534 0.08861,0.17723 0.24812,0.30129 0.16541,0.11815 0.3899,0.18314 0.22449,0.05908 0.49624,0.05908 z"
         id="path3238"
         style="fill:#c0c5e1;fill-opacity:1" />
      <path
         d="m 83.922,80.161 h -1.1224 v -0.37808 q -0.19495,0 -0.40171,0.0768 -0.20086,0.07089 -0.37808,0.22449 -0.17723,0.14769 -0.3131,0.38399 -0.12997,0.2304 -0.18904,0.5494 v 2.9538 h 1.0397 v 1.0161 h -3.0365 v -1.0161 h 0.84478 l 0.0059,-4.088 h -0.85069 v -1.0161 h 1.9554 v 0.84478 q 0.10634,-0.18904 0.2363,-0.34855 0.13587,-0.16541 0.29538,-0.28356 0.16541,-0.12406 0.36036,-0.18904 0.20086,-0.07089 0.43125,-0.07089 0.30719,0 0.57894,0 0.27175,0 0.5435,0.01181 z"
         id="path3240"
         style="fill:#c0c5e1;fill-opacity:1" />
      <path
         d="m 86.964,78.867 h 1.4355 v 0.89204 h -1.4474 l -0.01772,3.5327 q 0,0.36036 0.08271,0.58485 0.08271,0.22449 0.26584,0.3131 0.18313,0.08271 0.41353,0.08271 0.24812,0 0.43716,-0.04135 0.18904,-0.04726 0.41353,-0.1536 l 0.25403,0.73845 q -0.28356,0.14769 -0.59666,0.2304 -0.3131,0.08861 -0.73845,0.08861 -0.40171,0 -0.703,-0.10043 -0.29538,-0.09452 -0.50214,-0.32492 -0.20086,-0.2304 -0.30129,-0.61439 -0.10043,-0.3899 -0.10043,-0.96884 l 0.01772,-3.3673 h -0.97475 v -0.89204 h 0.98656 v -1.4651 l 1.0752,-0.50805 z"
         id="path3242"
         style="fill:#c0c5e1;fill-opacity:1" />
      <path
         d="m 89.776,75.795 h 1.9377 v 3.7454 h 0.03544 q 0.16541,-0.16541 0.37808,-0.30719 0.21858,-0.14769 0.45488,-0.25403 0.2363,-0.10634 0.49033,-0.16541 0.25403,-0.05907 0.53168,-0.05907 0.49033,0 0.88614,0.13587 0.39581,0.13587 0.67346,0.41353 0.27766,0.27766 0.42534,0.71482 0.1536,0.43125 0.1536,1.022 v 2.9302 h 0.92158 v 1.0161 h -2.9065 v -1.0161 h 0.83888 v -2.7943 q 0,-0.703 -0.36036,-1.0634 -0.35445,-0.36627 -1.022,-0.36627 -0.37808,0 -0.76798,0.18314 -0.3899,0.17723 -0.73254,0.44898 v 3.5918 h 0.88614 v 1.0161 h -2.9065 v -1.0161 h 0.92158 v -7.16 h -0.83888 z"
         id="path3244"
         style="fill:#c0c5e1;fill-opacity:1" />
      <path
         d="m 102.16,80.982 q -0.25403,-0.31901 -0.56713,-0.47851 -0.3131,-0.16541 -0.73844,-0.14178 -0.34264,-0.02363 -0.6262,0.09452 -0.27766,0.11815 -0.48443,0.33082 -0.20086,0.21267 -0.3131,0.50805 -0.11224,0.28947 -0.11224,0.65574 0,0.32492 0.11815,0.61439 0.11815,0.28947 0.31901,0.50214 0.20676,0.20676 0.48442,0.32492 0.28356,0.11815 0.61439,0.14178 0.27765,-0.02363 0.50214,-0.11224 0.2304,-0.09452 0.40762,-0.2363 0.17723,-0.14769 0.30129,-0.32492 0.12997,-0.18313 0.20086,-0.34264 l 1.6246,0.44898 q -0.10043,0.35445 -0.34855,0.73845 -0.24221,0.38399 -0.63802,0.703 -0.3899,0.3131 -0.93339,0.51987 -0.53759,0.20676 -1.2288,0.20676 -0.703,0 -1.2938,-0.25402 -0.59076,-0.25993 -1.0161,-0.703 -0.42534,-0.44307 -0.66756,-1.0397 -0.2363,-0.59666 -0.2363,-1.2819 0,-0.67937 0.24221,-1.2583 0.24812,-0.58485 0.67937,-1.0161 0.43125,-0.43716 1.022,-0.67937 0.59666,-0.24221 1.2938,-0.21858 0.49624,-0.02363 0.96294,0.11224 0.4667,0.13588 0.88613,0.40762 h 1.1756 v 1.7782 z"
         id="path3246"
         style="fill:#c0c5e1;fill-opacity:1" />
      <path
         d="m 104.37,78.867 h 3.001 v 1.6187 h -0.47261 l 0.88023,2.2921 0.90386,-2.2921 h -0.52577 V 78.867 h 3.001 v 1.6187 h -0.66755 l -2.3689,5.6654 h 1.0516 v 1.6187 h -3.7986 v -1.6187 h 1.0693 l 0.46079,-1.1638 -1.914,-4.5016 h -0.62029 z"
         id="path3248"
         style="fill:#c0c5e1;fill-opacity:1" />
      <path
         d="m 116.46,80.982 q -0.25402,-0.31901 -0.56712,-0.47851 -0.3131,-0.16541 -0.73845,-0.14178 -0.34264,-0.02363 -0.6262,0.09452 -0.27766,0.11815 -0.48442,0.33082 -0.20086,0.21267 -0.3131,0.50805 -0.11225,0.28947 -0.11225,0.65574 0,0.32492 0.11815,0.61439 0.11816,0.28947 0.31901,0.50214 0.20677,0.20676 0.48442,0.32492 0.28357,0.11815 0.61439,0.14178 0.27766,-0.02363 0.50214,-0.11224 0.2304,-0.09452 0.40763,-0.2363 0.17722,-0.14769 0.30128,-0.32492 0.12997,-0.18313 0.20086,-0.34264 l 1.6246,0.44898 q -0.10043,0.35445 -0.34855,0.73845 -0.24221,0.38399 -0.63801,0.703 -0.3899,0.3131 -0.9334,0.51987 -0.53759,0.20676 -1.2288,0.20676 -0.703,0 -1.2938,-0.25402 -0.59076,-0.25993 -1.0161,-0.703 -0.42535,-0.44307 -0.66756,-1.0397 -0.2363,-0.59666 -0.2363,-1.2819 0,-0.67937 0.24221,-1.2583 0.24812,-0.58485 0.67937,-1.0161 0.43125,-0.43716 1.022,-0.67937 0.59666,-0.24221 1.2938,-0.21858 0.49623,-0.02363 0.96293,0.11224 0.4667,0.13588 0.88614,0.40762 h 1.1756 v 1.7782 z"
         id="path3250"
         style="fill:#c0c5e1;fill-opacity:1" />
      <path
         d="m 118.72,75.795 h 2.7588 v 7.5735 h 0.94521 v 1.6187 h -3.704 v -1.6187 h 0.94521 v -5.9548 h -0.94521 z"
         id="path3252"
         style="fill:#c0c5e1;fill-opacity:1" />
      <path
         d="m 125.04,82.311 0.0177,0.18313 q 0.065,0.26584 0.21858,0.4667 0.1595,0.20086 0.37218,0.33673 0.21267,0.13587 0.4726,0.20676 0.25993,0.06498 0.52578,0.06498 0.26584,0 0.50214,-0.02954 0.24221,-0.03545 0.4667,-0.08861 0.22448,-0.05908 0.43716,-0.12997 0.21267,-0.0768 0.43125,-0.1595 l 0.64983,1.2111 q -0.33673,0.20676 -0.62029,0.35445 -0.27766,0.14178 -0.56122,0.2363 -0.28357,0.09452 -0.60257,0.13587 -0.31901,0.04726 -0.74436,0.04726 -0.79752,0 -1.4178,-0.25993 -0.6203,-0.26584 -1.0456,-0.71482 -0.41944,-0.44898 -0.64393,-1.0515 -0.21858,-0.60257 -0.21858,-1.276 0,-0.67346 0.2304,-1.2642 0.2363,-0.59076 0.66164,-1.0279 0.42535,-0.44307 1.0161,-0.69709 0.59075,-0.25402 1.3115,-0.25402 0.72072,0 1.276,0.24221 0.56122,0.2363 0.94521,0.66165 0.38399,0.41944 0.59076,0.99247 0.20676,0.56713 0.22449,1.2229 0.0177,0.14769 0.0177,0.29538 0.006,0.14178 -0.006,0.29538 z m 1.4119,-2.2331 q -0.33083,0 -0.56713,0.08271 -0.2304,0.0768 -0.3899,0.21858 -0.1595,0.13587 -0.25403,0.3131 -0.0945,0.17723 -0.14769,0.37218 h 2.558 q -0.0414,-0.20086 -0.11815,-0.37808 -0.0768,-0.17723 -0.21267,-0.3131 -0.13588,-0.13587 -0.34855,-0.21267 -0.20676,-0.08271 -0.51986,-0.08271 z"
         id="path3254"
         style="fill:#c0c5e1;fill-opacity:1" />
      <path
         d="m 134.37,80.74 q 0,-0.14178 -0.0945,-0.27175 -0.0886,-0.12997 -0.26584,-0.22449 -0.17723,-0.10043 -0.43716,-0.1595 -0.25403,-0.05907 -0.57894,-0.05907 -0.12406,0 -0.26584,0.02363 -0.14178,0.01772 -0.26584,0.07089 -0.11815,0.05317 -0.20086,0.14769 -0.0768,0.08861 -0.0768,0.2304 0,0.07089 0.0177,0.13587 0.0236,0.06498 0.0827,0.12406 0.0591,0.05908 0.1595,0.11224 0.10634,0.04726 0.27175,0.0768 l 1.1106,0.21858 q 0.60257,0.11815 1.0102,0.29538 0.40763,0.17723 0.65574,0.41353 0.24812,0.2363 0.35445,0.52577 0.11225,0.28947 0.11225,0.6262 0,0.52577 -0.24812,0.92158 -0.24221,0.39581 -0.64393,0.66165 -0.3958,0.25993 -0.89795,0.3899 -0.49623,0.13587 -1.0043,0.13587 -0.33083,0 -0.60257,-0.04135 -0.26584,-0.04135 -0.48442,-0.11224 -0.21268,-0.07089 -0.384,-0.16541 -0.16541,-0.10043 -0.30719,-0.21858 h -1.0693 v -1.6423 h 1.6718 v 0.03545 q 0.006,0.17132 0.10634,0.30129 0.10043,0.12406 0.25993,0.21267 0.16541,0.08861 0.37218,0.13587 0.20676,0.04135 0.43716,0.04135 0.53168,0 0.77389,-0.13587 0.24221,-0.14178 0.24221,-0.36036 0,-0.17132 -0.11815,-0.28947 -0.11815,-0.12406 -0.41944,-0.19495 l -1.1342,-0.24221 q -1.0693,-0.20676 -1.6128,-0.68528 -0.54349,-0.48442 -0.54349,-1.2406 0,-0.44307 0.20676,-0.80343 0.20677,-0.36627 0.56122,-0.62029 0.35445,-0.25993 0.82706,-0.40172 0.47851,-0.14178 1.022,-0.14178 0.37217,0 0.66165,0.04726 0.28947,0.04135 0.51986,0.11224 0.2304,0.07089 0.40172,0.17132 0.17722,0.09452 0.3131,0.20086 h 1.0279 V 80.74 Z"
         id="path3256"
         style="fill:#c0c5e1;fill-opacity:1" />
    </g>
    <g
       transform="matrix(1.0998938,7.7303524e-4,-7.7303524e-4,1.0998938,-9.8263416,-11.888719)"
       stroke-width="0.46011"
       aria-label="calendar.earthen.io  |  by Russell Maier  "
       id="g3306"
       style="fill:#c0c5e1;fill-opacity:0.909804">
      <g
         transform="matrix(0.68739,-4.8311e-4,4.8311e-4,0.68739,0.29478,29.78)"
         fill="#a0c0d2"
         stroke-linecap="round"
         stroke-width="0.84587"
         style="white-space:pre;inline-size:86.3622;fill:#c0c5e1;fill-opacity:0.909804"
         aria-label="Sync with Earth's Cycles."
         id="g3304">
        <path
           d="m 114.60982,93.493 q -0.34925,0 -0.65405,-0.05715 -0.3048,-0.0635 -0.56515,-0.1905 -0.26035,-0.13335 -0.4699,-0.32385 l 0.19685,-0.40005 q 0.3429,0.28575 0.6858,0.4064 0.34925,0.12065 0.8128,0.12065 0.53975,0 0.8382,-0.20955 0.29845,-0.2159 0.29845,-0.60325 0,-0.23495 -0.1524,-0.37465 -0.14605,-0.14605 -0.4064,-0.2286 -0.254,-0.0889 -0.57785,-0.1651 -0.32385,-0.06985 -0.61595,-0.15875 -0.2921,-0.09525 -0.5207,-0.23495 -0.22225,-0.1397 -0.34925,-0.3556 -0.127,-0.2159 -0.127,-0.53975 0,-0.38735 0.2032,-0.67945 0.2032,-0.29845 0.5715,-0.46355 0.3683,-0.1651 0.86995,-0.1651 0.31115,0 0.5969,0.06985 0.28575,0.0635 0.52705,0.1905 0.24765,0.127 0.43815,0.31115 l -0.2032,0.40005 q -0.31115,-0.27305 -0.64135,-0.40005 -0.3302,-0.127 -0.71755,-0.127 -0.52705,0 -0.8255,0.22225 -0.29845,0.22225 -0.29845,0.6223 0,0.24765 0.13335,0.40005 0.13335,0.1524 0.37465,0.24765 0.2413,0.0889 0.55245,0.1651 0.3302,0.0762 0.635,0.1651 0.3048,0.0889 0.53975,0.22225 0.2413,0.127 0.381,0.33655 0.1397,0.2032 0.1397,0.5207 0,0.38735 -0.2032,0.6731 -0.2032,0.28575 -0.57785,0.4445 -0.37465,0.15875 -0.889,0.15875 z"
           id="path3260"
           style="fill:#c0c5e1;fill-opacity:0.909804" />
        <path
           d="m 116.77982,94.883 -0.10795,-0.40005 q 0.2921,-0.06985 0.48895,-0.1651 0.2032,-0.0889 0.33655,-0.23495 0.1397,-0.14605 0.2413,-0.38735 l 0.2032,-0.4699 0.1143,-0.15875 1.1684,-2.8194 h 0.51435 l -1.4922,3.4862 q -0.17145,0.38735 -0.38735,0.61595 -0.2159,0.23495 -0.48895,0.3556 -0.2667,0.12065 -0.59055,0.1778 z m 1.1684,-1.2764 -1.4351,-3.3592 h 0.53975 l 1.1557,2.8194 z"
           id="path3262"
           style="fill:#c0c5e1;fill-opacity:0.909804" />
        <path
           d="m 120.19982,93.442 v -2.2987 q 0,-0.22225 -0.0127,-0.4445 -0.006,-0.2286 -0.0381,-0.45085 h 0.48895 l 0.0572,0.6604 -0.0635,0.0508 q 0.13335,-0.38735 0.4445,-0.5842 0.31115,-0.2032 0.71755,-0.2032 1.1494,0 1.1494,1.2636 v 2.0066 h -0.51435 v -1.9812 q 0,-0.4445 -0.1778,-0.6477 -0.1778,-0.20955 -0.5588,-0.20955 -0.4445,0 -0.7112,0.27305 -0.2667,0.27305 -0.2667,0.7366 v 1.8288 z"
           id="path3264"
           style="fill:#c0c5e1;fill-opacity:0.909804" />
        <path
           d="m 125.15982,93.486 q -0.4699,0 -0.8128,-0.2032 -0.3429,-0.2032 -0.5334,-0.5715 -0.18415,-0.3683 -0.18415,-0.86995 0,-0.4953 0.1905,-0.86995 0.1905,-0.381 0.53975,-0.59055 0.34925,-0.20955 0.8255,-0.20955 0.32385,0 0.6223,0.1143 0.3048,0.10795 0.50165,0.3048 l -0.17145,0.381 q -0.23495,-0.18415 -0.46355,-0.27305 -0.22225,-0.09525 -0.46355,-0.09525 -0.4826,0 -0.76835,0.32385 -0.2794,0.32385 -0.2794,0.9144 0,0.5842 0.2794,0.9017 0.2794,0.3175 0.76835,0.3175 0.23495,0 0.46355,-0.0889 0.2286,-0.09525 0.46355,-0.2794 l 0.17145,0.381 q -0.2032,0.1905 -0.51435,0.3048 -0.3048,0.10795 -0.635,0.10795 z"
           id="path3266"
           style="fill:#c0c5e1;fill-opacity:0.909804" />
        <path
           d="m 129.27982,93.442 -1.1811,-3.194 h 0.53975 l 0.98425,2.813 h -0.1651 l 1.016,-2.813 h 0.45085 l 1.0033,2.813 h -0.1651 l 1.0033,-2.813 h 0.508 l -1.1811,3.194 h -0.4953 l -1.0541,-2.8766 h 0.2794 l -1.0478,2.8766 z"
           id="path3268"
           style="fill:#c0c5e1;fill-opacity:0.909804" />
        <path
           d="m 133.83982,93.442 v -3.194 h 0.51435 v 3.194 z m -0.0508,-4.5466 h 0.62865 v 0.5842 h -0.62865 z"
           id="path3270"
           style="fill:#c0c5e1;fill-opacity:0.909804" />
        <path
           d="m 134.79982,90.654 v -0.4064 h 2.051 v 0.4064 z m 2.0384,2.3304 v 0.43815 q -0.10795,0.03175 -0.2159,0.04445 -0.1016,0.01905 -0.2286,0.01905 -0.4445,0 -0.7112,-0.254 -0.26035,-0.254 -0.26035,-0.762 v -3.0416 l 0.51435,-0.18415 v 3.156 q 0,0.254 0.0699,0.3937 0.0762,0.1397 0.2032,0.19685 0.127,0.0508 0.28575,0.0508 0.0952,0 0.17145,-0.0127 0.0762,-0.0127 0.17145,-0.04445 z"
           id="path3272"
           style="fill:#c0c5e1;fill-opacity:0.909804" />
        <path
           d="m 137.36982,93.442 v -4.6736 h 0.51435 v 2.1272 l -0.0825,0.0635 q 0.13335,-0.38735 0.4445,-0.5842 0.31115,-0.2032 0.71755,-0.2032 1.1494,0 1.1494,1.2636 v 2.0066 h -0.51435 v -1.9812 q 0,-0.4445 -0.1778,-0.6477 -0.1778,-0.20955 -0.5588,-0.20955 -0.4445,0 -0.7112,0.27305 -0.2667,0.27305 -0.2667,0.7366 v 1.8288 z"
           id="path3274"
           style="fill:#c0c5e1;fill-opacity:0.909804" />
        <path
           d="m 142.60982,93.442 v -4.5212 h 2.8575 v 0.4318 h -2.3432 v 1.5748 h 2.2162 v 0.43815 h -2.2162 v 1.6446 h 2.3432 v 0.4318 z"
           id="path3276"
           style="fill:#c0c5e1;fill-opacity:0.909804" />
        <path
           d="m 147.39982,93.486 q -0.42545,0 -0.7493,-0.19685 -0.3175,-0.2032 -0.4953,-0.5715 -0.17145,-0.37465 -0.17145,-0.8763 0,-0.50165 0.1778,-0.8763 0.1778,-0.37465 0.4953,-0.5842 0.32385,-0.20955 0.74295,-0.20955 0.43815,0 0.74295,0.2159 0.3048,0.2159 0.41275,0.61595 l -0.0762,0.0508 V 90.2475 h 0.508 v 3.194 h -0.508 V 92.616 l 0.0762,0.0381 q -0.10795,0.40005 -0.41275,0.61595 -0.3048,0.2159 -0.74295,0.2159 z m 0.1016,-0.42545 q 0.4699,0 0.7239,-0.3175 0.254,-0.32385 0.254,-0.9144 0,-0.59055 -0.26035,-0.90805 -0.254,-0.3175 -0.71755,-0.3175 -0.4699,0 -0.7366,0.3302 -0.26035,0.32385 -0.26035,0.90805 0,0.5842 0.26035,0.9017 0.2667,0.3175 0.7366,0.3175 z"
           id="path3278"
           style="fill:#c0c5e1;fill-opacity:0.909804" />
        <path
           d="m 149.88982,93.442 v -2.2987 q 0,-0.22225 -0.0127,-0.4445 -0.006,-0.2286 -0.0381,-0.45085 h 0.48895 l 0.0698,0.7874 -0.0698,-0.01905 q 0.0889,-0.4191 0.381,-0.62865 0.29845,-0.2159 0.66675,-0.2159 0.0825,0 0.1524,0.0127 0.0762,0.0063 0.1397,0.0254 l -0.0127,0.4699 q -0.14605,-0.0508 -0.33655,-0.0508 -0.3302,0 -0.5334,0.14605 -0.19685,0.14605 -0.2921,0.37465 -0.0889,0.22225 -0.0889,0.4699 v 1.8224 z"
           id="path3280"
           style="fill:#c0c5e1;fill-opacity:0.909804" />
        <path
           d="m 151.88982,90.654 v -0.4064 h 2.051 v 0.4064 z m 2.0384,2.3304 v 0.43815 q -0.10795,0.03175 -0.2159,0.04445 -0.1016,0.01905 -0.2286,0.01905 -0.4445,0 -0.7112,-0.254 -0.26035,-0.254 -0.26035,-0.762 v -3.0416 l 0.51435,-0.18415 v 3.156 q 0,0.254 0.0699,0.3937 0.0762,0.1397 0.2032,0.19685 0.127,0.0508 0.28575,0.0508 0.0952,0 0.17145,-0.0127 0.0762,-0.0127 0.17145,-0.04445 z"
           id="path3282"
           style="fill:#c0c5e1;fill-opacity:0.909804" />
        <path
           d="m 154.45982,93.442 v -4.6736 h 0.51435 v 2.1272 l -0.0826,0.0635 q 0.13335,-0.38735 0.4445,-0.5842 0.31115,-0.2032 0.71755,-0.2032 1.1494,0 1.1494,1.2636 v 2.0066 h -0.51435 v -1.9812 q 0,-0.4445 -0.1778,-0.6477 -0.1778,-0.20955 -0.5588,-0.20955 -0.4445,0 -0.7112,0.27305 -0.2667,0.27305 -0.2667,0.7366 v 1.8288 z"
           id="path3284"
           style="fill:#c0c5e1;fill-opacity:0.909804" />
        <path
           d="m 158.11982,90.699 -0.1397,-1.778 h 0.6096 l -0.127,1.778 z"
           id="path3286"
           style="fill:#c0c5e1;fill-opacity:0.909804" />
        <path
           d="m 160.45982,93.486 q -0.80645,0 -1.2764,-0.41275 l 0.17145,-0.381 q 0.254,0.19685 0.5207,0.2921 0.27305,0.0889 0.60325,0.0889 0.36195,0 0.5461,-0.12065 0.1905,-0.127 0.1905,-0.36195 0,-0.1905 -0.127,-0.29845 -0.127,-0.1143 -0.4191,-0.18415 l -0.53975,-0.127 q -0.40005,-0.0889 -0.6223,-0.3175 -0.2159,-0.2286 -0.2159,-0.5461 0,-0.2794 0.1524,-0.48895 0.1524,-0.2159 0.42545,-0.33655 0.27305,-0.12065 0.6477,-0.12065 0.33655,0 0.635,0.10795 0.29845,0.10795 0.50165,0.31115 l -0.17145,0.37465 q -0.2286,-0.1905 -0.4699,-0.2794 -0.23495,-0.09525 -0.4953,-0.09525 -0.3429,0 -0.5334,0.13335 -0.18415,0.13335 -0.18415,0.36195 0,0.19685 0.1143,0.31115 0.12065,0.1143 0.381,0.1778 l 0.53975,0.13335 q 0.45085,0.09525 0.6604,0.3175 0.2159,0.2159 0.2159,0.55245 0,0.41275 -0.33655,0.6604 -0.33655,0.24765 -0.9144,0.24765 z"
           id="path3288"
           style="fill:#c0c5e1;fill-opacity:0.909804" />
        <path
           d="m 165.98982,93.493 q -0.6477,0 -1.1176,-0.2794 -0.4699,-0.2794 -0.7239,-0.8001 -0.254,-0.5207 -0.254,-1.2382 0,-0.7175 0.254,-1.2319 0.254,-0.5144 0.7239,-0.79375 0.4699,-0.27935 1.1176,-0.2794 0.46355,0 0.85725,0.14605 0.3937,0.1397 0.67945,0.42545 l -0.19685,0.40005 q -0.32385,-0.2794 -0.64135,-0.40005 -0.3175,-0.12065 -0.69215,-0.12065 -0.74295,0 -1.1557,0.4826 -0.4064,0.4826 -0.4064,1.3716 0,0.89535 0.4064,1.3843 0.4064,0.4826 1.1557,0.4826 0.37465,0 0.69215,-0.12065 0.3175,-0.12065 0.64135,-0.40005 l 0.19685,0.40005 q -0.28575,0.28575 -0.67945,0.4318 -0.3937,0.1397 -0.85725,0.1397 z"
           id="path3290"
           style="fill:#c0c5e1;fill-opacity:0.909804" />
        <path
           d="m 167.96982,94.883 -0.10795,-0.40005 q 0.2921,-0.06985 0.48895,-0.1651 0.2032,-0.0889 0.33655,-0.23495 0.1397,-0.14605 0.2413,-0.38735 l 0.2032,-0.4699 0.1143,-0.15875 1.1684,-2.8194 h 0.51435 l -1.4922,3.4862 q -0.17145,0.38735 -0.38735,0.61595 -0.2159,0.23495 -0.48895,0.3556 -0.2667,0.12065 -0.59055,0.1778 z m 1.1684,-1.2764 -1.4351,-3.3592 h 0.53975 l 1.1557,2.8194 z"
           id="path3292"
           style="fill:#c0c5e1;fill-opacity:0.909804" />
        <path
           d="m 172.69982,93.486 q -0.4699,0 -0.8128,-0.2032 -0.3429,-0.2032 -0.5334,-0.5715 -0.18415,-0.3683 -0.18415,-0.86995 0,-0.4953 0.1905,-0.86995 0.1905,-0.381 0.53975,-0.59055 0.34925,-0.20955 0.8255,-0.20955 0.32385,0 0.6223,0.1143 0.3048,0.10795 0.50165,0.3048 l -0.17145,0.381 q -0.23495,-0.18415 -0.46355,-0.27305 -0.22225,-0.09525 -0.46355,-0.09525 -0.4826,0 -0.76835,0.32385 -0.2794,0.32385 -0.2794,0.9144 0,0.5842 0.2794,0.9017 0.2794,0.3175 0.76835,0.3175 0.23495,0 0.46355,-0.0889 0.2286,-0.09525 0.46355,-0.2794 l 0.17145,0.381 q -0.2032,0.1905 -0.51435,0.3048 -0.3048,0.10795 -0.635,0.10795 z"
           id="path3294"
           style="fill:#c0c5e1;fill-opacity:0.909804" />
        <path
           d="m 174.39982,93.442 v -4.6736 h 0.51435 v 4.6736 z"
           id="path3296"
           style="fill:#c0c5e1;fill-opacity:0.909804" />
        <path
           d="m 178.42982,93.061 q -0.20955,0.19685 -0.53975,0.31115 -0.32385,0.1143 -0.66675,0.1143 -0.4953,0 -0.85725,-0.19685 -0.3556,-0.19685 -0.55245,-0.56515 -0.1905,-0.37465 -0.1905,-0.889 0,-0.4953 0.1905,-0.86995 0.1905,-0.37465 0.52705,-0.5842 0.3429,-0.20955 0.7874,-0.20955 0.42545,0 0.73025,0.1905 0.3048,0.18415 0.46355,0.5334 0.1651,0.34925 0.1651,0.8382 v 0.09525 h -2.413 v -0.33655 h 2.1209 l -0.1651,0.23495 q 0.0127,-0.5588 -0.22225,-0.85725 -0.2286,-0.29845 -0.6731,-0.29845 -0.46355,0 -0.73025,0.3302 -0.26035,0.32385 -0.26035,0.9017 0,0.6223 0.27305,0.9398 0.2794,0.3175 0.8128,0.3175 0.2794,0 0.5334,-0.0889 0.26035,-0.09525 0.4953,-0.28575 z"
           id="path3298"
           style="fill:#c0c5e1;fill-opacity:0.909804" />
        <path
           d="m 180.24982,93.486 q -0.80645,0 -1.2764,-0.41275 l 0.17145,-0.381 q 0.254,0.19685 0.5207,0.2921 0.27305,0.0889 0.60325,0.0889 0.36195,0 0.5461,-0.12065 0.1905,-0.127 0.1905,-0.36195 0,-0.1905 -0.127,-0.29845 -0.127,-0.1143 -0.4191,-0.18415 l -0.53975,-0.127 q -0.40005,-0.0889 -0.6223,-0.3175 -0.2159,-0.2286 -0.2159,-0.5461 0,-0.2794 0.1524,-0.48895 0.1524,-0.2159 0.42545,-0.33655 0.27305,-0.12065 0.6477,-0.12065 0.33655,0 0.635,0.10795 0.29845,0.10795 0.50165,0.31115 l -0.17145,0.37465 q -0.2286,-0.1905 -0.4699,-0.2794 -0.23495,-0.09525 -0.4953,-0.09525 -0.3429,0 -0.5334,0.13335 -0.18415,0.13335 -0.18415,0.36195 0,0.19685 0.1143,0.31115 0.12065,0.1143 0.381,0.1778 l 0.53975,0.13335 q 0.45085,0.09525 0.6604,0.3175 0.2159,0.2159 0.2159,0.55245 0,0.41275 -0.33655,0.6604 -0.33655,0.24765 -0.9144,0.24765 z"
           id="path3300"
           style="fill:#c0c5e1;fill-opacity:0.909804" />
      </g>
    </g>
    <g
       id="g3580"
       transform="translate(77.50556,5.0824227)"
       style="fill:#c0c5e1;fill-opacity:1;stroke:#a0c0d2;stroke-opacity:1">
      <g
         id="g3547"
         style="fill:#c0c5e1;fill-opacity:1;stroke:#a0c0d2;stroke-width:1.1;stroke-dasharray:none;stroke-opacity:1">
        <path
           id="circle3532"
           style="color:#000000;opacity:1;fill:#c0c5e1;fill-opacity:1;stroke:none;stroke-linecap:round;-inkscape-stroke:none"
           d="m 101.37299,45.456873 c -5.638696,2e-6 -10.218495,4.578251 -10.218495,10.216948 0,5.638696 4.579799,10.219012 10.218495,10.219014 5.6387,4e-6 10.21695,-4.580314 10.21695,-10.219014 0,-2.159772 -0.67234,-4.163724 -1.81798,-5.814633 a 2.0058827,2.0058827 0 0 0 0.64027,-1.469161 2.0058827,2.0058827 0 0 0 -2.00607,-2.006079 2.0058827,2.0058827 0 0 0 -1.51464,0.692464 c -1.59199,-1.024586 -3.48638,-1.61954 -5.51853,-1.619539 z m 0,0.744141 c 1.89774,-10e-7 3.66387,0.557274 5.14491,1.516186 a 2.0058827,2.0058827 0 0 0 -0.11782,0.672827 2.0058827,2.0058827 0 0 0 2.00608,2.005563 2.0058827,2.0058827 0 0 0 0.73897,-0.141077 c 1.07169,1.535073 1.70067,3.402921 1.70067,5.419308 0,5.236072 -4.23674,9.47281 -9.47281,9.472806 -5.236069,-10e-7 -9.472804,-4.236738 -9.472804,-9.472806 0,-5.236069 4.236735,-9.472806 9.472804,-9.472807 z" />
        <path
           style="color:#000000;opacity:0.92;fill:#c0c5e1;fill-opacity:1;stroke:none;stroke-linecap:round;-inkscape-stroke:none"
           d="m 101.37305,51.175781 c -2.481178,10e-7 -4.49805,2.016872 -4.49805,4.498047 0,2.481175 2.016872,4.498046 4.49805,4.498047 2.48117,-10e-7 4.49804,-2.016872 4.49804,-4.498047 0,-2.481175 -2.01687,-4.498046 -4.49804,-4.498047 z m 0,0.5 c 2.21095,10e-7 3.99804,1.787092 3.99804,3.998047 0,2.210955 -1.78709,3.998046 -3.99804,3.998047 -2.210958,-10e-7 -3.99805,-1.787092 -3.99805,-3.998047 0,-2.210955 1.787092,-3.998046 3.99805,-3.998047 z"
           id="path3530" />
        <path
           id="circle3534"
           style="color:#000000;opacity:1;fill:#c0c5e1;fill-opacity:1;stroke:none;stroke-linecap:round;-inkscape-stroke:none"
           d="m 101.37299,39.041244 c -2.407883,0 -4.69995,0.513591 -6.767542,1.435571 -0.139674,0.06228 -0.278402,0.126229 -0.415996,0.192237 0.217286,0.266888 0.384072,0.587218 0.49196,0.983919 0.123451,-0.05905 0.247865,-0.116753 0.373104,-0.172599 1.930119,-0.860681 4.066534,-1.337903 6.318474,-1.337903 8.58458,-10e-7 15.53135,6.946766 15.53135,15.531352 0,3.223507 -0.98186,6.214683 -2.65978,8.695593 -0.42346,-0.259888 -0.92057,-0.409794 -1.45159,-0.409794 -1.53354,0 -2.78536,1.251311 -2.78536,2.784843 0,0.561506 0.16778,1.085808 0.45578,1.524454 -2.5551,1.847194 -5.69324,2.938322 -9.0904,2.938322 -8.58457,-10e-7 -15.531349,-6.948836 -15.531349,-15.533418 0,-3.08671 0.902237,-5.959148 2.453081,-8.3752 0.506095,0.281188 1.087715,0.441834 1.705322,0.441834 1.942653,1e-6 3.5295,-1.586847 3.5295,-3.529501 0,-1.942653 -1.586847,-3.529501 -3.5295,-3.5295 -1.942653,0 -3.5295,1.586848 -3.5295,3.5295 0,0.928545 0.362839,1.7756 0.95343,2.407089 -1.696358,2.606677 -2.683557,5.716494 -2.683557,9.055778 0,9.17906 7.45352,16.632575 16.632573,16.632576 3.69392,0 7.1079,-1.208002 9.86968,-3.248897 0.44367,0.29917 0.97737,0.47439 1.5503,0.474389 1.53353,10e-7 2.78691,-1.253895 2.78691,-2.787426 0,-0.604332 -0.19475,-1.164698 -0.52452,-1.622124 1.85875,-2.684649 2.95073,-5.939414 2.95073,-9.448518 0,-9.179065 -7.45404,-16.632578 -16.6331,-16.632577 z m -11.372946,2.739884 c 1.348172,0 2.429826,1.081657 2.429826,2.429826 1e-6,1.348173 -1.081653,2.427759 -2.429826,2.427759 -0.387633,0 -0.753279,-0.08934 -1.077454,-0.248564 0.0011,-0.0015 0.002,-0.0032 0.0031,-0.0046 a 2.4268377,2.4268377 0 0 1 -0.850077,-0.699183 c -0.0016,0.0021 -0.0031,0.0041 -0.0047,0.0062 -0.314302,-0.409012 -0.500745,-0.922056 -0.500745,-1.481564 10e-7,-1.348169 1.081654,-2.429826 2.429826,-2.429826 z m 22.792926,23.049756 c 1.06281,0 1.91564,0.85077 1.91564,1.913579 0,1.062809 -0.85283,1.916162 -1.91564,1.916162 -1.06281,0 -1.9141,-0.853353 -1.9141,-1.916162 0,-1.062809 0.85129,-1.913579 1.9141,-1.913579 z" />
        <g
           id="circle3538"
           style="fill:#c0c5e1;fill-opacity:1;stroke:none"
           transform="translate(-0.21109079,-0.28848831)" />
      </g>
    </g>
    <g
       transform="matrix(1.3557234,9.5283869e-4,-9.5283869e-4,1.3557234,-36.531422,-34.226151)"
       stroke-width="0.30247"
       aria-label="earthcycles"
       id="g11"
       style="fill:#c0c5e1;fill-opacity:0.909804">
      <text
         xml:space="preserve"
         style="font-style:italic;font-size:11.4215px;font-family:'Cooper Lt BT';-inkscape-font-specification:'Cooper Lt BT Italic';text-align:justify;letter-spacing:-0.226388px;fill:#c0c5e1;fill-opacity:0.909804;stroke:#666666;stroke-width:0.18507;stroke-opacity:0.878431"
         x="78.152946"
         y="88.264816"
         id="text36"
         transform="rotate(-0.040269)"><tspan
           sodipodi:role="line"
           id="tspan36"
           style="font-style:normal;font-variant:normal;font-weight:normal;font-stretch:normal;font-family:Arvo;-inkscape-font-specification:Arvo;fill:#c0c5e1;fill-opacity:0.909804;stroke:none;stroke-width:0.18507"
           x="78.152946"
           y="88.264816"><tspan
   style="font-style:normal;font-variant:normal;font-weight:bold;font-stretch:normal;font-family:Arvo;-inkscape-font-specification:'Arvo Bold';fill:#c0c5e1;fill-opacity:0.909804;stroke-width:0.18507"
   id="tspan40">earth</tspan>cal</tspan></text>
    </g>
    <g
       transform="matrix(0.77030826,5.4139325e-4,-5.4139325e-4,0.77030826,85.839237,-65.225405)"
       stroke-width="0.46011"
       aria-label="calendar.earthen.io  |  by Russell Maier  "
       id="g34">
      <g
         transform="matrix(0.68739,-4.8311e-4,4.8311e-4,0.68739,0.29478,29.78)"
         stroke-linecap="round"
         stroke-width="0.84587"
         style="white-space:pre;inline-size:86.3622"
         aria-label="Sync with Earth's Cycles."
         id="g33">
        <text
           xml:space="preserve"
           style="font-style:normal;font-variant:normal;font-weight:normal;font-stretch:normal;font-size:6.55898px;font-family:Mulish;-inkscape-font-specification:Mulish;text-align:justify;letter-spacing:-0.130009px;fill:#808080;fill-opacity:1;stroke:none;stroke-width:0.297216;stroke-opacity:0.878431"
           x="135.54805"
           y="77.369759"
           id="text37"><tspan
             sodipodi:role="line"
             id="tspan37"
             style="font-style:italic;font-variant:normal;font-weight:normal;font-stretch:normal;font-family:'Cooper Lt BT';-inkscape-font-specification:'Cooper Lt BT Italic';stroke-width:0.297216"
             x="135.54805"
             y="77.369759">Sync with </tspan><tspan
             sodipodi:role="line"
             style="font-style:italic;font-variant:normal;font-weight:normal;font-stretch:normal;font-family:'Cooper Lt BT';-inkscape-font-specification:'Cooper Lt BT Italic';stroke-width:0.297216"
             x="135.54805"
             y="85.837608"
             id="tspan38">Earth's cycles.</tspan></text>
      </g>
    </g>
    <g
       transform="matrix(0.34596685,0,0,0.34596685,66.44495,17.083711)"
       id="g35"
       style="fill:#c0c5e1;fill-opacity:0.909804">
      <path
         d="m 99.632,146.57 c -2.3623,-0.27384 -4.2525,-0.62389 -6.3776,-1.1811 -14.343,-3.7605 -25.495,-15.891 -28.185,-30.658 -0.66278,-3.6377 -0.66434,-10.036 -0.0034,-13.63 0.80039,-4.352 2.3761,-8.7094 4.4471,-12.298 l 1.1149,-1.9318 -0.44765,-0.92748 c -1.4976,-3.1029 -0.85378,-7.1245 1.5347,-9.5857 1.7548,-1.8082 5.0123,-2.8439 7.521,-2.3912 2.5761,0.46486 4.4395,1.7854 5.8142,4.1204 1.4898,2.5305 1.5814,5.2131 0.27242,7.9824 -0.82467,1.7447 -1.974,2.901 -3.6741,3.6967 -2.3098,1.0809 -5.2865,1.2594 -6.8699,0.41202 -0.49386,-0.26431 -0.64032,-0.07418 -1.9512,2.5329 -1.2098,2.4063 -2.2923,5.6121 -2.9148,8.633 -0.72839,3.5344 -0.74102,9.2814 -0.02821,12.834 1.6231,8.0891 6.0621,15.546 11.993,20.146 6.3116,4.8955 12.536,7.2038 20.213,7.4956 4.9958,0.18989 9.102,-0.43085 13.298,-2.0104 0.82725,-0.31137 1.5283,-0.5376 1.5579,-0.50272 0.0296,0.0349 0.2158,0.38195 0.41377,0.77127 0.19798,0.38933 0.80034,1.2485 1.3386,1.9094 l 0.97863,1.2015 -1.0368,0.46509 c -2.9281,1.3136 -6.8695,2.3684 -10.565,2.8276 -1.7123,0.21275 -6.9036,0.26738 -8.4437,0.0888 z M 78.99,85.685 c 1.5744,-0.56152 2.3921,-1.7266 2.3921,-3.4083 0,-3.2551 -3.8006,-4.8413 -6.0973,-2.5446 -1.9422,1.9422 -1.2357,5.0224 1.3647,5.9494 1.0526,0.37526 1.2971,0.37562 2.3405,0.0035 z m 47.051,55.706 c -1.4722,-0.50355 -2.8858,-1.4812 -3.6644,-2.5342 -0.60062,-0.8124 -1.4962,-2.6258 -1.6868,-3.4156 -0.40055,-1.6594 -0.0366,-4.5554 0.76421,-6.0815 1.7551,-3.3445 6.2281,-5.1503 9.969,-4.0245 1.2517,0.37671 1.04,0.57951 2.5084,-2.4034 1.2895,-2.6194 2.2089,-5.3152 2.8779,-8.4379 0.71525,-3.3387 0.72863,-9.8243 0.0272,-13.15 -0.67985,-3.2231 -1.4269,-5.424 -2.7896,-8.2188 -2.8728,-5.8916 -6.4546,-10.038 -11.731,-13.581 -8.7063,-5.8454 -19.749,-7.3512 -29.646,-4.0427 -2.2732,0.75989 -2.6964,0.84342 -2.8913,0.57059 -0.76667,-1.0733 -1.71,-2.3257 -2.1954,-2.9148 l -0.56118,-0.68098 2.2504,-0.87712 c 10.098,-3.9359 21.146,-3.493 30.961,1.2413 14.841,7.1583 23.585,22.885 21.792,39.196 -0.54675,4.9766 -1.7081,8.8574 -4.0651,13.584 l -1.6688,3.3467 0.45851,1.0658 c 0.91791,2.1337 0.81771,4.7672 -0.27194,7.1473 -0.71168,1.5545 -1.8508,2.7585 -3.365,3.5566 -2.3395,1.2331 -4.732,1.4542 -7.0728,0.65356 z m 4.6115,-4.816 c 1.0914,-0.55038 1.9642,-1.9381 1.9642,-3.1231 0,-0.89154 -0.8362,-2.495 -1.586,-3.0413 -0.93342,-0.68005 -2.901,-0.72493 -3.9834,-0.0908 -2.0222,1.1846 -2.2954,4.1585 -0.53321,5.8038 1.1188,1.0446 2.6344,1.21 4.1384,0.45149 z m -29.377,-4.5718 c -8.4944,-0.8168 -15.822,-5.7759 -19.557,-13.235 -4.2572,-8.5028 -3.1841,-18.692 2.746,-26.074 3.4823,-4.3345 8.3385,-7.3543 13.748,-8.5493 2.2678,-0.50095 6.5451,-0.67023 8.7921,-0.34796 2.0204,0.28976 5.9366,1.5132 7.3231,2.2878 0.79216,0.44256 0.97081,0.46689 1.6438,0.22376 0.94103,-0.33998 2.6874,-0.3757 3.763,-0.07697 2.7688,0.76895 4.761,4.0923 4.1337,6.8955 -0.2489,1.1122 -0.24483,1.1275 0.85408,3.2149 1.3322,2.5305 1.8506,3.9874 2.4293,6.8273 1.2625,6.1951 -0.2957,13.657 -3.8898,18.628 -1.2768,1.766 -3.7418,4.2531 -5.5685,5.6185 -4.4851,3.3524 -10.828,5.1246 -16.418,4.5871 z m 7.1382,-5.3519 c 7.1875,-1.7941 12.409,-7.3361 14.034,-14.897 0.39525,-1.8382 0.44299,-5.7109 0.0923,-7.4865 -0.34995,-1.7717 -1.2301,-4.3953 -1.8264,-5.4443 l -0.49838,-0.87667 -1.6533,0.0765 c -2.192,0.10141 -3.5128,-0.4488 -5.01,-2.087 -1.2135,-1.3278 -1.5345,-2.1951 -1.5363,-4.151 l -8.2e-4,-1.3399 -1.2645,-0.56749 c -2.0754,-0.93138 -3.7392,-1.29 -6.5159,-1.4046 -9.3519,-0.38577 -17.096,5.1603 -19.655,14.076 -0.43609,1.5196 -0.50193,2.2354 -0.49388,5.3696 0.0084,3.2946 0.06206,3.7879 0.60262,5.5466 2.3925,7.7837 8.5841,12.874 16.697,13.727 2.1815,0.2294 4.7258,0.0334 7.0287,-0.54141 z m -7.8327,-7.016 c -6.8549,-1.6628 -10.988,-9.0923 -8.6472,-15.542 0.75738,-2.0866 1.8191,-3.7198 3.3553,-5.1614 1.7471,-1.6395 3.6313,-2.5626 6.1008,-2.9888 1.7308,-0.29869 2.1465,-0.29911 3.8973,-0.0039 2.7689,0.46687 4.4688,1.3556 6.5293,3.4136 2.3944,2.3914 3.6932,5.3987 3.7017,8.5708 0.004,1.5422 -0.70654,4.1137 -1.6012,5.7939 -0.84898,1.5943 -3.1675,3.9574 -4.6911,4.7813 -2.4414,1.3202 -5.9735,1.7846 -8.6447,1.1367 z m 6.02,-5.2198 c 1.4582,-0.71344 2.6326,-1.96 3.4115,-3.6211 0.47788,-1.0192 0.57569,-1.5342 0.56679,-2.985 -0.0183,-2.9902 -1.3913,-5.2299 -3.9902,-6.5093 -1.2976,-0.63879 -1.6742,-0.72249 -3.227,-0.71702 -1.4194,0.005 -1.9901,0.11448 -2.9634,0.56858 -1.5232,0.71067 -2.8817,2.0692 -3.6632,3.6631 -0.51467,1.0498 -0.60729,1.5118 -0.60032,2.9946 0.01547,3.2931 1.7969,5.8859 4.7747,6.9496 1.6505,0.58949 4.0845,0.44263 5.6911,-0.3434 z"
         fill="#808080"
         stroke-width="0.21917"
         id="path34"
         style="fill:#c0c5e1;fill-opacity:0.909804" />
    </g>
  </g>
</svg>
