<?xml version="1.0" encoding="UTF-8" standalone="no"?>
<!-- Created with Inkscape (http://www.inkscape.org/) -->

<svg
   width="70.039mm"
   height="57.05mm"
   version="1.1"
   viewBox="0 0 70.039 57.05"
   id="svg3314"
   sodipodi:docname="earthcycles-logo-motto-o.svg"
   inkscape:version="1.3.2 (1:1.3.2+202311252150+091e20ef0f)"
   xmlns:inkscape="http://www.inkscape.org/namespaces/inkscape"
   xmlns:sodipodi="http://sodipodi.sourceforge.net/DTD/sodipodi-0.dtd"
   xmlns="http://www.w3.org/2000/svg"
   xmlns:svg="http://www.w3.org/2000/svg">
  <defs
     id="defs3318" />
  <sodipodi:namedview
     id="namedview3316"
     pagecolor="#ffffff"
     bordercolor="#000000"
     borderopacity="0.25"
     inkscape:showpageshadow="2"
     inkscape:pageopacity="0.0"
     inkscape:pagecheckerboard="0"
     inkscape:deskcolor="#d1d1d1"
     inkscape:document-units="mm"
     showgrid="false"
     inkscape:zoom="1.6000219"
     inkscape:cx="236.24676"
     inkscape:cy="150.93543"
     inkscape:window-width="1503"
     inkscape:window-height="869"
     inkscape:window-x="0"
     inkscape:window-y="0"
     inkscape:window-maximized="1"
     inkscape:current-layer="text36" />
  <g
     transform="translate(-66.387 -37.952)"
     fill="#a0c0d2"
     id="g3312">
    <g
       transform="matrix(1.0998938,7.7303524e-4,-7.7303524e-4,1.0998938,-9.8263416,-11.888719)"
       stroke-width="0.46011"
       aria-label="calendar.earthen.io  |  by Russell Maier  "
       id="g3306"
       style="fill:#c0c5e1;fill-opacity:0.909804">
      <g
         transform="matrix(0.68739,-4.8311e-4,4.8311e-4,0.68739,0.29478,29.78)"
         fill="#a0c0d2"
         stroke-linecap="round"
         stroke-width="0.84587"
         style="white-space:pre;inline-size:86.3622;fill:#c0c5e1;fill-opacity:0.909804"
         aria-label="Sync with Earth's Cycles."
         id="g3304">
        <path
           d="m 114.60982,93.493 q -0.34925,0 -0.65405,-0.05715 -0.3048,-0.0635 -0.56515,-0.1905 -0.26035,-0.13335 -0.4699,-0.32385 l 0.19685,-0.40005 q 0.3429,0.28575 0.6858,0.4064 0.34925,0.12065 0.8128,0.12065 0.53975,0 0.8382,-0.20955 0.29845,-0.2159 0.29845,-0.60325 0,-0.23495 -0.1524,-0.37465 -0.14605,-0.14605 -0.4064,-0.2286 -0.254,-0.0889 -0.57785,-0.1651 -0.32385,-0.06985 -0.61595,-0.15875 -0.2921,-0.09525 -0.5207,-0.23495 -0.22225,-0.1397 -0.34925,-0.3556 -0.127,-0.2159 -0.127,-0.53975 0,-0.38735 0.2032,-0.67945 0.2032,-0.29845 0.5715,-0.46355 0.3683,-0.1651 0.86995,-0.1651 0.31115,0 0.5969,0.06985 0.28575,0.0635 0.52705,0.1905 0.24765,0.127 0.43815,0.31115 l -0.2032,0.40005 q -0.31115,-0.27305 -0.64135,-0.40005 -0.3302,-0.127 -0.71755,-0.127 -0.52705,0 -0.8255,0.22225 -0.29845,0.22225 -0.29845,0.6223 0,0.24765 0.13335,0.40005 0.13335,0.1524 0.37465,0.24765 0.2413,0.0889 0.55245,0.1651 0.3302,0.0762 0.635,0.1651 0.3048,0.0889 0.53975,0.22225 0.2413,0.127 0.381,0.33655 0.1397,0.2032 0.1397,0.5207 0,0.38735 -0.2032,0.6731 -0.2032,0.28575 -0.57785,0.4445 -0.37465,0.15875 -0.889,0.15875 z"
           id="path3260"
           style="fill:#c0c5e1;fill-opacity:0.909804" />
        <path
           d="m 116.77982,94.883 -0.10795,-0.40005 q 0.2921,-0.06985 0.48895,-0.1651 0.2032,-0.0889 0.33655,-0.23495 0.1397,-0.14605 0.2413,-0.38735 l 0.2032,-0.4699 0.1143,-0.15875 1.1684,-2.8194 h 0.51435 l -1.4922,3.4862 q -0.17145,0.38735 -0.38735,0.61595 -0.2159,0.23495 -0.48895,0.3556 -0.2667,0.12065 -0.59055,0.1778 z m 1.1684,-1.2764 -1.4351,-3.3592 h 0.53975 l 1.1557,2.8194 z"
           id="path3262"
           style="fill:#c0c5e1;fill-opacity:0.909804" />
        <path
           d="m 120.19982,93.442 v -2.2987 q 0,-0.22225 -0.0127,-0.4445 -0.006,-0.2286 -0.0381,-0.45085 h 0.48895 l 0.0572,0.6604 -0.0635,0.0508 q 0.13335,-0.38735 0.4445,-0.5842 0.31115,-0.2032 0.71755,-0.2032 1.1494,0 1.1494,1.2636 v 2.0066 h -0.51435 v -1.9812 q 0,-0.4445 -0.1778,-0.6477 -0.1778,-0.20955 -0.5588,-0.20955 -0.4445,0 -0.7112,0.27305 -0.2667,0.27305 -0.2667,0.7366 v 1.8288 z"
           id="path3264"
           style="fill:#c0c5e1;fill-opacity:0.909804" />
        <path
           d="m 125.15982,93.486 q -0.4699,0 -0.8128,-0.2032 -0.3429,-0.2032 -0.5334,-0.5715 -0.18415,-0.3683 -0.18415,-0.86995 0,-0.4953 0.1905,-0.86995 0.1905,-0.381 0.53975,-0.59055 0.34925,-0.20955 0.8255,-0.20955 0.32385,0 0.6223,0.1143 0.3048,0.10795 0.50165,0.3048 l -0.17145,0.381 q -0.23495,-0.18415 -0.46355,-0.27305 -0.22225,-0.09525 -0.46355,-0.09525 -0.4826,0 -0.76835,0.32385 -0.2794,0.32385 -0.2794,0.9144 0,0.5842 0.2794,0.9017 0.2794,0.3175 0.76835,0.3175 0.23495,0 0.46355,-0.0889 0.2286,-0.09525 0.46355,-0.2794 l 0.17145,0.381 q -0.2032,0.1905 -0.51435,0.3048 -0.3048,0.10795 -0.635,0.10795 z"
           id="path3266"
           style="fill:#c0c5e1;fill-opacity:0.909804" />
        <path
           d="m 129.27982,93.442 -1.1811,-3.194 h 0.53975 l 0.98425,2.813 h -0.1651 l 1.016,-2.813 h 0.45085 l 1.0033,2.813 h -0.1651 l 1.0033,-2.813 h 0.508 l -1.1811,3.194 h -0.4953 l -1.0541,-2.8766 h 0.2794 l -1.0478,2.8766 z"
           id="path3268"
           style="fill:#c0c5e1;fill-opacity:0.909804" />
        <path
           d="m 133.83982,93.442 v -3.194 h 0.51435 v 3.194 z m -0.0508,-4.5466 h 0.62865 v 0.5842 h -0.62865 z"
           id="path3270"
           style="fill:#c0c5e1;fill-opacity:0.909804" />
        <path
           d="m 134.79982,90.654 v -0.4064 h 2.051 v 0.4064 z m 2.0384,2.3304 v 0.43815 q -0.10795,0.03175 -0.2159,0.04445 -0.1016,0.01905 -0.2286,0.01905 -0.4445,0 -0.7112,-0.254 -0.26035,-0.254 -0.26035,-0.762 v -3.0416 l 0.51435,-0.18415 v 3.156 q 0,0.254 0.0699,0.3937 0.0762,0.1397 0.2032,0.19685 0.127,0.0508 0.28575,0.0508 0.0952,0 0.17145,-0.0127 0.0762,-0.0127 0.17145,-0.04445 z"
           id="path3272"
           style="fill:#c0c5e1;fill-opacity:0.909804" />
        <path
           d="m 137.36982,93.442 v -4.6736 h 0.51435 v 2.1272 l -0.0825,0.0635 q 0.13335,-0.38735 0.4445,-0.5842 0.31115,-0.2032 0.71755,-0.2032 1.1494,0 1.1494,1.2636 v 2.0066 h -0.51435 v -1.9812 q 0,-0.4445 -0.1778,-0.6477 -0.1778,-0.20955 -0.5588,-0.20955 -0.4445,0 -0.7112,0.27305 -0.2667,0.27305 -0.2667,0.7366 v 1.8288 z"
           id="path3274"
           style="fill:#c0c5e1;fill-opacity:0.909804" />
        <path
           d="m 142.60982,93.442 v -4.5212 h 2.8575 v 0.4318 h -2.3432 v 1.5748 h 2.2162 v 0.43815 h -2.2162 v 1.6446 h 2.3432 v 0.4318 z"
           id="path3276"
           style="fill:#c0c5e1;fill-opacity:0.909804" />
        <path
           d="m 147.39982,93.486 q -0.42545,0 -0.7493,-0.19685 -0.3175,-0.2032 -0.4953,-0.5715 -0.17145,-0.37465 -0.17145,-0.8763 0,-0.50165 0.1778,-0.8763 0.1778,-0.37465 0.4953,-0.5842 0.32385,-0.20955 0.74295,-0.20955 0.43815,0 0.74295,0.2159 0.3048,0.2159 0.41275,0.61595 l -0.0762,0.0508 V 90.2475 h 0.508 v 3.194 h -0.508 V 92.616 l 0.0762,0.0381 q -0.10795,0.40005 -0.41275,0.61595 -0.3048,0.2159 -0.74295,0.2159 z m 0.1016,-0.42545 q 0.4699,0 0.7239,-0.3175 0.254,-0.32385 0.254,-0.9144 0,-0.59055 -0.26035,-0.90805 -0.254,-0.3175 -0.71755,-0.3175 -0.4699,0 -0.7366,0.3302 -0.26035,0.32385 -0.26035,0.90805 0,0.5842 0.26035,0.9017 0.2667,0.3175 0.7366,0.3175 z"
           id="path3278"
           style="fill:#c0c5e1;fill-opacity:0.909804" />
        <path
           d="m 149.88982,93.442 v -2.2987 q 0,-0.22225 -0.0127,-0.4445 -0.006,-0.2286 -0.0381,-0.45085 h 0.48895 l 0.0698,0.7874 -0.0698,-0.01905 q 0.0889,-0.4191 0.381,-0.62865 0.29845,-0.2159 0.66675,-0.2159 0.0825,0 0.1524,0.0127 0.0762,0.0063 0.1397,0.0254 l -0.0127,0.4699 q -0.14605,-0.0508 -0.33655,-0.0508 -0.3302,0 -0.5334,0.14605 -0.19685,0.14605 -0.2921,0.37465 -0.0889,0.22225 -0.0889,0.4699 v 1.8224 z"
           id="path3280"
           style="fill:#c0c5e1;fill-opacity:0.909804" />
        <path
           d="m 151.88982,90.654 v -0.4064 h 2.051 v 0.4064 z m 2.0384,2.3304 v 0.43815 q -0.10795,0.03175 -0.2159,0.04445 -0.1016,0.01905 -0.2286,0.01905 -0.4445,0 -0.7112,-0.254 -0.26035,-0.254 -0.26035,-0.762 v -3.0416 l 0.51435,-0.18415 v 3.156 q 0,0.254 0.0699,0.3937 0.0762,0.1397 0.2032,0.19685 0.127,0.0508 0.28575,0.0508 0.0952,0 0.17145,-0.0127 0.0762,-0.0127 0.17145,-0.04445 z"
           id="path3282"
           style="fill:#c0c5e1;fill-opacity:0.909804" />
        <path
           d="m 154.45982,93.442 v -4.6736 h 0.51435 v 2.1272 l -0.0826,0.0635 q 0.13335,-0.38735 0.4445,-0.5842 0.31115,-0.2032 0.71755,-0.2032 1.1494,0 1.1494,1.2636 v 2.0066 h -0.51435 v -1.9812 q 0,-0.4445 -0.1778,-0.6477 -0.1778,-0.20955 -0.5588,-0.20955 -0.4445,0 -0.7112,0.27305 -0.2667,0.27305 -0.2667,0.7366 v 1.8288 z"
           id="path3284"
           style="fill:#c0c5e1;fill-opacity:0.909804" />
        <path
           d="m 158.11982,90.699 -0.1397,-1.778 h 0.6096 l -0.127,1.778 z"
           id="path3286"
           style="fill:#c0c5e1;fill-opacity:0.909804" />
        <path
           d="m 160.45982,93.486 q -0.80645,0 -1.2764,-0.41275 l 0.17145,-0.381 q 0.254,0.19685 0.5207,0.2921 0.27305,0.0889 0.60325,0.0889 0.36195,0 0.5461,-0.12065 0.1905,-0.127 0.1905,-0.36195 0,-0.1905 -0.127,-0.29845 -0.127,-0.1143 -0.4191,-0.18415 l -0.53975,-0.127 q -0.40005,-0.0889 -0.6223,-0.3175 -0.2159,-0.2286 -0.2159,-0.5461 0,-0.2794 0.1524,-0.48895 0.1524,-0.2159 0.42545,-0.33655 0.27305,-0.12065 0.6477,-0.12065 0.33655,0 0.635,0.10795 0.29845,0.10795 0.50165,0.31115 l -0.17145,0.37465 q -0.2286,-0.1905 -0.4699,-0.2794 -0.23495,-0.09525 -0.4953,-0.09525 -0.3429,0 -0.5334,0.13335 -0.18415,0.13335 -0.18415,0.36195 0,0.19685 0.1143,0.31115 0.12065,0.1143 0.381,0.1778 l 0.53975,0.13335 q 0.45085,0.09525 0.6604,0.3175 0.2159,0.2159 0.2159,0.55245 0,0.41275 -0.33655,0.6604 -0.33655,0.24765 -0.9144,0.24765 z"
           id="path3288"
           style="fill:#c0c5e1;fill-opacity:0.909804" />
        <path
           d="m 165.98982,93.493 q -0.6477,0 -1.1176,-0.2794 -0.4699,-0.2794 -0.7239,-0.8001 -0.254,-0.5207 -0.254,-1.2382 0,-0.7175 0.254,-1.2319 0.254,-0.5144 0.7239,-0.79375 0.4699,-0.27935 1.1176,-0.2794 0.46355,0 0.85725,0.14605 0.3937,0.1397 0.67945,0.42545 l -0.19685,0.40005 q -0.32385,-0.2794 -0.64135,-0.40005 -0.3175,-0.12065 -0.69215,-0.12065 -0.74295,0 -1.1557,0.4826 -0.4064,0.4826 -0.4064,1.3716 0,0.89535 0.4064,1.3843 0.4064,0.4826 1.1557,0.4826 0.37465,0 0.69215,-0.12065 0.3175,-0.12065 0.64135,-0.40005 l 0.19685,0.40005 q -0.28575,0.28575 -0.67945,0.4318 -0.3937,0.1397 -0.85725,0.1397 z"
           id="path3290"
           style="fill:#c0c5e1;fill-opacity:0.909804" />
        <path
           d="m 167.96982,94.883 -0.10795,-0.40005 q 0.2921,-0.06985 0.48895,-0.1651 0.2032,-0.0889 0.33655,-0.23495 0.1397,-0.14605 0.2413,-0.38735 l 0.2032,-0.4699 0.1143,-0.15875 1.1684,-2.8194 h 0.51435 l -1.4922,3.4862 q -0.17145,0.38735 -0.38735,0.61595 -0.2159,0.23495 -0.48895,0.3556 -0.2667,0.12065 -0.59055,0.1778 z m 1.1684,-1.2764 -1.4351,-3.3592 h 0.53975 l 1.1557,2.8194 z"
           id="path3292"
           style="fill:#c0c5e1;fill-opacity:0.909804" />
        <path
           d="m 172.69982,93.486 q -0.4699,0 -0.8128,-0.2032 -0.3429,-0.2032 -0.5334,-0.5715 -0.18415,-0.3683 -0.18415,-0.86995 0,-0.4953 0.1905,-0.86995 0.1905,-0.381 0.53975,-0.59055 0.34925,-0.20955 0.8255,-0.20955 0.32385,0 0.6223,0.1143 0.3048,0.10795 0.50165,0.3048 l -0.17145,0.381 q -0.23495,-0.18415 -0.46355,-0.27305 -0.22225,-0.09525 -0.46355,-0.09525 -0.4826,0 -0.76835,0.32385 -0.2794,0.32385 -0.2794,0.9144 0,0.5842 0.2794,0.9017 0.2794,0.3175 0.76835,0.3175 0.23495,0 0.46355,-0.0889 0.2286,-0.09525 0.46355,-0.2794 l 0.17145,0.381 q -0.2032,0.1905 -0.51435,0.3048 -0.3048,0.10795 -0.635,0.10795 z"
           id="path3294"
           style="fill:#c0c5e1;fill-opacity:0.909804" />
        <path
           d="m 174.39982,93.442 v -4.6736 h 0.51435 v 4.6736 z"
           id="path3296"
           style="fill:#c0c5e1;fill-opacity:0.909804" />
        <path
           d="m 178.42982,93.061 q -0.20955,0.19685 -0.53975,0.31115 -0.32385,0.1143 -0.66675,0.1143 -0.4953,0 -0.85725,-0.19685 -0.3556,-0.19685 -0.55245,-0.56515 -0.1905,-0.37465 -0.1905,-0.889 0,-0.4953 0.1905,-0.86995 0.1905,-0.37465 0.52705,-0.5842 0.3429,-0.20955 0.7874,-0.20955 0.42545,0 0.73025,0.1905 0.3048,0.18415 0.46355,0.5334 0.1651,0.34925 0.1651,0.8382 v 0.09525 h -2.413 v -0.33655 h 2.1209 l -0.1651,0.23495 q 0.0127,-0.5588 -0.22225,-0.85725 -0.2286,-0.29845 -0.6731,-0.29845 -0.46355,0 -0.73025,0.3302 -0.26035,0.32385 -0.26035,0.9017 0,0.6223 0.27305,0.9398 0.2794,0.3175 0.8128,0.3175 0.2794,0 0.5334,-0.0889 0.26035,-0.09525 0.4953,-0.28575 z"
           id="path3298"
           style="fill:#c0c5e1;fill-opacity:0.909804" />
        <path
           d="m 180.24982,93.486 q -0.80645,0 -1.2764,-0.41275 l 0.17145,-0.381 q 0.254,0.19685 0.5207,0.2921 0.27305,0.0889 0.60325,0.0889 0.36195,0 0.5461,-0.12065 0.1905,-0.127 0.1905,-0.36195 0,-0.1905 -0.127,-0.29845 -0.127,-0.1143 -0.4191,-0.18415 l -0.53975,-0.127 q -0.40005,-0.0889 -0.6223,-0.3175 -0.2159,-0.2286 -0.2159,-0.5461 0,-0.2794 0.1524,-0.48895 0.1524,-0.2159 0.42545,-0.33655 0.27305,-0.12065 0.6477,-0.12065 0.33655,0 0.635,0.10795 0.29845,0.10795 0.50165,0.31115 l -0.17145,0.37465 q -0.2286,-0.1905 -0.4699,-0.2794 -0.23495,-0.09525 -0.4953,-0.09525 -0.3429,0 -0.5334,0.13335 -0.18415,0.13335 -0.18415,0.36195 0,0.19685 0.1143,0.31115 0.12065,0.1143 0.381,0.1778 l 0.53975,0.13335 q 0.45085,0.09525 0.6604,0.3175 0.2159,0.2159 0.2159,0.55245 0,0.41275 -0.33655,0.6604 -0.33655,0.24765 -0.9144,0.24765 z"
           id="path3300"
           style="fill:#c0c5e1;fill-opacity:0.909804" />
      </g>
    </g>
    <g
       transform="matrix(1.3557234,9.5283869e-4,-9.5283869e-4,1.3557234,-36.531422,-34.226151)"
       stroke-width="0.30247"
       aria-label="earthcycles"
       id="g11"
       style="fill:#c0c5e1;fill-opacity:0.909804">
      <g
         id="text36"
         style="font-style:italic;font-size:11.4215px;font-family:'Cooper Lt BT';-inkscape-font-specification:'Cooper Lt BT Italic';text-align:justify;letter-spacing:-0.226388px;stroke:#666666;stroke-width:0.18507;stroke-opacity:0.878431"
         transform="rotate(-0.040269)"
         aria-label="earthcal">
        <path
           style="font-style:normal;font-weight:bold;font-family:Arvo;-inkscape-font-specification:'Arvo Bold';stroke:none"
           d="m 80.099286,85.738479 0.01673,0.172884 q 0.06135,0.25096 0.206345,0.440575 0.150577,0.189615 0.351345,0.317884 0.200769,0.128268 0.446153,0.195191 0.245383,0.06135 0.496344,0.06135 0.250961,0 0.474037,-0.02788 0.228653,-0.03346 0.440575,-0.08365 0.211923,-0.05577 0.412691,-0.122692 0.200769,-0.0725 0.407114,-0.150576 l 0.61346,1.143265 q -0.317884,0.195192 -0.585575,0.334614 -0.262115,0.133846 -0.529806,0.223077 -0.267691,0.08923 -0.568844,0.128268 -0.301153,0.04462 -0.70269,0.04462 -0.752882,0 -1.338457,-0.245384 -0.585575,-0.250961 -0.987112,-0.674806 -0.395961,-0.423844 -0.607883,-0.992689 -0.206345,-0.568844 -0.206345,-1.204611 0,-0.635767 0.217499,-1.193457 0.223076,-0.557691 0.624613,-0.970382 0.401537,-0.418268 0.959228,-0.658074 0.55769,-0.239807 1.238072,-0.239807 0.680383,0 1.204612,0.228653 0.529806,0.223076 0.892305,0.624613 0.362498,0.39596 0.55769,0.93692 0.195192,0.535383 0.211922,1.154419 0.01673,0.139423 0.01673,0.278845 0.0056,0.133846 -0.0056,0.278846 z m 1.33288,-2.10807 q -0.312306,0 -0.535383,0.07808 -0.217499,0.0725 -0.368075,0.206346 -0.150577,0.128269 -0.239807,0.295576 -0.08923,0.167307 -0.139423,0.351345 h 2.4148 q -0.03904,-0.189615 -0.111538,-0.356922 -0.0725,-0.167307 -0.200769,-0.295576 -0.128269,-0.128269 -0.329037,-0.200769 -0.195192,-0.07808 -0.490768,-0.07808 z m 7.107242,4.322101 q -0.195192,0.122692 -0.356922,0.211922 -0.16173,0.08365 -0.323461,0.133846 -0.16173,0.05577 -0.334614,0.07808 -0.172884,0.02788 -0.379229,0.02788 -0.518653,0 -0.931343,-0.139423 -0.407115,-0.144999 -0.691537,-0.390383 -0.278845,-0.250961 -0.429421,-0.585575 -0.150577,-0.340191 -0.150577,-0.736151 0,-0.401537 0.150577,-0.741729 0.156153,-0.340191 0.446152,-0.579998 0.289999,-0.245384 0.708267,-0.379229 0.423845,-0.139423 0.964804,-0.139423 0.395961,0 0.719421,0.04462 0.329037,0.03904 0.607883,0.100385 v -0.178461 q 0,-0.2175 -0.08365,-0.373653 -0.08365,-0.16173 -0.23423,-0.262114 -0.150576,-0.105962 -0.362499,-0.150577 -0.211922,-0.05019 -0.462883,-0.05019 -0.524229,0 -0.925766,0.105961 -0.39596,0.100385 -0.764036,0.295576 l -0.535383,-1.081919 q 0.568845,-0.390384 1.187881,-0.596729 0.624613,-0.206345 1.321726,-0.206345 0.54096,0 0.998266,0.122691 0.462883,0.117115 0.791921,0.390384 0.329037,0.267691 0.513075,0.70269 0.189615,0.434998 0.189615,1.059612 v 2.102492 h 0.775189 v 1.528072 h -2.409222 z m -1.271535,-0.864421 q 0.395961,0 0.719421,-0.128268 0.323461,-0.128269 0.552114,-0.312307 v -0.736151 h -1.338457 q -0.128269,0 -0.250961,0.03904 -0.122692,0.03904 -0.223076,0.111538 -0.09481,0.0725 -0.156154,0.178461 -0.05577,0.105961 -0.05577,0.245384 0,0.256537 0.184038,0.429421 0.189615,0.172884 0.568844,0.172884 z m 9.873386,-2.498453 h -1.56711 v -0.596728 q -0.228653,0 -0.418268,0.03346 -0.189614,0.02788 -0.334614,0.100384 -0.139422,0.0725 -0.239807,0.200769 -0.09481,0.128269 -0.133845,0.317883 v 2.091339 h 1.176726 v 1.528072 h -3.769987 v -1.528072 h 0.86442 v -2.721529 h -0.853266 v -1.528072 h 2.570953 v 0.407114 q 0.245384,-0.195191 0.552113,-0.301152 0.30673,-0.105962 0.669229,-0.105962 0.368076,0 0.758459,0.0056 0.390383,0.0056 0.724997,0.0056 z m 2.902251,-2.102493 h 1.15442 v 1.461149 h -1.16557 l -0.0112,2.442684 q 0,0.211923 0.0335,0.345768 0.0335,0.128269 0.0948,0.206346 0.0669,0.07808 0.15615,0.105961 0.0892,0.02788 0.20634,0.02788 0.21193,0 0.37366,-0.03904 0.16173,-0.04462 0.32346,-0.100384 l 0.2398,1.076343 q -0.28442,0.178461 -0.63576,0.284422 -0.34577,0.105961 -0.825385,0.105961 -0.340191,0 -0.652498,-0.117115 -0.30673,-0.117115 -0.54096,-0.351345 -0.23423,-0.239807 -0.373652,-0.596729 -0.139423,-0.356922 -0.133846,-0.830959 l 0.01673,-2.559799 h -0.830959 v -1.461149 h 0.836536 l 0.01115,-1.383072 1.73442,-0.825382 z m 1.9263,-2.89999 h 2.60442 v 3.435373 q 0.32903,-0.301153 0.71942,-0.46846 0.39596,-0.172884 0.86999,-0.172884 1.04288,0 1.595,0.585575 0.55211,0.579998 0.55211,1.700956 v 2.069031 h 0.84769 v 1.528072 h -2.58211 v -3.20672 q 0,-0.48519 -0.2398,-0.764036 -0.23981,-0.278845 -0.61904,-0.278845 -0.25096,0 -0.54654,0.139423 -0.29557,0.139422 -0.59672,0.407114 v 2.174992 h 0.84769 v 1.528072 h -3.45211 v -1.528072 h 0.89231 v -5.621519 h -0.89231 z"
           id="path1" />
        <path
           style="font-style:normal;font-family:Arvo;-inkscape-font-specification:Arvo;stroke:none"
           d="m 113.88435,84.026369 q -0.23423,-0.418268 -0.59673,-0.61346 -0.35693,-0.195191 -0.83096,-0.195191 -0.3625,0 -0.68038,0.150576 -0.31789,0.150577 -0.55769,0.429422 -0.23423,0.278845 -0.37366,0.680382 -0.13384,0.39596 -0.13384,0.886728 0,0.485191 0.13384,0.875574 0.13943,0.390383 0.37923,0.669229 0.23981,0.273268 0.55212,0.423844 0.31788,0.145 0.68038,0.145 0.53538,0 0.93134,-0.256538 0.39596,-0.262114 0.63019,-0.764036 l 0.85884,0.423845 q -0.1673,0.356922 -0.41269,0.641344 -0.24538,0.284422 -0.55769,0.485191 -0.30673,0.200768 -0.68038,0.306729 -0.36808,0.111539 -0.78077,0.111539 -0.6023,0 -1.11538,-0.223077 -0.5075,-0.228653 -0.88115,-0.635767 -0.36807,-0.407114 -0.57442,-0.970381 -0.20634,-0.563267 -0.20634,-1.232496 0,-0.669229 0.21749,-1.232496 0.2175,-0.563267 0.59673,-0.964804 0.37923,-0.407114 0.88673,-0.635767 0.5075,-0.228654 1.0875,-0.228654 0.54653,0 1.03173,0.189615 0.49076,0.189615 0.85884,0.574421 h 0.58557 v 0.959228 z m 5.23339,3.703064 q -0.32903,0.30673 -0.73057,0.501922 -0.39596,0.195192 -0.90346,0.195192 -0.42384,0 -0.78077,-0.133846 -0.35134,-0.133846 -0.60788,-0.362499 -0.25654,-0.23423 -0.40153,-0.54096 -0.13943,-0.306729 -0.13943,-0.652498 0,-0.368075 0.10596,-0.652497 0.11154,-0.284422 0.29,-0.490768 0.18404,-0.211922 0.42385,-0.351345 0.24538,-0.144999 0.5075,-0.228653 0.26769,-0.08923 0.54096,-0.122692 0.27884,-0.03904 0.5298,-0.03904 0.40154,0 0.67481,0.02788 0.27327,0.02231 0.49634,0.06692 l 0.006,-0.474037 q 0,-0.306729 -0.0892,-0.529806 -0.0892,-0.228653 -0.25096,-0.373652 -0.16173,-0.150577 -0.39039,-0.223076 -0.22307,-0.0725 -0.50192,-0.0725 -0.26211,0 -0.50192,0.03904 -0.23981,0.03346 -0.45173,0.09481 -0.20634,0.05577 -0.3848,0.133845 -0.17289,0.0725 -0.29558,0.156154 l -0.34019,-0.719421 q 0.20634,-0.133846 0.45173,-0.245384 0.24538,-0.117115 0.51307,-0.195192 0.27327,-0.08365 0.55212,-0.128268 0.28442,-0.05019 0.55769,-0.05019 0.50192,0 0.90346,0.122691 0.40153,0.117115 0.68038,0.368076 0.27884,0.250961 0.42942,0.641344 0.15058,0.384807 0.15058,0.925766 l -0.006,2.888837 h 0.64134 v 0.959227 h -1.67865 z m -1.40538,-0.172884 q 0.20635,0 0.4127,-0.05019 0.20634,-0.05019 0.39038,-0.133845 0.18404,-0.08923 0.34019,-0.200769 0.15615,-0.117115 0.26211,-0.239807 l 0.006,-1.304995 h -1.20461 q -0.30115,0 -0.55211,0.06692 -0.24539,0.06692 -0.42943,0.195192 -0.17846,0.128269 -0.27884,0.317884 -0.10038,0.189614 -0.10038,0.434998 0,0.228653 0.0836,0.401537 0.0837,0.167307 0.23423,0.284422 0.15615,0.111538 0.36807,0.172884 0.21193,0.05577 0.46846,0.05577 z m 3.98418,-7.969396 h 1.87384 v 7.718436 h 0.87 v 0.959227 h -2.74384 v -0.959227 h 0.83653 v -6.759208 h -0.83653 z"
           id="path2" />
      </g>
    </g>
    <g
       transform="matrix(0.77030826,5.4139325e-4,-5.4139325e-4,0.77030826,85.839237,-65.225405)"
       stroke-width="0.46011"
       aria-label="calendar.earthen.io  |  by Russell Maier  "
       id="g34">
      <g
         transform="matrix(0.68739,-4.8311e-4,4.8311e-4,0.68739,0.29478,29.78)"
         stroke-linecap="round"
         stroke-width="0.84587"
         style="white-space:pre;inline-size:86.3622"
         aria-label="Sync with Earth's Cycles."
         id="g33">
        <text
           xml:space="preserve"
           style="font-style:normal;font-variant:normal;font-weight:normal;font-stretch:normal;font-size:6.55898px;font-family:Mulish;-inkscape-font-specification:Mulish;text-align:justify;letter-spacing:-0.130009px;fill:#808080;fill-opacity:1;stroke:none;stroke-width:0.297216;stroke-opacity:0.878431"
           x="135.54805"
           y="77.369759"
           id="text37"><tspan
             sodipodi:role="line"
             id="tspan37"
             style="font-style:italic;font-variant:normal;font-weight:normal;font-stretch:normal;font-family:'Cooper Lt BT';-inkscape-font-specification:'Cooper Lt BT Italic';stroke-width:0.297216"
             x="135.54805"
             y="77.369759">Sync with </tspan><tspan
             sodipodi:role="line"
             style="font-style:italic;font-variant:normal;font-weight:normal;font-stretch:normal;font-family:'Cooper Lt BT';-inkscape-font-specification:'Cooper Lt BT Italic';stroke-width:0.297216"
             x="135.54805"
             y="85.837608"
             id="tspan38">Earth's cycles.</tspan></text>
      </g>
    </g>
    <g
       transform="matrix(0.34596685,0,0,0.34596685,66.44495,17.083711)"
       id="g35"
       style="fill:#c0c5e1;fill-opacity:0.909804">
      <path
         d="m 99.632,146.57 c -2.3623,-0.27384 -4.2525,-0.62389 -6.3776,-1.1811 -14.343,-3.7605 -25.495,-15.891 -28.185,-30.658 -0.66278,-3.6377 -0.66434,-10.036 -0.0034,-13.63 0.80039,-4.352 2.3761,-8.7094 4.4471,-12.298 l 1.1149,-1.9318 -0.44765,-0.92748 c -1.4976,-3.1029 -0.85378,-7.1245 1.5347,-9.5857 1.7548,-1.8082 5.0123,-2.8439 7.521,-2.3912 2.5761,0.46486 4.4395,1.7854 5.8142,4.1204 1.4898,2.5305 1.5814,5.2131 0.27242,7.9824 -0.82467,1.7447 -1.974,2.901 -3.6741,3.6967 -2.3098,1.0809 -5.2865,1.2594 -6.8699,0.41202 -0.49386,-0.26431 -0.64032,-0.07418 -1.9512,2.5329 -1.2098,2.4063 -2.2923,5.6121 -2.9148,8.633 -0.72839,3.5344 -0.74102,9.2814 -0.02821,12.834 1.6231,8.0891 6.0621,15.546 11.993,20.146 6.3116,4.8955 12.536,7.2038 20.213,7.4956 4.9958,0.18989 9.102,-0.43085 13.298,-2.0104 0.82725,-0.31137 1.5283,-0.5376 1.5579,-0.50272 0.0296,0.0349 0.2158,0.38195 0.41377,0.77127 0.19798,0.38933 0.80034,1.2485 1.3386,1.9094 l 0.97863,1.2015 -1.0368,0.46509 c -2.9281,1.3136 -6.8695,2.3684 -10.565,2.8276 -1.7123,0.21275 -6.9036,0.26738 -8.4437,0.0888 z M 78.99,85.685 c 1.5744,-0.56152 2.3921,-1.7266 2.3921,-3.4083 0,-3.2551 -3.8006,-4.8413 -6.0973,-2.5446 -1.9422,1.9422 -1.2357,5.0224 1.3647,5.9494 1.0526,0.37526 1.2971,0.37562 2.3405,0.0035 z m 47.051,55.706 c -1.4722,-0.50355 -2.8858,-1.4812 -3.6644,-2.5342 -0.60062,-0.8124 -1.4962,-2.6258 -1.6868,-3.4156 -0.40055,-1.6594 -0.0366,-4.5554 0.76421,-6.0815 1.7551,-3.3445 6.2281,-5.1503 9.969,-4.0245 1.2517,0.37671 1.04,0.57951 2.5084,-2.4034 1.2895,-2.6194 2.2089,-5.3152 2.8779,-8.4379 0.71525,-3.3387 0.72863,-9.8243 0.0272,-13.15 -0.67985,-3.2231 -1.4269,-5.424 -2.7896,-8.2188 -2.8728,-5.8916 -6.4546,-10.038 -11.731,-13.581 -8.7063,-5.8454 -19.749,-7.3512 -29.646,-4.0427 -2.2732,0.75989 -2.6964,0.84342 -2.8913,0.57059 -0.76667,-1.0733 -1.71,-2.3257 -2.1954,-2.9148 l -0.56118,-0.68098 2.2504,-0.87712 c 10.098,-3.9359 21.146,-3.493 30.961,1.2413 14.841,7.1583 23.585,22.885 21.792,39.196 -0.54675,4.9766 -1.7081,8.8574 -4.0651,13.584 l -1.6688,3.3467 0.45851,1.0658 c 0.91791,2.1337 0.81771,4.7672 -0.27194,7.1473 -0.71168,1.5545 -1.8508,2.7585 -3.365,3.5566 -2.3395,1.2331 -4.732,1.4542 -7.0728,0.65356 z m 4.6115,-4.816 c 1.0914,-0.55038 1.9642,-1.9381 1.9642,-3.1231 0,-0.89154 -0.8362,-2.495 -1.586,-3.0413 -0.93342,-0.68005 -2.901,-0.72493 -3.9834,-0.0908 -2.0222,1.1846 -2.2954,4.1585 -0.53321,5.8038 1.1188,1.0446 2.6344,1.21 4.1384,0.45149 z m -29.377,-4.5718 c -8.4944,-0.8168 -15.822,-5.7759 -19.557,-13.235 -4.2572,-8.5028 -3.1841,-18.692 2.746,-26.074 3.4823,-4.3345 8.3385,-7.3543 13.748,-8.5493 2.2678,-0.50095 6.5451,-0.67023 8.7921,-0.34796 2.0204,0.28976 5.9366,1.5132 7.3231,2.2878 0.79216,0.44256 0.97081,0.46689 1.6438,0.22376 0.94103,-0.33998 2.6874,-0.3757 3.763,-0.07697 2.7688,0.76895 4.761,4.0923 4.1337,6.8955 -0.2489,1.1122 -0.24483,1.1275 0.85408,3.2149 1.3322,2.5305 1.8506,3.9874 2.4293,6.8273 1.2625,6.1951 -0.2957,13.657 -3.8898,18.628 -1.2768,1.766 -3.7418,4.2531 -5.5685,5.6185 -4.4851,3.3524 -10.828,5.1246 -16.418,4.5871 z m 7.1382,-5.3519 c 7.1875,-1.7941 12.409,-7.3361 14.034,-14.897 0.39525,-1.8382 0.44299,-5.7109 0.0923,-7.4865 -0.34995,-1.7717 -1.2301,-4.3953 -1.8264,-5.4443 l -0.49838,-0.87667 -1.6533,0.0765 c -2.192,0.10141 -3.5128,-0.4488 -5.01,-2.087 -1.2135,-1.3278 -1.5345,-2.1951 -1.5363,-4.151 l -8.2e-4,-1.3399 -1.2645,-0.56749 c -2.0754,-0.93138 -3.7392,-1.29 -6.5159,-1.4046 -9.3519,-0.38577 -17.096,5.1603 -19.655,14.076 -0.43609,1.5196 -0.50193,2.2354 -0.49388,5.3696 0.0084,3.2946 0.06206,3.7879 0.60262,5.5466 2.3925,7.7837 8.5841,12.874 16.697,13.727 2.1815,0.2294 4.7258,0.0334 7.0287,-0.54141 z m -7.8327,-7.016 c -6.8549,-1.6628 -10.988,-9.0923 -8.6472,-15.542 0.75738,-2.0866 1.8191,-3.7198 3.3553,-5.1614 1.7471,-1.6395 3.6313,-2.5626 6.1008,-2.9888 1.7308,-0.29869 2.1465,-0.29911 3.8973,-0.0039 2.7689,0.46687 4.4688,1.3556 6.5293,3.4136 2.3944,2.3914 3.6932,5.3987 3.7017,8.5708 0.004,1.5422 -0.70654,4.1137 -1.6012,5.7939 -0.84898,1.5943 -3.1675,3.9574 -4.6911,4.7813 -2.4414,1.3202 -5.9735,1.7846 -8.6447,1.1367 z m 6.02,-5.2198 c 1.4582,-0.71344 2.6326,-1.96 3.4115,-3.6211 0.47788,-1.0192 0.57569,-1.5342 0.56679,-2.985 -0.0183,-2.9902 -1.3913,-5.2299 -3.9902,-6.5093 -1.2976,-0.63879 -1.6742,-0.72249 -3.227,-0.71702 -1.4194,0.005 -1.9901,0.11448 -2.9634,0.56858 -1.5232,0.71067 -2.8817,2.0692 -3.6632,3.6631 -0.51467,1.0498 -0.60729,1.5118 -0.60032,2.9946 0.01547,3.2931 1.7969,5.8859 4.7747,6.9496 1.6505,0.58949 4.0845,0.44263 5.6911,-0.3434 z"
         fill="#808080"
         stroke-width="0.21917"
         id="path34"
         style="fill:#c0c5e1;fill-opacity:0.909804" />
    </g>
  </g>
</svg>
