<?xml version="1.0" encoding="UTF-8" standalone="no"?>
<!-- Created with Inkscape (http://www.inkscape.org/) -->

<svg
   width="70.039mm"
   height="57.05mm"
   version="1.1"
   viewBox="0 0 70.039 57.05"
   id="svg36"
   sodipodi:docname="earthcycles-logo-motto-o-day.svg"
   inkscape:version="1.3.2 (1:1.3.2+202311252150+091e20ef0f)"
   xmlns:inkscape="http://www.inkscape.org/namespaces/inkscape"
   xmlns:sodipodi="http://sodipodi.sourceforge.net/DTD/sodipodi-0.dtd"
   xmlns="http://www.w3.org/2000/svg"
   xmlns:svg="http://www.w3.org/2000/svg">
  <defs
     id="defs36" />
  <sodipodi:namedview
     id="namedview36"
     pagecolor="#ffffff"
     bordercolor="#000000"
     borderopacity="0.25"
     inkscape:showpageshadow="2"
     inkscape:pageopacity="0.0"
     inkscape:pagecheckerboard="0"
     inkscape:deskcolor="#d1d1d1"
     inkscape:document-units="mm"
     inkscape:zoom="1.4317321"
     inkscape:cx="173.21677"
     inkscape:cy="65.305516"
     inkscape:window-width="1503"
     inkscape:window-height="869"
     inkscape:window-x="0"
     inkscape:window-y="0"
     inkscape:window-maximized="1"
     inkscape:current-layer="g36" />
  <g
     transform="translate(-66.387 -37.952)"
     fill="#808080"
     id="g36">
    <g
       transform="matrix(0.94785327,6.6617666e-4,-6.6617666e-4,0.94785327,4.1190369,10.922734)"
       stroke-width="0.30247"
       aria-label="earthcycles"
       id="g11"
       style="fill:#1a1a1a">
      <text
         xml:space="preserve"
         style="font-style:italic;font-size:11.4215px;font-family:'Cooper Lt BT';-inkscape-font-specification:'Cooper Lt BT Italic';text-align:justify;letter-spacing:-0.226388px;fill:#1a1a1a;fill-opacity:1;stroke:#666666;stroke-width:0.18507;stroke-opacity:0.878431"
         x="78.152946"
         y="88.264816"
         id="text36"
         transform="rotate(-0.040269)"><tspan
           sodipodi:role="line"
           id="tspan36"
           style="font-style:normal;font-variant:normal;font-weight:normal;font-stretch:normal;font-family:Arvo;-inkscape-font-specification:Arvo;fill:#1a1a1a;fill-opacity:1;stroke:none;stroke-width:0.18507"
           x="78.152946"
           y="88.264816"><tspan
   style="font-style:normal;font-variant:normal;font-weight:bold;font-stretch:normal;font-family:Arvo;-inkscape-font-specification:'Arvo Bold';fill:#1a1a1a;stroke-width:0.18507"
   id="tspan40">Earth</tspan>Cal</tspan></text>
    </g>
    <g
       transform="matrix(0.77030826,5.4139325e-4,-5.4139325e-4,0.77030826,76.550313,-1.9239847)"
       stroke-width="0.46011"
       aria-label="calendar.earthen.io  |  by Russell Maier  "
       id="g34">
      <g
         transform="matrix(0.68739,-4.8311e-4,4.8311e-4,0.68739,0.29478,29.78)"
         stroke-linecap="round"
         stroke-width="0.84587"
         style="white-space:pre;inline-size:86.3622"
         aria-label="Sync with Earth's Cycles."
         id="g33">
        <text
           xml:space="preserve"
           style="font-style:normal;font-variant:normal;font-weight:normal;font-stretch:normal;font-size:6.55898px;font-family:Mulish;-inkscape-font-specification:Mulish;text-align:justify;letter-spacing:-0.130009px;fill:#808080;fill-opacity:1;stroke:none;stroke-width:0.297216;stroke-opacity:0.878431"
           x="135.54805"
           y="77.369759"
           id="text37"><tspan
             sodipodi:role="line"
             id="tspan37"
             style="font-style:italic;font-variant:normal;font-weight:normal;font-stretch:normal;font-family:'Cooper Lt BT';-inkscape-font-specification:'Cooper Lt BT Italic';stroke-width:0.297216"
             x="135.54805"
             y="77.369759">Sync with </tspan><tspan
             sodipodi:role="line"
             style="font-style:italic;font-variant:normal;font-weight:normal;font-stretch:normal;font-family:'Cooper Lt BT';-inkscape-font-specification:'Cooper Lt BT Italic';stroke-width:0.297216"
             x="135.54805"
             y="85.837608"
             id="tspan38">Earth's cycles.</tspan></text>
      </g>
    </g>
    <g
       transform="matrix(0.53990791,0,0,0.53990791,45.467361,1.3271305)"
       id="g35"
       style="fill:#666666">
      <path
         d="m 99.632,146.57 c -2.3623,-0.27384 -4.2525,-0.62389 -6.3776,-1.1811 -14.343,-3.7605 -25.495,-15.891 -28.185,-30.658 -0.66278,-3.6377 -0.66434,-10.036 -0.0034,-13.63 0.80039,-4.352 2.3761,-8.7094 4.4471,-12.298 l 1.1149,-1.9318 -0.44765,-0.92748 c -1.4976,-3.1029 -0.85378,-7.1245 1.5347,-9.5857 1.7548,-1.8082 5.0123,-2.8439 7.521,-2.3912 2.5761,0.46486 4.4395,1.7854 5.8142,4.1204 1.4898,2.5305 1.5814,5.2131 0.27242,7.9824 -0.82467,1.7447 -1.974,2.901 -3.6741,3.6967 -2.3098,1.0809 -5.2865,1.2594 -6.8699,0.41202 -0.49386,-0.26431 -0.64032,-0.07418 -1.9512,2.5329 -1.2098,2.4063 -2.2923,5.6121 -2.9148,8.633 -0.72839,3.5344 -0.74102,9.2814 -0.02821,12.834 1.6231,8.0891 6.0621,15.546 11.993,20.146 6.3116,4.8955 12.536,7.2038 20.213,7.4956 4.9958,0.18989 9.102,-0.43085 13.298,-2.0104 0.82725,-0.31137 1.5283,-0.5376 1.5579,-0.50272 0.0296,0.0349 0.2158,0.38195 0.41377,0.77127 0.19798,0.38933 0.80034,1.2485 1.3386,1.9094 l 0.97863,1.2015 -1.0368,0.46509 c -2.9281,1.3136 -6.8695,2.3684 -10.565,2.8276 -1.7123,0.21275 -6.9036,0.26738 -8.4437,0.0888 z M 78.99,85.685 c 1.5744,-0.56152 2.3921,-1.7266 2.3921,-3.4083 0,-3.2551 -3.8006,-4.8413 -6.0973,-2.5446 -1.9422,1.9422 -1.2357,5.0224 1.3647,5.9494 1.0526,0.37526 1.2971,0.37562 2.3405,0.0035 z m 47.051,55.706 c -1.4722,-0.50355 -2.8858,-1.4812 -3.6644,-2.5342 -0.60062,-0.8124 -1.4962,-2.6258 -1.6868,-3.4156 -0.40055,-1.6594 -0.0366,-4.5554 0.76421,-6.0815 1.7551,-3.3445 6.2281,-5.1503 9.969,-4.0245 1.2517,0.37671 1.04,0.57951 2.5084,-2.4034 1.2895,-2.6194 2.2089,-5.3152 2.8779,-8.4379 0.71525,-3.3387 0.72863,-9.8243 0.0272,-13.15 -0.67985,-3.2231 -1.4269,-5.424 -2.7896,-8.2188 -2.8728,-5.8916 -6.4546,-10.038 -11.731,-13.581 -8.7063,-5.8454 -19.749,-7.3512 -29.646,-4.0427 -2.2732,0.75989 -2.6964,0.84342 -2.8913,0.57059 -0.76667,-1.0733 -1.71,-2.3257 -2.1954,-2.9148 l -0.56118,-0.68098 2.2504,-0.87712 c 10.098,-3.9359 21.146,-3.493 30.961,1.2413 14.841,7.1583 23.585,22.885 21.792,39.196 -0.54675,4.9766 -1.7081,8.8574 -4.0651,13.584 l -1.6688,3.3467 0.45851,1.0658 c 0.91791,2.1337 0.81771,4.7672 -0.27194,7.1473 -0.71168,1.5545 -1.8508,2.7585 -3.365,3.5566 -2.3395,1.2331 -4.732,1.4542 -7.0728,0.65356 z m 4.6115,-4.816 c 1.0914,-0.55038 1.9642,-1.9381 1.9642,-3.1231 0,-0.89154 -0.8362,-2.495 -1.586,-3.0413 -0.93342,-0.68005 -2.901,-0.72493 -3.9834,-0.0908 -2.0222,1.1846 -2.2954,4.1585 -0.53321,5.8038 1.1188,1.0446 2.6344,1.21 4.1384,0.45149 z m -29.377,-4.5718 c -8.4944,-0.8168 -15.822,-5.7759 -19.557,-13.235 -4.2572,-8.5028 -3.1841,-18.692 2.746,-26.074 3.4823,-4.3345 8.3385,-7.3543 13.748,-8.5493 2.2678,-0.50095 6.5451,-0.67023 8.7921,-0.34796 2.0204,0.28976 5.9366,1.5132 7.3231,2.2878 0.79216,0.44256 0.97081,0.46689 1.6438,0.22376 0.94103,-0.33998 2.6874,-0.3757 3.763,-0.07697 2.7688,0.76895 4.761,4.0923 4.1337,6.8955 -0.2489,1.1122 -0.24483,1.1275 0.85408,3.2149 1.3322,2.5305 1.8506,3.9874 2.4293,6.8273 1.2625,6.1951 -0.2957,13.657 -3.8898,18.628 -1.2768,1.766 -3.7418,4.2531 -5.5685,5.6185 -4.4851,3.3524 -10.828,5.1246 -16.418,4.5871 z m 7.1382,-5.3519 c 7.1875,-1.7941 12.409,-7.3361 14.034,-14.897 0.39525,-1.8382 0.44299,-5.7109 0.0923,-7.4865 -0.34995,-1.7717 -1.2301,-4.3953 -1.8264,-5.4443 l -0.49838,-0.87667 -1.6533,0.0765 c -2.192,0.10141 -3.5128,-0.4488 -5.01,-2.087 -1.2135,-1.3278 -1.5345,-2.1951 -1.5363,-4.151 l -8.2e-4,-1.3399 -1.2645,-0.56749 c -2.0754,-0.93138 -3.7392,-1.29 -6.5159,-1.4046 -9.3519,-0.38577 -17.096,5.1603 -19.655,14.076 -0.43609,1.5196 -0.50193,2.2354 -0.49388,5.3696 0.0084,3.2946 0.06206,3.7879 0.60262,5.5466 2.3925,7.7837 8.5841,12.874 16.697,13.727 2.1815,0.2294 4.7258,0.0334 7.0287,-0.54141 z m -7.8327,-7.016 c -6.8549,-1.6628 -10.988,-9.0923 -8.6472,-15.542 0.75738,-2.0866 1.8191,-3.7198 3.3553,-5.1614 1.7471,-1.6395 3.6313,-2.5626 6.1008,-2.9888 1.7308,-0.29869 2.1465,-0.29911 3.8973,-0.0039 2.7689,0.46687 4.4688,1.3556 6.5293,3.4136 2.3944,2.3914 3.6932,5.3987 3.7017,8.5708 0.004,1.5422 -0.70654,4.1137 -1.6012,5.7939 -0.84898,1.5943 -3.1675,3.9574 -4.6911,4.7813 -2.4414,1.3202 -5.9735,1.7846 -8.6447,1.1367 z m 6.02,-5.2198 c 1.4582,-0.71344 2.6326,-1.96 3.4115,-3.6211 0.47788,-1.0192 0.57569,-1.5342 0.56679,-2.985 -0.0183,-2.9902 -1.3913,-5.2299 -3.9902,-6.5093 -1.2976,-0.63879 -1.6742,-0.72249 -3.227,-0.71702 -1.4194,0.005 -1.9901,0.11448 -2.9634,0.56858 -1.5232,0.71067 -2.8817,2.0692 -3.6632,3.6631 -0.51467,1.0498 -0.60729,1.5118 -0.60032,2.9946 0.01547,3.2931 1.7969,5.8859 4.7747,6.9496 1.6505,0.58949 4.0845,0.44263 5.6911,-0.3434 z"
         fill="#808080"
         stroke-width="0.21917"
         id="path34"
         style="fill:#666666" />
    </g>
  </g>
</svg>
