<?xml version="1.0" encoding="UTF-8"?>
<!-- Created with Inkscape (http://www.inkscape.org/) -->
<svg width="188.57mm" height="188.57mm" version="1.1" viewBox="0 0 188.57 188.57" xmlns="http://www.w3.org/2000/svg">
 <g transform="translate(-.69442 -49.721)">
  <circle id="sun" cx="95.644" cy="145.98" r="4.407" fill="#ff0"/>
  <g stroke-linecap="round" stroke-width=".067204">
   <circle cx="166.44" cy="101.91" r=".28818" stroke="#a00"/>
   <circle cx="166.72" cy="101.8" r=".28818" stroke="#ff8201"/>
   <circle cx="143.66" cy="115.01" r=".28818" stroke="#008080"/>
  </g>
  <path id="whale-year-cycle" d="m162.61 96.67c5.4868 6.0566 12.466 23.87 14.102 32.801 0.99138 3.8085 1.4023 7.7063 1.5463 11.25 1.7771 43.716-57.273 66.562-90.603 57.021-40.781-6.9306-70.153-48.943-30.768-93.778 31.581-34.053 66.051-51.258 105.74-7.5344" fill="none" stroke="#f00" stroke-width=".351"/>
  <circle id="whale-marker" cx="166.32" cy="102.01" r="1.207" fill="#f00" stroke="#f00" stroke-linecap="round" stroke-width=".28148"/>
  <g id="earth_system" transform="matrix(.842 0 0 .842 14.541 65.034)" stroke="#00f">
   <g transform="matrix(.93323 .53645 -.53645 .93323 96.322 96.139)">
    <circle id="earth-orbit" cx="-3.6979e-16" cy="1.3841e-14" r="64.57" fill="none" stroke-width="1.858"/>
    <circle id="earth-start" cx="32.252" cy="-55.996" r="2.8005" fill="#00f" stroke="none" stroke-width=".56303" title="Earth on Jan. 1st"/>
    <g id="earth" title="Earth">
     <g title="🜨 Earth">
      <circle cx="32.252" cy="-55.996" r="3.4377" fill="#00f" stroke-width="1.4058"/>
      <path d="m33.4-53.7c-0.2738 0.13936-0.66425 0.24273-0.98821 0.26165-0.29778 0.01739-0.56119-0.01063-0.84799-0.09019-0.23518-0.06524-0.37797-0.12629-0.62034-0.2652-0.12477-0.07151-0.16645-0.09946-0.27058-0.18142-0.41963-0.33032-0.72078-0.75904-0.87481-1.2454-0.04515-0.14254-0.08486-0.31364-0.10404-0.44824-0.05318-0.37311-0.01662-0.78716 0.10106-1.1445 0.06942-0.2108 0.12972-0.33985 0.26188-0.56044 0.06379-0.10648 0.10186-0.16196 0.1691-0.24651 0.16098-0.20238 0.34291-0.37402 0.55611-0.52465 0.07429-0.05245 0.29144-0.17738 0.37062-0.21307 0.46373-0.20932 0.93102-0.2838 1.4181-0.22602 0.2867 0.03401 0.59747 0.12758 0.83284 0.25077 0.23617 0.12361 0.40668 0.23869 0.57266 0.38652 0.24504 0.21823 0.4504 0.48665 0.59162 0.77327 0.33396 0.67782 0.36114 1.4448 0.07595 2.1438-0.04525 0.1109-0.11158 0.23617-0.21352 0.40321-0.14736 0.24148-0.39048 0.50265-0.63481 0.68196-0.11238 0.08246-0.27588 0.18348-0.39564 0.24444zm-0.01695-0.75465c0.11434-0.08241 0.20728-0.16558 0.3003-0.26871 0.03583-0.03972 0.04882-0.05729 0.04481-0.06057-0.0071-0.0059-1.3431-0.78061-1.3495-0.78263-0.0025-7.69e-4 -0.17888 0.29907-0.39178 0.66642-0.2129 0.36735-0.39036 0.67318-0.39437 0.67963l-0.0072 0.01176 0.03151 0.01131c0.01733 0.0063 0.07198 0.02259 0.12143 0.03639 0.44589 0.12442 0.91873 0.08331 1.3473-0.11714 0.05953-0.02783 0.2392-0.13435 0.29749-0.17642zm0.72988-1.052c0.02023-0.07453 0.04239-0.17342 0.04931-0.22 0.0533-0.35859 0.01073-0.69952-0.13061-1.0459-0.03755-0.09204-0.17632-0.3334-0.23504-0.4088-0.05168-0.06636-0.11571-0.13956-0.17048-0.19488-0.04882-0.04931-0.12907-0.12305-0.13205-0.12133-0.0012 6.32e-4 -0.17894 0.30631-0.39524 0.67931l-0.39328 0.67819 0.0295 0.01741c0.01622 0.0096 0.32191 0.18688 0.67931 0.39401 0.59454 0.34458 0.65033 0.37579 0.65583 0.367 0.0033-0.0052 0.02255-0.07053 0.04275-0.145zm-3.0502 0.87564c0.10887-0.17333 0.74177-1.2635 0.73679-1.2691-4e-3 -0.0044-1.3405-0.78006-1.3489-0.78276-0.01323-0.0042-0.07297 0.20256-0.09499 0.32883-0.06362 0.36484-0.02238 0.72993 0.12271 1.0862 0.05015 0.12314 0.1764 0.33753 0.2774 0.47111 0.07626 0.10082 0.18268 0.22114 0.22681 0.25641l0.01182 0.0094 0.01933-0.02636c0.01065-0.01449 0.03269-0.04765 0.04904-0.07367zm1.3039-2.2408c0.12406-0.21227 0.30007-0.51453 0.39112-0.6717l0.16555-0.28576-0.01673-0.0077c-0.0331-0.01519-0.22212-0.06617-0.2951-0.07959-0.39322-0.07229-0.78024-0.02555-1.1532 0.13927-0.09123 0.04031-0.29555 0.16122-0.36906 0.21835-0.10042 0.07809-0.19331 0.16427-0.27381 0.25403-0.0376 0.04192-0.03871 0.04389-0.02835 0.05041 0.01389 0.0087 1.3042 0.75705 1.3275 0.76988 0.0097 0.0053 0.01958 0.0072 0.02204 0.0042 0.0025-3e-3 0.10596-0.17916 0.23003-0.39142z" fill="#808000" stroke="none"/>
     </g>
     <path d="m15.688-63.55c3.1855 0.8499 8.9101 2.372 14.504 4.0951l-1.8917 4.0182c-3.2432-2.4212-7.1914-4.172-12.677-6.3296" fill="#00f" stroke="none"/>
    </g>
   </g>
  </g>
 </g>
</svg>
