<?xml version="1.0" encoding="UTF-8" standalone="no"?>
<!-- Created with Inkscape (http://www.inkscape.org/) -->

<svg
   width="103.23mm"
   height="130.99mm"
   version="1.1"
   viewBox="0 0 103.23 130.99"
   id="svg5"
   sodipodi:docname="earthcal-logo.svg"
   inkscape:version="1.4.1-rc (06eac75fbf, 2025-03-29)"
   xmlns:inkscape="http://www.inkscape.org/namespaces/inkscape"
   xmlns:sodipodi="http://sodipodi.sourceforge.net/DTD/sodipodi-0.dtd"
   xmlns="http://www.w3.org/2000/svg"
   xmlns:svg="http://www.w3.org/2000/svg">
  <sodipodi:namedview
     id="namedview5"
     pagecolor="#ffffff"
     bordercolor="#000000"
     borderopacity="0.25"
     inkscape:showpageshadow="2"
     inkscape:pageopacity="0.0"
     inkscape:pagecheckerboard="0"
     inkscape:deskcolor="#d1d1d1"
     inkscape:document-units="mm"
     inkscape:zoom="1.0395666"
     inkscape:cx="284.25307"
     inkscape:cy="404.49549"
     inkscape:window-width="2256"
     inkscape:window-height="1427"
     inkscape:window-x="0"
     inkscape:window-y="40"
     inkscape:window-maximized="1"
     inkscape:current-layer="svg5" />
  <defs
     id="defs1">
    <clipPath
       id="clipPath5535">
      <path
         d="m393.29-172.81a52.077 52.077 0 0 0-52.077 52.076 52.077 52.077 0 0 0 52.077 52.077 52.077 52.077 0 0 0 52.077-52.077 52.077 52.077 0 0 0-52.077-52.076zm-1.0583 22.029a30.048 30.048 0 0 1 30.048 30.047 30.048 30.048 0 0 1-30.048 30.048 30.048 30.048 0 0 1-30.048-30.048 30.048 30.048 0 0 1 30.048-30.047z"
         fill="#0ff"
         stroke-width="0"
         id="path1" />
    </clipPath>
  </defs>
  <g
     transform="translate(-341.22 172.61)"
     clip-path="url(#clipPath5535)"
     id="g3">
    <g
       transform="matrix(.57548 0 0 .57548 393.14 -121.3)"
       stroke-width=".92194"
       id="g2">
      <path
         id="october"
         d="m-45.782-77.133a90 90 0 0 1 45.225-12.02l-0.29047 90z"
         fill="#00e6a7" />
      <path
         id="september"
         d="m-78.752-44.219a90 90 0 0 1 32.97-32.915l44.934 77.98z"
         fill="#00e513" />
      <path
         id="august"
         d="m-90.848 0.77143a90 90 0 0 1 12.095-44.989l77.904 45.065z"
         fill="#beee00" />
      <path
         d="m-78.827 45.782a90 90 0 0 1-12.02-45.01l90 0.075889z"
         fill="#fbfb00"
         id="path2" />
      <path
         id="june"
         d="m-45.914 78.752a90 90 0 0 1-32.915-32.97l77.98-44.934z"
         fill="#ffd119" />
      <path
         id="july"
         d="m-0.92271 90.847a90 90 0 0 1-44.989-12.095l45.065-77.904z"
         fill="#ff8201" />
      <path
         id="april"
         d="m44.087 78.827a90 90 0 0 1-45.01 12.02l0.075889-90z"
         fill="#ff6303" />
      <path
         id="march"
         d="m77.057 45.913a90 90 0 0 1-32.97 32.915l-44.934-77.98z"
         fill="#fb0000" />
      <path
         id="february"
         d="m89.152 0.92271a90 90 0 0 1-12.095 44.989l-77.904-45.065z"
         fill="#ff11ce" />
      <path
         id="january"
         d="m77.309-43.817c7.8877 13.688 11.857 28.941 11.844 44.74l-90-0.075889z"
         fill="#7f2aff" />
      <path
         id="december"
         d="m43.78-77.057a91.197 91.197 0 0 1 33.353 33.408l-79.017 45.531z"
         fill="#4343ff"
         stroke-width=".9342" />
      <path
         id="november"
         d="m-0.77143-89.153a90 90 0 0 1 44.989 12.095l-45.065 77.904z"
         fill="#0cacf5" />
    </g>
  </g>
  <g
     transform="matrix(2.1362 0 0 2.1362 501.35 -1154.6)"
     fill="#808080"
     style="white-space:pre;fill:#808080;fill-opacity:1"
     aria-label="EarthCal"
     id="g5">
    <g
       transform="matrix(4.6678 0 0 4.6678 857.5 -2257.2)"
       fill="#666"
       stroke-width=".12386"
       style="inline-size:47.3423;fill:#808080;fill-opacity:1"
       aria-label="earthcal"
       id="g4">
      <path
         d="m-232.56 612.3q-0.0872 0.0819-0.22459 0.12947-0.13476 0.0476-0.27744 0.0476-0.2061 0-0.35671-0.0819-0.14797-0.0819-0.22988-0.23516-0.0793-0.1559-0.0793-0.36992 0-0.2061 0.0793-0.362 0.0793-0.15589 0.21931-0.24309 0.14269-0.0872 0.32764-0.0872 0.17704 0 0.30387 0.0793 0.12683 0.0766 0.19288 0.22195 0.0687 0.14532 0.0687 0.34878v0.0396h-1.0041v-0.14004h0.88252l-0.0687 0.0978q5e-3 -0.23252-0.0925-0.35671-0.0951-0.12419-0.28008-0.12419-0.19289 0-0.30387 0.1374-0.10833 0.13476-0.10833 0.3752 0 0.25895 0.11362 0.39106 0.11626 0.13212 0.33821 0.13212 0.11626 0 0.22195-0.037 0.10834-0.0396 0.2061-0.1189zm0.85874 0.17703q-0.17703 0-0.31179-0.0819-0.13211-0.0845-0.2061-0.23781-0.0713-0.15589-0.0713-0.36463t0.074-0.36464q0.074-0.15589 0.20609-0.24309 0.13476-0.0872 0.30915-0.0872 0.18232 0 0.30915 0.0898t0.17174 0.2563l-0.0317 0.0211v-0.33557h0.21138v1.3291h-0.21138v-0.34349l0.0317 0.0159q-0.0449 0.16646-0.17174 0.2563-0.12683 0.0898-0.30915 0.0898zm0.0423-0.17703q0.19553 0 0.30122-0.13212 0.10569-0.13475 0.10569-0.38049 0-0.24573-0.10834-0.37784-0.10569-0.13212-0.29857-0.13212-0.19553 0-0.30651 0.1374-0.10833 0.13476-0.10833 0.37785t0.10833 0.3752q0.11098 0.13212 0.30651 0.13212zm1.0331 0.15853v-0.9565q0-0.0925-5e-3 -0.18496-3e-3 -0.0951-0.0159-0.1876h0.20345l0.0291 0.32764-0.0291-8e-3q0.037-0.17439 0.15854-0.26158 0.12419-0.0898 0.27744-0.0898 0.0344 0 0.0634 5e-3 0.0317 3e-3 0.0581 0.0106l-5e-3 0.19553q-0.0608-0.0211-0.14004-0.0211-0.1374 0-0.22195 0.0608-0.0819 0.0608-0.12155 0.15589-0.037 0.0925-0.037 0.19553v0.75833zm0.87459-1.16v-0.1691h0.85346v0.1691zm0.84818 0.96972v0.18232q-0.0449 0.0132-0.0898 0.0185-0.0423 8e-3 -0.0951 8e-3 -0.18496 0-0.29594-0.10569-0.10833-0.10569-0.10833-0.31708v-1.2656l0.21402-0.0766v1.3132q0 0.10569 0.0291 0.16382 0.0317 0.0581 0.0846 0.0819 0.0529 0.0211 0.1189 0.0211 0.0396 0 0.0713-5e-3t0.0713-0.0185zm0.26422 0.19024v-1.9447h0.21403v0.88517l-0.0344 0.0264q0.0555-0.16118 0.18496-0.24309 0.12947-0.0845 0.29857-0.0845 0.47826 0 0.47826 0.52581v0.83496h-0.21403v-0.82439q0-0.18496-0.074-0.26951-0.074-0.0872-0.23252-0.0872-0.18496 0-0.29594 0.11362-0.11097 0.11362-0.11097 0.30651v0.76097z"
         id="path3"
         style="fill:#808080;fill-opacity:1" />
      <path
         d="m-226.52 612.47q-0.20874 0-0.36199-0.0819-0.15061-0.0845-0.23252-0.23781-0.0793-0.15589-0.0793-0.36463 0-0.21138 0.0846-0.36992t0.24045-0.24573q0.15589-0.0872 0.36463-0.0872 0.14004 0 0.27216 0.0449 0.13475 0.0449 0.21931 0.12419l-0.0951 0.23252q-0.0846-0.0687-0.17967-0.10305-0.0951-0.037-0.19024-0.037-0.1744 0-0.27744 0.11097-0.10041 0.11098-0.10041 0.325 0 0.21139 0.10041 0.32236 0.1004 0.11098 0.28008 0.11098 0.0925 0 0.1876-0.0343 0.0951-0.037 0.17967-0.10834l0.0951 0.23253q-0.0872 0.0793-0.2246 0.12418-0.13475 0.0423-0.28272 0.0423zm1.2472 0q-0.17439 0-0.30914-0.0819-0.13476-0.0845-0.20874-0.23781-0.0713-0.15589-0.0713-0.36463 0-0.21138 0.074-0.36728 0.074-0.15854 0.2061-0.24573 0.13475-0.0898 0.30914-0.0898 0.16911 0 0.2933 0.0846 0.12683 0.0819 0.17175 0.22988l-0.0317 0.0185v-0.29858h0.325v1.3344h-0.325v-0.30122l0.0317 0.0106q-0.0449 0.14797-0.17175 0.22988-0.12419 0.0793-0.2933 0.0793zm0.0898-0.25366q0.16382 0 0.25366-0.11362 0.0898-0.11362 0.0898-0.32236 0-0.21402-0.0898-0.325-0.0898-0.11361-0.25366-0.11361-0.16646 0-0.25894 0.11626-0.0925 0.11626-0.0925 0.32764 0 0.2061 0.0925 0.31971 0.0925 0.11098 0.25894 0.11098zm1.0252 0.23516v-1.9447h0.33028v1.9447z"
         id="path4"
         style="fill:#808080;fill-opacity:1" />
    </g>
  </g>
</svg>
