<?xml version="1.0" encoding="UTF-8"?>
<!-- Created with Inkscape (http://www.inkscape.org/) -->
<svg width="103.23mm" height="130.99mm" version="1.1" viewBox="0 0 103.23 130.99" xmlns="http://www.w3.org/2000/svg">
 <defs>
  <clipPath id="clipPath5535">
   <path d="m393.29-172.81a52.077 52.077 0 0 0-52.077 52.076 52.077 52.077 0 0 0 52.077 52.077 52.077 52.077 0 0 0 52.077-52.077 52.077 52.077 0 0 0-52.077-52.076zm-1.0583 22.029a30.048 30.048 0 0 1 30.048 30.047 30.048 30.048 0 0 1-30.048 30.048 30.048 30.048 0 0 1-30.048-30.048 30.048 30.048 0 0 1 30.048-30.047z" fill="#0ff" stroke-width="0"/>
  </clipPath>
 </defs>
 <g transform="translate(-341.22 172.61)" clip-path="url(#clipPath5535)">
  <g transform="matrix(.57548 0 0 .57548 393.14 -121.3)" stroke-width=".92194">
   <path id="october" d="m-45.782-77.133a90 90 0 0 1 45.225-12.02l-0.29047 90z" fill="#00e6a7"/>
   <path id="september" d="m-78.752-44.219a90 90 0 0 1 32.97-32.915l44.934 77.98z" fill="#00e513"/>
   <path id="august" d="m-90.848 0.77143a90 90 0 0 1 12.095-44.989l77.904 45.065z" fill="#beee00"/>
   <path d="m-78.827 45.782a90 90 0 0 1-12.02-45.01l90 0.075889z" fill="#fbfb00"/>
   <path id="june" d="m-45.914 78.752a90 90 0 0 1-32.915-32.97l77.98-44.934z" fill="#ffd119"/>
   <path id="july" d="m-0.92271 90.847a90 90 0 0 1-44.989-12.095l45.065-77.904z" fill="#ff8201"/>
   <path id="april" d="m44.087 78.827a90 90 0 0 1-45.01 12.02l0.075889-90z" fill="#ff6303"/>
   <path id="march" d="m77.057 45.913a90 90 0 0 1-32.97 32.915l-44.934-77.98z" fill="#fb0000"/>
   <path id="february" d="m89.152 0.92271a90 90 0 0 1-12.095 44.989l-77.904-45.065z" fill="#ff11ce"/>
   <path id="january" d="m77.309-43.817c7.8877 13.688 11.857 28.941 11.844 44.74l-90-0.075889z" fill="#7f2aff"/>
   <path id="december" d="m43.78-77.057a91.197 91.197 0 0 1 33.353 33.408l-79.017 45.531z" fill="#4343ff" stroke-width=".9342"/>
   <path id="november" d="m-0.77143-89.153a90 90 0 0 1 44.989 12.095l-45.065 77.904z" fill="#0cacf5"/>
  </g>
 </g>
 <g transform="matrix(2.1362 0 0 2.1362 501.35 -1154.6)" fill="#808080" style="white-space:pre" aria-label="EarthCal">
  <path d="m-234.65 601.71v-8.544h5.712v1.212h-4.2v2.376h3.96v1.224h-3.96v2.52h4.2v1.212zm9.384 0.084q-0.792 0-1.404-0.372-0.612-0.384-0.948-1.08-0.324-0.708-0.324-1.656 0-0.96 0.336-1.668 0.336-0.72 0.936-1.116 0.612-0.408 1.404-0.408 0.768 0 1.332 0.384 0.576 0.372 0.78 1.044l-0.144 0.084v-1.356h1.476v6.06h-1.476v-1.368l0.144 0.048q-0.204 0.672-0.78 1.044-0.564 0.36-1.332 0.36zm0.408-1.152q0.744 0 1.152-0.516t0.408-1.464q0-0.972-0.408-1.476-0.408-0.516-1.152-0.516-0.756 0-1.176 0.528t-0.42 1.488q0 0.936 0.42 1.452 0.42 0.504 1.176 0.504zm4.656 1.068v-4.344q0-0.42-0.024-0.852-0.012-0.444-0.072-0.864h1.416l0.168 1.56-0.168-0.084q0.156-0.804 0.708-1.212t1.248-0.408q0.18 0 0.336 0.024t0.276 0.072l-0.024 1.368q-0.372-0.156-0.792-0.156-0.54 0-0.888 0.216-0.336 0.216-0.516 0.588-0.168 0.36-0.168 0.816v3.276zm4.512-4.932v-1.128h4.272v1.128zm4.272 3.684v1.188q-0.24 0.084-0.48 0.108-0.228 0.036-0.492 0.036-1.02 0-1.584-0.576-0.552-0.576-0.552-1.656v-5.388l1.5-0.504v5.82q0 0.408 0.132 0.648 0.132 0.228 0.348 0.324 0.228 0.096 0.504 0.096 0.156 0 0.3-0.024t0.324-0.072zm1.02 1.248v-8.832h1.5v3.996l-0.18 0.012q0.288-0.684 0.852-1.032 0.576-0.36 1.32-0.36 2.16 0 2.16 2.496v3.72h-1.5v-3.66q0-0.708-0.276-1.032-0.276-0.336-0.852-0.336-0.696 0-1.116 0.444-0.408 0.432-0.408 1.152v3.432z"/>
  <path d="m-199.28 601.81q-1.224 0-2.112-0.528t-1.368-1.512-0.48-2.34 0.48-2.328 1.368-1.5 2.112-0.528q0.876 0 1.62 0.276 0.744 0.264 1.284 0.804l-0.372 0.756q-0.612-0.528-1.212-0.756t-1.308-0.228q-1.404 0-2.184 0.912-0.768 0.912-0.768 2.592 0 1.692 0.768 2.616 0.768 0.912 2.184 0.912 0.708 0 1.308-0.228t1.212-0.756l0.372 0.756q-0.54 0.54-1.284 0.816-0.744 0.264-1.62 0.264zm6.636-0.012q-0.804 0-1.416-0.372-0.6-0.384-0.936-1.08-0.324-0.708-0.324-1.656t0.336-1.656 0.936-1.104q0.612-0.396 1.404-0.396 0.828 0 1.404 0.408t0.78 1.164l-0.144 0.096v-1.524h0.96v6.036h-0.96v-1.56l0.144 0.072q-0.204 0.756-0.78 1.164t-1.404 0.408zm0.192-0.804q0.888 0 1.368-0.6 0.48-0.612 0.48-1.728t-0.492-1.716q-0.48-0.6-1.356-0.6-0.888 0-1.392 0.624-0.492 0.612-0.492 1.716t0.492 1.704q0.504 0.6 1.392 0.6zm4.692 0.72v-8.832h0.972v8.832z"/>
 </g>
</svg>
