<?xml version="1.0" encoding="UTF-8" standalone="no"?>
<!-- Created with Inkscape (http://www.inkscape.org/) -->

<svg
   width="86.723mm"
   height="86.866mm"
   version="1.1"
   viewBox="0 0 86.723 86.866"
   id="svg63812"
   sodipodi:docname="earth-night.svg"
   inkscape:version="1.2.2 (b0a8486541, 2022-12-01)"
   xmlns:inkscape="http://www.inkscape.org/namespaces/inkscape"
   xmlns:sodipodi="http://sodipodi.sourceforge.net/DTD/sodipodi-0.dtd"
   xmlns="http://www.w3.org/2000/svg"
   xmlns:svg="http://www.w3.org/2000/svg">
  <defs
     id="defs63816" />
  <sodipodi:namedview
     id="namedview63814"
     pagecolor="#ffffff"
     bordercolor="#000000"
     borderopacity="0.25"
     inkscape:showpageshadow="2"
     inkscape:pageopacity="0.0"
     inkscape:pagecheckerboard="0"
     inkscape:deskcolor="#d1d1d1"
     inkscape:document-units="mm"
     showgrid="false"
     inkscape:zoom="0.71882749"
     inkscape:cx="9.0425034"
     inkscape:cy="164.15622"
     inkscape:window-width="1503"
     inkscape:window-height="934"
     inkscape:window-x="0"
     inkscape:window-y="0"
     inkscape:window-maximized="1"
     inkscape:current-layer="svg63812" />
  <path
     style="fill:#a0c0d2;fill-opacity:1;stroke:#a0c0d2;stroke-width:1.919;stroke-dasharray:none;stroke-opacity:1"
     d="m 41.741933,78.877042 c -1.956508,-0.0711 -3.499455,-0.22358 -5.200729,-0.51408 -5.178729,-0.88431 -10.096192,-2.85455 -14.426285,-5.78008 -5.75305,-3.88691 -10.28293,-9.34454 -13.0869156,-15.76721 -1.661217,-3.8051 -2.655662,-7.83847 -2.953875,-11.98064 -0.07057,-0.9803 -0.08593,-1.44734 -0.08613,-2.61948 -1.95e-4,-1.17298 0.01513,-1.64255 0.08617,-2.63861 0.397344,-5.57167 2.071923,-11.01157 4.8800786,-15.85301 3.967183,-6.83967 10.031567,-12.189274 17.37478,-15.3268835 3.754126,-1.604063 7.773773,-2.569935 11.83548,-2.843918 0.939112,-0.06335 1.34522,-0.07571 2.495202,-0.07597 1.599835,-4.33e-4 2.633072,0.05633 4.177792,0.229248 5.45106,0.610209 10.88882,2.529467 15.53526,5.4831745 6.35854,4.042071 11.25985,9.866839 14.20129,16.876929 1.51744,3.61639 2.44611,7.51423 2.72873,11.45308 0.0705,0.98291 0.0858,1.44833 0.086,2.61948 1.8e-4,1.17298 -0.0151,1.64255 -0.0862,2.63861 -0.39736,5.57193 -2.0718,11.01135 -4.88008,15.85301 -3.7764,6.51074 -9.4548,11.67568 -16.35185,14.87321 -4.03875,1.87241 -8.41229,2.99408 -12.85841,3.29775 -0.23661,0.0162 -0.602292,0.0382 -0.812615,0.049 -0.375907,0.0193 -2.320729,0.0386 -2.657725,0.0264 z m 1.921591,-2.28327 c 2.573767,-0.0778 4.945957,-0.40376 7.390007,-1.01556 5.57489,-1.39551 10.78188,-4.21505 15.03859,-8.14325 0.40809,-0.37659 1.63128,-1.60524 1.97938,-1.98822 1.6379,-1.80197 2.96692,-3.5899 4.18858,-5.63491 0.23475,-0.39296 0.26072,-0.4414 0.24782,-0.46226 -0.005,-0.009 -0.0638,-0.0354 -0.12984,-0.0594 -0.20166,-0.0734 -0.75256,-0.31338 -1.08566,-0.47305 -1.75956,-0.84343 -3.40838,-2.06804 -4.43415,-3.29331 -0.38321,-0.45774 -0.64666,-0.83363 -1.20496,-1.71924 -0.20149,-0.31962 -0.43695,-0.68027 -0.52325,-0.80145 -0.4589,-0.64438 -0.93757,-1.06831 -1.55448,-1.37673 -2.5799,-1.28979 -5.05061,-0.82054 -7.21104,1.36956 -1.21645,1.23317 -2.02426,2.64512 -2.42504,4.23867 -0.17841,0.70937 -0.25239,1.28583 -0.27607,2.15103 -0.0227,0.83096 -0.0954,1.35974 -0.29771,2.16653 -0.64788,2.58375 -2.11775,4.76422 -4.22845,6.27264 -0.90342,0.64563 -1.95859,1.18125 -3.07512,1.56098 -0.45415,0.15445 -0.75479,0.27688 -1.07875,0.43927 -1.919612,0.96228 -3.155375,2.46625 -3.518661,4.28236 -0.08634,0.43159 -0.118392,0.76238 -0.119614,1.23413 -0.0011,0.40639 0.02012,0.7405 0.06844,1.08031 l 0.02312,0.16252 0.372518,0.0101 c 0.676376,0.0185 1.224847,0.0183 1.854343,-6.5e-4 z m -4.558129,-0.22454 c -0.05642,-0.28174 -0.07701,-1.43658 -0.03367,-1.88813 0.153328,-1.59736 0.692364,-2.9483 1.65934,-4.15867 0.233125,-0.29181 0.876128,-0.94614 1.163833,-1.18433 0.99894,-0.82704 2.13468,-1.45895 3.407243,-1.89574 2.66667,-0.91531 4.586,-2.71189 5.53971,-5.18543 0.16846,-0.43691 0.31305,-0.9285 0.40229,-1.36768 0.10154,-0.49973 0.12621,-0.73296 0.14394,-1.36101 0.0296,-1.04837 0.12438,-1.77855 0.3449,-2.65709 0.553,-2.20315 1.79777,-4.22874 3.56475,-5.80087 1.39412,-1.24038 2.93571,-1.96844 4.62764,-2.18552 0.37766,-0.0485 1.31813,-0.0485 1.71126,0 1.59049,0.19589 3.23689,0.87928 4.2734,1.77381 0.57149,0.4932 0.95675,0.98524 1.68263,2.14895 0.72892,1.1686 1.15894,1.70517 1.85217,2.31116 0.99618,0.87081 2.18704,1.61022 3.41544,2.12067 0.27749,0.11532 0.71267,0.28133 0.73744,0.28133 0.0239,0 0.50866,-1.04935 0.77285,-1.67303 0.78017,-1.84176 1.44672,-3.90001 1.875,-5.78991 l 0.0425,-0.18766 -0.14482,-0.21387 c -0.20108,-0.29695 -0.36491,-0.49607 -0.6135,-0.74562 -0.70497,-0.70772 -1.61479,-1.194 -2.77698,-1.48424 -0.81161,-0.20269 -1.87747,-0.29656 -2.87117,-0.25287 -0.79137,0.0348 -1.17374,0.0829 -2.21252,0.27826 -0.74915,0.14089 -0.983,0.16938 -1.38622,0.16885 -0.38508,-5e-4 -0.6273,-0.0311 -1.02704,-0.1296 -0.55544,-0.1369 -1.31707,-0.43405 -2.03807,-0.79515 -1.28415,-0.64316 -2.10384,-1.46675 -2.44932,-2.46096 -0.29176,-0.83961 -0.21173,-1.78913 0.22667,-2.68923 0.26742,-0.54906 0.63791,-0.99899 1.18644,-1.44085 0.64286,-0.51783 1.24643,-0.85761 3.22178,-1.81368 0.76718,-0.37132 1.03385,-0.52461 1.85467,-1.06609 2.26388,-1.49346 5.2951,-3.81129 7.89747,-6.03882 l 0.0762,-0.0652 -0.15484,-0.42817 c -0.32006,-0.88503 -0.74689,-1.91681 -1.17374,-2.83733 -0.21735,-0.46872 -0.81422,-1.65391 -0.83292,-1.65391 -0.007,0 -0.42069,0.25932 -0.91919,0.57627 -2.13264,1.35593 -2.77583,1.73969 -3.64058,2.17215 -1.18702,0.59363 -2.07258,0.87683 -3.16442,1.012 -0.38824,0.0481 -1.41413,0.048 -1.82599,-1.9e-4 -1.14711,-0.13401 -2.04677,-0.35194 -3.61204,-0.87499 -2.08663,-0.69727 -3.44065,-1.02687 -4.91562,-1.19661 -0.20624,-0.0237 -0.44526,-0.0333 -0.85086,-0.0339 -0.61636,-9.8e-4 -0.83058,0.0212 -1.13766,0.11796 -0.31615,0.0996 -0.3904,0.15088 -0.84129,0.58115 -0.27624,0.2636 -0.61195,0.54331 -0.96558,0.8045 -1.06335,0.78538 -2.09681,1.25618 -3.12617,1.42413 -0.29764,0.0486 -0.99219,0.048 -1.26194,-10e-4 -0.47405,-0.0862 -0.88558,-0.23329 -1.277,-0.45636 -0.728881,-0.41541 -1.285512,-0.6417 -1.753575,-0.71292 -0.311388,-0.0474 -0.479716,-0.0307 -0.680532,0.0675 -0.49641,0.2428 -0.813758,1.01892 -0.957788,2.34243 -0.04167,0.38298 -0.04804,1.92804 -0.0099,2.3996 0.130265,1.60983 0.361979,3.06046 0.702593,4.39851 0.132783,0.52162 0.218789,0.77698 0.504931,1.49916 1.170535,2.95425 1.802721,5.15942 2.028441,7.07547 0.0522,0.44338 0.0723,1.35665 0.0385,1.7531 -0.0412,0.48304 -0.11882,0.87923 -0.25066,1.27876 -0.0854,0.25879 -0.321522,0.72959 -0.468779,0.93467 -0.06949,0.0968 -0.143927,0.21569 -0.165404,0.26424 -0.174084,0.39355 -0.631359,1.13272 -1.017509,1.64476 -1.19657,1.58669 -2.626974,2.51314 -4.217196,2.73139 -0.321267,0.0441 -0.986797,0.044 -1.325682,-2.1e-4 -1.265947,-0.16518 -2.566204,-0.7374 -3.911593,-1.72141 -0.370781,-0.27119 -0.812182,-0.45715 -1.435718,-0.60488 -0.387862,-0.0919 -0.508519,-0.10412 -1.022936,-0.10363 -0.465809,4.3e-4 -0.512259,0.004 -0.737252,0.0517 -0.724371,0.15466 -1.306119,0.48148 -1.824873,1.0252 -0.803251,0.84191 -1.35411,1.33868 -2.103713,1.89712 -1.148096,0.85532 -2.283152,1.41314 -3.183057,1.56431 -1.279449,0.21493 -2.489861,-0.23733 -3.416357,-1.27648 -1.050831,-1.17861 -1.691812,-3.00758 -1.739857,-4.96449 -0.03146,-1.28178 0.162005,-2.14155 0.775543,-3.44644 0.589718,-1.25423 0.508599,-1.05507 1.181858,-2.90151 1.537225,-4.21588 1.476196,-4.04533 1.591881,-4.44892 0.276779,-0.96563 0.402712,-2.03352 0.346839,-2.94109 -0.07686,-1.24842 -0.326029,-2.25322 -0.986219,-3.97702 -0.579984,-1.51438 -0.725237,-1.9215 -0.880008,-2.46653 -0.49459,-1.74168 -0.403525,-3.08287 0.305085,-4.49327 0.19737,-0.39284 0.365943,-0.66301 0.781439,-1.25238 0.188166,-0.26691 0.911998,-1.96324 1.366592,-3.20266 1.329084,-3.62365 1.835013,-6.662933 1.467281,-8.814467 -0.0442,-0.25858 -0.148289,-0.688333 -0.166723,-0.688333 -0.0085,0 -0.20467,0.12261 -0.435776,0.272465 -5.421283,3.515305 -9.739051,8.485885 -12.452712,14.335465 -3.0931636,6.66764 -3.9883606,14.12777 -2.5548066,21.29048 0.413726,2.06718 1.027366,4.11693 1.8231256,6.08982 1.355204,3.3599 3.260386,6.53322 5.590457,9.3116 1.252315,1.49327 2.743078,2.98352 4.218825,4.21737 2.696392,2.25442 5.650562,4.04941 8.871828,5.39062 2.963064,1.23371 6.001617,2.02972 9.263798,2.42683 0.205066,0.025 0.384288,0.0463 0.398269,0.0473 0.01777,10e-4 0.02224,-0.0139 0.0149,-0.0507 z M 23.523754,55.627072 c 0.664461,-0.17265 1.546125,-0.67999 2.434351,-1.40082 0.478608,-0.38841 0.866353,-0.75594 1.431792,-1.35716 0.436157,-0.46375 0.908686,-0.83334 1.444117,-1.12954 1.369062,-0.75734 3.077174,-0.87189 4.839141,-0.32454 0.649789,0.20186 1.219667,0.46169 1.548746,0.70614 0.958401,0.71192 1.79442,1.10349 2.676846,1.25377 0.239787,0.0408 0.865937,0.0465 1.089858,0.01 0.38924,-0.0637 0.757817,-0.18412 1.106003,-0.36141 0.924921,-0.47092 1.781599,-1.40065 2.364665,-2.5663 0.07494,-0.14981 0.210453,-0.38118 0.301146,-0.51416 0.0952,-0.13959 0.191221,-0.30734 0.227184,-0.39692 0.253426,-0.63122 0.229462,-1.73876 -0.07008,-3.2387 -0.297229,-1.48836 -0.854231,-3.24493 -1.700677,-5.36326 -0.134467,-0.33651 -0.275616,-0.70829 -0.313667,-0.82617 -0.238905,-0.74009 -0.530543,-2.01942 -0.718273,-3.15085 -0.514558,-3.1012 -0.484031,-5.65097 0.08739,-7.29861 0.652032,-1.88009 1.994274,-2.76324 3.811886,-2.50807 0.656861,0.0922 1.481919,0.38662 2.217959,0.79143 0.59006,0.32452 0.68658,0.36271 1.01936,0.40325 0.18302,0.0223 0.47095,0.001 0.69744,-0.0515 0.82332,-0.19094 1.77938,-0.79805 2.71823,-1.72611 0.29525,-0.29186 0.39675,-0.37681 0.64142,-0.53678 0.7765,-0.50772 1.99635,-0.74084 3.40374,-0.65048 1.59689,0.10252 3.40078,0.51331 5.83137,1.32792 1.28987,0.43231 2.10017,0.62541 3.02101,0.71993 0.34013,0.0349 1.07104,0.0299 1.40535,-0.01 1.32907,-0.15712 2.47994,-0.63818 4.4646,-1.86619 0.70524,-0.43636 2.41872,-1.5349 2.41872,-1.55067 0,-0.01 -0.10039,-0.17453 -0.22309,-0.36651 -0.94081,-1.47202 -1.96593,-2.84121 -3.10299,-4.14444 -0.93031,-1.06621 -2.17105,-2.30698 -3.26088,-3.26089 -4.90294,-4.291496 -11.01499,-7.1168395 -17.53334,-8.1049225 -1.75151,-0.265503 -3.303456,-0.380337 -5.143367,-0.38057 -1.221681,-1.54e-4 -2.111222,0.03918 -3.193094,0.14122 -4.136319,0.390115 -8.104511,1.505324 -11.84504,3.3288935 -0.402572,0.19626 -1.140873,0.574748 -1.220753,0.625817 -0.02072,0.01324 -0.01038,0.0636 0.05314,0.258868 0.508473,1.562916 0.554658,3.655943 0.133972,6.071114 -0.367338,2.10891 -1.109664,4.556 -2.111617,6.96101 -0.355452,0.8532 -0.709937,1.62196 -0.825432,1.79007 -0.02978,0.0434 -0.120551,0.17096 -0.201725,0.28359 -0.379036,0.52591 -0.608622,1.03495 -0.736361,1.63268 -0.04854,0.22712 -0.05172,0.27201 -0.0517,0.72958 0,0.54463 0.02358,0.7377 0.152844,1.25238 0.128572,0.51193 0.263187,0.90462 0.691503,2.01719 0.626048,1.62619 0.871794,2.40284 1.065929,3.36873 0.380332,1.89228 0.261483,3.72888 -0.366619,5.66533 -0.0841,0.25928 -1.462837,4.06575 -1.998132,5.51651 -0.158557,0.42972 -0.293116,0.74148 -0.595963,1.38076 -0.141504,0.2987 -0.295513,0.63293 -0.342241,0.74273 -0.329328,0.77383 -0.434268,1.31504 -0.409451,2.11166 0.06443,2.06825 0.991652,3.8737 2.07674,4.04375 0.150983,0.0237 0.382741,0.004 0.588052,-0.049 z m 53.338707,-9.29587 c 0.44524,-3.69316 0.30928,-7.31611 -0.4095,-10.91293 -0.13018,-0.6514 -0.45456,-2.03721 -0.49282,-2.10539 -0.007,-0.0126 -0.21806,0.14946 -0.51863,0.39845 -2.48345,2.05724 -5.08759,4.01396 -7.0554,5.30133 -0.85039,0.55634 -1.15751,0.72501 -2.55257,1.40186 -1.47747,0.71684 -2.06448,1.06781 -2.47709,1.48107 -0.17722,0.17749 -0.27527,0.32736 -0.36335,0.5554 -0.0976,0.25259 -0.11835,0.36254 -0.11072,0.58551 0.007,0.19126 0.0112,0.2109 0.0858,0.36459 0.19144,0.39406 0.59236,0.72486 1.29746,1.07055 0.57857,0.28366 0.98107,0.44289 1.37666,0.54461 0.33728,0.0867 0.5744,0.11383 0.86861,0.0993 0.23338,-0.0115 0.35078,-0.0296 1.12328,-0.17326 1.30064,-0.24179 2.57702,-0.31191 3.84463,-0.21119 1.87789,0.14921 3.46769,0.68175 4.73702,1.58679 0.13671,0.0975 0.3217,0.23794 0.41109,0.31213 0.0894,0.0742 0.16714,0.13518 0.17279,0.13553 0.006,3.7e-4 0.0339,-0.1951 0.0627,-0.43434 z"
     id="path59198" />
</svg>
