<?xml version="1.0" encoding="UTF-8" standalone="no"?>
<!-- Created with Inkscape (http://www.inkscape.org/) -->

<svg
   width="121.13569mm"
   height="150.75763mm"
   viewBox="0 0 121.13569 150.75763"
   version="1.1"
   id="svg1"
   xml:space="preserve"
   inkscape:version="1.4.3 (fcd0343856, 2026-01-01)"
   sodipodi:docname="macOS.svg"
   xmlns:inkscape="http://www.inkscape.org/namespaces/inkscape"
   xmlns:sodipodi="http://sodipodi.sourceforge.net/DTD/sodipodi-0.dtd"
   xmlns="http://www.w3.org/2000/svg"
   xmlns:svg="http://www.w3.org/2000/svg"><sodipodi:namedview
     id="namedview1"
     pagecolor="#ffffff"
     bordercolor="#000000"
     borderopacity="0.25"
     inkscape:showpageshadow="2"
     inkscape:pageopacity="0.0"
     inkscape:pagecheckerboard="0"
     inkscape:deskcolor="#d1d1d1"
     inkscape:document-units="mm"
     inkscape:zoom="0.43740881"
     inkscape:cx="230.90527"
     inkscape:cy="417.22982"
     inkscape:window-width="1366"
     inkscape:window-height="699"
     inkscape:window-x="0"
     inkscape:window-y="0"
     inkscape:window-maximized="1"
     inkscape:current-layer="layer1" /><defs
     id="defs1" /><g
     inkscape:label="Layer 1"
     inkscape:groupmode="layer"
     id="layer1"
     transform="translate(-44.432158,-38.144812)"><path
       style="fill:#747474;fill-opacity:1"
       d="m 39.849686,255.92776 c -2.370189,-0.51022 -4.071138,-2.00051 -4.758188,-4.16892 -0.175217,-0.55301 -0.209881,-0.88122 -0.209881,-1.98723 0,-1.41588 0.158829,-2.17634 0.661905,-3.16911 1.440973,-2.84362 5.094326,-4.46506 10.58775,-4.69908 l 1.50278,-0.064 -0.0501,-1.0966 c -0.0844,-1.84702 -0.64295,-3.09688 -1.73294,-3.87741 -0.77805,-0.55715 -1.55542,-0.78214 -2.897959,-0.83875 -1.839608,-0.0776 -3.402067,0.25436 -4.94868,1.05129 -0.416371,0.21455 -0.784537,0.40318 -0.818146,0.41919 -0.03361,0.016 -0.23314,-0.48516 -0.443401,-1.1137 l -0.382294,-1.14282 0.387602,-0.24468 c 1.590277,-1.0039 3.877608,-1.56564 6.365829,-1.56338 4.323119,0.004 6.720749,1.76094 7.639889,5.59857 0.18051,0.75367 0.1974,1.2397 0.268,7.71234 0.0414,3.79939 0.11907,7.22736 0.17252,7.61771 0.0535,0.39035 0.0991,0.82683 0.10134,0.96995 l 0.004,0.26024 h -1.50334 -1.50333 l -0.0557,-0.40218 c -0.0307,-0.2212 -0.1052,-0.85995 -0.16566,-1.41945 -0.0605,-0.5595 -0.14306,-1.01727 -0.18353,-1.01727 -0.0405,0 -0.22926,0.21205 -0.41951,0.47122 -0.86653,1.18046 -2.37962,2.15566 -3.97587,2.5625 -0.991757,0.25277 -2.800251,0.32305 -3.643246,0.14159 z m 3.729806,-2.67084 c 1.74705,-0.43452 3.20957,-1.69236 3.84997,-3.31118 0.20532,-0.519 0.22083,-0.70762 0.25472,-3.0978 l 0.0361,-2.54516 -1.68783,0.055 c -2.41294,0.0786 -3.882912,0.3799 -5.277629,1.08183 -1.840737,0.9264 -2.741589,2.69601 -2.438016,4.78916 0.370618,2.55543 2.420658,3.73503 5.262705,3.02818 z m 41.976436,2.6654 c -2.82835,-0.42703 -5.00685,-1.52712 -7.00707,-3.53841 -2.35649,-2.36951 -3.72198,-5.35619 -4.21377,-9.21658 -0.21106,-1.65674 -0.14631,-4.43807 0.14146,-6.07613 1.13212,-6.44442 5.03199,-10.87622 10.63143,-12.08156 0.79566,-0.17127 1.27228,-0.20846 2.67175,-0.20846 1.90075,0 2.90817,0.16002 4.46544,0.70928 4.59277,1.61989 7.64566,5.77802 8.511502,11.59293 0.18853,1.26615 0.21575,4.43194 0.0491,5.71292 -0.56593,4.35068 -2.216572,7.75357 -4.927052,10.15742 -1.24506,1.10422 -3.05575,2.09674 -4.67952,2.56508 -1.68599,0.48628 -3.94553,0.63984 -5.64329,0.38351 z m 4.02122,-2.88584 c 2.9928,-0.76543 5.28254,-2.98464 6.66171,-6.45649 0.3626,-0.91279 0.82671,-2.82701 0.96426,-3.9771 0.16898,-1.41285 0.0623,-4.60338 -0.19383,-5.79558 -1.04953,-4.88569 -3.89233,-8.28798 -7.60851,-9.10594 -1.0153,-0.22348 -2.83312,-0.19783 -3.87337,0.0547 -1.59489,0.3871 -2.93088,1.15566 -4.15929,2.39274 -4.24896,4.27895 -4.89981,13.34291 -1.35128,18.81848 1.53685,2.37145 3.84219,3.91632 6.34344,4.25092 0.87339,0.11683 2.38305,0.0316 3.21687,-0.18169 z m -25.95744,2.788 c -4.161331,-0.72849 -7.138201,-3.67519 -8.074616,-7.99278 -0.18367,-0.84687 -0.21564,-1.27313 -0.21644,-2.88622 -8.5e-4,-1.71275 0.0225,-1.99151 0.24596,-2.93352 0.858815,-3.62078 2.961845,-6.23279 6.151525,-7.64034 2.307951,-1.01846 5.562351,-1.25595 8.164671,-0.59582 1.00386,0.25465 2.03801,0.68283 2.03917,0.84429 4.2e-4,0.058 -0.1746,0.66168 -0.38894,1.34162 l -0.38971,1.23626 -0.80522,-0.32332 c -2.14781,-0.86239 -4.93992,-0.92622 -6.83482,-0.15625 -1.819521,0.73934 -3.287801,2.27198 -4.071421,4.24989 -0.49388,1.2466 -0.61718,2.01686 -0.6139,3.83525 0.003,1.39517 0.0365,1.78928 0.21541,2.50201 0.2628,1.04657 0.88355,2.36692 1.48757,3.16406 0.861,1.13629 2.36528,2.13787 3.782571,2.51852 0.87485,0.23496 2.75334,0.28616 3.8551,0.10507 0.75891,-0.12474 2.25417,-0.5608 2.91886,-0.85122 0.12455,-0.0544 0.20597,0.14711 0.48179,1.19245 0.28792,1.0912 0.31356,1.27298 0.19342,1.37146 -0.23691,0.19418 -1.67871,0.67716 -2.64573,0.88626 -1.22527,0.26495 -4.31296,0.3393 -5.49525,0.13233 z m 44.902662,-0.003 c -1.12813,-0.17554 -1.96304,-0.39024 -2.81027,-0.7227 -0.84023,-0.3297 -1.8926,-0.92424 -1.8926,-1.06922 0,-0.11701 0.82763,-2.60988 0.88578,-2.66803 0.0209,-0.021 0.46244,0.17517 0.98109,0.43583 1.96072,0.9854 3.29616,1.28623 5.70352,1.28481 1.54109,-9.1e-4 1.84077,-0.027 2.50343,-0.21795 2.02543,-0.58363 3.42211,-1.90244 3.88114,-3.66477 0.19205,-0.73736 0.18945,-2.35096 -0.005,-3.1052 -0.52443,-2.03403 -2.17455,-3.42007 -5.66752,-4.76051 -4.28091,-1.64282 -6.87288,-4.04528 -7.48736,-6.93994 -0.21104,-0.99415 -0.13739,-2.82761 0.15015,-3.73788 0.46778,-1.48088 1.3738,-2.83475 2.49299,-3.72531 0.75299,-0.59918 1.95616,-1.24621 2.90991,-1.56487 2.01349,-0.67275 5.19643,-0.71634 7.61491,-0.10429 0.80645,0.20409 2.4061,0.85715 2.40951,0.98369 8.5e-4,0.0318 -0.21705,0.65956 -0.48422,1.39503 l -0.48578,1.33723 -0.86425,-0.40786 c -2.59127,-1.2229 -6.13708,-1.27979 -8.1589,-0.1309 -1.56291,0.88813 -2.31029,2.18385 -2.31029,4.00533 0,1.4778 0.3358,2.3659 1.26743,3.35198 0.87147,0.92239 2.14459,1.65272 4.97814,2.85568 2.48343,1.05433 3.78346,1.86665 5.0627,3.16343 1.2838,1.30139 1.79641,2.30749 2.09249,4.10685 0.43706,2.65623 -0.31876,5.32012 -2.02166,7.12529 -1.3451,1.42587 -3.1741,2.33643 -5.4978,2.73705 -1.28821,0.2221 -3.93853,0.2409 -5.24752,0.0372 z M 0.44890961,245.1584 c -0.0274,-5.73812 -0.07766,-10.63522 -0.111694,-10.88244 l -0.06188,-0.44949 h 1.52360699 1.523606 v 1.79797 c 0,2.1186 0.03081,2.16447 0.743888,1.10773 0.613712,-0.90948 1.809405,-2.0254 2.628692,-2.45332 2.237671,-1.16875 5.1926704,-1.15456 7.0616664,0.0339 1.05753,0.67247 2.056645,1.86518 2.470755,2.94951 0.09327,0.24422 0.202587,0.44404 0.242931,0.44404 0.04034,0 0.225988,-0.24486 0.412541,-0.54413 1.357079,-2.17701 3.38542,-3.45394 5.885971,-3.70547 1.433459,-0.1442 2.729411,0.0528 3.785196,0.57536 2.216655,1.09714 3.617049,3.42016 4.011911,6.65508 0.06692,0.54822 0.104051,3.3551 0.104223,7.87794 l 2.66e-4,7.02627 h -1.656023 -1.656023 l -7.9e-5,-6.45849 c -4.4e-5,-3.60762 -0.04215,-6.90217 -0.09539,-7.46362 -0.314773,-3.31934 -1.607722,-5.04659 -4.043414,-5.4016 -2.587686,-0.37716 -4.959646,1.32295 -5.769922,4.13561 -0.147411,0.5117 -0.166565,1.28984 -0.193916,7.87794 l -0.03035,7.31016 h -1.647891 -1.64789 l -0.03387,-7.40479 c -0.03801,-8.31078 -0.01179,-7.97828 -0.751413,-9.52751 -0.681531,-1.42755 -1.670566,-2.17244 -3.1757744,-2.39182 -2.628557,-0.38312 -4.989783,1.37139 -5.905223,4.38786 -0.208458,0.6869 -0.211122,0.77198 -0.244674,7.81536 l -0.03392,7.1209 H 2.1417646 0.49871961 Z"
       id="path2" /><path
       style="fill:#747474;fill-opacity:1;stroke-width:0.912039"
       d="m 87.088467,158.48651 c -4.182198,-1.55396 -8.804683,-5.96662 -12.913353,-12.32718 -1.971089,-3.05141 -5.337295,-9.88247 -6.952157,-14.10805 -3.635308,-9.51244 -4.621199,-19.68402 -2.745274,-28.32335 2.51915,-11.601611 9.575282,-19.525253 19.285738,-21.656816 0.834916,-0.183274 2.878074,-0.312742 4.826207,-0.305821 4.048487,0.01438 6.040808,0.459567 10.101678,2.257221 5.754704,2.547483 7.761694,2.568515 13.876354,0.145414 5.31047,-2.104421 8.48253,-2.803385 12.6851,-2.795165 6.38365,0.01248 11.05418,2.001174 15.88216,6.762537 1.42675,1.40706 2.59409,2.665427 2.59409,2.796372 0,0.130944 -0.70069,0.843704 -1.55706,1.583911 -5.24293,4.531663 -8.49184,10.482877 -9.00618,16.497157 -0.75535,8.83241 3.39413,16.95725 10.90062,21.34378 0.90563,0.52923 1.71602,0.9639 1.80084,0.96593 0.0848,0.002 0.29102,0.0906 0.45822,0.19668 0.38729,0.24586 -0.0482,1.51187 -2.21384,6.43566 -1.87619,4.26567 -2.96645,6.38999 -4.38903,8.55186 -3.95825,6.01522 -7.97579,10.10017 -11.56816,11.76226 -1.31648,0.60909 -1.6821,0.66526 -4.3335,0.66581 -3.18606,6.6e-4 -2.42769,0.21988 -8.92848,-2.58091 -1.71404,-0.73847 -2.92903,-1.11194 -4.94687,-1.52059 -0.86325,-0.17483 -4.28526,-0.18661 -5.46605,-0.0188 -1.33255,0.18936 -3.02948,0.77663 -4.754437,1.64539 -0.776974,0.39133 -1.569892,0.65117 -1.762031,0.57744 -0.192148,-0.0737 -0.285039,-0.03 -0.20644,0.0972 0.07862,0.12718 -0.268668,0.41041 -0.771721,0.62939 -3.23376,1.40766 -7.26138,1.70179 -9.896424,0.72271 z M 104.13176,82.151799 c -0.15502,-2.925179 0.85149,-7.839708 2.29958,-11.228348 1.79392,-4.19786 6.41267,-8.681189 11.11861,-10.792602 1.67413,-0.751129 5.01124,-1.538546 5.95413,-1.404917 0.53731,0.07615 0.55546,0.151166 0.48615,2.009584 -0.22731,6.095065 -2.4615,11.354592 -6.71415,15.80578 -3.5456,3.711141 -8.0432,6.022312 -11.73441,6.029931 -1.15323,0.0024 -1.39132,-0.06845 -1.40991,-0.419428 z"
       id="path1" /></g></svg>
