<?xml version="1.0" encoding="UTF-8" standalone="no"?>
<!-- Created with Inkscape (http://www.inkscape.org/) -->

<svg
   width="121.13569mm"
   height="150.75763mm"
   viewBox="0 0 121.13569 150.75763"
   version="1.1"
   id="svg1"
   xml:space="preserve"
   inkscape:version="1.4.3 (fcd0343856, 2026-01-01)"
   sodipodi:docname="macOS.svg"
   xmlns:inkscape="http://www.inkscape.org/namespaces/inkscape"
   xmlns:sodipodi="http://sodipodi.sourceforge.net/DTD/sodipodi-0.dtd"
   xmlns="http://www.w3.org/2000/svg"
   xmlns:svg="http://www.w3.org/2000/svg"><sodipodi:namedview
     id="namedview1"
     pagecolor="#ffffff"
     bordercolor="#000000"
     borderopacity="0.25"
     inkscape:showpageshadow="2"
     inkscape:pageopacity="0.0"
     inkscape:pagecheckerboard="0"
     inkscape:deskcolor="#d1d1d1"
     inkscape:document-units="mm"
     inkscape:zoom="0.43740881"
     inkscape:cx="229.76218"
     inkscape:cy="417.22982"
     inkscape:window-width="1366"
     inkscape:window-height="699"
     inkscape:window-x="0"
     inkscape:window-y="0"
     inkscape:window-maximized="1"
     inkscape:current-layer="layer1" /><defs
     id="defs1" /><g
     inkscape:label="Layer 1"
     inkscape:groupmode="layer"
     id="layer1"
     transform="translate(-44.432158,-38.144812)"><path
       style="fill:#747474;fill-opacity:1"
       d="m 84.006508,188.78519 c -2.370189,-0.51022 -4.071138,-2.00051 -4.758188,-4.16892 -0.175217,-0.55301 -0.209881,-0.88122 -0.209881,-1.98723 0,-1.41588 0.158829,-2.17634 0.661905,-3.16911 1.440973,-2.84362 5.094326,-4.46506 10.587751,-4.69908 l 1.50278,-0.064 -0.0501,-1.0966 c -0.0844,-1.84702 -0.64295,-3.09688 -1.73294,-3.87741 -0.77805,-0.55715 -1.55542,-0.78214 -2.89796,-0.83875 -1.839608,-0.0776 -3.402067,0.25436 -4.94868,1.05129 -0.416371,0.21455 -0.784537,0.40318 -0.818146,0.41919 -0.03361,0.016 -0.23314,-0.48516 -0.443401,-1.1137 l -0.382294,-1.14282 0.387602,-0.24468 c 1.590277,-1.0039 3.877608,-1.56564 6.365829,-1.56338 4.32312,0.004 6.72075,1.76094 7.63989,5.59857 0.18051,0.75367 0.1974,1.2397 0.268,7.71234 0.0414,3.79939 0.11907,7.22736 0.17252,7.61771 0.0535,0.39035 0.0991,0.82683 0.10134,0.96995 l 0.004,0.26024 h -1.50334 -1.50333 l -0.0557,-0.40218 c -0.0307,-0.2212 -0.1052,-0.85995 -0.16566,-1.41945 -0.0605,-0.5595 -0.14306,-1.01727 -0.18353,-1.01727 -0.0405,0 -0.22926,0.21205 -0.41951,0.47122 -0.86653,1.18046 -2.37962,2.15566 -3.97587,2.5625 -0.991758,0.25277 -2.800252,0.32305 -3.643247,0.14159 z m 3.729807,-2.67084 c 1.74705,-0.43452 3.20957,-1.69236 3.84997,-3.31118 0.20532,-0.519 0.22083,-0.70762 0.25472,-3.0978 l 0.0361,-2.54516 -1.68783,0.055 c -2.41294,0.0786 -3.882913,0.3799 -5.27763,1.08183 -1.840737,0.9264 -2.741589,2.69601 -2.438016,4.78916 0.370618,2.55543 2.420658,3.73503 5.262706,3.02818 z m 41.976435,2.6654 c -2.82835,-0.42703 -5.00685,-1.52712 -7.00707,-3.53841 -2.35649,-2.36951 -3.72198,-5.35619 -4.21377,-9.21658 -0.21106,-1.65674 -0.14631,-4.43807 0.14146,-6.07613 1.13212,-6.44442 5.03199,-10.87622 10.63143,-12.08156 0.79566,-0.17127 1.27228,-0.20846 2.67175,-0.20846 1.90075,0 2.90817,0.16002 4.46544,0.70928 4.59277,1.61989 7.64566,5.77802 8.5115,11.59293 0.18853,1.26615 0.21575,4.43194 0.0491,5.71292 -0.56593,4.35068 -2.21657,7.75357 -4.92705,10.15742 -1.24506,1.10422 -3.05575,2.09674 -4.67952,2.56508 -1.68599,0.48628 -3.94553,0.63984 -5.64329,0.38351 z m 4.02122,-2.88584 c 2.9928,-0.76543 5.28254,-2.98464 6.66171,-6.45649 0.3626,-0.91279 0.82671,-2.82701 0.96426,-3.9771 0.16898,-1.41285 0.0623,-4.60338 -0.19383,-5.79558 -1.04953,-4.88569 -3.89233,-8.28798 -7.60851,-9.10594 -1.0153,-0.22348 -2.83312,-0.19783 -3.87337,0.0547 -1.59489,0.3871 -2.93088,1.15566 -4.15929,2.39274 -4.24896,4.27895 -4.89981,13.34291 -1.35128,18.81848 1.53685,2.37145 3.84219,3.91632 6.34344,4.25092 0.87339,0.11683 2.38305,0.0316 3.21687,-0.18169 z m -25.95744,2.788 c -4.16133,-0.72849 -7.1382,-3.67519 -8.074615,-7.99278 -0.18367,-0.84687 -0.21564,-1.27313 -0.21644,-2.88622 -8.5e-4,-1.71275 0.0225,-1.99151 0.24596,-2.93352 0.858815,-3.62078 2.961845,-6.23279 6.151525,-7.64034 2.30795,-1.01846 5.56235,-1.25595 8.16467,-0.59582 1.00386,0.25465 2.03801,0.68283 2.03917,0.84429 4.2e-4,0.058 -0.1746,0.66168 -0.38894,1.34162 l -0.38971,1.23626 -0.80522,-0.32332 c -2.14781,-0.86239 -4.93992,-0.92622 -6.83482,-0.15625 -1.81952,0.73934 -3.2878,2.27198 -4.07142,4.24989 -0.49388,1.2466 -0.61718,2.01686 -0.6139,3.83525 0.003,1.39517 0.0365,1.78928 0.21541,2.50201 0.2628,1.04657 0.88355,2.36692 1.48757,3.16406 0.861,1.13629 2.36528,2.13787 3.78257,2.51852 0.87485,0.23496 2.75334,0.28616 3.8551,0.10507 0.75891,-0.12474 2.25417,-0.5608 2.91886,-0.85122 0.12455,-0.0544 0.20597,0.14711 0.48179,1.19245 0.28792,1.0912 0.31356,1.27298 0.19342,1.37146 -0.23691,0.19418 -1.67871,0.67716 -2.64573,0.88626 -1.22527,0.26495 -4.31296,0.3393 -5.49525,0.13233 z m 44.90266,-0.003 c -1.12813,-0.17554 -1.96304,-0.39024 -2.81027,-0.7227 -0.84023,-0.3297 -1.8926,-0.92424 -1.8926,-1.06922 0,-0.11701 0.82763,-2.60988 0.88578,-2.66803 0.0209,-0.021 0.46244,0.17517 0.98109,0.43583 1.96072,0.9854 3.29616,1.28623 5.70352,1.28481 1.54109,-9.1e-4 1.84077,-0.027 2.50343,-0.21795 2.02543,-0.58363 3.42211,-1.90244 3.88114,-3.66477 0.19205,-0.73736 0.18945,-2.35096 -0.005,-3.1052 -0.52443,-2.03403 -2.17455,-3.42007 -5.66752,-4.76051 -4.28091,-1.64282 -6.87288,-4.04528 -7.48736,-6.93994 -0.21104,-0.99415 -0.13739,-2.82761 0.15015,-3.73788 0.46778,-1.48088 1.3738,-2.83475 2.49299,-3.72531 0.75299,-0.59918 1.95616,-1.24621 2.90991,-1.56487 2.01349,-0.67275 5.19643,-0.71634 7.61491,-0.10429 0.80645,0.20409 2.4061,0.85715 2.40951,0.98369 8.5e-4,0.0318 -0.21705,0.65956 -0.48422,1.39503 l -0.48578,1.33723 -0.86425,-0.40786 c -2.59127,-1.2229 -6.13708,-1.27979 -8.1589,-0.1309 -1.56291,0.88813 -2.31029,2.18385 -2.31029,4.00533 0,1.4778 0.3358,2.3659 1.26743,3.35198 0.87147,0.92239 2.14459,1.65272 4.97814,2.85568 2.48343,1.05433 3.78346,1.86665 5.0627,3.16343 1.2838,1.30139 1.79641,2.30749 2.09249,4.10685 0.43706,2.65623 -0.31876,5.32012 -2.02166,7.12529 -1.3451,1.42587 -3.1741,2.33643 -5.4978,2.73705 -1.28821,0.2221 -3.93853,0.2409 -5.24752,0.0372 z M 44.605732,178.01583 c -0.0274,-5.73812 -0.07766,-10.63522 -0.111694,-10.88244 l -0.06188,-0.44949 h 1.523607 1.523606 v 1.79797 c 0,2.1186 0.03081,2.16447 0.743888,1.10773 0.613712,-0.90948 1.809405,-2.0254 2.628692,-2.45332 2.237671,-1.16875 5.19267,-1.15456 7.061666,0.0339 1.05753,0.67247 2.056645,1.86518 2.470755,2.94951 0.09327,0.24422 0.202587,0.44404 0.242931,0.44404 0.04034,0 0.225988,-0.24486 0.412541,-0.54413 1.357079,-2.17701 3.38542,-3.45394 5.885971,-3.70547 1.433459,-0.1442 2.729411,0.0528 3.785196,0.57536 2.216655,1.09714 3.617049,3.42016 4.011911,6.65508 0.06692,0.54822 0.104051,3.3551 0.104223,7.87794 l 2.66e-4,7.02627 h -1.656023 -1.656023 l -7.9e-5,-6.45849 c -4.4e-5,-3.60762 -0.04215,-6.90217 -0.09539,-7.46362 -0.314773,-3.31934 -1.607722,-5.04659 -4.043414,-5.4016 -2.587686,-0.37716 -4.959646,1.32295 -5.769922,4.13561 -0.147411,0.5117 -0.166565,1.28984 -0.193916,7.87794 l -0.03035,7.31016 h -1.647891 -1.64789 l -0.03387,-7.40479 c -0.03801,-8.31078 -0.01179,-7.97828 -0.751413,-9.52751 -0.681531,-1.42755 -1.670566,-2.17244 -3.175774,-2.39182 -2.628557,-0.38312 -4.989783,1.37139 -5.905223,4.38786 -0.208458,0.6869 -0.211122,0.77198 -0.244674,7.81536 l -0.03392,7.1209 h -1.643052 -1.643045 z"
       id="path2" /><path
       style="fill:#747474;fill-opacity:1"
       d="m 85.360992,147.54315 c -4.58555,-1.70383 -9.65385,-6.54207 -14.15878,-13.51607 -2.16119,-3.3457 -5.852049,-10.83558 -7.622657,-15.4687 -3.985914,-10.42987 -5.06689,-21.582437 -3.010041,-31.054987 2.762109,-12.72053 10.498768,-21.408367 21.145748,-23.745508 0.91544,-0.20095 3.15565,-0.342904 5.29167,-0.335316 4.438943,0.01577 6.623413,0.50389 11.075933,2.474918 6.309715,2.793175 8.510265,2.816235 15.214655,0.159439 5.82264,-2.307382 9.30063,-3.073757 13.90852,-3.064745 6.99931,0.01369 12.12029,2.194177 17.41391,7.41475 1.56435,1.542763 2.84427,2.922493 2.84427,3.066067 0,0.143573 -0.76826,0.925075 -1.70723,1.736671 -5.74858,4.968719 -9.31083,11.493894 -9.87478,18.088224 -0.8282,9.684247 3.72148,18.592687 11.95193,23.402277 0.99298,0.58027 1.88152,1.05686 1.97452,1.05909 0.093,0.002 0.31909,0.0993 0.50242,0.21565 0.42464,0.26957 -0.0529,1.65768 -2.42736,7.05634 -2.05713,4.67707 -3.25254,7.00627 -4.81233,9.37665 -4.34,6.59535 -8.74501,11.07427 -12.68385,12.89666 -1.44344,0.66784 -1.84432,0.72943 -4.75144,0.73003 -3.49334,7.2e-4 -2.66183,0.24108 -9.78959,-2.82983 -1.87935,-0.80969 -3.21151,-1.21918 -5.42396,-1.66724 -0.94651,-0.19169 -4.69856,-0.20461 -5.99323,-0.0206 -1.46106,0.20762 -3.32166,0.85153 -5.212975,1.80408 -0.85191,0.42907 -1.7213,0.71397 -1.93197,0.63313 -0.21068,-0.0808 -0.31253,-0.0329 -0.22635,0.10656 0.0862,0.13945 -0.29458,0.44999 -0.84615,0.69009 -3.54564,1.54343 -7.961703,1.86592 -10.850883,0.79241 z M 104.04802,63.846351 c -0.16997,-3.207297 0.93361,-8.595807 2.52137,-12.311264 1.96693,-4.602722 7.03113,-9.518445 12.19094,-11.833493 1.83559,-0.823572 5.49455,-1.686931 6.52837,-1.540414 0.58913,0.08349 0.60903,0.165745 0.53304,2.203398 -0.24923,6.682903 -2.6989,12.449684 -7.36169,17.330166 -3.88756,4.069062 -8.81893,6.603133 -12.86614,6.611487 -1.26445,0.0026 -1.5255,-0.07505 -1.54589,-0.45988 z"
       id="path1" /></g></svg>
