<?xml version="1.0" encoding="UTF-8" standalone="no"?>
<!-- Created with Inkscape (http://www.inkscape.org/) -->

<svg
   width="86.723mm"
   height="86.866mm"
   version="1.1"
   viewBox="0 0 86.723 86.866"
   xml:space="preserve"
   id="svg63600"
   sodipodi:docname="moon-night.svg"
   inkscape:version="1.2.2 (b0a8486541, 2022-12-01)"
   xmlns:inkscape="http://www.inkscape.org/namespaces/inkscape"
   xmlns:sodipodi="http://sodipodi.sourceforge.net/DTD/sodipodi-0.dtd"
   xmlns="http://www.w3.org/2000/svg"
   xmlns:svg="http://www.w3.org/2000/svg"><defs
     id="defs63604" /><sodipodi:namedview
     id="namedview63602"
     pagecolor="#ffffff"
     bordercolor="#000000"
     borderopacity="0.25"
     inkscape:showpageshadow="2"
     inkscape:pageopacity="0.0"
     inkscape:pagecheckerboard="0"
     inkscape:deskcolor="#d1d1d1"
     inkscape:document-units="mm"
     showgrid="false"
     inkscape:zoom="0.71882749"
     inkscape:cx="280.3176"
     inkscape:cy="164.15622"
     inkscape:window-width="1503"
     inkscape:window-height="934"
     inkscape:window-x="0"
     inkscape:window-y="0"
     inkscape:window-maximized="1"
     inkscape:current-layer="svg63600" /><path
     style="fill:#a0c0d2;fill-opacity:1;stroke:none;stroke-width:0.0762693"
     d="m 42.731911,80.27326 c -5.62005,-0.343967 -10.4987,-1.605338 -15.13946,-3.914298 -3.77758,-1.87949 -6.80792,-4.032295 -9.81676,-6.973981 -3.80887,-3.72386 -6.78505,-8.128112 -8.7137703,-12.894943 -2.83716,-7.012026 -3.54711,-14.626418 -2.0549,-22.039522 1.44746,-7.190817 4.9710803,-13.723861 10.2483403,-19.001116 4.23096,-4.230956 9.27002,-7.3504302 15.06579,-9.3265902 1.34237,-0.457703 1.54669,-0.507223 2.0974,-0.508332 0.71372,-0.0014 1.17503,0.182293 1.64982,0.657084 0.51382,0.51382 0.63834,0.841252 0.6343,1.667902 l -0.003,0.724559 -0.50305,1.029636 c -1.65849,3.3945892 -2.55607,6.4452452 -2.97336,10.1056862 -0.12671,1.111484 -0.12572,4.625417 0.002,5.834604 0.25228,2.395246 0.72047,4.572187 1.45988,6.787971 3.601,10.791169 12.98759,18.798254 24.17864,20.625226 1.59983,0.261176 2.44177,0.340917 4.19481,0.397293 4.74816,0.152694 9.21047,-0.844007 13.80475,-3.083426 l 1.02964,-0.501881 0.68642,-0.0048 c 0.56685,-0.004 0.7479,0.02545 1.03934,0.169044 0.46701,0.230087 0.86153,0.623234 1.11227,1.108405 0.17204,0.332874 0.20437,0.492441 0.20383,1.005796 -5.3e-4,0.523062 -0.0526,0.766786 -0.36448,1.707478 -3.36549,10.150183 -10.39432,18.254252 -19.7584,22.780964 -3.883,1.877089 -7.98213,3.03507 -12.39708,3.5021 -1.11631,0.118088 -4.64965,0.208364 -5.68206,0.145177 z m 3.62279,-4.762899 c 4.6255,-0.29144 8.60218,-1.341869 12.69885,-3.35436 6.37318,-3.130834 11.4172,-8.097129 14.84857,-14.619781 0.4271,-0.811871 0.51406,-1.028471 0.39937,-0.994745 -4.51901,1.328797 -7.32297,1.733476 -11.32007,1.633763 -10.46768,-0.261128 -20.04934,-4.96403 -26.69601,-13.103015 -4.30082,-5.266454 -6.92601,-11.553011 -7.75092,-18.561176 -0.17118,-1.454337 -0.19434,-5.682018 -0.0391,-7.131183 0.22478,-2.097702 0.82642,-5.028678 1.34553,-6.554949 0.10566,-0.310649 0.19211,-0.595785 0.19211,-0.633636 0,-0.09344 -1.87431,0.885481 -3.0685,1.602628 -2.83464,1.702275 -5.92903,4.326246 -8.0665,6.840189 -6.49993,7.644756 -9.1706503,17.622298 -7.35594,27.480973 2.69348,14.632633 14.86324,25.824083 29.6644,27.279712 2.01202,0.197873 3.36132,0.228166 5.14818,0.11558 z"
     id="path62884" /></svg>
