<?xml version="1.0" encoding="UTF-8"?>
<!-- Created with Inkscape (http://www.inkscape.org/) -->
<svg id="svg1" width="321.63mm" height="261.45mm" version="1.1" viewBox="0 0 321.63 261.45" xml:space="preserve" xmlns="http://www.w3.org/2000/svg"><g id="layer1" transform="translate(40.763 68.69)"><path id="path1" d="m-14.307 192.76c0.84219-0.36589 0.79205-0.37911-1.5101-0.39805-1.3097-0.0108-3.2742-0.17343-4.3656-0.36146-1.0914-0.18803-2.9096-0.2898-4.0405-0.22615-2.1925 0.1234-4.4262-0.10353-4.4262-0.44968 0-0.1155 0.86145-0.28222 1.9143-0.37049 1.2294-0.10307 2.0166-0.30031 2.2001-0.55124 0.15823-0.21638 0.66721-0.37989 1.1407-0.36643 0.47022 0.0134 0.98544-0.10618 1.1449-0.26566 0.21024-0.21024-0.10234-0.24984-1.1368-0.14402-3.0801 0.31508-8.31-0.78525-9.2784-1.9521-0.28775-0.34671-0.10346-0.36899 1.513-0.18292 2.6377 0.30362 6.9326 0.22095 8.323-0.16021l1.1906-0.32641-1.4552-0.37495c-1.6544-0.42627-3.2648-1.1687-4.2333-1.9518-0.64675-0.52286-0.6291-0.52227 0.79375 0.0265 1.8863 0.72755 6.3014 0.99321 8.4282 0.50713l1.4937-0.34139-3.7042-1.1515 3.4396-0.12774c3.0617-0.1137 3.5894-0.20492 4.8035-0.83028 0.75014-0.3864 6.0555-3.8402 11.79-7.6751l16.017-11.609c2.4303-2.3685 6.0452-5.1775 7.8436-6.095 0.58437-0.29812 1.7669-1.2118 2.6278-2.0303 9.5354-9.0662 19.181-22.279 25.943-28.595 44.3-41.383 29.165-20.018-20.967 28.962-2.2344 2.1831-4.5104 4.5618-5.0543 5.2894-2.0822 2.7852-4.3291 4.4668-7.43 5.5609-0.53194 0.18768-3.5743 2.0004-6.7609 4.0282-6.3795 4.0598-15.597 9.8071-21.536 13.428-2.1101 1.2864-4.2378 2.7224-4.7284 3.1911l-0.89194 0.85219 1.5791 0.18327c1.5049 0.17466 4.7023-0.22369 5.1746-0.64471 0.114-0.10161-0.42178-0.3266-1.1906-0.49996-2.3993-0.541-2.1454-0.71587 1.1084-0.76345 3.6426-0.0533 3.9199-0.14333 7.5799-2.4619 11.544-7.3126 22.374-14.953 25.543-18.019 1.6789-1.6246 3.6262-3.1542 5.6749-4.4576 3.0468-1.9385 3.768-2.5779 8.9517-7.9375 3.2922-3.4038 16.758-18.535 18.701-21.013l0.60579-0.77278-0.65005 0.18105c-0.35753 0.0996-1.3781 0.82817-1.7572 0.34334-2.4291-3.1066-3.2051-5.9903-6.6386-5.9903-0.51049 0-7.82-1.3485-9.766-1.8016l-2.166-0.5044-2.332 1.2319c-1.2826 0.67754-3.7012 2.1322-5.3747 3.2327-3.7572 2.4706-3.9464 2.5693-5.0556 2.6376-1.2298 0.0758-2.0297-0.2266-2.2247-0.84093-0.16838-0.53053-0.77864-0.69666-1.035-0.28177-0.32154 0.52027-2.6001 1.3536-3.7011 1.3536-0.94761 0-1.2781-0.13197-1.712-0.68363l-0.53774-0.68362-2.0166 1.3239c-2.5588 1.6798-4.1957 2.1213-5.5257 1.4901-0.52008-0.2468-0.9456-0.60672-0.9456-0.79983 0-0.63683-0.49628-0.67446-1.583-0.12005-2.5753 1.3138-5.3641 1.1743-5.9191-0.29617-0.2511-0.66523-0.39847-0.75987-0.96129-0.61732-1.8297 0.46343-3.4789 0.59858-4.3544 0.35685-1.1219-0.30978-1.8585-1.2913-1.6356-2.1794 0.15196-0.60544 0.09552-0.6302-1.7568-0.77077-2.6226-0.19904-4.0519-0.80757-4.5975-1.9574-0.33955-0.71554-0.36902-1.0478-0.13794-1.5549 0.25938-0.56928 0.22484-0.6591-0.2943-0.76535-3.6696-0.75105-4.6396-1.2102-5.4844-2.5957-1.2166-1.9954-0.37269-3.7794 2.7413-5.7955 4.1249-2.6705 10.788-4.3219 22.263-5.5178 7.7275-0.80531 12.422-1.8937 19.242-4.4609 8.7434-3.2912 19.338-8.696 25.208-12.86 1.4552-1.0323 2.9733-2.0845 3.3734-2.3384 0.59963-0.38037 0.7276-0.6516 0.7276-1.5421 0-0.92202-0.06793-1.0538-0.46302-0.89858-1.7966 0.70606-7.5437 2.061-9.7961 2.3096-6.0684 0.66967-9.8493-1.2322-9.8493-4.9544v-1.2228l-1.5214 0.20653c-2.6445 0.359-6.9319 0.22138-9.016-0.28942-3.6126-0.88542-5.8136-3.1233-5.498-5.5902l0.13829-1.081-3.1347-0.30675c-6.7809-0.66355-10.49-2.9785-10.456-6.5255 0.0094-0.9756 0.1834-1.5976 0.6176-2.2073l0.60454-0.84899-0.88218-0.30515c-1.7843-0.61722-6.4848-3.1234-8.055-4.2946-2.5407-1.8953-3.7557-4.0047-3.4409-5.9737 0.16974-1.0615 1.1117-2.9083 1.4834-2.9083 0.11558 0 0.27885-0.17906 0.36283-0.3979 0.1113-0.29005-0.40097-0.68045-1.8899-1.4403-5.3092-2.7094-8.333-5.922-9.0111-9.5736-0.21027-1.1324-0.04175-3.263 0.36723-4.643 0.14346-0.48408-0.01383-0.66954-0.97956-1.1549-6.7471-3.3912-14.154-9.1602-16.122-12.556-1.8964-3.2732 0.06176-7.239 3.5942-7.2794l1.0583-0.01211-0.81289-0.71985c-0.44709-0.39592-2.0388-1.7914-3.537-3.1011-4.6886-4.0984-7.5524-7.8803-8.2475-10.892-0.27249-1.1805-0.24924-1.4699 0.19037-2.3703 0.70715-1.4483 2.4028-2.2994 4.2347-2.1256 2.3762 0.22538 4.8141 1.7881 11.612 7.4432 16.551 10.971 34.002 19.929 53.019 25.389 1.5329 0.45601 11.06 1.7379 12.917 1.7379h0.85156l-0.15668-1.6779c-0.09519-1.0193-0.03302-2.0526 0.1584-2.6326 0.29587-0.89648 1.6452-2.3527 2.44-2.6333 0.27256-0.09623 0.22022-0.30565-0.22257-0.89049-1.0708-1.4143-2.8808-4.4579-3.4547-5.8091-2.0321-4.7843-0.61075-9.1108 2.9931-9.1108 0.87995 0 0.95425-0.05529 0.80004-0.59531-1.2987-4.5476-1.5929-6.2848-1.602-9.4589-0.0084-2.9424 0.05677-3.4313 0.59105-4.4315 0.91412-1.7112 2.3922-2.5614 4.5317-2.6066 7.5989 1.7587 1.8672 5.6671 0.42618-6.0588-0.222-1.9309 0.28665-5.2494 1.0733-7.0023 0.37678-0.83958 1.1819-2.007 1.7891-2.5943 1.1256-1.0886 2.9167-2.1774 3.582-2.1774 0.40599 0 0.40563-5e-3 -0.38179-5.2917-0.58751-3.9445-0.67153-12.715-0.14195-14.817 0.72887-2.8928 1.9531-4.4454 3.9854-5.0543 1.4806-0.44359 2.6893-0.11382 4.0846 1.1144l1.2207 1.0745v-1.5716c0-2.7793 0.53559-8.3264 1.0405-10.777 0.67731-3.2867 1.4406-5.1623 2.6684-6.5571 1.4072-1.5986 2.443-1.8011 4.376-0.8554 1.1937 0.58401 1.5215 0.91152 2.1039 2.102 1.0809 2.2093 1.2525 4.2428 1.0734 12.719-0.30078 14.231 0.41913 20.07 4.1246 33.455 4.4962 16.241 8.061 24.443 15.531 35.733 2.7786 4.1995 8.439 12.013 12.458 17.198 1.4102 1.819 3.1938 4.124 3.9637 5.1222 2.4373 3.1603 5.553 8.1296 7.1566 11.414 3.012 7.6486 4.1154 13.861 5.0343 19.934v2.8689l4.4079 0.17384c6.4879 0.25588 15.36 0.21179 19.979-0.0993 14.204-0.95649 22.697-4.7693 32.335-14.516 3.6112-3.6519 6.6822-5.9619 10.1-7.5969 3.5659-1.706 5.2122-2.0768 9.2465-2.0827 2.8782-4e-3 3.7616 0.0961 5.4126 0.61452 3.7013 1.1623 8.4348 3.9394 11.606 6.8091l1.6136 1.4602c20.974 7.385 21.969 8.8949 48.969 14.391 12.443 2.5327 12.314 2.2519 13.266 3.0227 0.54098 0.43807 0.56576 0.54303 0.22509 0.95351-0.35119 0.42316-0.86413 0.4468-6.2091 0.2862-16.177-0.48609-20.288-1.4648-45.049-2.5313l-11.706-0.50421-2.2099 1.0356c-3.2077 1.5032-4.8483 1.804-12.214 2.239-3.638 0.2149-7.9243 0.5126-9.525 0.66157s-4.5384 0.38364-6.528 0.52149c-3.7118 0.25717-5.9071 0.71242-10.238 2.1232-8.775 2.8583-20.783 8.6739-28.805 13.95-3.5362 2.326-6.9447 4.9564-11.285 8.7085-2.1653 1.8721-4.4402 3.8204-5.0552 4.3298-3.5519 2.9411-5.9042 5.008-8.7327 7.6729-6.5818 6.2013-11.001 9.1459-17.595 11.724-6.1596 2.4081-12.449 3.57-20.505 3.7881l-5.2917 0.14326-3.322 1.4098c-4.0486 1.7181-8.3153 3.1506-11.044 3.7078l-2.0385 0.4163-6.0854 6.0226c-12.189 12.063-19.339 19.069-20.456 20.041-0.62767 0.54681-1.561 1.6266-2.074 2.3994-1.3461 2.028-3.3742 3.7421-5.6484 4.774-3.3221 1.5073-3.9972 1.8997-11.585 6.733-4.033 2.569-10.809 6.8088-15.058 9.4218-4.2488 2.613-8.3243 5.2896-9.0567 5.9481zm-0.79556-2.5441c1.5396-0.32156 2.2861-0.7655 1.2873-0.7655-0.33964 0-1.0622-0.13323-1.6057-0.29607-0.88921-0.26641-1.1109-0.22414-2.2135 0.42202-0.67393 0.39495-1.2253 0.7663-1.2253 0.82523 0 0.21689 2.3969 0.0984 3.7573-0.18568z" fill="#d40000"/></g></svg>
