<?xml version="1.0" encoding="UTF-8"?>
<!-- Created with Inkscape (http://www.inkscape.org/) -->
<svg width="113.4mm" height="36.253mm" version="1.1" viewBox="0 0 113.4 36.253" xml:space="preserve" xmlns="http://www.w3.org/2000/svg"><g transform="translate(-28.222 -137.24)"><path d="m28.821 173.6c3.4734 0.0167 7.9866-1.6428 11.17-6.8829l10.176-18.273c2.6547-5.277 7.2562-9.3837 12.069-9.6284l44.811 0.0977c8.2071 4e-3 10.42 5.8215 12.499 9.6407l10.392 17.934c5.2787 7.9265 8.4249 7.0935 11.571 7.3641" fill="#21232f" stroke="#808080" stroke-linejoin="round"/><g transform="translate(.054536 .44069)" stroke="#7638d6"><g transform="translate(.39985 1.5994)" fill="none" stroke="#7638d6"><path class="UnoptimicedTransforms" transform="matrix(.23745 0 0 .23745 95.153 128.95)" d="m-43.417 76.472c-4.23-0.0071-8.4662 1.2877-11.96 3.8862-3.5386 2.6321-6.36 6.6699-7.4302 10.634-1.9238 7.1253-0.07197 14.356 4.9987 19.516 3.1032 3.1581 7.4724 5.3781 11.602 5.895 10.322 1.2918 19.626-5.0392 22.263-15.15 0.3822-1.4651 0.44062-2.1245 0.42921-4.8105-0.01161-2.7246-0.07385-3.3403-0.50111-4.943-1.1755-4.4089-3.8375-8.3597-7.4799-11.101-3.4686-2.6102-7.6928-3.9196-11.923-3.9267z"/><path class="UnoptimicedTransforms" transform="matrix(.23745 0 0 .23745 44.942 132.34)" d="m168.04 62.214c-4.23-0.0071-8.4662 1.2877-11.96 3.8862-3.5386 2.6321-6.36 6.6699-7.4302 10.634-1.9238 7.1253-0.072 14.356 4.9987 19.516 3.1032 3.1581 7.4724 5.3781 11.602 5.8949 10.322 1.2918 19.626-5.0392 22.263-15.15 0.3822-1.4651 0.44062-2.1245 0.42921-4.8106-0.0116-2.7246-0.0738-3.3403-0.50111-4.943-1.1755-4.4089-3.8375-8.3597-7.4799-11.101-3.4686-2.6102-7.6928-3.9196-11.923-3.9267z"/><path class="UnoptimicedTransforms" transform="matrix(.24839 0 0 .24839 40.563 129.79)" d="m178.27 69.713c-4.0437-0.0068-8.0934 1.231-11.433 3.715-3.3827 2.5161-6.0799 6.3762-7.1029 10.165-1.8391 6.8115-0.0688 13.724 4.7785 18.657 2.9665 3.019 7.1433 5.1412 11.091 5.6353 9.8674 1.2349 18.761-4.8173 21.283-14.483 0.36537-1.4006 0.42121-2.031 0.41031-4.5987-0.0111-2.6046-0.0706-3.1932-0.47904-4.7253-1.1237-4.2147-3.6685-7.9915-7.1505-10.612-3.3159-2.4953-7.354-3.7469-11.398-3.7538zm-0.15968 2.3993c1.5381-0.02016 3.055 0.08509 3.9248 0.32453 5.4067 1.4883 9.0879 4.5153 11.417 9.3875 1.1755 2.4591 1.4852 3.9348 1.4852 7.0699 0 3.1299-0.28856 4.4997-1.4862 7.0554-2.5148 5.3665-7.3825 8.9227-13.169 9.6206-5.226 0.63032-9.9562-0.9712-13.771-4.6628-2.8516-2.7594-4.555-6.2678-5.0173-10.333-0.5601-4.9256 1.2384-9.9919 4.8183-13.572 2.0503-2.0503 4.853-3.6649 7.7442-4.4612 0.95624-0.26337 2.5159-0.40875 4.054-0.42891z" stroke-width="2.3922"/><path class="UnoptimicedTransforms" transform="matrix(.23745 0 0 .23745 105.64 138.14)" d="m-87.43 84.054c-10.131 0-10.444 0.01956-14.125 0.88167-9.1333 2.1391-16.752 9.1652-19.601 18.076-1.2514 3.9148-2.317 10.287-1.756 11.976 7.63 13.539 28.286 13.545 36.143 13.67 9.3761-0.70874 29.488-5.3374 34.253-15.515 0.49927-1.8384-0.29682-7.1885-1.6201-10.886-3.3211-9.28-11.176-15.828-21.316-17.77-2.1791-0.41727-2.6258-0.43354-11.978-0.43354z"/><path class="UnoptimicedTransforms" transform="matrix(.24839 0 0 .24839 89.506 126.15)" d="m-18.615 128.64c-9.6845 0-9.9842 0.0187-13.503 0.84284-8.7311 2.0449-16.014 8.7615-18.737 17.28-1.1963 3.7424-2.215 9.8341-1.6787 11.449 7.294 12.942 27.04 12.949 34.551 13.068 8.9631-0.67753 28.189-5.1023 32.744-14.832 0.47728-1.7574-0.28375-6.8719-1.5487-10.407-3.1748-8.8713-10.684-15.131-20.377-16.987-2.0832-0.39889-2.5102-0.41445-11.45-0.41445zm-1.82 2.2784c0.93266 4e-3 1.9599 0.0113 3.098 0.0222 9.0629 0.0866 9.8288 0.16243 13.269 1.3074 3.47 1.1549 6.1403 2.7903 8.9359 5.4736 4.625 4.4392 6.925 9.1907 7.5608 15.62 0.19733 1.9954 0.1876 2.2223-0.11834 2.8655-0.218 0.45828-0.53609 0.78377-0.92604 0.94671-8.2725 17.248-49.287 20.502-61.16 1.449-0.95262-5.2841 1.3512-12.69 3.2528-15.711 3.5828-5.6916 8.7772-9.5742 14.868-11.112 2.799-0.70687 4.6908-0.88563 11.219-0.86093z" stroke-width="2.3922"/><circle cx="84.817" cy="155.83" r="12.8" stroke-width="1.1909"/></g></g><path d="m28.411 173.2 1.8725 2.7291h108.34l3.2769-2.2288-9.2958-0.41269-96.302-0.22411-8.2927 0.6368" fill="#21232f"/></g></svg>
