<?xml version="1.0" encoding="UTF-8" standalone="no"?>
<!-- Created with Inkscape (http://www.inkscape.org/) -->

<svg
   id="svg5"
   width="113.4mm"
   height="36.253mm"
   version="1.1"
   viewBox="0 0 113.4 36.253"
   xml:space="preserve"
   sodipodi:docname="up-reg-arrow-light-active.svg"
   inkscape:version="1.4.2 (2aeb623e1d, 2025-05-12)"
   xmlns:inkscape="http://www.inkscape.org/namespaces/inkscape"
   xmlns:sodipodi="http://sodipodi.sourceforge.net/DTD/sodipodi-0.dtd"
   xmlns="http://www.w3.org/2000/svg"
   xmlns:svg="http://www.w3.org/2000/svg"><defs
     id="defs1"><inkscape:path-effect
       effect="fill_between_many"
       method="originald"
       linkedpaths="#path120039,0,1"
       id="path-effect120190-6"
       is_visible="true"
       lpeversion="0"
       join="true"
       close="true"
       autoreverse="true" /><inkscape:path-effect
       effect="fill_between_many"
       method="originald"
       linkedpaths="#path120039,0,1"
       id="path-effect120194-6"
       is_visible="true"
       lpeversion="0"
       join="true"
       close="true"
       autoreverse="true" /><inkscape:path-effect
       effect="fill_between_many"
       method="originald"
       linkedpaths="#path120232,0,1"
       id="path-effect120252-4"
       is_visible="true"
       lpeversion="0"
       join="true"
       close="true"
       autoreverse="true" /></defs><sodipodi:namedview
     id="namedview1"
     pagecolor="#ffffff"
     bordercolor="#000000"
     borderopacity="0.25"
     inkscape:showpageshadow="2"
     inkscape:pageopacity="0.0"
     inkscape:pagecheckerboard="0"
     inkscape:deskcolor="#d1d1d1"
     inkscape:document-units="mm"
     inkscape:zoom="1.9851232"
     inkscape:cx="155.1541"
     inkscape:cy="59.190281"
     inkscape:window-width="2256"
     inkscape:window-height="1425"
     inkscape:window-x="0"
     inkscape:window-y="40"
     inkscape:window-maximized="1"
     inkscape:current-layer="layer1"
     showguides="true"
     showgrid="false"><sodipodi:guide
       position="10.529364,7.3305696"
       orientation="0,-1"
       id="guide1"
       inkscape:locked="false" /></sodipodi:namedview><g
     id="layer1"
     transform="translate(-28.222 -137.24)"
     fill="#fff"><path
       id="path857-6"
       d="m 28.766421,173.15925 c 3.473399,0.0167 7.98656,-1.64276 11.170219,-6.88289 l 10.17617,-18.27258 c 2.654743,-5.27703 7.25621,-9.38373 12.068699,-9.62842 l 44.810591,0.0977 c 8.20707,0.004 10.41971,5.8215 12.49882,9.64066 l 10.39159,17.9341 c 5.2787,7.9265 8.42489,7.09346 11.57106,7.3641"
       stroke="#747474"
       stroke-linejoin="round"
       stroke-width="0.6"
       sodipodi:nodetypes="cccccccc"
       style="stroke:#808080;stroke-width:1;stroke-dasharray:none;stroke-opacity:1" /><g
       id="user-logged-in"
       inkscape:highlight-color="#72f361"
       style="stroke:#66ff00"><g
         id="g1"
         transform="translate(0.39984924,1.599397)"
         style="fill:none;stroke:#66ff00"><path
           inkscape:original-d="M 0,0"
           inkscape:path-effect="#path-effect120190-6"
           d="m -43.417088,76.472125 c -4.230017,-0.0071 -8.466247,1.287741 -11.959621,3.886172 -3.538585,2.63206 -6.359973,6.669919 -7.430156,10.633591 -1.923818,7.125295 -0.07197,14.355852 4.998669,19.516262 3.10319,3.15812 7.472407,5.37809 11.602294,5.89495 10.321966,1.29176 19.625686,-5.03923 22.263458,-15.15008 0.382203,-1.465096 0.440615,-2.124528 0.429213,-4.810546 -0.01161,-2.724568 -0.07385,-3.340314 -0.50111,-4.94299 -1.17548,-4.408889 -3.83751,-8.359678 -7.479896,-11.100645 -3.468634,-2.610214 -7.692845,-3.919555 -11.922851,-3.926714 z"
           id="path120192"
           class="UnoptimicedTransforms"
           transform="matrix(0.23745117,0,0,0.23745117,95.153052,128.95036)"
           style="fill:none;stroke:#66ff00;stroke-opacity:1" /><path
           inkscape:original-d="M 0,0"
           inkscape:path-effect="#path-effect120194-6"
           d="m 168.0393,62.214456 c -4.23002,-0.0071 -8.46625,1.287742 -11.95962,3.886173 -3.53859,2.63206 -6.35998,6.669918 -7.43016,10.633591 -1.92382,7.125295 -0.072,14.355851 4.99867,19.516266 3.10319,3.158119 7.47241,5.378094 11.60229,5.894944 10.32197,1.29176 19.62569,-5.039227 22.26346,-15.150073 0.3822,-1.465101 0.44062,-2.124533 0.42921,-4.810551 -0.0116,-2.724568 -0.0738,-3.340315 -0.50111,-4.94299 -1.17548,-4.408889 -3.83751,-8.359678 -7.47989,-11.100645 -3.46864,-2.610214 -7.69285,-3.919555 -11.92285,-3.926715 z"
           id="path120196"
           class="UnoptimicedTransforms"
           transform="matrix(0.23745117,0,0,0.23745117,44.942486,132.33586)"
           style="fill:none;stroke:#66ff00;stroke-opacity:1" /><path
           id="path120039"
           style="fill:none;stroke:#66ff00;stroke-width:2.3922;stroke-dasharray:none;stroke-opacity:1"
           d="m 178.27046,69.712981 c -4.04372,-0.0068 -8.09338,1.231027 -11.4329,3.715019 -3.38274,2.51614 -6.07987,6.376165 -7.10292,10.165271 -1.83909,6.811486 -0.0688,13.723597 4.77852,18.656739 2.96652,3.01903 7.14331,5.14123 11.09131,5.63532 9.86737,1.23487 18.76134,-4.81729 21.28294,-14.482839 0.36537,-1.400575 0.42121,-2.030965 0.41031,-4.598686 -0.0111,-2.604574 -0.0706,-3.193202 -0.47904,-4.725293 -1.12371,-4.214715 -3.6685,-7.991505 -7.15047,-10.611755 -3.31587,-2.495256 -7.35404,-3.746932 -11.39775,-3.753776 z m -0.15968,2.399337 c 1.53813,-0.02016 3.05504,0.08509 3.92482,0.324528 5.40667,1.488327 9.08786,4.515343 11.41688,9.38754 1.17548,2.459069 1.48518,3.934761 1.48518,7.069853 0,3.129864 -0.28856,4.499653 -1.48622,7.055383 -2.51484,5.366518 -7.38249,8.922698 -13.1687,9.620598 -5.22599,0.63032 -9.95623,-0.9712 -13.77126,-4.66276 -2.85163,-2.759358 -4.55498,-6.26784 -5.01726,-10.33322 -0.5601,-4.925606 1.23839,-9.991867 4.81831,-13.571782 2.05031,-2.050308 4.85304,-3.664935 7.74423,-4.461226 0.95624,-0.263369 2.51588,-0.408751 4.05402,-0.428914 z"
           class="UnoptimicedTransforms"
           transform="matrix(0.24839069,0,0,0.24839069,40.562891,129.7927)"
           sodipodi:nodetypes="csssccccscscsssssssss" /><path
           inkscape:original-d="M 0,0"
           inkscape:path-effect="#path-effect120252-4"
           d="m -87.429846,84.053804 c -10.130629,0 -10.444147,0.01956 -14.125144,0.88167 -9.1333,2.139131 -16.75204,9.165179 -19.6006,18.076196 -1.25138,3.9148 -2.31702,10.28716 -1.75599,11.97629 7.63003,13.53867 28.285839,13.54547 36.142635,13.67049 9.376065,-0.70874 29.487713,-5.33737 34.253025,-15.51536 0.499269,-1.83841 -0.296822,-7.18849 -1.620091,-10.88604 -3.321076,-9.279961 -11.176052,-15.827934 -21.315834,-17.769671 -2.179132,-0.417267 -2.625846,-0.433544 -11.978001,-0.433544 z"
           id="path120254"
           class="UnoptimicedTransforms"
           transform="matrix(0.23745117,0,0,0.23745117,105.64272,138.14158)"
           style="fill:none;stroke:#66ff00;stroke-opacity:1" /><path
           d="m -18.615232,128.64425 c -9.68446,0 -9.98417,0.0187 -13.50305,0.84284 -8.731059,2.04492 -16.014249,8.76153 -18.737359,17.28009 -1.19627,3.74239 -2.214976,9.8341 -1.678656,11.44884 7.293996,12.9424 27.040089,12.9489 34.550859,13.06842 8.9631283,-0.67753 28.189028,-5.10231 32.744468,-14.83204 0.47728,-1.75745 -0.28375,-6.8719 -1.54874,-10.4066 -3.17481,-8.87126 -10.6838405,-15.13085 -20.3770505,-16.98707 -2.08316,-0.39889 -2.5102,-0.41445 -11.4504715,-0.41445 z m -1.82004,2.27842 c 0.93266,0.004 1.95993,0.0113 3.098,0.0222 9.0628715,0.0866 9.8288415,0.16243 13.2689615,1.30741 3.46997999,1.15493 6.14027,2.79027 8.93589,5.47357 4.625041,4.43923 6.9249705,9.19072 7.5607805,15.62023 0.19733,1.99541 0.1876,2.2223 -0.11834,2.86546 -0.218,0.45828 -0.53609,0.78377 -0.92604,0.94671 -8.2724872,17.2475 -49.286584,20.50183 -61.159818,1.449 -0.952624,-5.28406 1.351227,-12.69034 3.252757,-15.7111 3.58279,-5.69163 8.777238,-9.57418 14.868339,-11.1125 2.79902,-0.70687 4.69083,-0.88563 11.21947,-0.86093 z"
           style="fill:none;stroke:#66ff00;stroke-width:2.3922;stroke-dasharray:none;stroke-opacity:1"
           id="path120232"
           class="UnoptimicedTransforms"
           transform="matrix(0.24839069,0,0,0.24839069,89.506251,126.14622)"
           sodipodi:nodetypes="ccccccscccccssssccsccc" /><circle
           style="fill:none;fill-opacity:0.766426;stroke:#66ff00;stroke-width:1.19086;stroke-dasharray:none;stroke-opacity:1"
           id="path120308"
           cx="84.816978"
           cy="155.82861"
           r="12.79953" /></g></g><path
       style="fill:#ffffff;stroke:none;stroke-width:0.218973"
       d="m 28.356692,172.76311 1.872537,2.72913 H 138.56889 l 3.27693,-2.22878 -9.29577,-0.41269 -96.301951,-0.22411 -8.292665,0.6368"
       id="path1"
       sodipodi:nodetypes="ccccccc" /></g></svg>
