<?xml version="1.0" encoding="UTF-8"?>
<!-- Created with Inkscape (http://www.inkscape.org/) -->
<svg width="8.1604mm" height="7.9396mm" version="1.1" viewBox="0 0 8.1604 7.9396" xmlns="http://www.w3.org/2000/svg">
 <g transform="translate(-109.81 -26.304)">
  <path d="m114 34.203c-0.31475-0.0769-0.53295-0.17554-0.98189-0.44347-0.22871-0.13654-0.48794-0.27446-0.57606-0.3066-0.39846-0.14537-1.0601-0.16436-1.5351-0.0442-0.16688 0.0422-0.27676 0.0496-0.43175 0.029-0.11433-0.0152-0.30737-0.0283-0.42892-0.0292-0.14706-9.5e-4 -0.22554-0.016-0.23457-0.0446-7e-3 -0.0237 0.0132-0.0523 0.0451-0.0637 0.19358-0.0678 0.26683-0.11393 0.41047-0.25842 0.2798-0.28146 0.38783-0.30513 0.9276-0.20311 0.22921 0.0432 0.59651 0.08 0.91165 0.0911 0.49787 0.0175 0.54486 0.0142 0.82938-0.0712 0.16588-0.0493 0.31269-0.10149 0.32622-0.11618 0.0494-0.0536 0.12386-0.44416 0.12334-0.64738-8.8e-4 -0.38649-0.0776-0.66176-0.28718-1.0315-0.24141-0.42601-0.2704-0.54843-0.24614-1.0385 0.0465-0.93881 0.61188-3.7208 0.75617-3.7208 0.0766 0 0.19354 0.36684 0.19354 0.60771 0 0.12509-0.0887 0.7467-0.1449 1.0168-0.0152 0.0721 0.19156-0.49462 0.38766-1.0635 0.0826-0.23951 0.20506-0.32053 0.20503-0.13555 0 0.0418-0.10843 0.42395-0.24081 0.84955-0.13244 0.42558-0.23679 0.77816-0.23184 0.7835 5e-3 6e-3 0.14567-0.27285 0.31279-0.61816 0.30096-0.6219 0.44471-0.85273 0.53105-0.85273 0.0672 0 0.0546 0.0814-0.0513 0.33388-0.0529 0.12579-0.0959 0.23161-0.0959 0.23519 0 5e-3 0.0409 3e-5 0.0909-8e-3 0.0769-0.0126 0.0972 9.5e-4 0.1317 0.092 0.0247 0.0645 0.0356 0.19507 0.0276 0.33147-0.0131 0.21584-0.0105 0.22502 0.0601 0.22502 0.0893 0 0.19192 0.10537 0.25061 0.25704 0.0674 0.17411 0.1669 0.75378 0.20701 1.2052 0.0293 0.32954 0.0602 0.47577 0.16042 0.76041 0.10583 0.30049 0.12441 0.33392 0.12571 0.22701 6e-4 -0.0691-0.0204-0.18202-0.0473-0.25125l-0.0485-0.12581 0.31902-0.40014c0.36993-0.46405 0.53371-0.74608 0.97102-1.6723 0.175-0.37069 0.32884-0.68652 0.34183-0.70187 0.0341-0.0403 0.0656 0.25459 0.0432 0.40443-0.0105 0.07-0.0878 0.27844-0.17162 0.46302l-0.15248 0.33559 0.38878-0.43669c0.37866-0.42531 0.54674-0.57933 0.58596-0.53693 0.0185 0.02-0.22992 0.34463-0.531 0.6934-0.16669 0.19311-0.14749 0.18524 0.20589-0.0844 0.25945-0.198 0.39982-0.28986 0.39982-0.26173 0 9e-3 -0.0684 0.0873-0.15192 0.17513l-0.15195 0.15959 0.19004-0.12199c0.24849-0.15957 0.28331-0.15412 0.12833 0.02-0.10267 0.11533-0.1129 0.13767-0.0545 0.11859 0.0965-0.0315 0.0928 3e-5 -0.04 0.34644-0.12725 0.33234-0.13198 0.36057-0.0598 0.36057 0.0532 0 0.0523 0.0329-8e-3 0.31971-0.0154 0.0733-8e-3 0.095 0.0317 0.095 0.0676 0 0.0662 0.0161-0.0295 0.34395-0.0617 0.21109-0.10425 0.29664-0.17594 0.35391-0.0884 0.0708-0.12504 0.13683-0.0707 0.12763 0.0132-9.5e-4 0.0508-9.5e-4 0.0835 0 0.0776 6e-3 0.0564 0.10024-0.10634 0.47595-0.0671 0.15496-0.18927 0.51053-0.27153 0.79019-0.13399 0.45551-0.16456 0.52577-0.29363 0.67491-0.19433 0.22445-0.53069 0.457-0.69549 0.48076-0.11457 0.0165-0.1319 0.0303-0.1319 0.10536 0 0.0792 0.0157 0.0886 0.19192 0.11463 0.30834 0.0454 0.88896 9.5e-4 1.2635-0.0953 0.38415-0.0996 0.46642-0.10673 0.48924-0.0423 0.0217 0.0614-0.20443 0.64849-0.31841 0.82627-0.17735 0.27661-0.39772 0.33479-0.62006 0.1637-0.17444-0.13414-0.33546-0.12905-0.60823 0.0196-0.29496 0.16065-0.59944 0.27536-0.97369 0.36689-0.37936 0.0927-1.16 0.1186-1.4491 0.0479zm-3.2225-0.85342c0.0448-0.0221 0.0815-0.0589 0.0815-0.0816 0-0.0228 8e-3 -0.1114 0.0198-0.19675 0.0178-0.1398 0.0132-0.15729-0.0506-0.17514-0.0567-0.0161-0.0786 9.5e-4 -0.11316 0.09-0.0236 0.0604-0.0942 0.16338-0.15723 0.22882-0.0821 0.0856-0.10309 0.12665-0.0743 0.14637 0.0584 0.0401 0.20076 0.0344 0.29428-0.0114z" fill="#fb0000" stroke-width=".03325"/>
 </g>
</svg>
