<?xml version="1.0" encoding="UTF-8"?>
<!-- Created with Inkscape (http://www.inkscape.org/) -->
<svg width="8.6133mm" height="8.2856mm" version="1.1" viewBox="0 0 8.6133 8.2856" xmlns="http://www.w3.org/2000/svg">
 <g transform="translate(37.777 146.19)">
  <path d="m-31.411-138.16c-0.0825-0.14306-0.20862-0.36851-0.28035-0.50097-0.0717-0.13246-0.14222-0.24085-0.15662-0.24085s-2e-3 0.0997 0.0278 0.22159c0.099 0.40625 0.11067 0.54912 0.0449 0.54912-0.065 0-0.1881-0.23641-0.26146-0.5022l-0.0475-0.17216-0.0372 0.1079c-0.0886 0.25734-0.21078-0.0248-0.37881-0.87517-0.0651-0.33016-0.15662-0.66739-0.2114-0.78022-0.0912-0.18781-0.11788-0.20954-0.48699-0.39665-0.7626-0.38661-1.2255-0.83059-1.6571-1.5896-0.25202-0.44316-0.54784-0.8386-0.76133-1.0178l-0.13281-0.11143h-1.0137c-0.55752 0-1.0136-0.013-1.0136-0.0289 1e-5 -0.0159 0.0143-0.0289 0.0318-0.0289 0.11191 0 1.5147-0.19846 1.6205-0.22926 0.0715-0.0209 0.22914-0.1324 0.3503-0.24796 0.26116-0.24911 0.4445-0.31451 0.73411-0.26186 0.22434 0.0408 0.44079 0.17993 0.61282 0.394 0.0673 0.0838 0.15294 0.1524 0.19017 0.1524 0.11344 0 0.386-0.19591 0.98477-0.70785 0.31454-0.26893 0.77762-0.63673 1.0291-0.81735 0.25143-0.18061 0.60597-0.46624 0.78784-0.63473 0.18189-0.16851 0.34874-0.30637 0.3708-0.30637 0.10428 0-0.16977 0.53347-0.56419 1.0983-0.0888 0.12717-0.17493 0.25414-0.19137 0.28216-0.0164 0.028 0.13566-0.0637 0.33803-0.20382 0.20237-0.14011 0.51198-0.32218 0.688-0.40461 0.30813-0.14425 1.3084-0.42519 1.5139-0.42519 0.16078 0 0.156 0.0982-0.0178 0.36495-0.0891 0.13671-0.21409 0.38365-0.27783 0.54875-0.13661 0.35386-0.18372 0.41326-0.42468 0.53544-0.15462 0.0784-0.18806 0.11635-0.22562 0.25596-0.0772 0.28673-0.1419 0.36983-0.3831 0.49159-0.17824 0.09-0.23438 0.13955-0.251 0.22166-0.0488 0.24135-0.15042 0.37292-0.3937 0.50993-0.44594 0.25112-1.0125 0.66023-1.071 0.77333-0.0549 0.10627-0.0479 0.13302 0.16913 0.64205 0.12457 0.29213 0.29922 0.73925 0.38812 0.99358 0.0889 0.25434 0.30796 0.8051 0.48677 1.2239 0.4247 0.99467 0.42937 1.1307 0.0208 0.6046-0.11437-0.14729-0.22262-0.26779-0.2405-0.26779-0.0179 0 0.0123 0.11706 0.0672 0.26012 0.16038 0.41854 0.2465 0.67308 0.2465 0.72859 0 0.11431-0.0813 0.0386-0.22358-0.20835z" fill="#a00" stroke-width=".038536"/>
 </g>
</svg>
