<?xml version="1.0" encoding="UTF-8" standalone="no"?>
<!-- Created with Inkscape (http://www.inkscape.org/) -->

<svg
   width="7.2321mm"
   height="7.2352mm"
   version="1.1"
   viewBox="0 0 7.2321 7.2352"
   xml:space="preserve"
   id="svg90740"
   sodipodi:docname="jupiter-cycle.svg"
   inkscape:version="1.2.2 (b0a8486541, 2022-12-01)"
   xmlns:inkscape="http://www.inkscape.org/namespaces/inkscape"
   xmlns:sodipodi="http://sodipodi.sourceforge.net/DTD/sodipodi-0.dtd"
   xmlns="http://www.w3.org/2000/svg"
   xmlns:svg="http://www.w3.org/2000/svg"><defs
     id="defs90744" /><sodipodi:namedview
     id="namedview90742"
     pagecolor="#ffffff"
     bordercolor="#000000"
     borderopacity="0.25"
     inkscape:showpageshadow="2"
     inkscape:pageopacity="0.0"
     inkscape:pagecheckerboard="0"
     inkscape:deskcolor="#d1d1d1"
     inkscape:document-units="mm"
     showgrid="false"
     inkscape:zoom="15.201442"
     inkscape:cx="22.497866"
     inkscape:cy="18.287739"
     inkscape:window-width="1503"
     inkscape:window-height="934"
     inkscape:window-x="0"
     inkscape:window-y="0"
     inkscape:window-maximized="1"
     inkscape:current-layer="svg90740" /><g
     id="g91667"
     transform="matrix(0.04603775,0,0,0.04603775,3.2690172,3.588013)"><path
       style="fill:#f6ce9f;stroke-width:0.264583"
       d="M 2.3835115,67.7665 C -41.200955,62.599518 -67.663254,20.853465 -53.27765,-20.042717 -39.316134,-59.733271 9.7509831,-75.871666 44.849139,-52.317057 89.483498,-22.362636 81.319716,45.592834 30.864134,64.094337 22.888179,67.019031 10.04579,68.674873 2.3835115,67.7665 Z"
       id="path91681" /><path
       style="fill:#f7bc8d;stroke-width:0.264583"
       d="M 2.2512198,67.65084 C -52.211535,62.001554 -76.683904,-3.3959846 -39.087984,-42.819961 -3.9023036,-79.716507 57.786302,-64.283942 71.717991,-15.099763 76.94265,3.3452815 72.710097,27.216171 61.849961,40.554241 61.616291,40.841229 60.672075,42.02466 59.751706,43.184088 46.116306,60.361172 23.744889,69.880325 2.2512198,67.65084 Z"
       id="path91679" /><path
       style="fill:#f5ac58;stroke-width:0.264583"
       d="M -29.120941,55.998066 C -57.950558,36.197172 -65.74819,-3.637327 -46.585199,-33.218758 l 1.6627,-2.566668 h 13.995713 13.995713 v -0.671999 c 0,-2.317488 2.637065,-4.619668 5.291667,-4.619668 2.6546017,0 5.2916669,2.30218 5.2916669,4.619668 v 0.671999 H 27.756309 61.860356 l 1.596375,2.464282 C 82.524708,-3.8863819 75.197884,35.110481 46.768993,55.498987 l -2.578066,1.848925 H 8.5176648 -27.1556 Z M 50.855388,-8.5662501 c 2.94304,-0.6244484 5.430343,-2.5456889 6.013212,-4.6447179 1.884788,-6.787534 -9.954885,-10.612118 -15.127498,-4.886654 -4.308091,4.768544 1.742086,11.0955913 9.114286,9.5313719 z M -29.207751,-51.343984 c 21.8329258,-15.69714 53.57643,-15.697922 75.353359,-0.0019 l 1.031886,0.743743 H 8.4689286 -30.239637 Z"
       id="path91677" /><path
       style="fill:#f6a338;stroke-width:0.264583"
       d="M -29.236027,55.857008 C -58.273914,35.386105 -65.747234,-4.091942 -46.195606,-33.732505 l 1.350989,-2.048119 13.956772,-0.0024 c 13.853127,-0.0024 13.956772,-0.0064 13.956772,-0.540065 0,-5.807739 9.5669767,-6.241227 10.4889915,-0.475263 l 0.1619752,1.012928 34.0312903,0.0024 34.03129,0.0024 1.350989,2.048118 C 82.696171,-4.0751648 75.228224,35.374487 46.173884,55.85699 l -2.114841,1.490922 H 8.4689286 -27.121186 Z M 51.614139,-8.6835028 c 5.919959,-1.7085042 7.421578,-7.7139782 2.680742,-10.7211632 -5.381371,-3.413482 -13.516664,-0.941626 -14.016356,4.258781 -0.443087,4.611291 5.671339,8.0970971 11.335614,6.4623822 z M -29.895657,-50.710071 c 0,-0.05939 0.992095,-0.76136 2.204656,-1.559938 22.0556526,-14.525599 50.239166,-14.524784 72.341703,0.0021 1.200547,0.789059 2.182812,1.486666 2.182812,1.550238 0,0.06358 -17.264063,0.115588 -38.3645854,0.115588 -21.1005226,0 -38.3645856,-0.04859 -38.3645856,-0.107978 z"
       id="path91675" /><path
       style="fill:#e98430;stroke-width:0.264583"
       d="m -14.24162,46.453034 c -3.251021,-0.40749 -7.812305,-1.69521 -11.359207,-3.206875 -6.06393,-2.584405 -7.299214,-2.826718 -14.424869,-2.829584 l -4.970664,-0.002 -1.588157,-2.447396 C -56.057218,23.36946 -59.298796,5.2148645 -55.513339,-12.039071 l 0.565975,-2.579687 10.078459,-0.0092 c 12.771192,-0.01169 12.3843,0.0503 20.397206,-3.268544 9.938399,-4.116358 22.076187,-4.116358 32.0145858,0 8.0859982,3.349117 7.4799332,3.256968 21.4973972,3.268544 11.058124,0.0091 11.178647,0.01503 11.178647,0.546896 0,1.685264 1.855226,3.882512 4.210452,4.986674 4.961224,2.3258914 12.722882,-0.7162535 12.722882,-4.986671 0,-0.527622 0.137589,-0.537665 7.364598,-0.537665 h 7.364598 l 0.572987,2.579687 c 3.777409,17.0065871 0.471416,35.515184 -8.932074,50.006253 l -1.588157,2.447396 H 50.018241 c -11.802368,0 -11.915977,0.0051 -11.915977,0.537665 0,3.244583 -4.131911,5.68788 -7.347075,4.344498 C 29.010386,44.56775 27.51893,42.627462 27.51893,41.086611 v -0.671999 l -4.828646,0.0092 c -6.848685,0.0131 -7.764842,0.210783 -15.1473972,3.268543 -6.400422,2.650972 -14.4854569,3.675563 -21.7845068,2.760681 z m 0.34231,-77.44412 c -3.927748,-1.78413 -4.014682,-7.427891 -0.145878,-9.470382 3.228094,-1.704232 7.284683,0.473387 7.6329065,4.097425 0.311748,3.244406 -2.0207051,5.858664 -5.2271245,5.858664 -0.654844,0 -1.671802,-0.21857 -2.259904,-0.485707 z"
       id="path91673" /><path
       style="fill:#ee6a06;stroke-width:0.264583"
       d="m -12.036281,46.605836 c -5.1898,-0.529945 -9.246749,-1.600454 -14.379073,-3.794213 -5.086708,-2.174261 -6.291623,-2.397045 -12.964185,-2.397045 h -5.54296 l -1.672008,-2.579688 c -2.61359,-4.032422 -6.849068,-12.735275 -6.849068,-14.073125 0,-0.184777 1.312981,-0.280521 3.846886,-0.280521 10.078366,0 15.698918,1.681567 22.548197,6.746018 10.992888,8.128286 25.8989109,8.042804 37.465482,-0.214855 5.164627,-3.687157 10.155809,-5.666592 15.779023,-6.257748 3.531995,-0.371314 44.185419,-0.364776 44.185419,0.0071 0,1.339591 -4.273611,10.096106 -6.924701,14.188531 l -1.596375,2.464271 H 50.002334 38.144309 l -0.182079,0.859895 c -1.189908,5.619521 -8.822836,5.777823 -10.23552,0.212281 l -0.272148,-1.072176 h -5.273398 c -6.376006,0 -7.65039,0.240932 -12.7069457,2.40234 -7.1144743,3.041057 -15.0851192,4.445029 -21.5104993,3.788918 z m 1.058333,-21.168192 c -7.087505,-1.043564 -12.523005,-4.909743 -14.00292,-9.960047 -0.122751,-0.418893 -0.591513,-0.463021 -4.918512,-0.463021 -5.391986,0 -6.081694,-0.240045 -6.081694,-2.116666 0,-1.876621 0.689708,-2.116667 6.081694,-2.116667 4.326999,0 4.795761,-0.04413 4.918512,-0.463021 3.874106,-13.2206343 29.1588182,-13.2206343 33.0329243,0 0.1264391,0.431485 0.8938922,0.463021 11.2685127,0.463021 H 30.4534 l 0.64943,0.649433 c 0.859195,0.859192 0.859195,2.075275 0,2.934467 L 30.4534,15.014576 H 19.320569 c -10.3746205,0 -11.1420736,0.03154 -11.2685127,0.463021 -1.8716335,6.387066 -10.9666756,11.147288 -19.0300043,9.960047 z m -32.82036,-11.072501 c -1.312387,-1.312383 -0.382434,-3.5839 1.467233,-3.5839 1.087729,0 2.116667,1.028938 2.116667,2.116667 0,1.087728 -1.028938,2.116666 -2.116667,2.116666 -0.515506,0 -1.057862,-0.240059 -1.467233,-0.649433 z m 80.433338,0 c -0.409374,-0.409371 -0.649433,-0.951727 -0.649433,-1.467233 0,-0.515507 0.240059,-1.057863 0.649433,-1.467234 0.409371,-0.409374 0.951728,-0.649433 1.467234,-0.649433 0.515506,0 1.057862,0.240059 1.467234,0.649433 0.409373,0.409371 0.649433,0.951727 0.649433,1.467234 0,0.515506 -0.24006,1.057862 -0.649433,1.467233 -0.409372,0.409374 -0.951728,0.649433 -1.467234,0.649433 -0.515506,0 -1.057863,-0.240059 -1.467234,-0.649433 z m 8.466667,0 c -0.409374,-0.409371 -0.649433,-0.951727 -0.649433,-1.467233 0,-1.897155 0.658535,-2.116667 6.350001,-2.116667 5.691465,0 6.35,0.219512 6.35,2.116667 0,1.897155 -0.658535,2.116666 -6.35,2.116666 -5.010159,0 -5.056405,-0.0053 -5.700568,-0.649433 z M -57.018524,-0.63241158 c 0.215747,-3.65074482 1.03093,-9.48278642 1.677595,-12.00197142 l 0.475422,-1.852083 11.228155,-0.148839 c 12.328444,-0.163425 11.999842,-0.123751 16.155145,-1.950519 13.32923,-5.859847 24.676813,-5.840146 38.200094,0.06632 4.227616,1.846463 4.73728,1.900748 17.845462,1.900748 h 11.655582 l 0.0044,0.727604 c 0.01101,1.839304 2.154743,4.0459609 4.948037,5.0932532 4.938607,1.8516443 11.980932,-1.1772821 11.980932,-5.1530442 v -0.676185 l 7.325006,0.07033 7.325006,0.07033 0.346469,1.322916 c 0.859489,3.2817783 1.936853,11.5512461 1.936853,14.8666024 V 2.3376 L 49.545494,2.24013 C 27.597125,2.1529525 24.809784,2.0952945 23.153304,1.6941862 18.20149,0.49513416 14.389346,-1.2469276 10.585595,-4.0489657 -0.95959174,-12.553741 -16.041869,-12.568274 -27.470425,-4.085637 -34.102601,0.83697584 -38.31085,2.0416979 -49.565189,2.2395639 l -7.630988,0.1341649 z m 43.04598,-30.54838242 c -3.060097,-1.524913 -3.829413,-5.372897 -1.585204,-7.928912 2.130645,-2.426672 5.263206,-2.544234 7.525031,-0.282409 4.2024197,4.202422 -0.6164289,10.864081 -5.939827,8.211321 z"
       id="path91671" /><path
       style="fill:#d25f10;stroke-width:0.264583"
       d="m 31.446045,45.461926 c -3.727961,-1.198161 -5.04924,-5.52947 -2.55379,-8.371629 4.219337,-4.805559 11.462973,0.465796 8.330386,6.062205 -0.993085,1.774161 -3.867058,2.923146 -5.776596,2.309424 z M -10.977948,25.437644 c -7.087505,-1.043564 -12.523005,-4.909743 -14.00292,-9.960047 -0.122751,-0.418893 -0.591513,-0.463021 -4.918512,-0.463021 -5.391986,0 -6.081694,-0.240045 -6.081694,-2.116666 0,-1.876621 0.689708,-2.116667 6.081694,-2.116667 4.326999,0 4.795761,-0.04413 4.918512,-0.463021 3.874106,-13.2206343 29.1588182,-13.2206343 33.0329243,0 0.1264391,0.431485 0.8938922,0.463021 11.2685127,0.463021 H 30.4534 l 0.64943,0.649433 c 0.859195,0.859192 0.859195,2.075275 0,2.934467 L 30.4534,15.014576 H 19.320569 c -10.3746205,0 -11.1420736,0.03154 -11.2685127,0.463021 -1.8716335,6.387066 -10.9666756,11.147288 -19.0300043,9.960047 z m -32.82036,-11.072501 c -1.312387,-1.312383 -0.382434,-3.5839 1.467233,-3.5839 1.087729,0 2.116667,1.028938 2.116667,2.116667 0,1.087728 -1.028938,2.116666 -2.116667,2.116666 -0.515506,0 -1.057862,-0.240059 -1.467233,-0.649433 z m 80.433338,0 c -0.409374,-0.409371 -0.649433,-0.951727 -0.649433,-1.467233 0,-0.515507 0.240059,-1.057863 0.649433,-1.467234 0.409371,-0.409374 0.951728,-0.649433 1.467234,-0.649433 0.515506,0 1.057862,0.240059 1.467234,0.649433 0.409373,0.409371 0.649433,0.951727 0.649433,1.467234 0,0.515506 -0.24006,1.057862 -0.649433,1.467233 -0.409372,0.409374 -0.951728,0.649433 -1.467234,0.649433 -0.515506,0 -1.057863,-0.240059 -1.467234,-0.649433 z m 8.466667,0 c -0.409374,-0.409371 -0.649433,-0.951727 -0.649433,-1.467233 0,-1.897155 0.658535,-2.116667 6.350001,-2.116667 5.691465,0 6.35,0.219512 6.35,2.116667 0,1.897155 -0.658535,2.116666 -6.35,2.116666 -5.010159,0 -5.056405,-0.0053 -5.700568,-0.649433 z"
       id="path91669" /></g></svg>
