<?xml version="1.0" encoding="UTF-8" standalone="no"?>
<!-- Created with Inkscape (http://www.inkscape.org/) -->

<svg
   width="7.2321mm"
   height="7.2352mm"
   version="1.1"
   viewBox="0 0 7.2321 7.2352"
   xml:space="preserve"
   id="svg91269"
   sodipodi:docname="mars-cycle.svg"
   inkscape:version="1.2.2 (b0a8486541, 2022-12-01)"
   xmlns:inkscape="http://www.inkscape.org/namespaces/inkscape"
   xmlns:sodipodi="http://sodipodi.sourceforge.net/DTD/sodipodi-0.dtd"
   xmlns="http://www.w3.org/2000/svg"
   xmlns:svg="http://www.w3.org/2000/svg"><defs
     id="defs91273" /><sodipodi:namedview
     id="namedview91271"
     pagecolor="#ffffff"
     bordercolor="#000000"
     borderopacity="0.25"
     inkscape:showpageshadow="2"
     inkscape:pageopacity="0.0"
     inkscape:pagecheckerboard="0"
     inkscape:deskcolor="#d1d1d1"
     inkscape:document-units="mm"
     showgrid="false"
     inkscape:zoom="6.3919385"
     inkscape:cx="39.268212"
     inkscape:cy="41.614918"
     inkscape:window-width="1503"
     inkscape:window-height="934"
     inkscape:window-x="0"
     inkscape:window-y="0"
     inkscape:window-maximized="1"
     inkscape:current-layer="svg91269" /><path
     d="m 163.5541,-40.43212 c -0.18887,0.02289 -0.36678,0.07604 -0.52463,0.186188 -0.1074,0.07493 -0.20277,0.167532 -0.27624,0.276383 -0.31205,0.462366 -0.21163,1.103931 0.22893,1.447322 0.10857,0.08462 0.23341,0.145487 0.36554,0.183084 0.13173,0.03748 0.27252,0.04812 0.40851,0.03248 0.15653,-0.018 0.30916,-0.06979 0.44294,-0.153267 0.11026,-0.06881 0.20638,-0.154831 0.28525,-0.258251 0.36397,-0.477247 0.25351,-1.175612 -0.23365,-1.522906 -0.10167,-0.07248 -0.21856,-0.127398 -0.33971,-0.157961 -0.11401,-0.02876 -0.2392,-0.04735 -0.35692,-0.03308 z"
     fill="#cf3e35"
     id="path91265"
     style="stroke-width:0.319999" /><g
     id="g92619"
     transform="matrix(0.04330369,0,0,0.04330369,2.8583537,3.8367233)"><path
       style="fill:#ed4035;stroke-width:0.264583"
       d="m 12.967273,61.848077 c -9.7228155,-1.156044 -16.8548865,-3.27515 -24.471465,-7.27105 -22.43565,-11.77045 -35.989171,-35.15232 -35.100237,-60.5532078 0.372933,-10.6563692 2.907866,-19.8546252 8.057234,-29.2364592 3.295208,-6.003669 6.092827,-9.673593 11.402604,-14.957955 12.342389,-12.283316 28.6909421,-19.041005 46.064989,-19.041005 10.450242,0 20.115576,2.291544 29.46725,6.98636 14.084652,7.070911 25.091463,18.860133 31.08218,33.291631 2.393273,5.765337 3.975603,11.856072 4.701543,18.097249 C 84.739069,-5.9556412 84.553125,2.317536 83.77372,6.8561114 81.398537,20.687148 74.881265,33.360682 65.193153,42.988015 54.860819,53.255524 41.005641,59.918394 26.445311,61.621607 c -3.054768,0.357335 -11.223063,0.494585 -13.478038,0.22647 z"
       id="path92627" /><path
       style="fill:#d33d35;stroke-width:0.264583"
       d="M 11.926082,61.730144 C -0.27006365,60.445145 -12.571437,55.335733 -22.222309,47.546511 -27.664275,43.1543 -33.0905,36.997864 -36.787391,31.021395 c -1.725329,-2.789204 -3.957325,-7.053988 -3.782981,-7.228333 0.0639,-0.0639 1.30133,0.01127 2.749833,0.167037 5.233996,0.562867 10.037741,2.222225 12.461364,4.304533 0.603057,0.518128 2.15087,2.212962 3.439584,3.766296 5.400719,6.509692 12.2660031,11.242612 18.3680565,12.662925 6.6271931,1.542542 8.5139924,2.251326 11.6348717,4.370673 1.5814463,1.073941 1.7546611,1.128736 3.4073328,1.077878 5.751809,-0.177001 13.722612,-1.976445 20.259518,-4.573683 3.414456,-1.356627 8.947489,-4.209955 8.677677,-4.474988 C 39.993581,40.667138 34.179259,38.181205 31.267499,37.177188 26.818588,35.643139 22.734797,34.805952 18.220493,34.502523 12.072923,34.089313 7.8788487,32.736342 3.4213314,29.728439 -0.74685339,26.915778 -3.8609621,23.133152 -6.4848825,17.695623 -8.7281363,13.046944 -9.8567853,12.118105 -16.618035,9.3563949 c -4.389763,-1.7930496 -6.603674,-3.904721 -8.827354,-8.41970347 -2.232403,-4.53269633 -5.210257,-6.93078183 -10.27067,-8.27103673 -1.704202,-0.4513607 -2.954435,-0.5669942 -6.415891,-0.5934075 l -4.299225,-0.032803 -2.54e-4,-0.9830911 c -8.47e-4,-3.2227891 1.854155,-12.0155841 3.486756,-16.5274951 l 0.787675,-2.176851 1.368388,0.539242 c 4.763357,1.877102 11.72846,5.72263 15.788176,8.716872 3.479292,2.566149 7.736276,7.016655 10.271696,10.7386474 3.558868,5.2244124 7.2210108,8.57250826 12.2078905,11.1610065 C 4.6955991,7.253558 11.962901,8.7359418 24.344356,8.9877378 34.672149,9.1977694 39.095638,9.7805644 44.200683,11.6038 c 5.457949,1.949276 9.603975,5.413272 11.734792,9.804395 1.717323,3.539006 2.084723,4.213823 2.340631,4.299125 0.296476,0.09883 3.540778,-4.407469 5.28575,-7.341833 2.128735,-3.57971 5.113102,-9.8918241 4.804066,-10.1608894 -0.0554,-0.048239 -1.529485,-0.65441 -3.275734,-1.3470495 C 59.083704,4.4751206 55.339744,2.2903104 50.179221,-1.8438255 45.03193,-5.9673622 42.309346,-7.5670755 38.316332,-8.8141282 l -2.33031,-0.7277735 -8.73125,0.070599 c -4.802187,0.03883 -10.338593,-0.061436 -12.303124,-0.2228163 -9.3964944,-0.77189 -15.61040308,-3.260654 -20.7747573,-8.320604 -2.4967035,-2.446232 -4.0551919,-4.567063 -7.0426947,-9.583889 -2.781951,-4.671645 -4.072583,-6.148665 -6.261806,-7.166118 -1.576118,-0.732504 -2.300925,-0.789665 -7.811704,-0.616053 -1.544709,0.04866 -2.503164,-0.07851 -3.770672,-0.500309 -1.706899,-0.568018 -4.764635,-2.575716 -5.048176,-3.31461 -0.294246,-0.766789 3.407061,-5.67449 7.444912,-9.871493 2.089933,-2.172309 6.253911,-5.843884 8.48497,-7.481602 0.165891,-0.121772 0.895033,0.584946 1.8142,1.758405 1.937989,2.474137 5.62959,6.04539 7.698494,7.447513 4.3043394,2.917105 6.2629333,3.421285 18.3880674,4.733433 2.2555726,0.244091 4.9940106,0.668687 6.0854166,0.943544 4.559178,1.148172 7.981664,3.648578 10.78735,7.881046 1.894017,2.857185 3.195011,4.282813 5.21625,5.715969 5.157189,3.656695 10.350182,4.920602 22.22869,5.410179 4.966308,0.204687 6.170411,0.338772 8.202083,0.913355 3.007968,0.850693 7.09332,2.440752 9.911069,3.857487 1.200227,0.603465 2.225196,1.054238 2.277711,1.001723 0.165044,-0.165044 -0.399913,-6.283804 -0.82382,-8.92238 -0.431057,-2.683081 -1.102125,-5.580375 -1.995297,-8.614582 l -0.546436,-1.856298 -2.42724,-0.763456 c -1.334979,-0.419901 -3.736925,-1.441151 -5.337654,-2.269445 -3.293244,-1.70408 -3.999862,-1.912988 -8.913693,-2.63526 -6.294228,-0.925177 -8.200707,-1.990501 -10.406803,-5.815219 -2.85216,-4.944801 -6.001358,-6.603286 -12.826377,-6.754837 -3.180244,-0.07062 -3.843523,-0.170413 -6.049439,-0.910183 -3.837924,-1.287076 -8.099983,-3.093046 -11.148477,-4.723965 -2.6056488,-1.393999 -7.9293801,-4.853314 -9.6180223,-6.249707 l -0.7544779,-0.623904 1.9451028,-0.441194 c 22.4385944,-5.089575 45.3638164,1.428483 61.4607214,17.474402 7.657108,7.632854 13.529783,17.55057 16.506732,27.876406 2.360097,8.186219 3.267633,17.6516041 2.42266,25.2677098 C 82.326206,20.658932 73.379385,36.965135 59.784424,47.775921 51.342031,54.48936 40.491506,59.334776 30.032897,61.061777 24.32838,62.003747 17.066912,62.271786 11.926082,61.730144 Z M 61.253729,36.621738 v -2.116667 h -2.116666 -2.116667 v 2.116667 2.116666 h 2.116667 2.116666 z M 10.453731,-22.644931 v -2.116667 H 8.3370647 6.2203981 v 2.116667 2.116666 h 2.1166666 2.1166663 z m -44.449998,35.983334 v -2.116666 h 2.116667 2.116666 v 2.116666 2.116667 h -2.116666 -2.116667 z m 50.799998,-63.500002 v -2.116667 h 2.116667 2.116666 v 2.116667 2.116666 h -2.116666 -2.116667 z"
       id="path92625" /><path
       style="fill:#bc3b35;stroke-width:0.264583"
       d="M 13.496439,61.85163 C -9.5204681,59.599354 -28.481229,46.925936 -39.23666,26.604705 l -1.464257,-2.76656 2.224524,0.185518 c 2.80711,0.234103 6.19932,0.972105 8.555257,1.861264 3.294144,1.243248 4.804661,2.368889 7.16245,5.337477 2.468793,3.108346 7.17918,7.506512 10.176288,9.501767 3.1070043,2.068418 6.1329432,3.427574 9.2414586,4.150972 6.3059255,1.467482 8.8998104,2.468229 11.8094491,4.556204 1.5196449,1.090504 1.6238593,1.099701 6.2846633,0.554495 6.015834,-0.703709 11.023931,-1.951932 16.602641,-4.138057 3.540236,-1.387308 9.030673,-4.147172 9.181756,-4.61537 0.05042,-0.156263 -1.143302,-0.838494 -2.652723,-1.516071 C 30.355837,36.336588 25.183508,34.904142 18.955757,34.474038 10.720669,33.9053 5.1603582,31.668407 0.08836737,26.883745 -2.5294518,24.414227 -4.1217539,22.167856 -6.1345054,18.104703 -8.6224723,13.082236 -10.081049,11.756759 -15.268504,9.8042049 -20.521343,7.8270423 -22.986413,5.662785 -25.256236,1.0352778 c -2.249606,-4.5862903 -5.035457,-6.958317 -9.800248,-8.3444771 -1.583267,-0.4605999 -2.928223,-0.604184 -6.678845,-0.7130151 -4.570551,-0.132625 -4.696316,-0.1513443 -4.69492,-0.6987672 0.0075,-2.9584364 2.117885,-12.8419494 3.581926,-16.7754674 0.829855,-2.22962 0.439513,-2.194182 4.486431,-0.407329 8.243832,3.639934 15.967501,8.951603 20.157421,13.862529 0.797467,0.934694 2.297099,2.9495993 3.332517,4.4775681 6.0943168,8.9933969 14.71443351,13.9674659 27.56873,15.9080048 2.443065,0.3688133 5.908786,0.5896902 11.912163,0.7591822 4.868047,0.1374405 9.700442,0.4142264 11.369439,0.6512137 7.361597,1.0453052 12.879572,3.3839362 16.480348,6.9847122 1.82726,1.82726 2.649791,3.074945 4.296417,6.517161 l 1.39047,2.906734 0.920764,-1.05465 c 1.465196,-1.678247 4.923758,-7.029133 6.396571,-9.896394 1.123934,-2.18807 3.199114,-6.745494 3.199114,-7.0257592 0,-0.042849 -1.43384,-0.6386539 -3.18631,-1.3240121 C 59.302454,4.4482575 54.667809,1.7650093 50.14123,-2.0154766 45.443762,-5.938684 41.406247,-8.1929553 37.352833,-9.1556391 35.326114,-9.6369824 34.246958,-9.6840782 25.631435,-9.667174 13.951959,-9.6442611 10.787379,-9.9266985 5.6912315,-11.446849 c -4.4410311,-1.324734 -7.8639138,-3.275468 -11.0940105,-6.322576 -2.4778678,-2.337496 -4.5324473,-5.093158 -7.353837,-9.863183 -2.601391,-4.398082 -4.04346,-6.093164 -5.993159,-7.044669 -2.048163,-0.999562 -3.644228,-1.223246 -6.186844,-0.867071 -3.773273,0.528566 -7.143885,-0.443651 -9.764855,-2.81657 l -1.252699,-1.134141 1.262724,-1.76955 c 2.356114,-3.301799 4.522287,-5.846437 7.461125,-8.764699 2.769225,-2.749838 7.036935,-6.35 7.527428,-6.35 0.123441,0 1.165391,1.136158 2.315445,2.524795 3.479461,4.201292 7.4729389,7.372371 11.280539,8.957479 2.1337878,0.888299 4.8909206,1.408549 10.6075185,2.00156 5.5915585,0.580038 9.1506325,1.150385 11.0578715,1.772031 4.03004,1.313559 6.798643,3.559728 9.551376,7.749043 2.46031,3.744286 4.617987,5.620533 8.690866,7.557305 4.253642,2.022726 10.712762,3.172164 17.825584,3.172164 2.176886,0 4.718352,0.170465 6.087039,0.408283 3.197455,0.555572 7.950165,2.181408 11.899949,4.070803 l 3.282104,1.570006 v -1.276721 c 0,-4.017346 -1.426044,-12.30952 -2.816162,-16.375449 l -0.755713,-2.210369 -2.645834,-0.856163 c -1.455208,-0.470889 -3.95552,-1.53656 -5.556249,-2.368156 -3.039761,-1.579186 -2.969035,-1.560385 -10.04507,-2.670392 -4.637199,-0.727429 -6.54385,-1.986177 -8.899975,-5.875647 -1.293897,-2.135949 -3.06956,-3.984056 -4.579807,-4.766649 -2.257603,-1.169863 -3.70163,-1.474488 -7.412106,-1.563629 -3.228078,-0.07755 -4.015261,-0.190707 -6.35,-0.912791 -6.940971,-2.1467 -13.406101,-5.406006 -19.3112993,-9.735527 -2.7550161,-2.019899 -3.0134585,-1.747264 2.6620708,-2.808247 13.7642595,-2.573091 27.7877655,-0.611025 40.7318565,5.698902 3.912417,1.907207 9.363371,5.390761 12.939746,8.269433 4.603642,3.705535 10.635512,10.616111 13.899367,15.924187 1.507431,2.451568 4.449482,8.622517 5.639469,11.828778 2.525432,6.804446 4.135416,15.685651 4.138916,22.83164 0.0085,17.390497 -7.481289,34.880853 -20.19593,47.161978 -9.834208,9.4989 -23.009923,15.804593 -36.943791,17.680724 -2.731516,0.367787 -11.810862,0.675844 -13.898446,0.471567 z m 47.75729,-25.229892 v -2.116667 h -2.116666 -2.116667 v 2.116667 2.116666 h 2.116667 2.116666 z M 10.453731,-22.644931 v -2.116667 H 8.3370647 6.2203981 v 2.116667 2.116666 h 2.1166666 2.1166663 z m -44.449998,35.983334 v -2.116666 h 2.116667 2.116666 v 2.116666 2.116667 h -2.116666 -2.116667 z m 50.799998,-63.500002 v -2.116667 h 2.116667 2.116666 v 2.116667 2.116666 h -2.116666 -2.116667 z"
       id="path92623" /><path
       style="fill:#a23b35;stroke-width:0.264583"
       d="M 13.099565,61.719635 C 2.4504773,60.7445 -7.9918089,57.096895 -16.939686,51.226595 c -4.272322,-2.802879 -6.844583,-4.888291 -10.324571,-8.370456 -2.658215,-2.659875 -5.664763,-6.050016 -5.012218,-5.651704 0.14552,0.08883 1.604988,1.057288 3.243265,2.152137 5.225711,3.492312 12.377612,6.81518 18.187984,8.450374 5.7381003,1.614858 9.88531954,2.250241 16.2281914,2.486276 l 4.5865255,0.170677 1.5547151,1.847004 c 0.855097,1.015852 2.024002,2.753164 2.597574,3.860692 1.39483,2.693334 2.335873,5.931291 1.689764,5.814174 -0.109141,-0.01979 -1.329532,-0.139544 -2.711979,-0.266134 z M 52.961421,50.283345 C 50.747858,47.692341 46.287296,44.203482 42.515412,42.112922 l -1.657887,-0.91888 2.988207,-1.998279 c 4.734266,-3.165906 10.532196,-8.35225 13.60054,-12.16591 l 0.798875,-0.992923 1.420199,2.034088 c 1.62406,2.326066 6.216014,7.180318 8.348998,8.825902 0.792808,0.611648 1.441468,1.220891 1.441468,1.353876 0,0.592209 -8.064785,8.24611 -11.03286,10.470756 -4.479686,3.357639 -4.035747,3.23069 -5.461531,1.561793 z m 8.292308,-13.661607 v -2.116667 h -2.116666 -2.116667 v 2.116667 2.116666 h 2.116667 2.116666 z M 78.592065,10.94394 c -3.650464,-0.868246 -9.437216,-2.57202 -9.73742,-2.8669564 -0.112364,-0.1103894 0.0842,-0.9671659 0.4368,-1.903947 0.907841,-2.41191 2.457466,-8.8556442 2.944474,-12.2438694 0.227105,-1.5800283 0.486616,-4.5791282 0.576691,-6.6646662 l 0.163775,-3.79189 1.282512,0.649899 c 1.736404,0.879901 5.973288,3.772609 8.157432,5.569434 1.775875,1.4609554 1.78667,1.4779337 1.953238,3.0715801 0.388774,3.7195867 0.02754,9.7315685 -0.902403,15.018629 -0.671973,3.8204009 -0.721371,3.9745739 -1.263037,3.9418789 -0.244853,-0.01479 -1.870281,-0.365821 -3.612062,-0.780092 z m -5.696669,-46.469146 c -1.67349,-0.364736 -3.181583,-0.800809 -3.351319,-0.969047 -0.169735,-0.168238 -0.72976,-1.404861 -1.244496,-2.748053 -1.369074,-3.572549 -4.152882,-8.902345 -6.427684,-12.306237 -1.094849,-1.638276 -2.064277,-3.097744 -2.154283,-3.243265 -0.468095,-0.756817 2.612559,1.985497 5.637157,5.018046 4.302627,4.313933 8.650253,10.017302 10.948545,14.362684 0.389022,0.735526 0.508871,0.73954 -3.40792,-0.114128 z"
       id="path92621" /></g></svg>
