<?xml version="1.0" encoding="UTF-8" standalone="no"?>
<!-- Created with Inkscape (http://www.inkscape.org/) -->

<svg
   width="7.2321mm"
   height="7.2352mm"
   version="1.1"
   viewBox="0 0 7.2321 7.2352"
   xml:space="preserve"
   id="svg91078"
   sodipodi:docname="saturn-cycle.svg"
   inkscape:version="1.2.2 (b0a8486541, 2022-12-01)"
   xmlns:inkscape="http://www.inkscape.org/namespaces/inkscape"
   xmlns:sodipodi="http://sodipodi.sourceforge.net/DTD/sodipodi-0.dtd"
   xmlns="http://www.w3.org/2000/svg"
   xmlns:svg="http://www.w3.org/2000/svg"><defs
     id="defs91082" /><sodipodi:namedview
     id="namedview91080"
     pagecolor="#ffffff"
     bordercolor="#000000"
     borderopacity="0.25"
     inkscape:showpageshadow="2"
     inkscape:pageopacity="0.0"
     inkscape:pagecheckerboard="0"
     inkscape:deskcolor="#d1d1d1"
     inkscape:document-units="mm"
     showgrid="false"
     inkscape:zoom="6.1025164"
     inkscape:cx="-8.5210751"
     inkscape:cy="18.844685"
     inkscape:window-width="1503"
     inkscape:window-height="934"
     inkscape:window-x="0"
     inkscape:window-y="0"
     inkscape:window-maximized="1"
     inkscape:current-layer="svg91078" /><g
     id="g91758"
     transform="matrix(0.39511196,0,0,0.39511196,19.229849,3.4140442)"><path
       style="fill:#8c6e63;fill-opacity:1;stroke-width:0.0306749"
       d="m -46.272653,8.2208413 c -0.533026,-0.1761 -0.755191,-0.611791 -0.684554,-1.342489 0.07837,-0.810723 0.637679,-2.078377 1.517531,-3.439449 l 0.193009,-0.298573 -0.10213,-0.268912 c -0.207813,-0.547178 -0.342673,-1.184122 -0.383301,-1.810322 -0.180175,-2.777087 1.476792,-5.362842 4.081681,-6.36961 1.108783,-0.428535 2.400722,-0.53982 3.552612,-0.306016 0.319104,0.06477 0.740568,0.186917 1.004442,0.291105 l 0.222234,0.08775 0.299239,-0.193434 c 1.357824,-0.877728 2.622448,-1.435451 3.443571,-1.51868 1.881882,-0.190747 1.844354,1.705234 -0.09382,4.739974 l -0.238683,0.373724 0.122385,0.347135 c 0.156217,0.443096 0.259748,0.86928997 0.317568,1.30729497 0.05313,0.402466 0.06008,1.22665603 0.01351,1.60199503 -0.139091,1.121067 -0.57676,2.199601 -1.259652,3.104113 -0.246435,0.326413 -0.890266,0.970244 -1.216679,1.216679 -0.776476,0.586227 -1.685043,0.99358 -2.644795,1.185788 -0.335413,0.06717 -0.528549,0.08586 -1.016293,0.09836 -0.896017,0.02295 -1.4661,-0.0595 -2.261535,-0.327077 l -0.440404,-0.14815 -0.538455,0.338216 c -0.944457,0.593233 -1.969417,1.081348 -2.660492,1.267002 -0.368525,0.099 -1.017923,0.132654 -1.226993,0.06358 z m 1.719016,-1.693508 c 0.291277,-0.07578 0.657633,-0.236411 1.055725,-0.462875 0.203187,-0.115588 0.369431,-0.218065 0.369431,-0.227727 0,-0.0097 -0.11074,-0.104794 -0.24609,-0.211405 -0.278167,-0.219105 -0.80998,-0.762201 -1.020171,-1.041817 l -0.14008,-0.186347 -0.20178,0.347482 c -0.44595,0.767961 -0.622372,1.354129 -0.490929,1.631126 0.09051,0.190741 0.322649,0.24295 0.673894,0.151563 z m 10.607967,-10.015117 c 0.226464,-0.398093 0.38709,-0.764449 0.462874,-1.055726 0.228587,-0.87857 -0.426143,-0.956475 -1.739211,-0.206947 -0.198219,0.113148 -0.360412,0.213352 -0.360429,0.222677 -1.7e-5,0.0093 0.120751,0.114798 0.268373,0.234385 0.306433,0.248238 0.790884,0.738614 0.986593,0.998662 0.07301,0.09701 0.141494,0.17638 0.152191,0.17638 0.0107,0 0.11402,-0.166244 0.229609,-0.369431 z"
       id="path91768" /><path
       style="fill:#fdca3c;stroke-width:0.0306749"
       d="m -40.014983,7.0036243 c -0.419055,-0.04747 -0.903337,-0.154212 -1.325882,-0.292255 -0.2231,-0.07288 -0.426446,-0.144164 -0.45188,-0.158398 -0.03485,-0.01951 0.05371,-0.09548 0.359624,-0.30849 2.715445,-1.890803 5.971118,-5.164779 7.771408,-7.815098 l 0.179947,-0.26491 0.03763,0.08711 c 0.09438,0.218469 0.266571,0.79349097 0.332314,1.10972597 0.233885,1.125023 0.1531,2.37822503 -0.220231,3.41641103 -0.32831,0.912989 -0.82885,1.701962 -1.513811,2.386137 -0.950215,0.949126 -2.069913,1.53204 -3.420656,1.780795 -0.389328,0.0717 -1.350017,0.104098 -1.748466,0.05897 z m -3.317652,-1.352513 c -0.665874,-0.52303 -1.370045,-1.394761 -1.739082,-2.152902 -0.421129,-0.865159 -0.62402,-1.680524 -0.655068,-2.63254603 -0.07388,-2.26543497 1.029519,-4.35772597 2.951065,-5.59586897 0.55662,-0.358657 1.383099,-0.702455 2.013007,-0.837369 0.629014,-0.134723 0.960679,-0.166067 1.575951,-0.148937 0.853219,0.02375 1.486001,0.156452 2.282134,0.478573 0.677817,0.274251 1.18857,0.60101 1.845615,1.180749 0.282382,0.249159 0.777494,0.793085 0.859371,0.944099 0.06643,0.122524 -1.067222,1.649685 -2.145901,2.89077697 -1.131889,1.30231603 -2.733899,2.89642603 -4.029176,4.00930903 -0.939751,0.807421 -2.043715,1.648944 -2.605155,1.985842 l -0.112129,0.06728 z"
       id="path91766" /><path
       style="fill:#f1ae59;stroke-width:0.0306749"
       d="m -40.014983,7.0030583 c -0.415281,-0.04608 -0.901509,-0.153049 -1.325882,-0.291689 -0.2231,-0.07288 -0.426446,-0.144164 -0.45188,-0.158398 -0.03485,-0.01951 0.05371,-0.09548 0.359624,-0.30849 2.715445,-1.890803 5.971118,-5.164779 7.771408,-7.815098 l 0.179947,-0.26491 0.03763,0.08711 c 0.0207,0.04791 0.08767,0.238955 0.148824,0.424538 0.225447,0.68414297 0.338532,1.46639397 0.314845,2.17789297 l -0.01286,0.38629803 -2.888713,2.888713 -2.888714,2.888714 -0.499417,0.0063 c -0.274679,0.0035 -0.609846,-0.006 -0.744815,-0.02096 z m -3.317652,-1.351947 c -0.470895,-0.369878 -1.10613,-1.081322 -1.439243,-1.611909 -0.180962,-0.28824 -0.432625,-0.793545 -0.521322,-1.046743 l -0.05682,-0.162194 4.078516,-4.078604 c 2.243185,-2.243232 4.094618,-4.078604 4.114296,-4.078604 0.08298,0 0.663228,0.260251 0.963731,0.432252 0.384134,0.21987 0.692345,0.447403 1.134461,0.837501 0.282382,0.249159 0.777494,0.793085 0.859371,0.944099 0.06643,0.122524 -1.067222,1.649685 -2.145901,2.89077697 -1.131889,1.30231603 -2.733899,2.89642603 -4.029176,4.00930903 -0.939751,0.807421 -2.043715,1.648944 -2.605155,1.985842 l -0.112129,0.06728 z m 8.27164,-0.284112 c 0,-0.0064 0.02416,-0.03053 0.05368,-0.05368 0.04865,-0.03816 0.04974,-0.03707 0.01158,0.01158 -0.04007,0.0511 -0.06526,0.06735 -0.06526,0.0421 z m 0.337423,-0.337423 c 0,-0.0064 0.02416,-0.03053 0.05368,-0.05368 0.04865,-0.03816 0.04974,-0.03707 0.01158,0.01158 -0.04007,0.0511 -0.06526,0.06735 -0.06526,0.0421 z m -10.966511,-5.14179403 c 0.04374,-0.362857 0.172277,-0.92316897 0.29218,-1.27366097 0.76559,-2.237923 2.662611,-3.855766 4.980003,-4.247112 0.215041,-0.03632 0.404042,-0.06167 0.420002,-0.05635 0.01596,0.0053 -1.262828,1.30031 -2.841752,2.877756 l -2.870771,2.86808297 z m 4.925792,-3.08695897 c -0.125862,-0.160008 -0.08638,-0.22454 0.480737,-0.785741 0.436516,-0.431962 0.462808,-0.452454 0.580535,-0.452454 0.153543,0 0.237116,0.08204 0.237116,0.232763 0,0.09728 -0.04448,0.151555 -0.488905,0.596634 -0.475956,0.476655 -0.492307,0.489622 -0.617405,0.489622 -0.102287,0 -0.141472,-0.01649 -0.192078,-0.08082 z m 0.881593,-2.516818 c 0.02214,-0.0089 0.0486,-0.0078 0.05879,0.0024 0.01019,0.01019 -0.0079,0.01744 -0.04026,0.01611 -0.03574,-0.0015 -0.043,-0.0087 -0.01853,-0.01853 z"
       id="path91764" /><path
       style="fill:#baa9a2;fill-opacity:1;stroke-width:0.0306749"
       d="m -39.921008,7.0019243 c -0.551764,-0.05254 -1.384331,-0.253429 -1.807175,-0.436058 l -0.08743,-0.03776 0.286819,-0.197778 c 2.062493,-1.422212 4.53319,-3.722318 6.394809,-5.95327703 0.480568,-0.57591 0.893418,-1.110044 1.32303,-1.71169697 0.176471,-0.247141 0.324732,-0.453529 0.329467,-0.45864 0.01819,-0.01963 0.20909,0.546318 0.292844,0.86818897 0.14206,0.545948 0.191432,0.949238 0.194403,1.587964 l 0.0027,0.57569403 -2.882875,2.882353 -2.882875,2.882352 -0.429448,0.01384 c -0.236196,0.0076 -0.566606,7.77e-4 -0.734245,-0.01518 z m -3.365361,-1.323535 c -0.818258,-0.653005 -1.542557,-1.597707 -1.915555,-2.498454 l -0.14578,-0.352042 4.082197,-4.082197 4.082197,-4.082197 0.317293,0.128142 c 0.929425,0.375361 2.030895,1.228893 2.599129,2.014072 l 0.08934,0.123452 -0.215527,0.321333 c -1.772099,2.64204597 -5.222916,6.148486 -7.953199,8.081398 -0.219325,0.155272 -0.476725,0.331745 -0.571998,0.392161 l -0.173226,0.109849 z m -2.404636,-5.71392003 c 0.0084,-0.05061 0.02996,-0.195552 0.04798,-0.322086 0.14381,-1.00984497 0.67958,-2.20779397 1.344243,-3.00564197 0.911803,-1.09451 2.057788,-1.820411 3.41838,-2.165304 0.258904,-0.06563 0.882245,-0.172131 0.902518,-0.154202 0.0035,0.0031 -1.283898,1.295735 -2.860956,2.872469 -2.325116,2.32464097 -2.864499,2.84938697 -2.852162,2.77476497 z m 4.926714,-3.16364597 c -0.125862,-0.160008 -0.08638,-0.22454 0.480737,-0.785741 0.436516,-0.431962 0.462808,-0.452454 0.580535,-0.452454 0.153543,0 0.237116,0.08204 0.237116,0.232763 0,0.09728 -0.04448,0.151555 -0.488905,0.596634 -0.475956,0.476655 -0.492307,0.489622 -0.617405,0.489622 -0.102287,0 -0.141472,-0.01649 -0.192078,-0.08082 z"
       id="path91762" /><path
       style="fill:#e98431;stroke-width:0.0306749"
       d="m -43.35936,5.6125533 c -0.13452,-0.107512 -0.302996,-0.256169 -0.374393,-0.330349 l -0.129813,-0.134874 4.502339,-4.50226103 4.502339,-4.50226197 0.199924,0.208377 c 0.214275,0.223334 0.456865,0.532147 0.456865,0.581581 0,0.04381 -0.513582,0.792907 -0.83773,1.221888 -1.764058,2.33457797 -4.480917,5.051683 -6.815645,6.816264 -0.442478,0.334423 -1.178391,0.837112 -1.225495,0.837112 -0.0186,0 -0.143872,-0.08796 -0.278391,-0.195476 z m 5.753581,-1.148269 c -0.169739,-0.16974 -0.136231,-0.229999 0.45106,-0.811164 0.399857,-0.395686 0.469695,-0.452454 0.556631,-0.452454 0.134676,0 0.20576,0.04324 0.242004,0.147211 0.04934,0.141525 -0.01616,0.23493 -0.503952,0.718723 -0.523441,0.519146 -0.589208,0.554218 -0.745743,0.397684 z m -5.732181,-1.900121 c -0.06054,-0.05166 -0.07767,-0.109199 -0.07013,-0.235499 0.0043,-0.0726 0.901108,-0.982331 1.014729,-1.029394 0.167856,-0.06953 0.363346,0.09266 0.324557,0.269266 -0.01309,0.05961 -0.176099,0.24379 -0.503342,0.568732 -0.443245,0.440128 -0.493193,0.480576 -0.593448,0.480576 -0.06021,0 -0.137773,-0.02416 -0.172369,-0.05368 z"
       id="path91760" /></g></svg>
