<?xml version="1.0" encoding="UTF-8"?>
<!-- Created with Inkscape (http://www.inkscape.org/) -->
<svg width="9.0082mm" height="9.0037mm" version="1.1" viewBox="0 0 9.0082 9.0037" xmlns="http://www.w3.org/2000/svg">
 <g transform="translate(-29.173 -143.87)">
  <path d="m34.592 152.84c-0.14468-0.032-0.14824-0.0412-0.16459-0.42254-9e-3 -0.21441-0.055-0.49403-0.10177-0.62137-0.12331-0.33562-0.33432-1.1434-0.33553-1.2844-5.9e-4 -0.0704-0.0269-0.1122-0.063-0.10016-0.10329 0.0344-0.39014 0.48842-0.50806 0.80407-0.061 0.16344-0.19951 0.41368-0.3077 0.55608-0.28218 0.37143-0.49066 0.8401-0.4365 0.98126 0.0224 0.0584-0.19144 0.0596-0.37673 3e-3 -0.10683-0.0331 0.0694-0.42125 0.3764-0.8292 0.26064-0.34629 0.30419-0.44268 0.43682-0.96691 0.081-0.32025 0.13886-0.59073 0.12852-0.60108-0.0104-0.0104-0.24324 9e-3 -0.51752 0.044-0.57255 0.0721-0.8545 0.0457-1.2269-0.11443l-0.26399-0.11356-0.27817 0.28946c-0.15731 0.1637-0.27817 0.33701-0.27817 0.39889 0 0.0602 0.18207 0.33008 0.40492 0.60013 0.29826 0.36145 0.4237 0.55972 0.47627 0.75278 0.0393 0.14414 0.0901 0.27363 0.11289 0.28775 0.0982 0.0607 0.0279 0.12311-0.13871 0.12311-0.14828 0-0.18591-0.0226-0.2122-0.12733-0.0176-0.0701-0.0646-0.15444-0.10456-0.18757-0.04-0.0332-0.0726-0.10454-0.0726-0.15868 0-0.0986-0.64458-0.94353-0.8998-1.1795-0.1283-0.1186-0.18915-0.36638-0.09-0.36638 0.0252 0 0.0851-0.0599 0.13313-0.13324 0.0835-0.12737 0.0831-0.13099-9e-3 -0.0821-0.0525 0.0281-0.21565 0.17814-0.36248 0.3334-0.29417 0.31104-0.3031 0.33977-0.35521 1.143-0.0282 0.43525-0.0193 0.53582 0.0605 0.68404 0.0514 0.0956 0.0803 0.18709 0.064 0.20337-0.0163 0.0163-0.13758 7.9e-4 -0.26957-0.0346l-0.23998-0.0642 3e-3 -0.28699c8.5e-4 -0.15786 0.0234-0.39186 0.0491-0.52001 0.0258-0.12816 0.0635-0.47743 0.0838-0.77616l0.037-0.54313 0.25064-0.30117c0.43003-0.51674 0.43143-0.52265 0.27538-1.158-0.0741-0.30165-0.12233-0.58076-0.10718-0.62025 0.0417-0.10848-0.0747-0.32567-0.15734-0.29392-0.14365 0.0551-0.0659-0.0872 0.11471-0.20993 0.15042-0.10221 0.21554-0.11787 0.34082-0.082 0.10361 0.0297 0.27588 0.0171 0.52035-0.0381 0.30435-0.0687 0.43569-0.0729 0.7854-0.0246 0.23422 0.0323 1.0054 0.0548 1.7439 0.0507l1.324-8e-3 0.37362 0.17222c0.35546 0.16384 0.38634 0.16928 0.63471 0.11195 0.14359-0.0332 0.31484-0.0603 0.38054-0.0603 0.089 0 0.12658-0.0363 0.14741-0.1424 0.0385-0.19631-0.0183-0.23578-0.37681-0.26171-0.17088-0.0123-0.30015-0.0395-0.28726-0.0604 0.0129-0.0208-0.069-0.0656-0.18198-0.0995-0.18683-0.0559-0.28473-0.16095-0.15012-0.16095 0.0304 0 8e-3 -0.0665-0.05-0.14785-0.0579-0.0813-0.13365-0.25391-0.16832-0.38353-0.0552-0.2063-0.049-0.28702 0.05-0.64802 0.0622-0.22679 0.11302-0.4511 0.11302-0.49846 0-0.0474-0.0814-0.16751-0.18088-0.267-0.29888-0.29888-0.47817-0.73808-0.33693-0.82537 0.0285-0.0176 0.0518 6e-3 0.0518 0.0524 0 0.11407 0.28973 0.52828 0.41726 0.59653 0.16343 0.0875 0.1882 0.0264 0.13463-0.33207-0.0426-0.28482-0.037-0.3565 0.0367-0.46891 0.10891-0.16622 0.21379-0.17656 0.16408-0.0161-0.0735 0.2371-0.0808 0.32542-0.0329 0.39797 0.079 0.11968 0.1839-9e-3 0.28806-0.35286 0.0931-0.30756 0.29989-0.63077 0.36333-0.56794 0.0188 0.0186-0.0161 0.15071-0.0776 0.29359s-0.10386 0.3005-0.0942 0.35025c0.0212 0.10897 0.14699 0.16302 0.14699 0.0631 0-0.0576 0.14601-0.21558 0.32585-0.35242 0.0187-0.0143 0.0963 0.0951 0.17254 0.24293 0.0762 0.14784 0.20832 0.34524 0.29364 0.43866l0.15513 0.16984 0.0453-0.12254c0.0249-0.0674 0.0323-0.16359 0.0164-0.21377-0.0399-0.12567 0.0772-0.5669 0.1504-0.5669 0.0414 0 0.0536 0.1187 0.04 0.38835-0.0196 0.38887 0.0173 0.46713 0.14658 0.31125 0.0412-0.0496 0.0515-0.14369 0.0289-0.26433-0.0406-0.21641 0.0576-0.22863 0.16244-0.0202 0.0491 0.0976 0.0456 0.15905-0.0177 0.30659-0.13647 0.31859-0.13681 0.34413-3e-3 0.1845 0.0719-0.0854 0.14712-0.13908 0.16717-0.11921 0.07 0.0693-0.18294 0.48661-0.65169 1.0754-0.45839 0.57578-0.72176 1.0013-0.72176 1.1662 0 0.0443 0.0556 0.10585 0.12356 0.13681 0.10287 0.0468 0.16359 0.0328 0.36246-0.0837 0.13855-0.0812 0.2427-0.18143 0.24795-0.23864 5e-3 -0.0542 0.0131-0.16593 0.0181-0.24818 0.0201-0.33065 0.17994-0.45356 0.17994-0.13831 0 0.19073 0.0735 0.28562 0.1224 0.1581 0.0571-0.14884 0.13042-0.0814 0.0847 0.078-0.0471 0.16432-0.0117 0.19773 0.0963 0.0906 0.0523-0.052 0.0587-0.0442 0.032 0.0389-0.0326 0.10157-0.0316 0.10165 0.0479 4e-3 0.0731-0.0896 0.0901-0.0917 0.17251-0.0208 0.18058 0.15516 0.21958 0.15611 0.27895 7e-3 0.0406-0.10227 0.0656-0.12242 0.0842-0.0678 0.0145 0.0427 0.0739 0.13001 0.13211 0.19397 0.0582 0.0639 0.096 0.12346 0.084 0.13222-0.012 9e-3 -0.1164 0.057-0.23206 0.10722-0.11565 0.0502-0.34684 0.22955-0.51376 0.39852-0.16692 0.16898-0.34746 0.30723-0.4012 0.30723-0.16198 0-0.0655 0.0781 0.47387 0.38349 0.28408 0.16085 0.52349 0.33161 0.53436 0.38114 0.0315 0.14359-0.0723 0.32424-0.23435 0.40808-0.13418 0.0694-0.15944 0.0689-0.23995-4e-3 -0.11868-0.1074-0.56952-0.10685-0.82136 8.5e-4 -0.10588 0.0453-0.30902 0.11717-0.45142 0.15961-0.14239 0.0424-0.38087 0.14515-0.52996 0.22824-0.14908 0.0831-0.29574 0.15107-0.32589 0.15107-0.0302 0-0.19212 0.11067-0.35992 0.24595-0.16779 0.13527-0.35643 0.28204-0.41918 0.32615-0.13005 0.0914-0.13999 0.22835-0.0824 1.1366 0.0398 0.62719 0.11594 1.0046 0.22029 1.0912 0.0904 0.075 0.0969 0.30916 9e-3 0.30078-0.0356-3e-3 -0.13128-0.0208-0.21261-0.0389zm2.5756-5.3402c0.12359-0.11391 0.25123-0.20711 0.28364-0.20711 0.0324 0 0.0589-0.0386 0.0589-0.0857 0-0.0763-0.01-0.0773-0.0906-9e-3 -0.0498 0.0422-0.19547 0.10663-0.32362 0.14315-0.12817 0.0366-0.30154 0.10169-0.38528 0.14482-0.14487 0.0746-0.14753 0.0819-0.0548 0.14966 0.15719 0.11493 0.27304 0.0842 0.51177-0.13589zm-1.3144-0.26437c0-0.0966 0.0964-0.32931 0.24128-0.58253 0.19416-0.33934 0.24221-0.47228 0.24597-0.68061l4e-3 -0.25889-0.38056-0.19939c-0.24173-0.12665-0.39859-0.18134-0.43-0.14993-0.0993 0.0993-0.50983 1.1682-0.50983 1.3274 0 0.23143 0.1181 0.37313 0.45672 0.54795 0.16175 0.0835 0.31156 0.15296 0.33293 0.15432 0.0213 2e-3 0.0388-0.0699 0.0388-0.15832zm0.68761-1.8716c0.0293-0.0822-0.0779-0.29712-0.20621-0.41326-0.0936-0.0847-0.10775-0.0846-0.26992 3e-3 -0.0941 0.0505-0.1744 0.10949-0.17837 0.13113-8e-3 0.0434 0.47491 0.33006 0.57099 0.33891 0.0332 3e-3 0.0708-0.0236 0.0835-0.0592zm-0.41196-0.79478c-0.0199-0.052-0.0481-0.0619-0.0813-0.0287-0.0593 0.0593-2e-3 0.17848 0.0658 0.13663 0.0253-0.0156 0.0322-0.0642 0.0155-0.10788z" fill="#008080" stroke-width=".05178"/>
 </g>
</svg>
