<?xml version="1.0" encoding="UTF-8" standalone="no"?>
<!-- Created with Inkscape (http://www.inkscape.org/) -->

<svg
   width="131.47559mm"
   height="131.47559mm"
   viewBox="0 0 131.47559 131.47559"
   version="1.1"
   id="svg1"
   xml:space="preserve"
   inkscape:version="1.4.3 (fcd0343856, 2026-01-01)"
   xmlns:inkscape="http://www.inkscape.org/namespaces/inkscape"
   xmlns:sodipodi="http://sodipodi.sourceforge.net/DTD/sodipodi-0.dtd"
   xmlns="http://www.w3.org/2000/svg"
   xmlns:svg="http://www.w3.org/2000/svg"><sodipodi:namedview
     id="namedview1"
     pagecolor="#ffffff"
     bordercolor="#000000"
     borderopacity="0.25"
     inkscape:showpageshadow="2"
     inkscape:pageopacity="0.0"
     inkscape:pagecheckerboard="0"
     inkscape:deskcolor="#d1d1d1"
     inkscape:document-units="mm"
     showguides="true"
     inkscape:zoom="0.78484147"
     inkscape:cx="351.66337"
     inkscape:cy="354.84873"
     inkscape:window-width="1920"
     inkscape:window-height="1131"
     inkscape:window-x="0"
     inkscape:window-y="0"
     inkscape:window-maximized="1"
     inkscape:current-layer="layer1"><sodipodi:guide
       position="94.05561,29.302113"
       orientation="0,-1"
       id="guide2"
       inkscape:locked="false" /><sodipodi:guide
       position="45.005102,3.5126677"
       orientation="1,0"
       id="guide3"
       inkscape:locked="false" /></sodipodi:namedview><defs
     id="defs1" /><g
     inkscape:label="Layer 1"
     inkscape:groupmode="layer"
     id="layer1"
     transform="translate(18.808041,-74.774612)"><circle
       style="opacity:1;fill:#b7bbbd;fill-opacity:1;stroke-width:0.226289;stroke-linecap:square;stroke-dasharray:0.569764, 1.70929;stroke-dashoffset:0.199417"
       id="path3"
       cx="46.929752"
       cy="140.51241"
       r="65.737793" /><path
       style="display:none;fill:#013a60;fill-opacity:1"
       d="m 36.104332,183.15812 c -3.009572,-0.37493 -6.078632,-2.34532 -7.799012,-5.00709 -1.91826,-2.96792 -1.8835,-2.49688 -1.79299,-24.29791 l 0.0807,-19.44687 0.83728,-1.76732 c 1.7622,-3.71962 4.56334,-5.769 9.150742,-6.69487 l 0.72761,-0.14685 0.005,-3.63298 c 0.006,-4.46564 0.42922,-6.62261 1.88248,-9.58611 0.883644,-1.80193 1.555134,-2.69959 3.378204,-4.51604 2.31204,-2.30365 3.50595,-3.11472 6.11181,-4.15202 4.80164,-1.91137 10.5186,-1.49415 15.21688,1.11053 2.6121,1.44812 5.5262,4.46202 6.92353,7.16065 1.60382,3.09743 1.95562,4.6644 2.12447,9.4626 l 0.14677,4.17093 0.69261,0.14058 c 3.04993,0.61905 4.98328,1.58474 6.6988,3.346 1.48681,1.52645 2.66089,3.69811 3.08879,5.71323 0.20422,0.9617 0.29773,7.15624 0.29773,19.72202 0,19.91892 -0.002,19.94727 -1.49798,22.69611 -1.22176,2.24479 -3.8316,4.48328 -6.21879,5.33394 -1.02475,0.36516 -37.410894,0.72078 -40.054274,0.39147 z m 24.560814,-16.27427 c 0.0574,-0.10914 -0.22051,-2.87613 -0.61755,-6.14886 l -0.72188,-5.95043 0.80026,-0.91144 c 2.44623,-2.78611 2.40824,-6.98934 -0.0859,-9.50008 -4.35689,-4.38594 -11.68188,-1.43269 -11.70109,4.71758 -0.006,1.97816 0.43422,3.18267 1.68415,4.60627 l 0.87442,0.9959 -0.6833,5.99631 c -0.37581,3.29798 -0.62831,6.08561 -0.56112,6.19475 0.0672,0.10914 2.54891,0.19844 5.51491,0.19844 2.966,0 5.43968,-0.0893 5.49706,-0.19844 z m 3.84603,-44.97917 c -0.098,-3.5653 -0.1682,-4.02866 -0.81208,-5.36113 -1.95888,-4.05377 -6.54598,-6.25538 -10.78958,-5.17852 -3.05881,0.77621 -5.29711,2.73127 -6.51428,5.68997 -0.53086,1.29042 -0.6081,1.9342 -0.61359,5.11427 l -0.006,3.63802 h 9.42155 9.42154 z"
       id="path2"
       sodipodi:nodetypes="ssscssccsssssscsssscssssscsscscssssscsssccccc" /><path
       style="display:inline;fill:#ffffff;fill-opacity:1;stroke-width:0.922608"
       d="m 29.015392,174.59796 c -2.776652,-0.34591 -5.60819,-2.1638 -7.195426,-4.61957 -1.769801,-2.73823 -1.737732,-2.30364 -1.654226,-22.41744 l 0.07446,-17.94182 0.772481,-1.63055 c 1.625819,-3.43175 4.210172,-5.32252 8.442542,-6.17674 l 0.671299,-0.13548 0.0046,-3.35182 c 0.0056,-4.12003 0.396001,-6.11007 1.73679,-8.84421 0.815262,-1.66248 1.434784,-2.49067 3.116762,-4.16654 2.133106,-2.12536 3.234616,-2.87366 5.638802,-3.83068 4.43003,-1.763443 9.704541,-1.37851 14.039209,1.02458 2.409944,1.33605 5.098514,4.11669 6.387702,6.60647 1.479696,2.85771 1.804269,4.30341 1.960051,8.73027 l 0.135412,3.84813 0.639007,0.1297 c 2.813889,0.57114 4.597612,1.46209 6.180363,3.08704 1.371743,1.40832 2.454957,3.41191 2.849742,5.27107 0.188414,0.88727 0.274687,6.60241 0.274687,18.19568 0,18.37735 -0.0019,18.40351 -1.382047,20.93961 -1.127206,2.07106 -3.535063,4.13631 -5.737503,4.92113 -0.945442,0.3369 -34.51558,0.665 -36.954382,0.36117 z M 51.675391,159.5832 c 0.05295,-0.10069 -0.203444,-2.65354 -0.569756,-5.67298 l -0.666013,-5.48991 0.738326,-0.8409 c 2.256911,-2.57049 2.221861,-6.44843 -0.07925,-8.76485 -4.0197,-4.0465 -10.777791,-1.32181 -10.795514,4.35247 -0.0056,1.82507 0.400615,2.93636 1.55381,4.24978 l 0.806746,0.91882 -0.630418,5.53225 c -0.346725,3.04274 -0.579683,5.61463 -0.517693,5.71532 0.062,0.1007 2.351643,0.18308 5.088097,0.18308 2.736454,0 5.01869,-0.0824 5.07163,-0.18308 z m 3.548376,-41.49812 c -0.09042,-3.28937 -0.155182,-3.71687 -0.749231,-4.94622 -1.807277,-3.74004 -6.039371,-5.77126 -9.954549,-4.77774 -2.82208,0.71614 -4.887153,2.51989 -6.010124,5.24961 -0.489775,1.19054 -0.561037,1.7845 -0.566102,4.71846 l -0.0056,3.35647 h 8.692394 8.692384 z"
       id="path2-6"
       sodipodi:nodetypes="ssscssccsssssscsssscssssscsscscssssscsssccccc" /></g></svg>
