<?xml version="1.0" encoding="UTF-8"?>
<!-- Created with Inkscape (http://www.inkscape.org/) -->
<svg id="svg1" width="73.686mm" height="80.544mm" version="1.1" viewBox="0 0 73.686 80.544" xml:space="preserve" xmlns="http://www.w3.org/2000/svg"><g id="layer1" transform="translate(-9.8469 -102.76)"><path id="path1" d="m74.197 183.16c3.5216-0.44062 6.835-2.979 8.5511-6.5508l0.95337-1.9844v-39.952l-0.59213-1.4552c-1.2376-3.0414-3.6246-5.3411-6.9356-6.6816-1.4505-0.58726-1.642-0.59536-15.917-0.67305l-14.449-0.0786-0.14164-4.1547c-0.11711-3.4352-0.25491-4.506-0.79577-6.1832-2.4736-7.6707-9.103-12.659-16.864-12.689-3.0646-0.0119-5.4918 0.52145-8.0498 1.7688-4.5999 2.243-7.9778 6.3798-9.3999 11.512-0.43716 1.5775-0.54194 2.7368-0.54194 5.9959v4.0402h8.1291l0.12871-3.7913c0.11542-3.3996 0.20229-3.952 0.84077-5.3466 0.39163-0.85543 1.0154-1.953 1.3861-2.439 1.654-2.1685 5.4415-3.7207 8.2911-3.3979 3.1811 0.36036 6.2057 2.6048 7.6385 5.6681 0.6361 1.36 0.71098 1.8546 0.79431 5.2463 0.10271 4.1801 0.2699 3.8189-1.9409 4.1936-3.6627 0.62087-7.129 3.8659-8.3623 7.8284-0.4724 1.5178-0.50127 2.7068-0.50127 20.645 0 18.45 0.0165 19.084 0.53899 20.635 1.0587 3.1428 3.0758 5.4578 6.0178 6.9068l1.765 0.86927 10.854 0.0666c5.9698 0.0366 14.495 0.0961 18.945 0.13229 4.4497 0.0362 8.7955-0.0225 9.6573-0.13031zm-24.581-16.274c-0.0645-0.10914 0.20546-2.8773 0.60002-6.1516l0.71739-5.9531-0.73438-0.79375c-2.8596-3.0908-2.4105-8.1433 0.92263-10.381 2.9996-2.014 6.3314-1.7261 8.874 0.7668 2.5281 2.4786 2.5529 6.9273 0.0536 9.6145l-0.73824 0.79375 0.71126 5.9531c0.3912 3.2742 0.66295 6.0424 0.60389 6.1516-0.0591 0.10914-2.5341 0.19844-5.5001 0.19844s-5.4455-0.0893-5.5101-0.19844z" style="display:none;fill:#808080"/><path id="path2" d="m36.104 183.16c-3.0096-0.37493-6.0786-2.3453-7.799-5.0071-1.9183-2.9679-1.8835-2.4969-1.793-24.298l0.0807-19.447 0.83728-1.7673c1.7622-3.7196 4.5633-5.769 9.1507-6.6949l0.72761-0.14685 5e-3 -3.633c6e-3 -4.4656 0.42922-6.6226 1.8825-9.5861 0.88364-1.8019 1.5551-2.6996 3.3782-4.516 2.312-2.3036 3.506-3.1147 6.1118-4.152 4.8016-1.9114 10.519-1.4942 15.217 1.1105 2.6121 1.4481 5.5262 4.462 6.9235 7.1606 1.6038 3.0974 1.9556 4.6644 2.1245 9.4626l0.14677 4.1709 0.69261 0.14058c3.0499 0.61905 4.9833 1.5847 6.6988 3.346 1.4868 1.5264 2.6609 3.6981 3.0888 5.7132 0.20422 0.9617 0.29773 7.1562 0.29773 19.722 0 19.919-2e-3 19.947-1.498 22.696-1.2218 2.2448-3.8316 4.4833-6.2188 5.3339-1.0248 0.36516-37.411 0.72078-40.054 0.39147zm24.561-16.274c0.0574-0.10914-0.22051-2.8761-0.61755-6.1489l-0.72188-5.9504 0.80026-0.91144c2.4462-2.7861 2.4082-6.9893-0.0859-9.5001-4.3569-4.3859-11.682-1.4327-11.701 4.7176-6e-3 1.9782 0.43422 3.1827 1.6842 4.6063l0.87442 0.9959-0.6833 5.9963c-0.37581 3.298-0.62831 6.0856-0.56112 6.1948 0.0672 0.10914 2.5489 0.19844 5.5149 0.19844s5.4397-0.0893 5.4971-0.19844zm3.846-44.979c-0.098-3.5653-0.1682-4.0287-0.81208-5.3611-1.9589-4.0538-6.546-6.2554-10.79-5.1785-3.0588 0.77621-5.2971 2.7313-6.5143 5.69-0.53086 1.2904-0.6081 1.9342-0.61359 5.1143l-6e-3 3.638h18.843z" style="fill:#013a60"/></g></svg>
