<?xml version="1.0" encoding="UTF-8"?>
<!-- Created with Inkscape (http://www.inkscape.org/) -->
<svg id="svg1" width="131.48mm" height="131.48mm" version="1.1" viewBox="0 0 131.48 131.48" xml:space="preserve" xmlns="http://www.w3.org/2000/svg"><g id="layer1" transform="translate(15.181 -65.065)"><path id="path2" d="m36.104 183.16c-3.0096-0.37493-6.0786-2.3453-7.799-5.0071-1.9183-2.9679-1.8835-2.4969-1.793-24.298l0.0807-19.447 0.83728-1.7673c1.7622-3.7196 4.5633-5.769 9.1507-6.6949l0.72761-0.14685 5e-3 -3.633c6e-3 -4.4656 0.42922-6.6226 1.8825-9.5861 0.88364-1.8019 1.5551-2.6996 3.3782-4.516 2.312-2.3036 3.506-3.1147 6.1118-4.152 4.8016-1.9114 10.519-1.4942 15.217 1.1105 2.6121 1.4481 5.5262 4.462 6.9235 7.1606 1.6038 3.0974 1.9556 4.6644 2.1245 9.4626l0.14677 4.1709 0.69261 0.14058c3.0499 0.61905 4.9833 1.5847 6.6988 3.346 1.4868 1.5264 2.6609 3.6981 3.0888 5.7132 0.20422 0.9617 0.29773 7.1562 0.29773 19.722 0 19.919-2e-3 19.947-1.498 22.696-1.2218 2.2448-3.8316 4.4833-6.2188 5.3339-1.0248 0.36516-37.411 0.72078-40.054 0.39147zm24.561-16.274c0.0574-0.10914-0.22051-2.8761-0.61755-6.1489l-0.72188-5.9504 0.80026-0.91144c2.4462-2.7861 2.4082-6.9893-0.0859-9.5001-4.3569-4.3859-11.682-1.4327-11.701 4.7176-6e-3 1.9782 0.43422 3.1827 1.6842 4.6063l0.87442 0.9959-0.6833 5.9963c-0.37581 3.298-0.62831 6.0856-0.56112 6.1948 0.0672 0.10914 2.5489 0.19844 5.5149 0.19844s5.4397-0.0893 5.4971-0.19844zm3.846-44.979c-0.098-3.5653-0.1682-4.0287-0.81208-5.3611-1.9589-4.0538-6.546-6.2554-10.79-5.1785-3.0588 0.77621-5.2971 2.7313-6.5143 5.69-0.53086 1.2904-0.6081 1.9342-0.61359 5.1143l-6e-3 3.638h18.843z" style="display:none;fill:#013a60"/><circle id="path3-2" cx="50.556" cy="130.8" r="65.738" style="fill:#21232f;stroke-dasharray:0.569764, 1.70929;stroke-dashoffset:.19942;stroke-linecap:square;stroke-width:.22629"/><path id="path2-6-5" d="m32.642 164.89c-2.7766-0.34591-5.6082-2.1638-7.1954-4.6196-1.7698-2.7382-1.7377-2.3036-1.6542-22.417l0.0745-17.942 0.77248-1.6306c1.6258-3.4318 4.2102-5.3225 8.4425-6.1767l0.6713-0.13548 5e-3 -3.3518c6e-3 -4.12 0.396-6.1101 1.7368-8.8442 0.81526-1.6625 1.4348-2.4907 3.1168-4.1665 2.1331-2.1254 3.2346-2.8737 5.6388-3.8307 4.43-1.7634 9.7045-1.3785 14.039 1.0246 2.41 1.336 5.0985 4.1167 6.3877 6.6065 1.4797 2.8577 1.8043 4.3034 1.96 8.7303l0.13542 3.8481 0.639 0.1297c2.8139 0.57114 4.5976 1.4621 6.1804 3.087 1.3717 1.4083 2.455 3.4119 2.8497 5.2711 0.18841 0.88727 0.27469 6.6024 0.27469 18.196 0 18.377-2e-3 18.404-1.382 20.94-1.1272 2.0711-3.5351 4.1363-5.7375 4.9211-0.94545 0.3369-34.516 0.665-36.954 0.36117zm22.66-15.015c0.053-0.10069-0.20345-2.6535-0.56976-5.673l-0.66601-5.4899 0.73832-0.8409c2.2569-2.5705 2.2219-6.4484-0.0793-8.7648-4.0197-4.0465-10.778-1.3218-10.796 4.3525-6e-3 1.8251 0.40062 2.9364 1.5538 4.2498l0.80675 0.91882-0.63042 5.5322c-0.34673 3.0427-0.57968 5.6146-0.51769 5.7153 0.062 0.1007 2.3516 0.18308 5.0881 0.18308 2.7365 0 5.0187-0.0824 5.0716-0.18308zm3.5484-41.498c-0.0904-3.2894-0.15518-3.7169-0.74923-4.9462-1.8073-3.74-6.0394-5.7713-9.9546-4.7777-2.8221 0.71614-4.8872 2.5199-6.0101 5.2496-0.48978 1.1905-0.56104 1.7845-0.5661 4.7185l-6e-3 3.3565h17.385z" style="fill:#ffffff;stroke-width:.92261"/></g></svg>
