<?xml version="1.0" encoding="UTF-8" standalone="no"?>
<!-- Created with Inkscape (http://www.inkscape.org/) -->

<svg
   width="131.47559mm"
   height="131.47559mm"
   viewBox="0 0 131.47559 131.47559"
   version="1.1"
   id="svg1"
   xml:space="preserve"
   inkscape:version="1.4.3 (fcd0343856, 2026-01-01)"
   sodipodi:docname="locked-dark.svg"
   xmlns:inkscape="http://www.inkscape.org/namespaces/inkscape"
   xmlns:sodipodi="http://sodipodi.sourceforge.net/DTD/sodipodi-0.dtd"
   xmlns="http://www.w3.org/2000/svg"
   xmlns:svg="http://www.w3.org/2000/svg"><sodipodi:namedview
     id="namedview1"
     pagecolor="#ffffff"
     bordercolor="#000000"
     borderopacity="0.25"
     inkscape:showpageshadow="2"
     inkscape:pageopacity="0.0"
     inkscape:pagecheckerboard="0"
     inkscape:deskcolor="#d1d1d1"
     inkscape:document-units="mm"
     showguides="true"
     inkscape:zoom="0.78484147"
     inkscape:cx="337.64781"
     inkscape:cy="391.79887"
     inkscape:window-width="1920"
     inkscape:window-height="1131"
     inkscape:window-x="0"
     inkscape:window-y="0"
     inkscape:window-maximized="1"
     inkscape:current-layer="layer1"><sodipodi:guide
       position="90.42887,19.592472"
       orientation="0,-1"
       id="guide2"
       inkscape:locked="false" /><sodipodi:guide
       position="41.378362,-6.1969729"
       orientation="1,0"
       id="guide3"
       inkscape:locked="false" /></sodipodi:namedview><defs
     id="defs1" /><g
     inkscape:label="Layer 1"
     inkscape:groupmode="layer"
     id="layer1"
     transform="translate(15.181301,-65.064972)"><path
       style="display:none;fill:#013a60;fill-opacity:1"
       d="m 36.104332,183.15812 c -3.009572,-0.37493 -6.078632,-2.34532 -7.799012,-5.00709 -1.91826,-2.96792 -1.8835,-2.49688 -1.79299,-24.29791 l 0.0807,-19.44687 0.83728,-1.76732 c 1.7622,-3.71962 4.56334,-5.769 9.150742,-6.69487 l 0.72761,-0.14685 0.005,-3.63298 c 0.006,-4.46564 0.42922,-6.62261 1.88248,-9.58611 0.883644,-1.80193 1.555134,-2.69959 3.378204,-4.51604 2.31204,-2.30365 3.50595,-3.11472 6.11181,-4.15202 4.80164,-1.91137 10.5186,-1.49415 15.21688,1.11053 2.6121,1.44812 5.5262,4.46202 6.92353,7.16065 1.60382,3.09743 1.95562,4.6644 2.12447,9.4626 l 0.14677,4.17093 0.69261,0.14058 c 3.04993,0.61905 4.98328,1.58474 6.6988,3.346 1.48681,1.52645 2.66089,3.69811 3.08879,5.71323 0.20422,0.9617 0.29773,7.15624 0.29773,19.72202 0,19.91892 -0.002,19.94727 -1.49798,22.69611 -1.22176,2.24479 -3.8316,4.48328 -6.21879,5.33394 -1.02475,0.36516 -37.410894,0.72078 -40.054274,0.39147 z m 24.560814,-16.27427 c 0.0574,-0.10914 -0.22051,-2.87613 -0.61755,-6.14886 l -0.72188,-5.95043 0.80026,-0.91144 c 2.44623,-2.78611 2.40824,-6.98934 -0.0859,-9.50008 -4.35689,-4.38594 -11.68188,-1.43269 -11.70109,4.71758 -0.006,1.97816 0.43422,3.18267 1.68415,4.60627 l 0.87442,0.9959 -0.6833,5.99631 c -0.37581,3.29798 -0.62831,6.08561 -0.56112,6.19475 0.0672,0.10914 2.54891,0.19844 5.51491,0.19844 2.966,0 5.43968,-0.0893 5.49706,-0.19844 z m 3.84603,-44.97917 c -0.098,-3.5653 -0.1682,-4.02866 -0.81208,-5.36113 -1.95888,-4.05377 -6.54598,-6.25538 -10.78958,-5.17852 -3.05881,0.77621 -5.29711,2.73127 -6.51428,5.68997 -0.53086,1.29042 -0.6081,1.9342 -0.61359,5.11427 l -0.006,3.63802 h 9.42155 9.42154 z"
       id="path2"
       sodipodi:nodetypes="ssscssccsssssscsssscssssscsscscssssscsssccccc" /><circle
       style="fill:#21232f;fill-opacity:1;stroke-width:0.226289;stroke-linecap:square;stroke-dasharray:0.569764, 1.70929;stroke-dashoffset:0.199417"
       id="path3-2"
       cx="50.556492"
       cy="130.80276"
       r="65.737793" /><path
       style="display:inline;fill:#d0d2de;fill-opacity:1;stroke-width:0.922608"
       d="m 32.642131,164.88832 c -2.77665,-0.34591 -5.60819,-2.1638 -7.19543,-4.61957 -1.7698,-2.73823 -1.73773,-2.30364 -1.65422,-22.41744 l 0.0745,-17.94182 0.77248,-1.63055 c 1.62582,-3.43175 4.21017,-5.32252 8.44254,-6.17674 l 0.6713,-0.13548 0.005,-3.35182 c 0.006,-4.12003 0.396,-6.11007 1.73679,-8.844214 0.81526,-1.66248 1.43478,-2.49067 3.11676,-4.16654 2.13311,-2.12536 3.23462,-2.87366 5.6388,-3.83068 4.43003,-1.763445 9.70454,-1.378512 14.03921,1.02458 2.40995,1.33605 5.09852,4.11669 6.3877,6.60647 1.4797,2.857714 1.80427,4.303414 1.96005,8.730274 l 0.13542,3.84813 0.639,0.1297 c 2.81389,0.57114 4.59762,1.46209 6.18037,3.08704 1.37174,1.40832 2.45495,3.41191 2.84974,5.27107 0.18841,0.88727 0.27469,6.60241 0.27469,18.19568 0,18.37735 -0.002,18.40351 -1.38205,20.93961 -1.12721,2.07106 -3.53506,4.13631 -5.7375,4.92113 -0.94545,0.3369 -34.51558,0.665 -36.95439,0.36117 z m 22.66,-15.01476 c 0.053,-0.10069 -0.20345,-2.65354 -0.56976,-5.67298 l -0.66601,-5.48991 0.73832,-0.8409 c 2.25692,-2.57049 2.22187,-6.44843 -0.0793,-8.76485 -4.0197,-4.0465 -10.77779,-1.32181 -10.79551,4.35247 -0.006,1.82507 0.40062,2.93636 1.55381,4.24978 l 0.80675,0.91882 -0.63042,5.53225 c -0.34673,3.04274 -0.57968,5.61463 -0.51769,5.71532 0.062,0.1007 2.35164,0.18308 5.08809,0.18308 2.73646,0 5.01869,-0.0824 5.07163,-0.18308 z m 3.54837,-41.49812 c -0.0904,-3.28937 -0.15518,-3.71687 -0.74923,-4.94622 -1.80727,-3.740044 -6.03937,-5.771264 -9.95455,-4.777744 -2.82208,0.71614 -4.88715,2.519894 -6.01012,5.249614 -0.48978,1.19054 -0.56104,1.7845 -0.5661,4.71846 l -0.006,3.35647 h 8.69239 8.69239 z"
       id="path2-6-5"
       sodipodi:nodetypes="ssscssccsssssscsssscssssscsscscssssscsssccccc" /></g></svg>
