<?xml version="1.0" encoding="UTF-8" standalone="no"?>
<!-- Created with Inkscape (http://www.inkscape.org/) -->

<svg
   width="7.2321mm"
   height="7.2352mm"
   version="1.1"
   viewBox="0 0 7.2321 7.2352"
   xml:space="preserve"
   id="svg92907"
   sodipodi:docname="mercury-cycle.svg"
   inkscape:version="1.2.2 (b0a8486541, 2022-12-01)"
   xmlns:inkscape="http://www.inkscape.org/namespaces/inkscape"
   xmlns:sodipodi="http://sodipodi.sourceforge.net/DTD/sodipodi-0.dtd"
   xmlns="http://www.w3.org/2000/svg"
   xmlns:svg="http://www.w3.org/2000/svg"><defs
     id="defs92911" /><sodipodi:namedview
     id="namedview92909"
     pagecolor="#ffffff"
     bordercolor="#000000"
     borderopacity="0.25"
     inkscape:showpageshadow="2"
     inkscape:pageopacity="0.0"
     inkscape:pagecheckerboard="0"
     inkscape:deskcolor="#d1d1d1"
     inkscape:document-units="mm"
     showgrid="false"
     inkscape:zoom="3.0512582"
     inkscape:cx="77.672877"
     inkscape:cy="-2.6218692"
     inkscape:window-width="1503"
     inkscape:window-height="934"
     inkscape:window-x="0"
     inkscape:window-y="0"
     inkscape:window-maximized="1"
     inkscape:current-layer="svg92907" /><g
     id="g93042"
     transform="matrix(0.04434443,0,0,0.04434443,3.5289637,3.8282627)"><path
       style="fill:#ecae73;stroke-width:0.264583"
       d="M -3.3128378,63.663419 C -15.339574,62.46103 -28.154573,57.125104 -37.973255,49.231466 -50.257177,39.355922 -58.795135,24.328158 -61.399186,7.9991984 c -0.657343,-4.1219359 -0.798776,-12.4890453 -0.285646,-16.8987208 1.184802,-10.1818046 4.711945,-20.0832116 10.144373,-28.4773216 4.876575,-7.535212 12.930812,-15.413752 20.619715,-20.169913 16.598633,-10.267494 37.1806001,-12.540735 55.902152,-6.174292 3.826666,1.301295 8.408414,3.428927 11.863504,5.509073 5.620983,3.384125 8.354089,5.532219 13.180275,10.359084 9.982007,9.983412 16.175905,22.187398 18.543905,36.537507 0.675653,4.0944692 0.678408,14.5848652 0.005,18.9177084 C 66.301483,22.223831 60.175183,34.37271 49.886161,44.661729 c -8.163507,8.163509 -17.36285,13.634257 -28.22462,16.784868 -3.104825,0.900599 -8.081862,1.886566 -11.271753,2.232969 -2.9610106,0.321551 -10.41266962,0.312769 -13.7026153,-0.01614 z"
       id="path93048" /><path
       style="fill:#a77a4e;stroke-width:0.264583"
       d="M -1.3284628,63.798766 C -15.473477,62.343256 -25.723629,58.386383 -36.78263,50.112373 c -1.164167,-0.870995 -3.962316,-3.439962 -6.218106,-5.708817 -4.468976,-4.494858 -7.671705,-8.768003 -10.822569,-14.439697 -3.846382,-6.923656 -6.860016,-16.125888 -7.583112,-23.1552856 l -0.17691,-1.7197917 7.77014,7.6925413 c 6.482453,6.417715 7.950618,7.744097 8.85917,8.003646 4.358394,1.245068 8.31395,-1.578872 8.297868,-5.923992 -0.01061,-2.866954 -0.05585,-2.922434 -12.766485,-15.6569653 l -11.683642,-11.7056037 0.489644,-2.449605 c 0.269304,-1.347282 0.838896,-3.64023 1.26576,-5.095438 0.910004,-3.102264 3.157757,-8.900177 3.411749,-8.800349 0.0967,0.038 4.560136,4.633254 9.918753,10.211665 5.496254,5.721694 10.151801,10.3496987 10.680965,10.6177745 1.511237,0.7655957 2.984836,0.8995146 4.631262,0.420886 3.525925,-1.0250144 5.390999,-4.5928365 4.242575,-8.1158985 -0.433335,-1.329351 -1.218189,-2.180698 -11.847899,-12.851596 l -11.383825,-11.427933 2.07064,-2.594984 c 1.138851,-1.427241 3.365092,-3.898476 4.947197,-5.491633 l 2.876558,-2.896648 18.575759,18.553444 c 16.9833055,16.962906 18.6776495,18.580177 19.7643065,18.865247 2.8860486,0.757116 5.7698906,-0.342805 7.2711232,-2.773267 0.7096258,-1.148864 0.7998566,-1.524419 0.7929299,-3.300297 -0.00561,-1.43723 -0.1474762,-2.265785 -0.5016871,-2.929953 C 5.8279027,-23.0695 0.59266887,-28.519554 -5.5343192,-34.671411 -17.231871,-46.416442 -17.854145,-47.159165 -17.861516,-49.384689 c -0.01138,-3.434599 2.988365,-6.512989 6.346595,-6.512989 1.9188215,0 2.9716224,0.583757 5.6170722,3.114559 1.4158992,1.354537 3.0827742,2.693559 3.7041667,2.975599 1.33686555,0.606788 3.7976705,0.688626 5.0409053,0.167646 2.1761424,-0.911919 3.8864355,-3.41612 3.8915208,-5.69794 0.00553,-2.483167 -0.3581003,-3.061743 -4.6981984,-7.475277 l -4.0684503,-4.137288 2.6885662,-0.192431 c 7.0719634,-0.506168 16.9627975,0.966297 24.8660845,3.701855 8.658873,2.997089 18.800729,9.526745 25.175531,16.208826 9.621954,10.085753 15.711829,22.552356 17.868276,36.578202 0.686215,4.4632405 0.615206,13.39228 -0.146236,18.3885421 C 65.105829,29.509136 51.815207,47.701201 32.273621,57.217301 26.084461,60.231217 19.551846,62.272732 12.826746,63.294664 10.169713,63.69842 0.90335586,64.028419 -1.3284628,63.798766 Z M -3.5181704,50.989067 c 3.11476767,-0.295373 7.0494579,-0.930172 7.2964544,-1.177171 0.086389,-0.08639 -0.8066934,-1.135682 -1.9846317,-2.33176 -2.67428135,-2.715466 -3.1042848,-3.511478 -3.1042848,-5.746562 0,-3.29873 2.21455721,-5.803149 5.5337896,-6.2581 2.21683,-0.30385 3.4025841,0.26543 6.2718029,3.011086 1.422146,1.360903 3.094132,2.705132 3.715525,2.987172 1.336865,0.606788 3.79767,0.688626 5.040905,0.167645 2.176143,-0.911918 3.886436,-3.41612 3.891521,-5.697939 0.0062,-2.80751 0.51838,-2.200265 -15.0560699,-17.85261 C -1.7108492,8.2441365 -6.6959089,3.4171204 -7.4138796,3.0815361 -8.7241201,2.4691183 -11.167246,2.4231416 -12.515607,2.9855241 c -1.300655,0.5424884 -2.652292,1.8536656 -3.259146,3.161591 -0.605912,1.3058934 -0.653507,3.7570305 -0.09874,5.0847839 0.233495,0.558826 2.025978,2.620499 4.248113,4.886071 4.449043,4.536011 4.9896952,5.435793 4.8245555,8.029258 -0.2014802,3.164205 -2.472055,5.541544 -5.6011185,5.864492 -1.852102,0.191153 -3.361819,-0.336711 -5.121246,-1.790615 -3.648913,-3.015287 -8.569439,-2.010127 -10.287645,2.101551 -0.493554,1.181076 -0.474422,3.775702 0.03689,5.003271 0.270114,0.648485 2.95025,3.530698 7.865161,8.458168 l 7.455427,7.474479 3.0489045,-2.22e-4 c 1.6768948,-1.22e-4 4.3257206,-0.121301 5.8862781,-0.269285 z M 40.706236,27.947581 c 2.091606,-2.480628 5.45801,-7.142716 5.45801,-7.558725 0,-0.129061 -4.494609,-4.715611 -9.988021,-10.192333 C 26.42027,0.47021231 26.152631,0.22860804 24.6571,-0.2020622 c -4.141105,-1.1925221 -8.138025,1.7656281 -8.120377,6.0099497 0.01103,2.6531888 0.269817,2.9733902 11.44705,14.1637075 5.705015,5.711692 10.444432,10.384896 10.532041,10.384896 0.08761,0 1.073298,-1.084009 2.190422,-2.40891 z M 53.837999,2.972115 54.348195,1.1200316 53.691547,1.9137817 C 52.659781,3.1609719 51.870111,6.3398243 52.448101,6.9193412 52.646157,7.117919 52.874884,6.4683431 53.837999,2.972115 Z m 2.638171,-17.925521 c -0.01201,-4.774092 -0.761158,-10.645865 -1.941369,-15.216447 l -0.565346,-2.189412 -9.657292,-9.675537 c -5.31151,-5.321549 -10.076805,-9.891977 -10.589543,-10.156508 -4.082643,-2.10632 -9.019159,0.895906 -9.05813,5.508853 -0.0079,0.935434 0.176956,1.916896 0.490937,2.60649 0.357439,0.785045 4.9193,5.560039 15.717153,16.451456 8.367448,8.439954 15.302839,15.353858 15.411979,15.364227 0.109141,0.01037 0.195366,-1.201534 0.191611,-2.693122 z"
       id="path93046" /><path
       style="fill:#814e30;stroke-width:0.264583"
       d="M -5.1649212,63.262734 C -20.975091,61.118206 -35.801754,53.144038 -45.868528,41.371267 c -2.734577,-3.198 -2.809108,-3.377928 -0.812546,-1.961624 8.914485,6.323685 20.854718,10.664037 31.611092,11.490839 l 2.17783,0.167402 6.308945,6.313054 6.30894211,6.313053 -1.05626431,-0.02721 c -0.5809483,-0.01497 -2.3064232,-0.196789 -3.834392,-0.404045 z m 15.4781252,-7.24166 c -4.7255086,-4.728588 -6.1997881,-6.35 -5.7737799,-6.35 0.3146478,0 2.0012079,-0.411345 3.747913,-0.914098 C 19.104774,45.643391 28.2634,40.431774 35.906911,33.04036 l 2.574954,-2.49003 1.261505,1.301691 c 0.693825,0.715929 3.521231,3.588063 6.283124,6.38252 l 5.021625,5.080829 -1.582042,1.615739 c -7.382936,7.540196 -18.88182,14.087409 -29.495581,16.794133 -1.382448,0.352553 -2.693067,0.642091 -2.912483,0.64342 -0.219419,0.0013 -3.254582,-2.855088 -6.744809,-6.347588 z M 49.982721,23.35244 c -0.721878,-0.359727 -1.828509,-1.179819 -2.45918,-1.822426 l -1.146675,-1.168376 1.648748,-2.944191 c 0.906812,-1.619305 2.276748,-4.445931 3.044304,-6.281388 l 1.395553,-3.3371925 0.454443,0.8787951 c 0.249944,0.4833355 1.562248,2.0364534 2.916229,3.4513684 2.575941,2.691865 3.025154,3.532296 3.025154,5.659752 0,1.839838 -0.499671,3.041663 -1.804975,4.341387 -1.985364,1.976882 -4.639106,2.435431 -7.073601,1.222271 z M 65.602602,3.6114648 C 62.368047,0.34810181 61.253146,-0.35549408 59.052154,-0.52241442 57.625978,-0.63057344 57.214927,-0.54784088 55.938823,0.10421153 L 54.468605,0.8554483 54.94617,-1.3935101 c 0.262662,-1.2369271 0.681884,-4.1275292 0.931606,-6.4235622 l 0.454035,-4.1746037 6.307127,6.2912704 6.307127,6.29127056 -0.177096,2.51354174 c -0.0974,1.3824479 -0.256286,2.6607638 -0.353076,2.8407016 -0.114609,0.2130716 -1.095669,-0.6007232 -2.813291,-2.3336435 z m -5.738468,-30.3388298 -6.27202,-6.283854 -0.950209,-2.742361 c -1.867072,-5.388476 -4.536662,-10.692178 -7.708953,-15.315452 -0.923612,-1.346068 -1.604552,-2.447396 -1.513199,-2.447396 0.37991,0 4.715753,3.89781 7.143514,6.421832 6.685505,6.950588 11.63006,15.03493 14.884401,24.335981 0.445516,1.273308 0.782682,2.315105 0.749257,2.315105 -0.03342,0 -2.88318,-2.827735 -6.332791,-6.283855 z"
       id="path93044" /></g></svg>
