<?xml version="1.0" encoding="UTF-8"?>
<!-- Created with Inkscape (http://www.inkscape.org/) -->
<svg width="6.9903mm" height="8.0376mm" version="1.1" viewBox="0 0 6.9903 8.0376" xmlns="http://www.w3.org/2000/svg">
 <g transform="translate(-.50822 148.34)">
  <path d="m3.806-140.34c0.075-0.0536 0.15256-0.16561 0.1904-0.27481 0.028-0.0808 0.0309-0.10887 0.0301-0.28804-7.5e-4 -0.18063-4e-3 -0.20831-0.0358-0.30683-0.0978-0.30393-0.2791-0.58267-0.58428-0.8983-0.10528-0.10886-0.13101-0.14193-0.115-0.14773 0.0736-0.0266 0.26632 0.0951 0.78043 0.49266 0.54611 0.42232 0.88854 0.66999 1.1837 0.85615 0.45719 0.2883 0.9084 0.48653 1.2268 0.53893 0.16245 0.0267 0.37445 0.0243 0.49907-5e-3 0.12301-0.0295 0.34592-0.13091 0.41186-0.18722 0.15246-0.13022 0.13815-0.39518-0.0353-0.65338-0.11329-0.16865-0.12941-0.19964-0.14881-0.28615-0.0396-0.17691-0.0201-0.37829 0.0877-0.90659 0.11246-0.55073 0.11197-0.54349 0.0527-0.765-0.0939-0.34982-0.31931-0.61243-0.66034-0.76919-0.24071-0.11064-0.43928-0.14557-0.76531-0.13462-0.23382 8e-3 -0.37999 0.0332-0.61096 0.10579-0.4422 0.13901-0.8913 0.42431-1.2028 0.76407-0.18187 0.19834-0.269 0.28081-0.38187 0.36131-0.12819 0.0914-0.32528 0.18644-0.45822 0.22083-0.10428 0.0269-0.31851 0.0465-0.3177 0.0291 2.5e-4 -5e-3 0.13344-0.0957 0.29593-0.19945 0.39794-0.25407 1.4699-0.94701 1.9947-1.2894 0.23452-0.15303 0.45871-0.30843 0.49818-0.34536 0.13285-0.12426 0.19301-0.28053 0.19204-0.49888-7.7e-4 -0.26687-0.0822-0.50658-0.33629-0.99593l-0.17981-0.34614 0.0116-0.3758c7e-3 -0.20669 0.0115-0.58697 0.0113-0.84507-2.3e-4 -0.40329-3e-3 -0.48449-0.0231-0.57757-0.0352-0.16632-0.0935-0.27072-0.1509-0.27072-0.013 0-0.0707 0.0223-0.12825 0.0497-0.47334 0.22447-0.96313 0.56985-1.2962 0.91403-0.80342 0.83022-1.2625 1.9117-1.3939 3.2838-0.0234 0.24368-0.0286 0.92855-8e-3 1.098 6e-3 0.0513 8e-3 0.0932 4e-3 0.093-0.0142-4.7e-4 -0.24467-0.058-0.24787-0.0619-2e-3 -2e-3 -0.0168-0.0269-0.033-0.0551-0.0427-0.0735-0.11219-0.11494-0.20264-0.12112-0.0426-3e-3 -0.0854 7.3e-4 -0.10163 0.01-0.0405 0.0205-0.0533 7e-3 -0.13396-0.14807-0.0897-0.17166-0.15148-0.34902-0.18509-0.53127-0.0162-0.0883-0.0405-0.17248-0.0623-0.21659-0.0685-0.13838-0.19324-0.25744-0.36734-0.35058-0.0437-0.0233-0.0796-0.0494-0.0796-0.0578 0-0.0246-0.044-0.0551-0.0797-0.0551-0.043 0-0.0731 0.0293-0.0731 0.0711 0 0.0614 0.0687 0.093 0.12168 0.0559 0.0222-0.0154 0.0319-0.0136 0.0947 0.0195 0.0906 0.0477 0.19709 0.12987 0.25963 0.2005 0.0752 0.0849 0.12058 0.18773 0.14827 0.33599 0.0439 0.23517 0.11885 0.43607 0.23398 0.62742 0.10437 0.1735-0.0188 0.0767-0.21551-0.16937-0.11071-0.13849-0.17504-0.24422-0.22386-0.36791-0.0583-0.14771-0.13426-0.2029-0.41892-0.3043-0.2207-0.0786-0.2295-0.0841-0.22052-0.13646 5e-3 -0.0314 7.7e-4 -0.0468-0.0199-0.0665-0.0531-0.0503-0.12871-0.0183-0.12871 0.0544 0 0.0432 0.0203 0.0647 0.0611 0.0647 0.0168 0 0.0468 0.011 0.0667 0.0243 0.0199 0.0135 0.11773 0.054 0.21735 0.09 0.29569 0.10717 0.35506 0.15053 0.4131 0.30183 0.0585 0.15278 0.17636 0.32429 0.36487 0.53154l0.10142 0.11154-0.0221 0.0318c-0.0121 0.0176-0.0246 0.0646-0.028 0.10505-5e-3 0.0613-7.4e-4 0.0822 0.0249 0.12742 0.0803 0.14155 0.28578 0.17451 0.40989 0.0657l0.0336-0.0294 0.0396 0.045c0.0218 0.0248 0.13471 0.13434 0.25089 0.24354 0.27502 0.25853 0.47922 0.39594 0.64567 0.43441 0.12012 0.0277 0.17814 0.0753 0.24511 0.20082 0.089 0.16683 0.13205 0.38264 0.19249 0.96509 0.0308 0.29635 0.0647 0.47296 0.0993 0.51695 0.0385 0.0489 0.11165 0.048 0.18192-2e-3z" fill="#f60" stroke-width=".012376"/>
 </g>
</svg>
