<?xml version="1.0" encoding="UTF-8"?>
<!-- Created with Inkscape (http://www.inkscape.org/) -->
<svg width="7.2321mm" height="7.2352mm" version="1.1" viewBox="0 0 7.2321 7.2352" xml:space="preserve" xmlns="http://www.w3.org/2000/svg"><path d="m3.2714 7.2146c-0.67647-0.089095-1.3533-0.3763-1.8741-0.79523-0.15625-0.12569-0.46381-0.434-0.58621-0.58763-0.4228-0.53067-0.69034-1.1649-0.79346-1.881-0.026828-0.1863-0.022269-0.74991 0.0078214-0.96697 0.054835-0.39556 0.17617-0.78311 0.36394-1.1624 0.2-0.40403 0.39333-0.67336 0.7086-0.98717 0.26736-0.26611 0.50652-0.44705 0.83192-0.62939 0.14006-0.078487 0.4317-0.21358 0.441-0.20429 0.00262 0.002622-0.011325 0.04914-0.031005 0.10336-0.2211 0.60912-0.26746 1.3622-0.12548 2.0383 0.1897 0.90321 0.73141 1.7232 1.497 2.2659 0.32148 0.22791 0.59369 0.36675 0.97243 0.49598 0.77319 0.26381 1.633 0.26104 2.424-0.00783 0.068318-0.023222 0.12422-0.03956 0.12422-0.036308 0 0.026389-0.1506 0.3394-0.23044 0.47896-0.1958 0.34225-0.38004 0.57893-0.66545 0.85486-0.59055 0.57093-1.3214 0.91753-2.1563 1.0226-0.20578 0.025905-0.70581 0.024929-0.90855-0.0017714z" fill="#ffec00" stroke-width=".014196"/></svg>
