<?xml version="1.0" encoding="UTF-8" standalone="no"?>
<!-- Created with Inkscape (http://www.inkscape.org/) -->

<svg
   width="73.686462mm"
   height="80.543884mm"
   viewBox="0 0 73.686462 80.543884"
   version="1.1"
   id="svg1"
   xml:space="preserve"
   inkscape:version="1.4.3 (fcd0343856, 2026-01-01)"
   xmlns:inkscape="http://www.inkscape.org/namespaces/inkscape"
   xmlns:sodipodi="http://sodipodi.sourceforge.net/DTD/sodipodi-0.dtd"
   xmlns="http://www.w3.org/2000/svg"
   xmlns:svg="http://www.w3.org/2000/svg"><sodipodi:namedview
     id="namedview1"
     pagecolor="#ffffff"
     bordercolor="#000000"
     borderopacity="0.25"
     inkscape:showpageshadow="2"
     inkscape:pageopacity="0.0"
     inkscape:pagecheckerboard="0"
     inkscape:deskcolor="#d1d1d1"
     inkscape:document-units="mm"
     showguides="true"
     inkscape:zoom="1.5696829"
     inkscape:cx="203.86283"
     inkscape:cy="144.93373"
     inkscape:window-width="1920"
     inkscape:window-height="1131"
     inkscape:window-x="0"
     inkscape:window-y="0"
     inkscape:window-maximized="1"
     inkscape:current-layer="layer1"><sodipodi:guide
       position="65.400677,57.28282"
       orientation="0,-1"
       id="guide2"
       inkscape:locked="false" /><sodipodi:guide
       position="16.350169,31.493375"
       orientation="1,0"
       id="guide3"
       inkscape:locked="false" /></sodipodi:namedview><defs
     id="defs1" /><g
     inkscape:label="Layer 1"
     inkscape:groupmode="layer"
     id="layer1"
     transform="translate(-9.846893,-102.75532)"><path
       style="display:inline;fill:#4bbb00;fill-opacity:1"
       d="m 74.197451,183.15811 c 3.52158,-0.44062 6.83505,-2.979 8.55109,-6.55082 l 0.95337,-1.98437 v -19.97605 -19.97604 l -0.59213,-1.45521 c -1.23757,-3.04145 -3.62464,-5.34112 -6.93557,-6.68163 -1.45047,-0.58726 -1.64197,-0.59536 -15.91694,-0.67305 l -14.44881,-0.0786 -0.14164,-4.15469 c -0.11711,-3.43525 -0.25491,-4.50597 -0.79577,-6.18317 -2.47364,-7.67074 -9.10299,-12.65888 -16.86393,-12.68897 -3.06459,-0.0119 -5.49182,0.52145 -8.04981,1.76878 -4.59989,2.243 -7.97784,6.37978 -9.39992,11.51154 -0.43716,1.57752 -0.54194,2.73682 -0.54194,5.99586 v 4.04022 h 4.06456 4.06456 l 0.12871,-3.79132 c 0.11542,-3.3996 0.20229,-3.95202 0.84077,-5.34665 0.39163,-0.85543 1.01537,-1.953 1.38608,-2.43903 1.65399,-2.16849 5.44151,-3.7207 8.29113,-3.39788 3.18106,0.36036 6.20572,2.60481 7.63848,5.66812 0.6361,1.35999 0.71098,1.85457 0.79431,5.24633 0.10271,4.1801 0.2699,3.81886 -1.94089,4.19362 -3.66269,0.62087 -7.129,3.86587 -8.36227,7.82837 -0.4724,1.51782 -0.50127,2.70683 -0.50127,20.64535 0,18.45047 0.0165,19.08389 0.53899,20.63476 1.05874,3.1428 3.07582,5.45785 6.01782,6.90676 l 1.76503,0.86927 10.85419,0.0666 c 5.9698,0.0366 14.49483,0.0961 18.94451,0.13229 4.44968,0.0362 8.79546,-0.0225 9.65729,-0.13031 z m -24.58063,-16.27426 c -0.0645,-0.10914 0.20546,-2.87734 0.60002,-6.15156 l 0.71739,-5.95312 -0.73438,-0.79375 c -2.85957,-3.09076 -2.41053,-8.14332 0.92263,-10.3813 2.99956,-2.01399 6.33143,-1.72609 8.87404,0.7668 2.52807,2.47862 2.55286,6.92729 0.0536,9.6145 l -0.73824,0.79375 0.71126,5.95312 c 0.3912,3.27422 0.66295,6.04242 0.60389,6.15156 -0.0591,0.10914 -2.53411,0.19844 -5.50011,0.19844 -2.966,0 -5.44554,-0.0893 -5.51009,-0.19844 z"
       id="path1"
       sodipodi:nodetypes="cscccssscsssssscccssssssssssscssccsscsssscsssss" /><path
       style="display:none;fill:#013a60;fill-opacity:1"
       d="m 36.104332,183.15812 c -3.009572,-0.37493 -6.078632,-2.34532 -7.799012,-5.00709 -1.91826,-2.96792 -1.8835,-2.49688 -1.79299,-24.29791 l 0.0807,-19.44687 0.83728,-1.76732 c 1.7622,-3.71962 4.56334,-5.769 9.150742,-6.69487 l 0.72761,-0.14685 0.005,-3.63298 c 0.006,-4.46564 0.42922,-6.62261 1.88248,-9.58611 0.883644,-1.80193 1.555134,-2.69959 3.378204,-4.51604 2.31204,-2.30365 3.50595,-3.11472 6.11181,-4.15202 4.80164,-1.91137 10.5186,-1.49415 15.21688,1.11053 2.6121,1.44812 5.5262,4.46202 6.92353,7.16065 1.60382,3.09743 1.95562,4.6644 2.12447,9.4626 l 0.14677,4.17093 0.69261,0.14058 c 3.04993,0.61905 4.98328,1.58474 6.6988,3.346 1.48681,1.52645 2.66089,3.69811 3.08879,5.71323 0.20422,0.9617 0.29773,7.15624 0.29773,19.72202 0,19.91892 -0.002,19.94727 -1.49798,22.69611 -1.22176,2.24479 -3.8316,4.48328 -6.21879,5.33394 -1.02475,0.36516 -37.410894,0.72078 -40.054274,0.39147 z m 24.560814,-16.27427 c 0.0574,-0.10914 -0.22051,-2.87613 -0.61755,-6.14886 l -0.72188,-5.95043 0.80026,-0.91144 c 2.44623,-2.78611 2.40824,-6.98934 -0.0859,-9.50008 -4.35689,-4.38594 -11.68188,-1.43269 -11.70109,4.71758 -0.006,1.97816 0.43422,3.18267 1.68415,4.60627 l 0.87442,0.9959 -0.6833,5.99631 c -0.37581,3.29798 -0.62831,6.08561 -0.56112,6.19475 0.0672,0.10914 2.54891,0.19844 5.51491,0.19844 2.966,0 5.43968,-0.0893 5.49706,-0.19844 z m 3.84603,-44.97917 c -0.098,-3.5653 -0.1682,-4.02866 -0.81208,-5.36113 -1.95888,-4.05377 -6.54598,-6.25538 -10.78958,-5.17852 -3.05881,0.77621 -5.29711,2.73127 -6.51428,5.68997 -0.53086,1.29042 -0.6081,1.9342 -0.61359,5.11427 l -0.006,3.63802 h 9.42155 9.42154 z"
       id="path2"
       sodipodi:nodetypes="ssscssccsssssscsssscssssscsscscssssscsssccccc" /></g></svg>
