<?xml version="1.0" encoding="UTF-8"?>
<svg width="20" height="20" version="1.1" viewBox="0 0 20 20" xmlns="http://www.w3.org/2000/svg" xmlns:cc="http://creativecommons.org/ns#" xmlns:dc="http://purl.org/dc/elements/1.1/" xmlns:rdf="http://www.w3.org/1999/02/22-rdf-syntax-ns#">
 <title>moon</title>
 <path id="the_sun" d="m14.533 1.3026c-0.7616 0.25566-1.8617 0.13693-2.0262 2.2932-0.20652 0.41077-0.81467 0.17388-1.3665 1.3247l-0.42234-0.028159-0.84466-3.3248-0.84466 3.3248-0.30292 0.040012c-0.80407-0.50655-0.64129-1.1149-0.97716-1.7819-0.28101-0.83969-1.6596-0.074332-2.1637-1.7797-0.36905 1.6844 1.2574 2.4354 1.1913 2.8908-0.064952 0.96942 0.099066 1.1733 0.27472 1.4641l-0.27472 0.1257-3.5432-2.0588 2.1636 3.4947-0.18298 0.22526c-0.35812-0.36815-0.83097-0.51346-1.2297-0.53248-0.95168-0.011716-0.72379 0.55709-2.8387-0.56695 0.45043 0.99303 1.163 1.5703 2.0528 1.6587 0.63781 0.12529 0.85075 0.91298 1.3821 1.0864l-0.11254 0.32375-4.1669 0.92914 4.2514 0.87284 0.042274 0.30966c-0.97912 0.54446-0.42419 0.96491-1.6189 1.2107-0.64417 0.16803-1.4444 0.75161-1.7785 1.688 0.74713-0.4535 0.91583-0.83488 2.4272-0.54993 0.64666 0.07171 1.0458-0.17213 1.6805-0.63904l0.16668 0.18296-2.5096 3.7507 3.8802-2.4557 0.41021 0.2913c-0.02768 0.50854 0.10692 0.89667-0.17857 1.2236-0.99851 1.1513-0.24856 1.7634-0.84962 2.7668 0.91861-0.61187 0.81722-1.2423 1.7529-1.9079 0.38527-0.34715 0.65147-0.57388 0.75356-1.3715l0.28398 0.06125 0.80497 3.4818 0.90524-3.5333 0.26063-0.03316c0.13038 0.34126 0.30656 1.0232 0.80242 1.3233 1.567 0.79339 0.70676 1.3199 2.0485 1.9697-0.45317-0.85706 0.18169-1.999-1.024-2.7689-0.33791-0.2519-0.22464-0.68115-0.36663-1.0008l0.41194-0.25535 3.863 2.2521-2.3426-3.6035 0.30971-0.36602c0.37293 0.15444 0.85563 0.14568 1.3507 0.1217 0.96889 0.0014 1.2277 0.84947 2.5801 1.0719-1.1086-1.0954-0.925-1.5946-1.6955-2.0756-0.43312-0.25068-1.3763-0.08707-1.6184-0.52211l0.14328-0.39785 4.2654-1.0981-4.2091-0.92914v-0.42232c0.60394-0.25849 0.68187-0.81564 1.1176-0.90095 0.88442-0.086352 1.6777-0.28468 2.4863-1.267-1.3405 0.41538-1.4129 0.1162-2.4364 0.068106-0.73632 0.045356-1.272 0.68141-2.0716 0.43132l-0.15701-0.37788 2.0823-3.3395-3.3017 2.1201-0.42232-0.22521c0.33651-0.83879 0.97776-1.0782 1.0294-1.6366 0.10862-1.1738 0.30925-1.8548 0.70211-2.6289zm-4.5259 4.3607c2.5658 0 4.6512 2.0854 4.6512 4.6512 0 2.5658-2.0854 4.6512-4.6512 4.6512-2.5658 0-4.6512-2.0854-4.6512-4.6512 0-2.5658 2.0854-4.6512 4.6512-4.6512zm0 0.49724c-2.2971 0-4.154 1.8568-4.154 4.154 0 2.2971 1.8569 4.154 4.154 4.154 2.2971 0 4.154-1.8568 4.154-4.154 0-2.2971-1.8568-4.154-4.154-4.154z" fill="#ffd900" stroke-width=".75161" title="The Sun"/>
 <metadata>
  <rdf:RDF>
   <cc:Work rdf:about="">
    <dc:title>moon</dc:title>
   </cc:Work>
  </rdf:RDF>
 </metadata>
</svg>
