<?xml version="1.0" encoding="UTF-8"?>
<!-- Created with Inkscape (http://www.inkscape.org/) -->
<svg id="svg1" width="9.3565mm" height="7.6058mm" version="1.1" viewBox="0 0 9.3565 7.6058" xmlns="http://www.w3.org/2000/svg">
 <path id="path1" d="m0.76963 7.6058c0.0245-0.010648 0.023041-0.011021-0.04393-0.011577-0.0381-3.14e-4 -0.095248-0.00504-0.127-0.010509-0.031749-0.0055-0.084642-0.00843-0.11754-0.00658-0.06378 0.0036-0.12876-0.00298-0.12876-0.013083 0-0.00336 0.02506-0.00821 0.055689-0.010772 0.035763-0.00298 0.058663-0.00873 0.064-0.016039 0.004603-0.00627 0.019409-0.011055 0.033182-0.010659 0.013679 3.897e-4 0.028667-0.00307 0.033306-0.00772 0.006111-0.00611-0.002982-0.00725-0.033069-0.00421-0.089602 0.00916-0.24174-0.02284-0.26991-0.056792-0.008368-0.010093-0.003004-0.010738 0.044015-0.00535 0.076732 0.00883 0.20167 0.00642 0.24212-0.00466l0.034636-0.00951-0.042332-0.010907c-0.048128-0.012402-0.094973-0.033997-0.12315-0.056775-0.018814-0.015206-0.0183-0.015191 0.023091 7.642e-4 0.054873 0.021167 0.18331 0.028892 0.24518 0.014756l0.043453-0.00993-0.10775-0.0335 0.10006-0.00374c0.089067-0.0032813 0.10442-0.0059513 0.13974-0.024147 0.021822-0.011238 0.17616-0.11171 0.34297-0.22327l0.46593-0.33763c0.0707-0.068901 0.17586-0.15062 0.22817-0.17731 0.016998-0.00867 0.051399-0.03525 0.076442-0.059062 0.27739-0.26374 0.55799-0.64811 0.75469-0.83185 1.2887-1.2039 0.84842-0.58232-0.60993 0.8425-0.065 0.063506-0.13121 0.1327-0.14703 0.15387-0.060573 0.081023-0.12593 0.12994-0.21614 0.16177-0.015475 0.0054254-0.10398 0.058189-0.19668 0.11718-0.18558 0.1181-0.45373 0.28529-0.6265 0.39062-0.061382 0.037421-0.12328 0.079196-0.13755 0.092831l-0.025947 0.024788 0.045936 0.00535c0.043778 0.00504 0.13679-0.00649 0.15053-0.018752 0.003311-0.00298-0.012269-0.00951-0.034636-0.014542-0.069797-0.015741-0.062412-0.020823 0.032243-0.022206 0.10596-0.00153 0.11403-0.00421 0.2205-0.071616 0.33581-0.21275 0.65087-0.43501 0.74305-0.52421 0.04884-0.04726 0.10549-0.091756 0.16508-0.12967 0.088633-0.056391 0.10961-0.074993 0.26041-0.2309 0.095771-0.099018 0.48751-0.53919 0.54403-0.61129l0.017622-0.02248-0.01891 0.00527c-0.010402 0.00289-0.040089 0.024092-0.051118 0.00999-0.070663-0.090369-0.093237-0.17426-0.19312-0.17426-0.014851 0-0.22749-0.039228-0.2841-0.05241l-0.063009-0.014673-0.067837 0.035836c-0.037312 0.01971-0.10767 0.062027-0.15635 0.094038-0.1093 0.071871-0.1148 0.074743-0.14707 0.07673-0.035776 0.00221-0.059047-0.0066-0.064717-0.024463-0.0049-0.015434-0.022651-0.020265-0.030111-0.0082-0.00936 0.015135-0.075638 0.039378-0.10767 0.039378-0.027566 0-0.037181-0.00383-0.049803-0.019886l-0.015645-0.019886-0.058663 0.038512c-0.074437 0.048867-0.12206 0.061709-0.16075 0.043349-0.015129-0.00718-0.027508-0.01765-0.027508-0.023267 0-0.018525-0.014437-0.01962-0.04605-0.00349-0.074917 0.038219-0.15604 0.034161-0.17219-0.00862-0.00731-0.019351-0.011592-0.022105-0.027965-0.017958-0.053228 0.013481-0.1012 0.017414-0.12667 0.010381-0.032637-0.00901-0.054066-0.037565-0.047581-0.063401 0.004422-0.017613 0.002778-0.018332-0.051105-0.022422-0.076292-0.0058-0.11787-0.023493-0.13374-0.056943-0.009876-0.020815-0.010738-0.030481-0.004014-0.045234 0.00754-0.016561 0.006543-0.019174-0.008561-0.022265-0.10675-0.021849-0.13497-0.035205-0.15954-0.07551-0.035391-0.058046-0.010842-0.10994 0.079746-0.16859 0.12-0.077687 0.31383-0.12573 0.64765-0.16052 0.2248-0.023427 0.36137-0.055087 0.55977-0.12977 0.25435-0.095741 0.56255-0.25297 0.7333-0.3741 0.042332-0.030029 0.086493-0.06064 0.098135-0.068024 0.017444-0.011067 0.021166-0.018956 0.021166-0.04486 0-0.026823-0.00199-0.030657-0.013471-0.02614-0.052264 0.02054-0.21945 0.059956-0.28497 0.067187-0.17653 0.019481-0.28652-0.035845-0.28652-0.14412v-0.035573l-0.044257 0.00601c-0.07693 0.010448-0.20165 0.0064431-0.26228-0.0084128-0.10509-0.025766-0.16912-0.090866-0.15994-0.16263l0.00402-0.031446-0.09119-0.00893c-0.19726-0.019297-0.30517-0.08664-0.30417-0.18982 2.618e-4 -0.02838 0.00533-0.046473 0.017967-0.064212l0.017586-0.024696-0.025663-0.00888c-0.051908-0.017954-0.18865-0.090859-0.23432-0.12493-0.07391-0.055134-0.10926-0.1165-0.1001-0.17378 0.004932-0.030879 0.03234-0.084604 0.043152-0.084604 0.00337 0 0.00811-0.00521 0.010556-0.011576 0.00324-0.00844-0.011665-0.019794-0.054978-0.041898-0.15445-0.078818-0.24241-0.17227-0.26214-0.2785-0.006111-0.03294-0.001213-0.094923 0.010681-0.13507 0.004173-0.014083-4.0138e-4 -0.019477-0.028496-0.033597-0.19627-0.098653-0.41175-0.26647-0.46899-0.36526-0.055166-0.095218 0.0017985-0.21059 0.10456-0.21176l0.030787-3.522e-4 -0.023647-0.02094c-0.013006-0.011518-0.059308-0.052114-0.10289-0.090213-0.13639-0.11923-0.2197-0.22924-0.23992-0.31684-0.0079256-0.03434-0.0072566-0.04276 0.0055332-0.068952 0.020572-0.04213 0.069899-0.066891 0.12319-0.061836 0.069125 0.00656 0.14005 0.052017 0.33779 0.21653 0.48147 0.31914 0.98915 0.57973 1.5423 0.73857 0.044592 0.013266 0.32175 0.050555 0.37576 0.050555h0.024772l-0.00456-0.04881c-0.00277-0.029654-9.627e-4 -0.059711 0.0046-0.076584 0.00861-0.026078 0.047859-0.068441 0.070979-0.076603 0.00792-0.0028 0.00641-0.00889-0.00647-0.025904-0.031154-0.041141-0.08381-0.12968-0.10051-0.16899-0.059114-0.13918-0.017767-0.26504 0.08707-0.26504 0.025598 0 0.02776-0.00161 0.023274-0.017318-0.037778-0.13229-0.046338-0.18283-0.046603-0.27516-2.443e-4 -0.085596 0.00166-0.099818 0.017194-0.12891 0.026592-0.04978 0.069591-0.074511 0.13183-0.075828 0.22105 0.051161 0.054316 0.16486 0.012398-0.17625-0.00645-0.056171 0.00833-0.15271 0.031223-0.2037 0.010964-0.024423 0.034382-0.058385 0.052047-0.075469 0.032746-0.031668 0.084848-0.06334 0.1042-0.06334 0.01181 0 0.0118-1.456e-4 -0.011101-0.15394-0.01709-0.11475-0.019535-0.36988-0.00412-0.43102 0.021203-0.084153 0.056815-0.12932 0.11594-0.14703 0.04307-0.012905 0.078234-0.003311 0.11882 0.032417l0.03551 0.031257v-0.045717c0-0.080851 0.01558-0.24222 0.030268-0.31349 0.019702-0.095612 0.041906-0.15017 0.077623-0.19075 0.040935-0.046505 0.071069-0.052396 0.1273-0.024884 0.034725 0.016989 0.044261 0.026517 0.061204 0.061149 0.031445 0.064271 0.036438 0.12343 0.031226 0.37-0.00876 0.41398 0.012192 0.58385 0.11999 0.97322 0.13079 0.47246 0.2345 0.71104 0.45182 1.0395 0.08083 0.12216 0.24549 0.34947 0.36242 0.50029 0.041023 0.052916 0.092911 0.11997 0.11531 0.14901 0.070902 0.091934 0.16154 0.23649 0.20819 0.33205 0.08762 0.2225 0.11972 0.40322 0.14645 0.5799v0.083457l0.12823 0.00506c0.18873 0.00743 0.44681 0.00615 0.58119-0.00289 0.41319-0.027824 0.66026-0.13874 0.94064-0.42228 0.10505-0.10623 0.19439-0.17343 0.2938-0.221 0.10373-0.049628 0.15163-0.060416 0.26898-0.060586 0.083727-1.163e-4 0.10943 0.0028 0.15745 0.017876 0.10767 0.033812 0.24537 0.1146 0.33762 0.19808l0.04694 0.042478c0.61014 0.21483 0.6391 0.25876 1.4245 0.41863 0.36196 0.073677 0.35821 0.065509 0.3859 0.087933 0.015738 0.012743 0.016463 0.015797 0.00658 0.027738-0.010199 0.012309-0.025138 0.012998-0.18063 0.00832-0.47064-0.014139-0.59022-0.04261-1.3105-0.073636l-0.34053-0.014668-0.064286 0.030126c-0.093314 0.043728-0.14104 0.052477-0.3553 0.065134-0.10583 0.00625-0.23052 0.014911-0.27709 0.019246-0.046566 0.00434-0.13202 0.011157-0.1899 0.015171-0.10798 0.0074837-0.17184 0.020725-0.29784 0.061766-0.25527 0.083146-0.60459 0.25232-0.83795 0.40582-0.10287 0.067665-0.20202 0.14418-0.32827 0.25334-0.06299 0.054459-0.12917 0.11114-0.14706 0.12596-0.10333 0.085559-0.17176 0.14568-0.25404 0.22321-0.19147 0.1804-0.32002 0.26606-0.51184 0.34105-0.17919 0.070053-0.36215 0.10385-0.59651 0.1102l-0.15394 0.00417-0.096639 0.04101c-0.11777 0.049979-0.2419 0.091651-0.32126 0.10786l-0.059301 0.01211-0.17703 0.1752c-0.35458 0.35092-0.56259 0.55472-0.59507 0.58301-0.01826 0.015907-0.04541 0.047317-0.060332 0.0698-0.039159 0.058996-0.098157 0.10886-0.16431 0.13888-0.09664 0.043847-0.11628 0.055263-0.33701 0.19587-0.11732 0.074733-0.31444 0.19807-0.43804 0.27408-0.1236 0.076017-0.24216 0.15388-0.26346 0.17303zm-0.023143-0.074007c0.044787-0.00936 0.066505-0.022267 0.037448-0.022267-0.009876 0-0.030901-0.0039-0.046711-0.00862-0.025868-0.00774-0.032317-0.00649-0.064392 0.01228-0.019606 0.011493-0.035645 0.02229-0.035645 0.02401 0 0.00633 0.069727 0.00282 0.1093-0.00544z" fill="#d40000" stroke-width=".02909"/>
</svg>
