<?xml version="1.0" encoding="UTF-8" standalone="no"?>
<!-- Created with Inkscape (http://www.inkscape.org/) -->

<svg
   width="131.47559mm"
   height="131.47559mm"
   viewBox="0 0 131.47559 131.47559"
   version="1.1"
   id="svg1"
   xml:space="preserve"
   inkscape:version="1.4.3 (fcd0343856, 2026-01-01)"
   xmlns:inkscape="http://www.inkscape.org/namespaces/inkscape"
   xmlns:sodipodi="http://sodipodi.sourceforge.net/DTD/sodipodi-0.dtd"
   xmlns="http://www.w3.org/2000/svg"
   xmlns:svg="http://www.w3.org/2000/svg"><sodipodi:namedview
     id="namedview1"
     pagecolor="#ffffff"
     bordercolor="#000000"
     borderopacity="0.25"
     inkscape:showpageshadow="2"
     inkscape:pageopacity="0.0"
     inkscape:pagecheckerboard="0"
     inkscape:deskcolor="#d1d1d1"
     inkscape:document-units="mm"
     showguides="true"
     inkscape:zoom="0.78484147"
     inkscape:cx="352.30045"
     inkscape:cy="354.84873"
     inkscape:window-width="1366"
     inkscape:window-height="699"
     inkscape:window-x="0"
     inkscape:window-y="0"
     inkscape:window-maximized="1"
     inkscape:current-layer="layer1"><sodipodi:guide
       position="94.05561,29.302113"
       orientation="0,-1"
       id="guide2"
       inkscape:locked="false" /><sodipodi:guide
       position="45.005102,3.5126677"
       orientation="1,0"
       id="guide3"
       inkscape:locked="false" /></sodipodi:namedview><defs
     id="defs1" /><g
     inkscape:label="Layer 1"
     inkscape:groupmode="layer"
     id="layer1"
     transform="translate(18.808041,-74.774612)"><circle
       style="opacity:1;fill:#7f878b;fill-opacity:1;stroke-width:0.226289;stroke-linecap:square;stroke-dasharray:0.569764, 1.70929;stroke-dashoffset:0.199417"
       id="path3"
       cx="46.929752"
       cy="140.51241"
       r="65.737793" /><path
       style="display:none;fill:#013a60;fill-opacity:1"
       d="m 36.104332,183.15812 c -3.009572,-0.37493 -6.078632,-2.34532 -7.799012,-5.00709 -1.91826,-2.96792 -1.8835,-2.49688 -1.79299,-24.29791 l 0.0807,-19.44687 0.83728,-1.76732 c 1.7622,-3.71962 4.56334,-5.769 9.150742,-6.69487 l 0.72761,-0.14685 0.005,-3.63298 c 0.006,-4.46564 0.42922,-6.62261 1.88248,-9.58611 0.883644,-1.80193 1.555134,-2.69959 3.378204,-4.51604 2.31204,-2.30365 3.50595,-3.11472 6.11181,-4.15202 4.80164,-1.91137 10.5186,-1.49415 15.21688,1.11053 2.6121,1.44812 5.5262,4.46202 6.92353,7.16065 1.60382,3.09743 1.95562,4.6644 2.12447,9.4626 l 0.14677,4.17093 0.69261,0.14058 c 3.04993,0.61905 4.98328,1.58474 6.6988,3.346 1.48681,1.52645 2.66089,3.69811 3.08879,5.71323 0.20422,0.9617 0.29773,7.15624 0.29773,19.72202 0,19.91892 -0.002,19.94727 -1.49798,22.69611 -1.22176,2.24479 -3.8316,4.48328 -6.21879,5.33394 -1.02475,0.36516 -37.410894,0.72078 -40.054274,0.39147 z m 24.560814,-16.27427 c 0.0574,-0.10914 -0.22051,-2.87613 -0.61755,-6.14886 l -0.72188,-5.95043 0.80026,-0.91144 c 2.44623,-2.78611 2.40824,-6.98934 -0.0859,-9.50008 -4.35689,-4.38594 -11.68188,-1.43269 -11.70109,4.71758 -0.006,1.97816 0.43422,3.18267 1.68415,4.60627 l 0.87442,0.9959 -0.6833,5.99631 c -0.37581,3.29798 -0.62831,6.08561 -0.56112,6.19475 0.0672,0.10914 2.54891,0.19844 5.51491,0.19844 2.966,0 5.43968,-0.0893 5.49706,-0.19844 z m 3.84603,-44.97917 c -0.098,-3.5653 -0.1682,-4.02866 -0.81208,-5.36113 -1.95888,-4.05377 -6.54598,-6.25538 -10.78958,-5.17852 -3.05881,0.77621 -5.29711,2.73127 -6.51428,5.68997 -0.53086,1.29042 -0.6081,1.9342 -0.61359,5.11427 l -0.006,3.63802 h 9.42155 9.42154 z"
       id="path2"
       sodipodi:nodetypes="ssscssccsssssscsssscssssscsscscssssscsssccccc" /><path
       style="display:inline;fill:#ffffff;fill-opacity:1;stroke-width:0.9085"
       d="m 63.89405,174.54972 c 3.199355,-0.4003 6.209641,-2.70642 7.768663,-5.95142 l 0.866136,-1.80279 v -18.14824 -18.14822 l -0.53795,-1.32206 c -1.124332,-2.76316 -3.292984,-4.85241 -6.300963,-6.07026 -1.317751,-0.53353 -1.491729,-0.54088 -14.460534,-0.61147 l -13.126738,-0.0714 -0.12868,-3.77454 c -0.106395,-3.12092 -0.231586,-4.09367 -0.722957,-5.61741 -2.247301,-6.96886 -8.270063,-11.50058 -15.320874,-11.52792 -2.784179,-0.0108 -4.989317,0.47374 -7.31325,1.60693 -4.178998,2.03777 -7.2478639,5.79603 -8.5398231,10.45824 -0.3971597,1.43317 -0.4923523,2.4864 -0.4923523,5.44723 v 3.67054 H 9.2773789 12.97003 l 0.116933,-3.44441 c 0.104859,-3.08854 0.18378,-3.59041 0.763839,-4.85743 0.355796,-0.77716 0.922463,-1.7743 1.259253,-2.21586 1.502649,-1.97007 4.94361,-3.38025 7.532489,-3.08697 2.889991,0.32738 5.637894,2.36647 6.939556,5.14948 0.577896,1.23555 0.645925,1.68488 0.72163,4.76629 0.09331,3.79762 0.245204,3.46943 -1.763298,3.8099 -3.327552,0.56406 -6.476694,3.51214 -7.597119,7.11207 -0.429175,1.37894 -0.455403,2.45916 -0.455403,18.7563 0,16.76224 0.01499,17.3377 0.489672,18.74667 0.961865,2.85523 2.794381,4.95845 5.467187,6.27479 l 1.603529,0.78973 9.861028,0.0605 c 5.423561,0.0332 13.168547,0.0873 17.21108,0.12018 4.042533,0.0329 7.990672,-0.0204 8.773644,-0.11839 z M 41.562557,159.76456 c -0.0586,-0.0992 0.186661,-2.61406 0.545118,-5.58869 l 0.651749,-5.4084 -0.667184,-0.72113 c -2.597919,-2.80795 -2.189966,-7.3982 0.838209,-9.4314 2.725099,-1.82971 5.752102,-1.56816 8.062062,0.69663 2.29675,2.25183 2.319272,6.29344 0.0487,8.73477 l -0.67069,0.72113 0.646179,5.4084 c 0.355405,2.97463 0.60229,5.48954 0.548634,5.58869 -0.05369,0.0992 -2.302238,0.18029 -4.996848,0.18029 -2.69461,0 -4.947271,-0.0811 -5.005915,-0.18029 z"
       id="path1"
       sodipodi:nodetypes="cscccssscsssssscccssssssssssscssccsscsssscsssss" /></g></svg>
