<?xml version="1.0" encoding="UTF-8"?>
<!-- Created with Inkscape (http://www.inkscape.org/) -->
<svg id="svg1" width="131.48mm" height="131.48mm" version="1.1" viewBox="0 0 131.48 131.48" xml:space="preserve" xmlns="http://www.w3.org/2000/svg"><g id="layer1" transform="translate(18.808 -74.775)"><circle id="path3" cx="46.93" cy="140.51" r="65.738" style="fill:#21232f;stroke-dasharray:0.569764, 1.70929;stroke-dashoffset:.19942;stroke-linecap:square;stroke-width:.22629"/><path id="path2" d="m36.104 183.16c-3.0096-0.37493-6.0786-2.3453-7.799-5.0071-1.9183-2.9679-1.8835-2.4969-1.793-24.298l0.0807-19.447 0.83728-1.7673c1.7622-3.7196 4.5633-5.769 9.1507-6.6949l0.72761-0.14685 5e-3 -3.633c6e-3 -4.4656 0.42922-6.6226 1.8825-9.5861 0.88364-1.8019 1.5551-2.6996 3.3782-4.516 2.312-2.3036 3.506-3.1147 6.1118-4.152 4.8016-1.9114 10.519-1.4942 15.217 1.1105 2.6121 1.4481 5.5262 4.462 6.9235 7.1606 1.6038 3.0974 1.9556 4.6644 2.1245 9.4626l0.14677 4.1709 0.69261 0.14058c3.0499 0.61905 4.9833 1.5847 6.6988 3.346 1.4868 1.5264 2.6609 3.6981 3.0888 5.7132 0.20422 0.9617 0.29773 7.1562 0.29773 19.722 0 19.919-2e-3 19.947-1.498 22.696-1.2218 2.2448-3.8316 4.4833-6.2188 5.3339-1.0248 0.36516-37.411 0.72078-40.054 0.39147zm24.561-16.274c0.0574-0.10914-0.22051-2.8761-0.61755-6.1489l-0.72188-5.9504 0.80026-0.91144c2.4462-2.7861 2.4082-6.9893-0.0859-9.5001-4.3569-4.3859-11.682-1.4327-11.701 4.7176-6e-3 1.9782 0.43422 3.1827 1.6842 4.6063l0.87442 0.9959-0.6833 5.9963c-0.37581 3.298-0.62831 6.0856-0.56112 6.1948 0.0672 0.10914 2.5489 0.19844 5.5149 0.19844s5.4397-0.0893 5.4971-0.19844zm3.846-44.979c-0.098-3.5653-0.1682-4.0287-0.81208-5.3611-1.9589-4.0538-6.546-6.2554-10.79-5.1785-3.0588 0.77621-5.2971 2.7313-6.5143 5.69-0.53086 1.2904-0.6081 1.9342-0.61359 5.1143l-6e-3 3.638h18.843z" style="display:none;fill:#013a60"/><path id="path1" d="m63.894 174.55c3.1994-0.4003 6.2096-2.7064 7.7687-5.9514l0.86614-1.8028v-36.296l-0.53795-1.3221c-1.1243-2.7632-3.293-4.8524-6.301-6.0703-1.3178-0.53353-1.4917-0.54088-14.461-0.61147l-13.127-0.0714-0.12868-3.7745c-0.1064-3.1209-0.23159-4.0937-0.72296-5.6174-2.2473-6.9689-8.2701-11.501-15.321-11.528-2.7842-0.0108-4.9893 0.47374-7.3132 1.6069-4.179 2.0378-7.2479 5.796-8.5398 10.458-0.39716 1.4332-0.49235 2.4864-0.49235 5.4472v3.6705h7.3853l0.11693-3.4444c0.10486-3.0885 0.18378-3.5904 0.76384-4.8574 0.3558-0.77716 0.92246-1.7743 1.2593-2.2159 1.5026-1.9701 4.9436-3.3802 7.5325-3.087 2.89 0.32738 5.6379 2.3665 6.9396 5.1495 0.5779 1.2356 0.64592 1.6849 0.72163 4.7663 0.09331 3.7976 0.2452 3.4694-1.7633 3.8099-3.3276 0.56406-6.4767 3.5121-7.5971 7.1121-0.42918 1.3789-0.4554 2.4592-0.4554 18.756 0 16.762 0.01499 17.338 0.48967 18.747 0.96186 2.8552 2.7944 4.9584 5.4672 6.2748l1.6035 0.78973 9.861 0.0605c5.4236 0.0332 13.169 0.0873 17.211 0.12018 4.0425 0.0329 7.9907-0.0204 8.7736-0.11839zm-22.331-14.785c-0.0586-0.0992 0.18666-2.6141 0.54512-5.5887l0.65175-5.4084-0.66718-0.72113c-2.5979-2.808-2.19-7.3982 0.83821-9.4314 2.7251-1.8297 5.7521-1.5682 8.0621 0.69663 2.2968 2.2518 2.3193 6.2934 0.0487 8.7348l-0.67069 0.72113 0.64618 5.4084c0.3554 2.9746 0.60229 5.4895 0.54863 5.5887-0.05369 0.0992-2.3022 0.18029-4.9968 0.18029s-4.9473-0.0811-5.0059-0.18029z" style="fill:#ffffff;stroke-width:.9085"/></g></svg>
