<?xml version="1.0" encoding="UTF-8"?>
<!-- Created with Inkscape (http://www.inkscape.org/) -->
<svg id="svg5" width="82.182mm" height="53.123mm" version="1.1" viewBox="0 0 82.182 53.123" xmlns="http://www.w3.org/2000/svg">
 <g id="layer1" transform="translate(-62.811 -77.402)">
  <path id="path2" d="m71.941 109.29c16.85-28.324 47.548-28.893 62.715 0.41268" style="fill:none;stroke-linecap:round;stroke-linejoin:round;stroke-width:2.365;stroke:#00b2e3"/>
  <path id="path3" d="m77.105 100.6-6.6674-3.7463" style="fill:none;stroke-linecap:round;stroke-linejoin:round;stroke-width:2.365;stroke:#00b2e3"/>
  <path id="path4" d="m88.048 91.245-3.5664-5.9615" style="fill:none;stroke-linecap:round;stroke-linejoin:round;stroke-width:2.365;stroke:#00b2e3"/>
  <path id="path5" d="m103.52 87.705v-5.7792" style="fill:none;stroke-linecap:round;stroke-linejoin:round;stroke-width:2.365;stroke:#00b2e3"/>
  <path id="path6" d="m129.6 100.47 6.6674-3.7463" style="fill:none;stroke-linecap:round;stroke-linejoin:round;stroke-width:2.365;stroke:#00b2e3"/>
  <path id="path7" d="m118.66 91.118 3.5664-5.9615" style="fill:none;stroke-linecap:round;stroke-linejoin:round;stroke-width:2.365;stroke:#00b2e3"/>
  <g id="g24" transform="matrix(1.5231 0 0 1.5231 -54.687 -61.578)">
   <g id="g31" transform="matrix(.63067 0 0 .63067 38.705 38.801)" style="fill:#00b2e3">
    <path id="path17" d="m96.581 107.36v-6.9839l7.0069 7.0069z" style="fill:#00b2e3"/>
    <path id="path24" d="m110.43 107.31v-6.9839l-7.0069 7.0069z" style="fill:#00b2e3"/>
    <path id="path25" d="m96.627 107.31h-6.9839l7.0069 7.0069z" style="fill:#00b2e3"/>
    <path id="path26" d="m96.627 121.17h-6.9839l7.0069-7.0069z" style="fill:#00b2e3"/>
    <path id="path27" d="m96.627 121.17h-6.9839l7.0069-7.0069z" style="fill:#00b2e3"/>
    <path id="path28" d="m96.627 121.17v6.9839l7.0069-7.0069z" style="fill:#00b2e3"/>
    <path id="path29" d="m110.48 121.21v6.9839l-7.0069-7.0069z" style="fill:#00b2e3"/>
    <path id="path30" d="m110.43 121.21 6.9839-1e-5 -7.0069-7.0069z" style="fill:#00b2e3"/>
    <path id="path31" d="m110.48 107.36h6.9839l-7.0069 7.0069z" style="fill:#00b2e3"/>
    <rect id="rect31" x="96.581" y="107.31" width="13.968" height="13.968" style="fill:#00b2e3"/>
   </g>
  </g>
 </g>
</svg>
