<?xml version="1.0" encoding="UTF-8" standalone="no"?>
<!-- Created with Inkscape (http://www.inkscape.org/) -->

<svg
   width="7.2321mm"
   height="7.2352mm"
   version="1.1"
   viewBox="0 0 7.2321 7.2352"
   xml:space="preserve"
   id="svg92685"
   sodipodi:docname="venus-cycle.svg"
   inkscape:version="1.2.2 (b0a8486541, 2022-12-01)"
   xmlns:inkscape="http://www.inkscape.org/namespaces/inkscape"
   xmlns:sodipodi="http://sodipodi.sourceforge.net/DTD/sodipodi-0.dtd"
   xmlns="http://www.w3.org/2000/svg"
   xmlns:svg="http://www.w3.org/2000/svg"><defs
     id="defs92689" /><sodipodi:namedview
     id="namedview92687"
     pagecolor="#ffffff"
     bordercolor="#000000"
     borderopacity="0.25"
     inkscape:showpageshadow="2"
     inkscape:pageopacity="0.0"
     inkscape:pagecheckerboard="0"
     inkscape:deskcolor="#d1d1d1"
     inkscape:document-units="mm"
     showgrid="false"
     inkscape:zoom="3.0512582"
     inkscape:cx="52.109651"
     inkscape:cy="-8.1933414"
     inkscape:window-width="1503"
     inkscape:window-height="934"
     inkscape:window-x="0"
     inkscape:window-y="0"
     inkscape:window-maximized="1"
     inkscape:current-layer="svg92685" /><g
     id="g92820"
     transform="matrix(0.04211477,0,0,0.04211477,3.3504735,3.8292208)"><path
       style="fill:#fae1a0;stroke-width:0.264583"
       d="M 1.5146462,60.364484 C -8.9490315,58.962126 -18.417503,55.390307 -27.005666,49.605687 -36.76248,43.033911 -44.115259,34.604932 -49.244354,24.111996 c -2.341053,-4.789249 -3.55999,-8.04301 -4.744539,-12.664805 -1.262493,-4.925909 -1.764385,-8.7869973 -1.913357,-14.7195693 -0.279889,-11.1461417 1.755589,-20.5806357 6.536056,-30.2947907 6.474469,-13.156457 16.424067,-23.288025 29.253241,-29.788262 10.2254233,-5.180979 20.15126395,-7.384777 31.720926,-7.042883 5.707695,0.168668 9.018508,0.610156 14.176687,1.890421 4.647263,1.153456 7.934145,2.37869 12.86978,4.7974 19.035151,9.328185 32.031875,26.795799 35.84754,48.179144 0.528854,2.963751 0.606877,4.286834 0.613701,10.4068874 0.0061,5.51450653 -0.09477,7.6590655 -0.472657,10.044734 C 72.045572,21.318229 63.473078,36.172286 50.649539,46.495166 45.909,50.311275 38.041718,54.717035 32.034327,56.919879 c -3.256372,1.194075 -8.697306,2.598206 -12.341036,3.184824 -3.770956,0.6071 -14.4485888,0.759687 -18.1786448,0.259781 z"
       id="path92834" /><path
       style="fill:#fbd26d;stroke-width:0.264583"
       d="M 2.0639106,60.342979 C -23.128523,57.288586 -44.083853,40.442727 -52.395783,16.563164 c -3.31235,-9.5161364 -4.278357,-19.6247964 -2.918269,-30.537867 0.832476,-6.679615 2.838736,-13.142195 6.123406,-19.724758 6.809485,-13.646385 16.62337,-23.434781 30.12248,-30.044245 6.286137,-3.077832 12.5622175,-5.006998 19.89529244,-6.115492 4.08386736,-0.617333 13.44095756,-0.611755 17.67553956,0.01054 11.39768,1.674942 21.043788,5.638544 30.542204,12.549844 3.179178,2.313254 9.089432,7.942029 11.58331,11.031648 7.253872,8.986689 12.031808,19.812759 14.012423,31.749999 0.741428,4.468609 0.670412,15.15573017 -0.131689,19.8180509 C 72.77351,15.388148 69.54258,23.587879 64.073444,31.784914 54.657939,45.896688 39.545318,56.035309 22.856273,59.436321 16.483823,60.734944 8.2559832,61.093722 2.0639106,60.34298 Z"
       id="path92832" /><path
       style="fill:#fdd040;stroke-width:0.264583"
       d="M 3.6406684,60.486168 C -12.178028,58.953914 -26.663909,51.929176 -37.822835,40.378984 -47.238764,30.632904 -53.669161,17.180085 -55.336571,3.7390798 c -0.60679,-4.8913387 -0.60679,-12.3065775 0,-17.1979158 0.526982,-4.248005 2.067422,-10.593647 3.408503,-14.040882 4.781916,-12.291861 12.693337,-22.81003 22.731589,-30.221456 2.214813,-1.635239 8.044026,-5.069492 10.789771,-6.356742 25.6222993,-12.01216 55.833545,-6.436237 75.444043,13.92429 7.6391,7.931269 12.718536,16.899488 15.838037,27.96354 1.892001,6.710434 2.539796,12.140842 2.288267,19.182291 -0.371422,10.3976935 -2.557028,18.927013 -7.179302,28.017184 -3.318777,6.526712 -6.642338,11.076111 -12.021086,16.45486 -5.440437,5.440437 -9.833057,8.647025 -16.485565,12.034372 -6.471841,3.295351 -13.54187,5.559829 -20.578145,6.59103 -3.552394,0.520618 -11.7724475,0.734226 -15.2588726,0.396517 z"
       id="path92830" /><path
       style="fill:#fec93a;stroke-width:0.264583"
       d="M 5.2734994,60.601765 C -5.2018226,59.558489 -12.508466,57.484322 -20.678267,53.234736 -30.567793,48.090619 -38.80681,40.687655 -44.992209,31.388038 c -2.781276,-4.181586 -5.929344,-10.652945 -7.529515,-15.478125 -1.149664,-3.466714 -2.662066,-9.7755841 -2.662066,-11.10461 0,-0.2704994 1.795834,1.353357 4.431771,4.0073685 13.839946,13.9348415 27.895327,22.0808225 44.0631455,25.5373765 3.8456498,0.822169 4.2840697,0.860597 9.8457064,0.862941 8.1881631,0.0035 11.3743051,-0.706583 19.8421241,-4.421828 7.819697,-3.430886 9.601158,-3.90104 14.781395,-3.90104 h 3.292702 l 2.1736,-2.447396 c 2.829039,-3.185398 5.893072,-7.272924 7.630861,-10.17983 C 52.35998,11.783082 55.262433,6.0148219 55.10631,5.8586966 55.054674,5.8070631 53.346167,6.1746144 51.30963,6.6754785 44.326913,8.3928042 38.748957,9.1574897 33.1801,9.1608685 28.504307,9.1636995 26.002904,8.8296869 21.163562,7.5562764 2.7348542,2.7069985 -1.3643828,2.0004023 -13.247333,1.6247945 c -7.84661,-0.2480231 -11.619783,-0.99227747 -18.520833,-3.6532158 -5.862981,-2.260674 -18.83329,-9.1626737 -22.998395,-12.2383287 -0.499556,-0.36889 -0.495611,-0.43957 0.216799,-3.884948 0.741499,-3.586057 2.388131,-9.023014 3.487262,-11.514465 l 0.613505,-1.390664 1.402915,0.566222 c 4.054021,1.636215 5.789071,2.286852 10.234968,3.838077 29.9702633,10.456963 62.468041,13.986349 93.416455,10.145395 5.628444,-0.698534 5.485535,-0.656121 5.678612,-1.685311 0.3171,-1.690301 -0.718019,-13.55798 -1.226939,-14.066903 -0.04952,-0.04953 -1.120492,0.135138 -2.379925,0.410361 -11.536526,2.521053 -27.478822,3.181659 -41.084842,1.702448 -11.8812649,-1.291701 -23.8527633,-3.907803 -35.791678,-7.82147 -9.068027,-2.972567 -20.696861,-7.810896 -20.696861,-8.6112 0,-0.632341 7.669651,-8.074078 10.528516,-10.215645 1.49782,-1.122013 2.825671,-2.040024 2.950784,-2.040024 0.125111,0 1.735585,1.016712 3.578834,2.259361 9.160753,6.175833 20.7201176,10.040742 34.535614,11.547089 3.946979,0.43035 16.609503,0.424937 21.034374,-0.009 5.353364,-0.524983 12.113772,-1.54034 17.116683,-2.570779 2.512388,-0.517472 4.615453,-0.98833 4.673476,-1.04635 0.141827,-0.14183 -2.624135,-5.00611 -4.087524,-7.188407 -0.645398,-0.962458 -1.135108,-1.78827 -1.088239,-1.835137 0.235772,-0.235774 4.95864,3.819579 8.01535,6.882488 9.516843,9.536139 15.729132,21.794615 18.160245,35.834928 0.492816,2.846141 0.578509,4.315314 0.566008,9.7039241 C 75.072091,1.5277651 74.79849,4.1705398 73.523148,9.85688 71.446908,19.114159 66.514278,29.176191 60.303769,36.822977 57.878501,39.80913 52.806671,44.754142 49.904417,46.962299 40.770196,53.912 29.924698,58.461696 18.58298,60.101668 15.909117,60.488298 7.3597098,60.809537 5.2734994,60.601762 Z"
       id="path92828" /><path
       style="fill:#fdb32a;stroke-width:0.264583"
       d="M 4.4476608,60.494042 C -10.801451,59.212001 -24.786804,52.858763 -36.137518,42.057085 -43.8186,34.747537 -50.173539,24.173668 -53.195472,13.674652 -54.040449,10.738973 -55.18379,5.6194894 -55.18379,4.7716533 c 0,-0.2009986 1.815699,1.4923796 4.034886,3.7630602 8.141768,8.3306945 15.890281,14.2086595 24.942478,18.9211765 11.131621,5.795052 23.2487462,8.7157 32.8441038,7.916569 6.2064342,-0.51689 8.7817952,-1.224534 16.5122382,-4.537144 7.823517,-3.352496 9.283752,-3.751442 13.954523,-3.812479 l 3.785111,-0.04946 1.331703,-1.298395 c 1.969305,-1.920052 5.349772,-6.189308 7.559289,-9.546772 1.808731,-2.74845 4.732599,-8.1697143 5.329168,-9.8810366 L 55.36856,5.5046338 53.472069,6.0320172 C 47.879148,7.58732 40.723878,8.7672055 35.171415,9.0497488 30.363703,9.2943931 26.641413,8.8592197 21.035479,7.397119 18.478266,6.7301626 14.399804,5.6661937 11.972231,5.0327415 3.2731675,2.7628097 -3.2652685,1.8535373 -13.511916,1.4887722 -20.701931,1.2328196 -23.093264,0.84581088 -28.460874,-0.93054073 -35.014518,-3.0993938 -44.024591,-7.5904788 -52.34777,-12.836999 c -3.154497,-1.988439 -2.949349,-1.5664 -2.307007,-4.746088 1.013379,-5.016368 3.670166,-13.205957 4.284148,-13.205957 0.134928,0 1.875368,0.642985 3.867644,1.428858 18.395221,7.256163 38.5907656,11.956182 59.317109,13.804603 2.546615,0.227113 8.737864,0.480185 13.758333,0.562383 11.769949,0.192701 19.93339,-0.268126 30.427082,-1.717622 l 3.307291,-0.456835 -0.03178,-4.231008 c -0.03071,-4.088709 -0.69387,-10.343819 -1.145228,-10.802151 -0.119779,-0.121629 -1.451763,0.02696 -2.959967,0.330189 -8.833781,1.776087 -14.477217,2.275356 -25.496353,2.255631 -9.581668,-0.01714 -13.120231,-0.258148 -21.4312487,-1.459603 -15.5315305,-2.245262 -34.0310293,-7.690471 -47.1487743,-13.877938 -2.797053,-1.319334 -2.999044,-1.464376 -2.732622,-1.962189 0.55268,-1.03269 6.776762,-7.096953 9.472123,-9.228902 3.703216,-2.929132 3.611049,-2.890073 4.7831,-2.026951 9.328575,6.869754 20.6438569,11.096902 34.8324233,13.012654 4.8971727,0.661223 19.9925347,0.660398 25.6645827,-0.0013 6.112112,-0.713144 14.859563,-2.193218 18.46813,-3.124819 0.863266,-0.222863 0.980329,-0.339341 0.826897,-0.822764 -0.235868,-0.743148 -2.816424,-5.209444 -4.168384,-7.214425 -0.588748,-0.873125 -0.899345,-1.459788 -0.690215,-1.303696 10.981337,8.196343 18.768929,18.85694 23.179409,31.730779 1.022551,2.984743 2.411434,8.61623 2.91846,11.833439 0.697346,4.424825 0.626075,13.5973707 -0.144471,18.5936432 C 72.987441,14.359309 69.603825,23.188211 64.210837,31.388117 57.6874,41.306841 49.186777,48.742344 38.346415,54.011754 32.064842,57.065172 25.932668,58.965153 19.164124,59.955158 14.981797,60.566888 8.2469503,60.813537 4.4476608,60.494122 Z"
       id="path92826" /><path
       style="fill:#fdae26;stroke-width:0.264583"
       d="M 5.6422069,60.459102 C -9.7960077,59.627246 -24.726156,52.95963 -36.61506,41.587534 -44.646121,33.905582 -51.754707,20.915626 -54.214157,9.4276214 c -1.176522,-5.4954883 -1.348778,-5.2907908 1.710734,-2.0329234 5.90458,6.287386 13.026852,12.184718 20.338382,16.840435 3.447177,2.195039 10.855362,5.860238 14.680036,7.262947 3.723944,1.365769 8.7792023,2.730598 12.9689215,3.501377 2.0470203,0.376587 3.87339931,0.482418 8.0697913,0.467609 7.8320632,-0.02764 11.1668292,-0.80405 19.8586162,-4.623554 7.424565,-3.262635 9.32861,-3.754699 14.404924,-3.72268 l 3.175,0.02003 1.614823,-1.686157 c 3.443735,-3.595863 6.614139,-7.885526 9.303163,-12.587499 1.742659,-3.0471774 3.65403,-7.0797184 3.451629,-7.2821193 -0.07061,-0.070609 -1.487191,0.2235226 -3.147956,0.6536293 -7.110563,1.8414973 -12.976013,2.6597397 -19.065967,2.6597397 -4.975064,0 -7.180583,-0.2785983 -11.734858,-1.4823281 C 2.5956781,2.4425422 -0.26520581,1.9400429 -12.322395,1.4906401 -16.240093,1.3446166 -20.013181,1.0631925 -21.318228,0.81966476 -29.725104,-0.74910536 -39.909151,-5.2161927 -51.205863,-12.290119 c -1.956068,-1.224878 -3.64831,-2.291755 -3.760538,-2.370836 -0.257275,-0.18129 0.871873,-5.673182 1.786608,-8.689615 0.605712,-1.997395 2.44543,-7.180712 2.618714,-7.378099 0.03473,-0.03955 2.015148,0.689956 4.400941,1.621134 32.522029,12.693374 69.256417,17.205959 102.482106,12.589277 2.028428,-0.28185 3.801099,-0.512453 3.939267,-0.512453 0.619797,0 -0.316386,-14.219111 -1.010081,-15.341537 -0.06355,-0.102819 -1.816547,0.144045 -3.895556,0.54859 -21.972475,4.275519 -46.5592272,2.49409 -72.042514,-5.219829 -7.376655,-2.232951 -17.572966,-6.149541 -22.576837,-8.672177 l -1.752007,-0.88325 4.226922,-4.226206 c 2.324806,-2.324412 5.384866,-5.089818 6.800127,-6.145347 l 2.573208,-1.919143 0.998667,0.779061 c 6.956332,5.426628 17.3083639,9.829263 28.1184606,11.958548 11.6868044,2.301975 24.9641824,2.349653 39.5552064,0.142044 2.986712,-0.451887 12.060444,-2.223892 12.371236,-2.415974 0.272016,-0.168116 -1.831781,-4.19441 -3.601066,-6.891806 l -1.42427,-2.171398 1.5241,1.172769 c 2.498434,1.922501 8.340637,7.589302 10.346518,10.035886 5.556353,6.777103 9.608311,14.756502 12.377416,24.374469 2.246413,7.802491 2.852256,14.7947508 1.99553,23.0311954 C 73.934242,9.893542 71.86628,17.057191 68.096021,24.508871 62.435644,35.696248 54.797888,44.172551 44.696414,50.477508 c -3.857569,2.40775 -10.21032,5.387456 -14.461058,6.782842 -8.162078,2.679359 -15.798651,3.672623 -24.5931491,3.198752 z"
       id="path92824" /><path
       style="fill:#f6931c;stroke-width:0.264583"
       d="M 20.48704,50.252914 C 7.6914312,49.86959 -11.047619,47.632745 -29.122332,44.331136 l -5.820834,-1.063259 -1.277511,-1.243566 c -1.418217,-1.380532 -5.22057,-5.711367 -6.394902,-7.28372 l -0.756624,-1.013071 2.494727,1.618766 c 5.77474,3.74708 13.141965,6.9347 19.824935,8.577765 5.087535,1.250818 8.515196,1.735259 13.626041,1.925818 9.8291381,0.366479 19.653519,-1.511401 28.589495,-5.464736 6.813606,-3.014385 13.602983,-7.4807 18.430811,-12.124507 l 1.247389,-1.199843 2.558227,0.334697 c 3.157217,0.413063 7.841339,1.545503 11.373974,2.749791 2.770211,0.944372 7.708651,3.026066 7.89532,3.328099 0.145555,0.235513 -2.567985,3.61783 -5.213697,6.498661 -2.28347,2.486395 -6.867091,6.540098 -9.253458,8.183652 -1.287102,0.88646 -1.676704,1.003713 -4.498046,1.353704 -6.143095,0.762058 -14.095941,1.016754 -23.216475,0.743527 z M 55.986259,4.069809 c 1.670878,-4.09701727 3.447399,-11.2700512 3.915325,-15.808854 0.157525,-1.527969 0.349348,-3.386145 0.426276,-4.12928 l 0.139866,-1.351153 2.697679,-0.462468 c 1.483719,-0.25436 4.408331,-0.813028 6.499132,-1.241489 2.090798,-0.428461 3.833444,-0.743423 3.872544,-0.699918 0.0391,0.04351 0.319167,1.50785 0.622369,3.2541 0.698243,4.021439 1.156377,9.3991269 1.04798,12.3014604 l -0.08393,2.2472967 -0.926042,0.4546389 c -2.882532,1.41518211 -17.648247,6.8247285 -18.628547,6.8247285 -0.08203,0 0.105778,-0.6250781 0.417351,-1.3890625 z m 2.715852,-38.761458 c -0.617011,-2.810361 -2.499341,-8.434538 -3.785607,-11.310937 -0.585666,-1.309687 -0.981652,-2.455915 -0.879968,-2.547173 0.101682,-0.09125 0.981359,-0.340034 1.954837,-0.552838 l 1.769957,-0.386922 2.057641,2.469867 c 1.131704,1.358426 2.696731,3.393141 3.477842,4.521591 1.518896,2.194309 4.550642,7.192248 4.550642,7.501896 0,0.294544 -7.256899,2.355037 -8.294264,2.355037 -0.284922,0 -0.531122,-0.593177 -0.85108,-2.050521 z"
       id="path92822" /></g></svg>
