<?xml version="1.0" encoding="UTF-8" standalone="no"?>
<!-- Created with Inkscape (http://www.inkscape.org/) -->

<svg
   width="10.060951mm"
   height="8.4082642mm"
   version="1.1"
   viewBox="0 0 10.060951 8.4082644"
   id="svg381261"
   sodipodi:docname="whale.svg"
   inkscape:version="1.2.2 (b0a8486541, 2022-12-01)"
   xmlns:inkscape="http://www.inkscape.org/namespaces/inkscape"
   xmlns:sodipodi="http://sodipodi.sourceforge.net/DTD/sodipodi-0.dtd"
   xmlns="http://www.w3.org/2000/svg"
   xmlns:svg="http://www.w3.org/2000/svg">
  <defs
     id="defs381265" />
  <sodipodi:namedview
     id="namedview381263"
     pagecolor="#ffffff"
     bordercolor="#000000"
     borderopacity="0.25"
     inkscape:showpageshadow="2"
     inkscape:pageopacity="0.0"
     inkscape:pagecheckerboard="0"
     inkscape:deskcolor="#d1d1d1"
     inkscape:document-units="mm"
     showgrid="false"
     inkscape:zoom="7.5361674"
     inkscape:cx="12.406837"
     inkscape:cy="17.780921"
     inkscape:window-width="1503"
     inkscape:window-height="934"
     inkscape:window-x="0"
     inkscape:window-y="0"
     inkscape:window-maximized="1"
     inkscape:current-layer="svg381261" />
  <g
     transform="matrix(1.1060949,0,0,1.1060949,-149.46133,-88.554456)"
     id="g381106">
    <path
       d="m 141.14,86.721 c 0.0328,-0.0276 0.0728,-0.0838 0.0882,-0.12585 0.0434,-0.11832 0.0499,-0.41259 0.0119,-0.54422 -0.0807,-0.2801 -0.35151,-0.67422 -0.76678,-1.116 -0.0673,-0.0716 -0.0716,-0.0803 -0.0246,-0.0502 0.11863,0.0759 0.35125,0.31047 0.4996,0.50416 0.13453,0.17561 0.31555,0.47554 0.33495,0.55487 0.009,0.0361 0.29237,0.0127 0.58475,-0.0485 0.86194,-0.17993 1.4299,-0.65701 1.6368,-1.3749 0.16392,-0.5688 0.16482,-1.0781 0.003,-1.528 -0.0513,-0.14245 -0.0561,-0.17479 -0.0408,-0.27313 0.0227,-0.14504 0.04,-0.17324 0.16433,-0.26798 0.17221,-0.13123 0.45889,-0.46535 0.46283,-0.53941 0.003,-0.0526 -0.0493,-0.0531 -0.23525,-0.002 -0.23551,0.0642 -0.33913,0.0754 -0.59654,0.065 -0.31172,-0.0123 -0.33223,9.8e-4 -0.22033,0.14934 0.0451,0.0597 0.1019,0.16383 0.12665,0.23148 0.0378,0.10425 0.043,0.15063 0.0343,0.30138 -0.009,0.15283 -0.0189,0.19378 -0.0695,0.28763 -0.0739,0.13694 -0.21733,0.28941 -0.34914,0.37121 -0.3293,0.2043 -0.61741,0.18043 -1.8057,-0.14989 -1.1056,-0.30733 -2.7646,-0.73537 -3.4221,-0.88295 -0.85035,-0.19085 -1.2219,-0.24506 -1.5609,-0.2277 -0.30367,0.0156 -0.34221,0.0215 -0.44122,0.0684 -0.21108,0.0999 -0.29818,0.4543 -0.25122,1.0226 0.0674,0.81497 0.33831,1.3478 0.78687,1.5476 0.1332,0.0593 0.4611,0.0801 0.66673,0.0423 0.19969,-0.0368 0.58604,-0.029 0.78353,0.016 0.21576,0.049 0.4272,0.14099 0.52317,0.2274 0.10046,0.0905 0.112,0.0863 -0.38253,0.13909 -0.87787,0.0938 -1.2207,0.16015 -1.2248,0.23728 -0.005,0.10029 0.20172,0.12776 1.2591,0.16728 1.0374,0.0387 1.022,0.0365 1.8598,0.2654 0.11274,0.0309 0.31956,0.075 0.4596,0.098 l 0.25465,0.0419 0.13189,0.24894 c 0.0731,0.13656 0.17276,0.29858 0.22172,0.35987 0.16636,0.20597 0.37565,0.28345 0.49687,0.18389 z m -1.3832,-1.0366 c -0.30721,-0.0832 -0.75703,-0.1837 -1.2014,-0.26842 l -0.12299,-0.0234 0.10635,-0.0231 c 0.16902,-0.0368 0.78088,0.01 1.1435,0.0874 0.47059,0.10051 0.48704,0.10711 0.52391,0.21251 0.0479,0.13703 0.0412,0.16493 -0.0326,0.13564 -0.0335,-0.0133 -0.22107,-0.0675 -0.4169,-0.12053 z m 1.5398,0.0777 c -0.0231,-0.0643 -0.0278,-0.10019 -0.0136,-0.10338 0.0118,-0.003 0.11447,-0.0146 0.22779,-0.0267 0.2831,-0.0304 0.50943,-0.0898 0.74905,-0.19665 0.26165,-0.1166 0.41101,-0.22134 0.60961,-0.42729 0.24972,-0.259 0.40496,-0.5573 0.51136,-0.98241 0.0434,-0.1733 0.0865,-0.71499 0.07,-0.87924 l -0.009,-0.0848 0.0227,0.0962 c 0.0642,0.272 0.0682,0.82882 0.008,1.0947 -0.10195,0.44774 -0.32287,0.80238 -0.66882,1.0736 -0.3031,0.23763 -0.77513,0.43445 -1.216,0.507 -0.25509,0.0419 -0.25043,0.043 -0.29128,-0.0711 z m -2.6544,0.27358 c 0.2143,-0.0679 0.58937,-0.25154 0.55847,-0.27331 -0.015,-0.01 -0.18593,-0.045 -0.38067,-0.0773 -0.40022,-0.0662 -0.37144,-0.0723 -0.46423,0.0971 -0.0625,0.11412 -0.0791,0.2485 -0.0335,0.27127 0.0603,0.0302 0.1923,0.0229 0.31993,-0.0177 z m 4.2485,-2.9348 c 0.15865,-0.16289 0.2184,-0.29085 0.22931,-0.49142 0.007,-0.12987 2.3e-4,-0.18005 -0.0394,-0.28808 -0.0264,-0.0719 -0.0737,-0.16737 -0.1053,-0.21201 -0.0572,-0.0807 -0.0582,-0.0812 -0.20911,-0.0909 -0.0834,-0.004 -0.1703,-3.3e-4 -0.19303,0.0113 -0.0564,0.0284 -0.53266,0.0877 -0.69774,0.0866 -0.12877,-5.4e-4 -0.13409,9.8e-4 -0.14291,0.0549 -0.0131,0.0799 0.11446,0.2313 0.25009,0.29692 0.14825,0.0717 0.36493,0.13214 0.56829,0.1585 0.0965,0.0124 0.2029,0.0292 0.23665,0.037 l 0.0613,0.0143 -0.009,0.16349 c -0.004,0.0899 -0.0237,0.20855 -0.042,0.26364 -0.0184,0.055 -0.0309,0.10315 -0.0279,0.10689 0.004,0.003 0.0572,-0.0462 0.12035,-0.11117 z"
       fill="#0000ff"
       stroke-width="0.02002"
       id="path381104" />
  </g>
</svg>
